<svg xmlns="http://www.w3.org/2000/svg" viewBox="0 0 397.4 397.5"><defs><style>.cls-1{fill:#eeeeee;}.cls-2{fill:#fff;}.cls-3{fill:#faa;}.cls-4{fill:#555;}.cls-5{fill:#222;}.cls-6{fill:#e34;}</style></defs><g id="Capa_2" data-name="Capa 2"><g id="Layer_1" data-name="Layer 1"><path class="cls-1" d="M393.6,206.6c-13.8-100.7-14.3-233.8-170-194.1l-5,10.7-1.2-3.3a1.5,1.5,0,0,1-.1-.7l2.9-5.8q-7.3,1.9-15.3,4.5L198.2,20l.5,11a1,1,0,0,1-.7,1l-1.7.4h-.1l-.5-11.6C29,72.5-12.9,52,3.2,199.1S25.5,413.9,194.5,386c-18.3-6-32.7-12.1-33.8-12.6a2.6,2.6,0,0,1-1.5-2.6c2.5-22.4,3.6-48.6,1-51.8a66.7,66.7,0,0,0-7.2-3.2c-14.7-5.8-42-16.5-52.4-39.9-13-29.2-4.6-83.1,11.4-103.6a85.2,85.2,0,0,1,30.4-24.5h-.2l30.5-38.3c.2.8.5,1.6.7,2.5a.8.8,0,0,1-.2.8l-26.3,33.1a97.3,97.3,0,0,1,30.1-6.6l3.1-8.9c.5.9.9,1.9,1.4,2.7a1.1,1.1,0,0,1,.1.8l-1.9,5.3a123.4,123.4,0,0,1,14.8.5,23.4,23.4,0,0,1,4.5.7l-.6-18.6a.9.9,0,0,1,.8-.9,5.8,5.8,0,0,0,1.7-.6l.7,20.8c23.8,7,62.2,37.6,81.6,72.2,22.1,39.6,19.6,50.9,19.3,52a1.4,1.4,0,0,0-.2.6l-11.7,20.4a30.7,30.7,0,0,0-4.1,14.7l-1.4,63.9c0,.1,0,.7-.1,1.7C394.6,335.7,405.5,292.9,393.6,206.6ZM148.6,61.5a1,1,0,0,1,1.2-.5L168,67.1a21.7,21.7,0,0,0-.7,2.4L147.8,63A3.6,3.6,0,0,0,148.6,61.5ZM112.7,48.6l26.1,8.7a.9.9,0,0,1,.6,1.2,4.1,4.1,0,0,0-.3,1.6L111.9,51ZM91.4,82.7V80.2l19-.5a.9.9,0,0,1,.9.9,7.5,7.5,0,0,0,.4,1.6Zm48.3,20.6-33.2,13-.9-2.3,33.1-13a1,1,0,0,1,1.4.6.1.1,0,0,1,.1.1A1.1,1.1,0,0,1,139.7,103.3ZM120.5,82a12.1,12.1,0,0,0,.5-1.8,1.1,1.1,0,0,1,.9-.8l44.2-1.1c0,.9.1,1.7.1,2.5Zm47,10.4-17.9,7a4.7,4.7,0,0,0-.2-1.7,1,1,0,0,1,.6-1.2l17.6-6.9.5,1.7A1.1,1.1,0,0,1,167.5,92.4Zm7-54.8a24.4,24.4,0,0,1-1,2.4l-2.4-4a.8.8,0,0,1,.2-1.2,7.6,7.6,0,0,0,1.1-1.4l2.1,3.3A1,1,0,0,1,174.5,37.6Zm31.6,50.8-4.4,13.5a3.1,3.1,0,0,1-5.8.1l-4.5-13.1a30.2,30.2,0,0,1-.1-19.9l4.6-13.5a3.1,3.1,0,0,1,5.8.1l4.5,13.9A30.5,30.5,0,0,1,206.1,88.4Zm62-38.3,22.8-9,.9,2.4L269,52.4a1,1,0,0,1-1.4-.7c-.1-.1-.1-.1-.1-.2A1.1,1.1,0,0,1,268.1,50.1Zm-9.9,5.2v.2a1,1,0,0,1-.6,1.4L230.4,67.6a20.7,20.7,0,0,0-.4-2.2.4.4,0,0,0-.1-.3l26.8-10.5A1.1,1.1,0,0,1,258.2,55.3Zm-6.6,23.3-21.4.6a9.9,9.9,0,0,0,.2-1.7,1.2,1.2,0,0,1,1-.9l18.9-.4a.9.9,0,0,1,.9.9A8.3,8.3,0,0,0,251.6,78.6ZM223.8,45.2,253.2,8.3l2,1.5L223.9,49.1l-.3-3.2A1,1,0,0,1,223.8,45.2Zm10,90.9h-.1a1.1,1.1,0,0,1-1.5-.3l-10.7-17.4a1.1,1.1,0,0,1,0-.8c.2-.9.5-1.9.8-2.8l12,19.7A1,1,0,0,1,233.8,136.1Zm14.7,26.4L238.4,146a.8.8,0,0,1,.2-1.2l1.2-1.2,10.8,17.5Zm19.6-60.9a5,5,0,0,0-.3,1.6L228.2,89.9a20.5,20.5,0,0,1,.5-2.4l38.8,13A.8.8,0,0,1,268.1,101.6Zm16.6,7.3-8.1-2.7a10.1,10.1,0,0,0,.7-1.5.9.9,0,0,1,1.2-.5l7,2.3ZM260.6,78.4a4.7,4.7,0,0,0,.4-1.7,1,1,0,0,1,.9-.8L306,74.7v2.6Z"/><path class="cls-1" d="M207.2,148.4a34.2,34.2,0,0,0-5.5-2.1h0Z"/><path class="cls-2" d="M152.6,276.2l.9.5-.7-.6Z"/><path class="cls-2" d="M267.6,370.5c-9.3,6-26.5-5.3-44.4-18.5s-26.4-43.5-27.2-46.2c-4.8-.7-10.8-3.8-16.8-7.8a38.4,38.4,0,0,1,7.7,22.5h0c.2,11.6-9.3,44.2-20.1,50,12.8,5.2,53.1,20.7,80.9,22,9.8.4,17.6-2,23.2-7.1,8.7-8.2,9.2-20.6,9.2-20.7l.5-23.1C278.4,351,273.9,366.5,267.6,370.5Z"/><path class="cls-2" d="M201.9,151.5h-2.5l-.2-6a38,38,0,0,0-5.1-1,109.2,109.2,0,0,0-16.1-.3l-2.2,6.1-2.4-.8,1.8-5.1c-24.4,1.9-44.7,12.4-59.2,31a57.5,57.5,0,0,0-8,14.9l16.2,64.4a28.1,28.1,0,0,1,3.7-8.5c3.7-5.6,14.9-1.1,16.1-.5a1.4,1.4,0,0,1,.8,1.9,1.5,1.5,0,0,1-2,.8c-2.6-1.1-10.4-3.6-12.5-.5v.2h0s-2.6,16.9,6.1,19.4a50,50,0,0,0,16.7,1.4,1,1,0,0,0,.1-.4,1.5,1.5,0,0,1,1.5-1.5h0a1.5,1.5,0,0,1,1.4,1.5,10.5,10.5,0,0,1-1.4,5.3c7.9,7.8,33.7,30.8,44.2,29,2.7-.4,7.8-2.5,15.6-6.3a1.7,1.7,0,0,1,1.9.4c10.1-4.9,22.7-11.3,34.4-17.3a.2.2,0,0,1-.2-.2,1.5,1.5,0,0,1,.6-2.1c18.8-10.1,30.4-16.3,33.7-16.7H289c4.1-1.3,5.8-.3,6.6.8l2.1.6c-.3-4.5-2.8-17.5-18.9-46.3-18.2-32.5-50.1-57.9-71.6-67.2l-5.5-2.1Zm57.3,49.9a1.5,1.5,0,1,1,2.9.7c-1.7,6.8-30.8,12.3-39.7,13.8h-.2a1.4,1.4,0,0,1-1.5-1.2,1.6,1.6,0,0,1,1.2-1.8C239.2,210,258.3,204.7,259.2,201.4ZM226.4,163c.9-.7,3.9,1.6,6.9,5.2s4.6,7,3.7,7.8-3.9-1.7-6.9-5.2S225.5,163.7,226.4,163Zm-18.1-1.8a4.5,4.5,0,0,1,5.2.4l26.1,21.7c3.5,3,2.2,8.9-2.4,9.7-1.4.7-3.1-.1-4.7-1.6-4.2-4.2-16.4-15.4-24.9-23A4.5,4.5,0,0,1,208.3,161.2Zm-4.9,28.4c-1.3,1.1-5.6-1.5-10.1-7.1s-4.7-9.3-3.4-10.4,3.7.7,8.3,6.4S204.8,188.5,203.4,189.6Z"/><path class="cls-2" d="M296.6,265.5l.5-.7-.7-.2Z"/><path class="cls-2" d="M201.7,55.6a3.1,3.1,0,0,0-5.8-.1L191.3,69a30.2,30.2,0,0,0,.1,19.9l4.5,13.1a3.1,3.1,0,0,0,5.8-.1l4.4-13.5a30.5,30.5,0,0,0,.1-18.9Z"/><path class="cls-3" d="M232.5,191.4c1.6,1.5,3.3,2.3,4.7,1.6,4.6-.8,5.9-6.7,2.4-9.7l-26.1-21.7a4.5,4.5,0,0,0-5.2-.4,4.5,4.5,0,0,0-.7,7.2C216.1,176,228.3,187.2,232.5,191.4Z"/><path class="cls-1" d="M285.1,263.6c-2.8.3-18.7,8.9-32.6,16.4l-.7.2a1.3,1.3,0,0,1-1.1-.6c-11.7,6-24.3,12.4-34.4,17.3,0,.1.1.2.1.3a1.4,1.4,0,0,1-.7,2c-8.2,4-13.4,6-16.4,6.6H196c.8,2.7,10,33.5,27.2,46.2s35.1,24.5,44.4,18.5c6.3-4,10.8-19.5,13-28.9l.9-40.8a36.5,36.5,0,0,1,4.7-17.1l10.4-18.2-.2-.9A32.3,32.3,0,0,0,285.1,263.6Z"/><path class="cls-1" d="M289,260.5a49.7,49.7,0,0,1,6.6.8C294.8,260.2,293.1,259.2,289,260.5Z"/><path class="cls-4" d="M189.9,172.1c-1.3,1.1-1.2,4.8,3.4,10.4s8.8,8.2,10.1,7.1-.6-5.5-5.2-11.1S191.3,171,189.9,172.1Z"/><path class="cls-4" d="M237,176c.9-.8-.8-4.2-3.7-7.8s-6-5.9-6.9-5.2.8,4.2,3.7,7.8S236.1,176.7,237,176Z"/><path class="cls-4" d="M220.7,214.7a1.4,1.4,0,0,0,1.5,1.2h.2c8.9-1.5,38-7,39.7-13.8a1.5,1.5,0,1,0-2.9-.7c-.9,3.3-20,8.6-37.3,11.5A1.6,1.6,0,0,0,220.7,214.7Z"/><path class="cls-4" d="M289,260.5h-4.2c-3.3.4-14.9,6.6-33.7,16.7a1.5,1.5,0,0,0-.6,2.1.2.2,0,0,0,.2.2,1.3,1.3,0,0,0,1.1.6l.7-.2c13.9-7.5,29.8-16.1,32.6-16.4a32.3,32.3,0,0,1,11.3,1l.7.2.6-1.1a10.1,10.1,0,0,0,0-1.8l-2.1-.6A49.7,49.7,0,0,0,289,260.5Z"/><path class="cls-1" d="M126.5,264a6.9,6.9,0,0,0,3.4,4.8c7.9,4.7,12.2,6.9,18.1,6.2,4.3-.6,4.9-4.8,5-6.1a50,50,0,0,1-16.7-1.4c-8.7-2.5-6.1-19.4-6.1-19.4h0C128,251.6,125.4,258.8,126.5,264Z"/><path class="cls-1" d="M186.9,320.5h0a38.4,38.4,0,0,0-7.7-22.5c-10.6-7.1-21.3-17-25.7-21.3l-.9-.5a8.5,8.5,0,0,1-4.2,1.7l-2.6.2c-5.8,0-10.6-2.6-17.5-6.7a10.5,10.5,0,0,1-4.7-6.8,21,21,0,0,1,.6-9.9L108,190.3c-9.3,23.9-12.6,61.7-2.9,83.5s35.7,31.9,49.7,37.4c4.2,1.7,6.9,2.7,8.4,3.8s4.4,6.6,3.1,30.7c-.6,10-1.5,19.8-1.9,23.8l2.4,1C177.6,364.7,187.1,332.1,186.9,320.5Z"/><path class="cls-5" d="M286.5,300.9a30.7,30.7,0,0,1,4.1-14.7l11.7-20.4a1.4,1.4,0,0,1,.2-.6c.3-1.1,2.8-12.4-19.3-52-19.4-34.6-57.8-65.2-81.6-72.2v5.3a34.2,34.2,0,0,1,5.5,2.1c21.5,9.3,53.4,34.7,71.6,67.2,16.1,28.8,18.6,41.8,18.9,46.3a10.1,10.1,0,0,1,0,1.8l-.6,1.1-.5.7-10.4,18.2a36.5,36.5,0,0,0-4.7,17.1l-.9,40.8-.5,23.1c0,.1-.5,12.5-9.2,20.7-5.6,5.1-13.4,7.5-23.2,7.1-27.8-1.3-68.1-16.8-80.9-22l-2.4-1c.4-4,1.3-13.8,1.9-23.8,1.3-24.1-.8-29-3.1-30.7s-4.2-2.1-8.4-3.8c-14-5.5-40.1-15.8-49.7-37.4s-6.4-59.6,2.9-83.5a57.5,57.5,0,0,1,8-14.9c14.5-18.6,34.8-29.1,59.2-31l1.8-5.2a97.3,97.3,0,0,0-30.1,6.6l-2.7,3.4-1.8-1.4A85.2,85.2,0,0,0,112,172.3c-16,20.5-24.4,74.4-11.4,103.6C111,299.3,138.3,310,153,315.8a66.7,66.7,0,0,1,7.2,3.2c2.6,3.2,1.5,29.4-1,51.8a2.6,2.6,0,0,0,1.5,2.6c1.1.5,15.5,6.6,33.8,12.6,16.7,5.4,36.7,10.7,53,11.4h2.6c10,0,18.1-2.9,24.2-8.5,8.3-7.7,10.2-18.3,10.7-22.5.1-1,.1-1.6.1-1.7Z"/><path class="cls-5" d="M178,144.2a109.2,109.2,0,0,1,16.1.3,38,38,0,0,1,5.1,1l-.2-5.2a23.4,23.4,0,0,0-4.5-.7,123.4,123.4,0,0,0-14.8-.5Z"/><path class="cls-4" d="M123.6,264.6a10.5,10.5,0,0,0,4.7,6.8c6.9,4.1,11.7,6.7,17.5,6.7l2.6-.2a8.5,8.5,0,0,0,4.2-1.7h.2l.7.6c4.4,4.3,15.1,14.2,25.7,21.3,6,4,12,7.1,16.8,7.8h3.3c3-.6,8.2-2.6,16.4-6.6a1.4,1.4,0,0,0,.7-2c0-.1-.1-.2-.1-.3a1.7,1.7,0,0,0-1.9-.4c-7.8,3.8-12.9,5.9-15.6,6.3-10.5,1.8-36.3-21.2-44.2-29a10.5,10.5,0,0,0,1.4-5.3,1.5,1.5,0,0,0-1.4-1.5h0a1.5,1.5,0,0,0-1.5,1.5,1,1,0,0,1-.1.4c-.1,1.3-.7,5.5-5,6.1-5.9.7-10.2-1.5-18.1-6.2a6.9,6.9,0,0,1-3.4-4.8c-1.1-5.2,1.5-12.4,3.7-15.9v-.2c2.1-3.1,9.9-.6,12.5.5a1.5,1.5,0,0,0,2-.8,1.4,1.4,0,0,0-.8-1.9c-1.2-.6-12.4-5.1-16.1.5a28.1,28.1,0,0,0-3.7,8.5A21,21,0,0,0,123.6,264.6Z"/><path class="cls-6" d="M255.2,9.8l-2-1.5L223.8,45.2a1,1,0,0,0-.2.7l.3,3.2Z"/><path class="cls-6" d="M146.9,145.8l26.3-33.1a.8.8,0,0,0,.2-.8c-.2-.9-.5-1.7-.7-2.5l-30.5,38.3h.2l1.8,1.4Z"/><path class="cls-6" d="M230,65.4a20.7,20.7,0,0,1,.4,2.2l27.2-10.7a1,1,0,0,0,.6-1.4v-.2a1.1,1.1,0,0,0-1.5-.7L229.9,65.1A.4.4,0,0,1,230,65.4Z"/><path class="cls-6" d="M267.6,51.7a1,1,0,0,0,1.4.7l22.8-8.9-.9-2.4-22.8,9a1.1,1.1,0,0,0-.6,1.4C267.5,51.6,267.5,51.6,267.6,51.7Z"/><path class="cls-6" d="M140.1,101.6a1,1,0,0,0-1.4-.6l-33.1,13,.9,2.3,33.2-13a1.1,1.1,0,0,0,.5-1.6A.1.1,0,0,0,140.1,101.6Z"/><path class="cls-6" d="M167.6,89.6,150,96.5a1,1,0,0,0-.6,1.2,4.7,4.7,0,0,1,.2,1.7l17.9-7a1.1,1.1,0,0,0,.6-1.1Z"/><path class="cls-6" d="M250.3,76.2l-18.9.4a1.2,1.2,0,0,0-1,.9,9.9,9.9,0,0,1-.2,1.7l21.4-.6a8.3,8.3,0,0,1-.4-1.5A.9.9,0,0,0,250.3,76.2Z"/><path class="cls-6" d="M261.9,75.9a1,1,0,0,0-.9.8,4.7,4.7,0,0,1-.4,1.7l45.5-1.1V74.7Z"/><path class="cls-6" d="M166.1,78.3l-44.2,1.1a1.1,1.1,0,0,0-.9.8,12.1,12.1,0,0,1-.5,1.8l45.7-1.2C166.2,80,166.1,79.2,166.1,78.3Z"/><path class="cls-6" d="M111.2,80.6a.9.9,0,0,0-.9-.9l-19,.5v2.5l20.2-.5A7.5,7.5,0,0,1,111.2,80.6Z"/><path class="cls-6" d="M168,67.1,149.8,61a1,1,0,0,0-1.2.5,3.6,3.6,0,0,1-.8,1.5l19.5,6.5A21.7,21.7,0,0,1,168,67.1Z"/><path class="cls-6" d="M139.4,58.5a.9.9,0,0,0-.6-1.2l-26.1-8.7-.8,2.4,27.2,9.1A4.1,4.1,0,0,1,139.4,58.5Z"/><path class="cls-6" d="M267.5,100.5l-38.8-13a20.5,20.5,0,0,0-.5,2.4l39.6,13.3a5,5,0,0,1,.3-1.6A.8.8,0,0,0,267.5,100.5Z"/><path class="cls-6" d="M277.3,104.7a10.1,10.1,0,0,1-.7,1.5l8.1,2.7.8-2.4-7-2.3A.9.9,0,0,0,277.3,104.7Z"/><path class="cls-6" d="M166.2,26.3l1.6-.5L150,0l-2.2,1.3L165,26A.8.8,0,0,0,166.2,26.3Z"/><path class="cls-6" d="M172.4,33.4a7.6,7.6,0,0,1-1.1,1.4.8.8,0,0,0-.2,1.2l2.4,4a24.4,24.4,0,0,0,1-2.4,1,1,0,0,0,0-.9Z"/><path class="cls-6" d="M222.3,114.9c-.3.9-.6,1.9-.8,2.8a1.1,1.1,0,0,0,0,.8l10.7,17.4a1.1,1.1,0,0,0,1.5.3h.1a1,1,0,0,0,.5-1.5Z"/><path class="cls-6" d="M238.6,144.8a.8.8,0,0,0-.2,1.2l10.1,16.5,2.1-1.4-10.8-17.5Z"/><path class="cls-6" d="M196.3,32.4,198,32a1,1,0,0,0,.7-1l-.5-11L197.2.5h-2.5l1,20.2.5,11.6Z"/><path class="cls-6" d="M199.2,145.5l.2,6h2.5l-.2-5.2h0V141l-.7-20.8a5.8,5.8,0,0,1-1.7.6.9.9,0,0,0-.8.9l.6,18.6Z"/><path class="cls-6" d="M175.2,144.4l-1.8,5.1,2.4.8,2.2-6.1,1.7-5.1,1.9-5.3a1.1,1.1,0,0,0-.1-.8c-.5-.8-.9-1.8-1.4-2.7l-3.1,8.9Z"/><path class="cls-6" d="M217.4,19.9l1.2,3.3,5-10.7,4.6-9.8-2.4-.8-5.6,11.5-2.9,5.8A1.5,1.5,0,0,0,217.4,19.9Z"/></g></g></svg>