<?xml version="1.0" encoding="utf-8"?>
<!-- Generator: Adobe Illustrator 24.2.0, SVG Export Plug-In . SVG Version: 6.00 Build 0)  -->
<svg version="1.1" id="KLPVC_Logo" xmlns="http://www.w3.org/2000/svg" xmlns:xlink="http://www.w3.org/1999/xlink" x="0px" y="0px"
	 viewBox="0 0 2266 1000" style="enable-background:new 0 0 2266 1000;" xml:space="preserve">
<style type="text/css">
	.st0{fill:#F0EA38;}
	.st1{fill:#5DBA47;}
</style>
<rect x="-0.8" y="-0.2" class="st0" width="2268.9" height="1000"/>
<image style="overflow:visible;" width="504" height="793" xlink:href="../Propuesta/window.png"  transform="matrix(0.7461 0 0 0.7461 1749.8334 91.5)">
</image>
<g>
	<path d="M145.1,740.7c0.9-3.4,2.2-7.5,3.9-12.1c1.7-4.6,3.5-9.1,5.5-13.4h10.8c-1.1,4.4-2.2,9.3-3.2,14.7s-1.8,9.4-2.1,11.9h-14.1
		L145.1,740.7z M168.2,740.7c1.1-4.2,2.6-8.7,4.4-13.5c1.8-4.8,3.5-8.8,4.9-11.9h10.8c-2.3,9.5-4.1,18.4-5.4,26.7H169L168.2,740.7z"
		/>
	<path d="M224.1,793l-14.8-66.3h-0.6c0.7,5.1,1,9.8,1,14.1V793h-13.4v-77.8h22.2l13.3,61.2h0.4l13.2-61.2h22.6V793h-13.7v-52.7
		c0-4.4,0.2-8.8,0.7-13.4h-0.4L239.9,793H224.1z"/>
	<path d="M318.6,793l-4.5-19.6h-20.3l-4.5,19.6h-14.5l19.3-78.1h19.6l19.3,78.1H318.6z M296.5,709v-1.4c1.5-1.9,3.1-4.6,5.1-8
		s3.3-6.1,4.1-8h16.9v1.1c-0.9,1.5-3,4-6.3,7.4c-3.4,3.4-6.6,6.4-9.8,9H296.5z M311.4,760.6l-4.2-18.1c-0.2-1.1-0.8-3.9-1.7-8.3
		c-0.9-4.4-1.4-7.4-1.6-8.9c-0.5,3.1-1,6.4-1.8,10.1c-0.7,3.7-2.6,12.1-5.5,25.1H311.4z"/>
	<path d="M375.5,771.6c0,7.3-1.8,12.8-5.5,16.7c-3.7,3.9-9,5.8-15.9,5.8c-6.8,0-12.5-1.3-17.3-4v-14.3c5.8,3.8,11.2,5.7,16,5.7
		c2.8,0,4.9-0.8,6.3-2.3c1.4-1.5,2.1-3.6,2.1-6.2c0-2.6-0.8-5-2.5-7.1c-1.7-2.1-4.4-4.5-8.2-7.2c-3.3-2.3-5.9-4.5-7.6-6.6
		c-1.7-2.1-3.1-4.5-4-7.1c-0.9-2.6-1.4-5.7-1.4-9.2c0-6.7,1.9-12,5.6-15.9c3.7-3.9,8.7-5.9,14.9-5.9c6,0,11.7,1.7,17.2,5l-4.8,11.6
		c-1.7-1-3.5-1.9-5.3-2.7c-1.9-0.8-3.9-1.2-6-1.2c-2.3,0-4.1,0.8-5.4,2.3c-1.3,1.5-1.9,3.6-1.9,6.3c0,2.6,0.8,4.9,2.3,6.9
		c1.5,2,4.1,4.2,7.9,6.7c5.1,3.4,8.6,6.9,10.6,10.4C374.5,763,375.5,767,375.5,771.6z"/>
	<path d="M465.5,754c0,8.9-1.2,16.4-3.5,22.6c-2.4,6.1-5.8,10.7-10.5,13.7l14.3,21.2h-16.7l-10.8-17.5h-0.8c-9,0-15.9-3.5-20.8-10.4
		c-4.8-6.9-7.2-16.8-7.2-29.8c0-12.9,2.4-22.8,7.2-29.6c4.8-6.9,11.8-10.3,20.9-10.3c9,0,15.9,3.5,20.7,10.4S465.5,741.1,465.5,754z
		 M424.4,754c0,8.9,1.1,15.6,3.4,20.3c2.2,4.6,5.5,7,9.8,7c8.7,0,13.1-9.1,13.1-27.2s-4.3-27.2-13-27.2c-4.4,0-7.7,2.3-10,6.9
		C425.5,738.3,424.4,745.1,424.4,754z"/>
	<path d="M524.7,715.2v50.3c0,9.3-2.1,16.3-6.3,21.2c-4.2,4.9-10.2,7.3-18.1,7.3c-7.7,0-13.6-2.4-17.7-7.3c-4-4.8-6.1-12-6.1-21.5
		v-50.1h14.4v51.2c0,9.9,3.3,14.8,9.8,14.8c3.1,0,5.4-1.3,7.1-3.8c1.7-2.5,2.5-6.1,2.5-10.8v-51.5H524.7z"/>
	<path d="M573.2,793h-35.1v-77.8h35.1v12.5h-20.6v18.5h19.1v12.6h-19.1v21.6h20.6V793z"/>
	<path d="M659.3,715.2v50.3c0,9.3-2.1,16.3-6.3,21.2c-4.2,4.9-10.2,7.3-18.1,7.3c-7.7,0-13.6-2.4-17.7-7.3c-4-4.8-6.1-12-6.1-21.5
		v-50.1h14.4v51.2c0,9.9,3.3,14.8,9.8,14.8c3.1,0,5.4-1.3,7.1-3.8c1.7-2.5,2.5-6.1,2.5-10.8v-51.5H659.3z"/>
	<path d="M727.2,793h-17.7l-24.1-56.4h-0.7c0.9,4.3,1.3,8.9,1.3,13.8V793h-13.4v-77.8h17.8l23.8,55.8h0.6c-0.7-3.7-1-8.2-1-13.3
		v-42.5h13.3V793z"/>
	<path d="M777.8,793l-4.5-19.6H753l-4.5,19.6h-14.5l19.3-78.1H773l19.3,78.1H777.8z M770.6,760.6l-4.2-18.1
		c-0.2-1.1-0.8-3.9-1.7-8.3c-0.9-4.4-1.4-7.4-1.6-8.9c-0.5,3.1-1,6.4-1.8,10.1c-0.7,3.7-2.6,12.1-5.5,25.1H770.6z"/>
	<path d="M859.6,715.2h14.6L855.9,793h-18.4l-18.2-77.8h14.6l10.2,47.5c0.9,4,1.8,9.8,2.7,17.4c0.7-6.4,1.7-12.2,2.8-17.4
		L859.6,715.2z"/>
	<path d="M916.1,793H881v-77.8h35.1v12.5h-20.6v18.5h19.1v12.6h-19.1v21.6h20.6V793z"/>
	<path d="M981.9,793h-17.7l-24.1-56.4h-0.7c0.9,4.3,1.3,8.9,1.3,13.8V793h-13.4v-77.8h17.8l23.8,55.8h0.6c-0.7-3.7-1-8.2-1-13.3
		v-42.5h13.3V793z"/>
	<path d="M1019.6,793h-14.4v-65.1h-14.9v-12.7h44.2v12.7h-14.9V793z"/>
	<path d="M1075.9,793l-4.5-19.6h-20.3l-4.5,19.6h-14.5l19.3-78.1h19.6l19.3,78.1H1075.9z M1068.7,760.6l-4.2-18.1
		c-0.2-1.1-0.8-3.9-1.7-8.3c-0.9-4.4-1.4-7.4-1.6-8.9c-0.5,3.1-1,6.4-1.8,10.1c-0.7,3.7-2.6,12.1-5.5,25.1H1068.7z"/>
	<path d="M1151.8,793h-17.7l-24.1-56.4h-0.7c0.9,4.3,1.3,8.9,1.3,13.8V793h-13.4v-77.8h17.8l23.8,55.8h0.6c-0.7-3.7-1-8.2-1-13.3
		v-42.5h13.3V793z"/>
	<path d="M1202.3,793l-4.5-19.6h-20.3l-4.5,19.6h-14.5l19.3-78.1h19.6l19.3,78.1H1202.3z M1195.1,760.6l-4.2-18.1
		c-0.2-1.1-0.8-3.9-1.7-8.3c-0.9-4.4-1.4-7.4-1.6-8.9c-0.5,3.1-1,6.4-1.8,10.1c-0.7,3.7-2.6,12.1-5.5,25.1H1195.1z"/>
	<path d="M1239.7,781.6c-1.8,7.2-5,15.7-9.4,25.5h-10.8c2.3-9.4,4.1-18.3,5.4-26.7h14.1L1239.7,781.6z"/>
	<path d="M1327.9,715.2v50.3c0,9.3-2.1,16.3-6.3,21.2c-4.2,4.9-10.2,7.3-18.1,7.3c-7.7,0-13.6-2.4-17.7-7.3c-4-4.8-6.1-12-6.1-21.5
		v-50.1h14.4v51.2c0,9.9,3.3,14.8,9.8,14.8c3.1,0,5.4-1.3,7.1-3.8c1.7-2.5,2.5-6.1,2.5-10.8v-51.5H1327.9z"/>
	<path d="M1395.8,793h-17.7l-24.1-56.4h-0.7c0.9,4.3,1.3,8.9,1.3,13.8V793h-13.4v-77.8h17.8L1383,771h0.6c-0.7-3.7-1-8.2-1-13.3
		v-42.5h13.3V793z"/>
	<path d="M1471.6,793h-35.1v-77.8h35.1v12.5H1451v18.5h19.1v12.6H1451v21.6h20.6V793z"/>
	<path d="M1518.4,771.6c0,7.3-1.8,12.8-5.5,16.7c-3.7,3.9-9,5.8-15.9,5.8c-6.8,0-12.5-1.3-17.3-4v-14.3c5.8,3.8,11.2,5.7,16,5.7
		c2.8,0,4.9-0.8,6.3-2.3c1.4-1.5,2.1-3.6,2.1-6.2c0-2.6-0.8-5-2.5-7.1c-1.7-2.1-4.4-4.5-8.2-7.2c-3.3-2.3-5.9-4.5-7.6-6.6
		c-1.7-2.1-3.1-4.5-4-7.1c-0.9-2.6-1.4-5.7-1.4-9.2c0-6.7,1.9-12,5.6-15.9s8.7-5.9,14.9-5.9c6,0,11.7,1.7,17.2,5l-4.8,11.6
		c-1.7-1-3.5-1.9-5.3-2.7c-1.9-0.8-3.9-1.2-6-1.2c-2.3,0-4.1,0.8-5.4,2.3c-1.3,1.5-1.9,3.6-1.9,6.3c0,2.6,0.8,4.9,2.3,6.9
		c1.5,2,4.1,4.2,7.9,6.7c5.1,3.4,8.6,6.9,10.6,10.4C1517.4,763,1518.4,767,1518.4,771.6z"/>
	<path d="M1551.8,793h-14.4v-65.1h-14.9v-12.7h44.2v12.7h-14.9V793z"/>
	<path d="M1577.7,793v-77.8h13.6V793H1577.7z"/>
	<path d="M1607.7,793v-77.8h14.5v65.1h20.1V793H1607.7z"/>
	<path d="M1705.1,754c0,12.9-2.4,22.8-7.2,29.7c-4.8,6.9-11.7,10.4-20.7,10.4c-9,0-15.9-3.5-20.8-10.4c-4.8-6.9-7.2-16.8-7.2-29.8
		c0-12.9,2.4-22.8,7.2-29.6c4.8-6.9,11.8-10.3,20.9-10.3c9,0,15.9,3.5,20.7,10.4S1705.1,741.1,1705.1,754z M1663.9,754
		c0,8.9,1.1,15.6,3.4,20.3c2.2,4.6,5.5,7,9.8,7c8.7,0,13.1-9.1,13.1-27.2s-4.3-27.2-13-27.2c-4.4,0-7.7,2.3-10,6.9
		C1665,738.3,1663.9,745.1,1663.9,754z"/>
	<path d="M1792.8,753.4c0,12.8-2.6,22.7-7.9,29.5c-5.2,6.8-12.8,10.2-22.6,10.2h-19.1v-77.8h20.8c9,0,16.1,3.3,21.1,10
		C1790.3,731.9,1792.8,741.3,1792.8,753.4z M1778,753.8c0-17.4-4.8-26.1-14.4-26.1h-5.8v52.6h4.7c5.3,0,9.2-2.2,11.7-6.6
		C1776.7,769.3,1778,762.7,1778,753.8z"/>
	<path d="M1839.2,793h-35.1v-77.8h35.1v12.5h-20.6v18.5h19.1v12.6h-19.1v21.6h20.6V793z"/>
	<path d="M1911,715.2h14.6l-18.3,77.8h-18.4l-18.2-77.8h14.6l10.2,47.5c0.9,4,1.8,9.8,2.7,17.4c0.7-6.4,1.7-12.2,2.8-17.4
		L1911,715.2z"/>
	<path d="M1935,793v-77.8h13.6V793H1935z"/>
	<path d="M2014.6,753.4c0,12.8-2.6,22.7-7.9,29.5c-5.2,6.8-12.8,10.2-22.6,10.2h-19.1v-77.8h20.8c9,0,16.1,3.3,21.1,10
		C2012.1,731.9,2014.6,741.3,2014.6,753.4z M1999.8,753.8c0-17.4-4.8-26.1-14.4-26.1h-5.8v52.6h4.7c5.3,0,9.2-2.2,11.7-6.6
		C1998.5,769.3,1999.8,762.7,1999.8,753.8z"/>
	<path d="M2062.8,793l-4.5-19.6H2038l-4.5,19.6h-14.5l19.3-78.1h19.6l19.3,78.1H2062.8z M2055.6,760.6l-4.2-18.1
		c-0.2-1.1-0.8-3.9-1.7-8.3c-0.9-4.4-1.4-7.4-1.6-8.9c-0.5,3.1-1,6.4-1.8,10.1c-0.7,3.7-2.6,12.1-5.5,25.1H2055.6z"/>
	<path d="M2096.5,716.4c-1.8,7-4.9,15.5-9.4,25.5h-10.8c2.3-9.1,4.1-18,5.4-26.7h14.1L2096.5,716.4z M2119.6,716.4
		c-1.7,6.8-4.9,15.3-9.4,25.5h-10.8c2.2-8.7,4-17.6,5.3-26.7h14.1L2119.6,716.4z"/>
</g>
<g>
	<path d="M175.3,832.1h4.2L165,893.5h-4.6L146,832.1h4.3l10,43.2c0.8,3.3,1.3,5.7,1.6,7.3c0.3,1.6,0.5,3.5,0.8,5.9
		c0.2-1.6,0.5-3.2,0.7-4.8c0.3-1.6,0.5-2.9,0.7-4C164.3,878.6,168,862.7,175.3,832.1z"/>
	<path d="M209.5,893.5l-5.4-22.3h-14.9l-5.3,22.3h-4.3l14.8-61.4h4.2l15.1,61.4H209.5z M203.1,867.1l-5.4-22.9c-0.6-2.6-1-5-1.3-7.3
		c-0.3,2.4-0.6,4.9-1.2,7.3l-5.2,22.9H203.1z"/>
	<path d="M248.3,893.5h-4.6l-14.4-30.6l-4.7,6.3v24.4h-4.1v-61.4h4.1v32.5c1.4-2.7,7.5-13.5,18.1-32.5h4.5l-15.4,27L248.3,893.5z"/>
	<path d="M275.2,893.5l-16.3-55.9h-0.3c0.3,5.9,0.4,9.6,0.4,11.2v44.7H255v-61.4h6.1l13.8,46.9c1.2,4.1,2,7.7,2.4,10.6h0.3
		c0.3-2.1,1.1-5.6,2.6-10.5l13.6-47h6.3v61.4h-4.1v-44.4c0-1.7,0.1-5.5,0.4-11.4h-0.3l-16.3,55.8H275.2z"/>
	<path d="M335.9,893.5h-22.3v-61.4h22.3v3.9h-18.1v23.3h17.1v3.9h-17.1v26.2h18.1V893.5z"/>
	<path d="M370.3,877.4c0,5-1.4,9.1-4.2,12.2c-2.8,3.1-6.4,4.7-10.7,4.7c-4.9,0-8.8-0.7-11.8-2.1v-4.5c1.5,0.8,3.3,1.5,5.4,1.9
		c2.2,0.5,4.3,0.7,6.4,0.7c3.1,0,5.7-1.2,7.7-3.6c2-2.4,3-5.4,3-9.1c0-3.4-0.7-6.1-2.1-8.1c-1.4-2-4.2-4-8.2-6
		c-3.2-1.6-5.5-3.1-7.1-4.6c-1.6-1.5-2.7-3.2-3.5-5.2c-0.8-2-1.1-4.4-1.1-7.1c0-3,0.6-5.7,1.8-8.1c1.2-2.4,3-4.2,5.2-5.5
		c2.2-1.3,4.6-2,7.3-2c2.4,0,4.5,0.3,6.5,0.8c1.9,0.5,3.5,1.1,4.6,1.7l-1.6,3.9c-3.1-1.6-6.3-2.4-9.5-2.4c-3,0-5.5,1-7.4,3.1
		c-1.9,2.1-2.8,4.8-2.8,8.2c0,3.4,0.7,6.1,2.1,8c1.4,1.9,4.1,3.9,8.1,5.9c4.1,2,7.2,4.4,9.1,7.1
		C369.3,870.3,370.3,873.5,370.3,877.4z"/>
	<path d="M403.9,893.5l-5.4-22.3h-14.9l-5.3,22.3H374l14.8-61.4h4.2l15.1,61.4H403.9z M397.5,867.1l-5.4-22.9c-0.6-2.6-1-5-1.3-7.3
		c-0.3,2.4-0.6,4.9-1.2,7.3l-5.2,22.9H397.5z"/>
	<path d="M421,885.8c-1.8,6.3-4.2,12.5-7,18.7h-2.6c2.1-7.1,3.5-13.7,4.2-19.7h4.8L421,885.8z"/>
	<path d="M472.3,877.4c0,5-1.4,9.1-4.2,12.2c-2.8,3.1-6.4,4.7-10.7,4.7c-4.9,0-8.8-0.7-11.8-2.1v-4.5c1.5,0.8,3.3,1.5,5.4,1.9
		c2.2,0.5,4.3,0.7,6.4,0.7c3.1,0,5.7-1.2,7.7-3.6c2-2.4,3-5.4,3-9.1c0-3.4-0.7-6.1-2.1-8.1c-1.4-2-4.2-4-8.2-6
		c-3.2-1.6-5.5-3.1-7.1-4.6c-1.6-1.5-2.7-3.2-3.5-5.2c-0.8-2-1.1-4.4-1.1-7.1c0-3,0.6-5.7,1.8-8.1c1.2-2.4,3-4.2,5.2-5.5
		c2.2-1.3,4.6-2,7.3-2c2.4,0,4.5,0.3,6.5,0.8c1.9,0.5,3.5,1.1,4.6,1.7l-1.6,3.9c-3.1-1.6-6.3-2.4-9.5-2.4c-3,0-5.5,1-7.4,3.1
		c-1.9,2.1-2.8,4.8-2.8,8.2c0,3.4,0.7,6.1,2.1,8c1.4,1.9,4.1,3.9,8.1,5.9c4.1,2,7.2,4.4,9.1,7.1
		C471.3,870.3,472.3,873.5,472.3,877.4z"/>
	<path d="M505.9,893.5l-5.4-22.3h-14.9l-5.3,22.3H476l14.8-61.4h4.2l15.1,61.4H505.9z M499.5,867.1l-5.4-22.9c-0.6-2.6-1-5-1.3-7.3
		c-0.3,2.4-0.6,4.9-1.2,7.3l-5.2,22.9H499.5z"/>
	<path d="M543.5,894.3c-8.8,0-13.3-7.9-13.3-23.6c0-7.7,1.1-13.6,3.3-17.7c2.2-4,5.5-6.1,9.8-6.1c2,0,4,0.6,5.8,1.8
		c1.8,1.2,3.3,2.8,4.4,4.9h0.3l-0.2-5.1v-20.5h4v65.3h-3.3l-0.3-6.4h-0.4c-1.1,2.3-2.5,4.1-4.2,5.4
		C547.7,893.7,545.7,894.3,543.5,894.3z M543.7,890.8c3.2,0,5.6-1.5,7.4-4.4c1.7-3,2.6-7.3,2.6-13v-2.6c0-6.9-0.8-11.9-2.5-15.1
		c-1.7-3.2-4.2-4.8-7.6-4.8c-3.3,0-5.6,1.7-7.1,5.1c-1.4,3.4-2.1,8.4-2.1,14.9c0,6.6,0.7,11.5,2.2,14.9
		C538.1,889.1,540.5,890.8,543.7,890.8z"/>
	<path d="M582.8,894.3c-4.8,0-8.5-2.1-11.1-6.2c-2.6-4.1-3.9-9.8-3.9-17.2c0-7.8,1.2-13.7,3.5-17.8c2.3-4.1,5.6-6.2,10-6.2
		c3.8,0,6.8,1.8,8.9,5.4c2.2,3.6,3.3,8.4,3.3,14.5v3.7h-21.6c0.1,6.6,1,11.6,2.8,14.9c1.8,3.3,4.6,5,8.3,5c2.9,0,5.9-0.9,9-2.8v3.9
		C589.1,893.4,586,894.3,582.8,894.3z M581,850.7c-5.5,0-8.5,5.5-9,16.4h17.5c0-5-0.8-9-2.3-12C585.7,852.1,583.6,850.7,581,850.7z"
		/>
	<path d="M637.7,835.1c-4.6,0-8.3,2.4-11,7.3c-2.7,4.9-4.1,11.7-4.1,20.3c0,5.6,0.6,10.5,1.9,14.7c1.3,4.2,3.1,7.4,5.4,9.6
		c2.4,2.2,5.1,3.4,8.2,3.4c3.2,0,5.9-0.6,8.2-1.7v3.8c-2.2,1.3-5.1,1.9-8.6,1.9c-3.9,0-7.3-1.3-10.2-3.8c-2.9-2.5-5.2-6.2-6.8-10.9
		c-1.6-4.8-2.4-10.4-2.4-17c0-9.8,1.7-17.5,5.2-23.1c3.5-5.6,8.2-8.4,14.3-8.4c3.8,0,7,0.9,9.8,2.6l-1.9,3.6
		C643.4,835.8,640.7,835.1,637.7,835.1z"/>
	<path d="M679.1,832.1h4.2l-14.5,61.4h-4.6l-14.4-61.4h4.3l10,43.2c0.8,3.3,1.3,5.7,1.6,7.3c0.3,1.6,0.5,3.5,0.8,5.9
		c0.2-1.6,0.5-3.2,0.7-4.8c0.3-1.6,0.5-2.9,0.7-4C668,878.6,671.8,862.7,679.1,832.1z"/>
</g>
<g>
	<path class="st1" d="M134.9,99.9h155.5v241.3L468,99.9h163.3L450.4,347.5l187.4,285.1H452.4L291.7,383.4h-1.3v249.1H134.9V99.9z"/>
	<path class="st1" d="M641.1,99.9h155.5V499h174.4v133.6H641.1V99.9z"/>
	<path class="st1" d="M977.5,319.5h134.6c18.1,0,33.8,2.7,47.2,8c13.4,5.4,24.2,12.6,32.5,21.8c8.3,9.2,14.3,19.7,18.2,31.4
		c3.8,11.8,5.7,24.3,5.7,37.4c0,13.2-1.9,25.7-5.7,37.6c-3.8,11.9-9.9,22.9-18.4,32.8c-8.4,9.9-19.6,17.8-33.6,23.6
		c-14,5.8-31,8.7-50.9,8.7h-38.2v111.5h-91.4V319.5z M1091.4,462.7c13.8,0,23.9-3.7,30.4-11.2c6.5-7.5,9.8-18.1,9.8-31.9
		c0-14.1-3.2-24.6-9.6-31.4c-6.4-6.9-16.7-10.3-31-10.3h-22.2v84.9H1091.4z"/>
	<path class="st1" d="M1198.5,319.5h98.6l58.5,194.6h0.8l55.8-194.6h83.4l-108.2,313h-79.1L1198.5,319.5z"/>
	<path class="st1" d="M1705.5,609.1c-13.5,9.2-28.6,16.1-45.1,20.7c-16.6,4.6-33.9,6.9-52,6.9c-26,0-48.4-4.7-67.3-14
		c-18.9-9.3-34.1-21.8-45.7-37.4c-11.6-15.6-20.1-32.7-25.4-51.4c-5.4-18.7-8-37.5-8-56.5c0-22.9,3.4-44.3,10.1-64
		c6.8-19.7,16.7-36.9,29.8-51.6c13.1-14.7,29.1-26.1,47.8-34.2c18.7-8.1,39.8-12.2,63.3-12.2c34.4,0,64.5,7,90.2,21.1v91.3
		c-13.3-10.1-25.9-17.4-37.9-22c-12-4.6-24.6-6.9-37.9-6.9c-22.9,0-41,6.9-54.3,20.7c-13.3,13.8-19.9,32.6-19.9,56.5
		c0,23.6,6.8,42.3,20.3,56.2c13.5,13.9,31.7,20.9,54.7,20.9c13,0,25.4-2.1,37.3-6.4c11.9-4.3,25.2-11.3,40-21.1V609.1z"/>
</g>
</svg>
