<svg xmlns="http://www.w3.org/2000/svg" viewBox="0 0 1770 662.57"><defs><style>.cls-1{fill:#231f20;fill-rule:evenodd;}</style></defs><g id="Layer_2" data-name="Layer 2"><g id="Layer_4" data-name="Layer 4"><path class="cls-1" d="M166.17,180.67c-17-10,177.69-1.17,204.4-6.1,6.27-1.15-20.81-38.67-16.88-47.92,2.22-5.25,39.71,1.94,110.88,17.69,11.07,2.45,5.24,24.36,18.12,25,8.65.4,57.76-5,93.81-2.87,23.83,2.81,60.75,8.18,83.77,16.33,15,6-183.75,8.2-177,10.71-2.82-2.07,6.79,33.31,17.22,34.81,20.95-1.52,59.44-1.72,96.49-1.93,21.72,3,50.77,20.06,53.7,25.36-42.29,2.86-101.4-6-141.64-3.66-6.94,11.14,7.67,23.8,8.33,26.32,9.46,6.29,154.82,9.1,159.7,5.77,17.39-12.24,47.27-77.31,48.4-78.11,9.09-8.68-82.55-88-79.62-116,3.4-4.69,43.41-75.95,65.34-86.07,18.84,1.84,37.1,113.84,83.68,154,9.5,3.83,24.2,5.76,39.95,7.21,16.55-.56-16.68,49.48,15.82,48.35-7.93-59.71,379.81-108.6,428.16-100.33,25.6,4.37-89.1,40.54-94.81,47.57,1.32.6,63.75,22.92,94,21.86,12.52-.44-15.2-44.82-.08-42.42,37.55,5.71,72.52,12.94,99.08,20.5,15.83,7.6.47,19.89,13.78,23.9,8.06,1.13,153.31-5.56,156-2.71-.09,3.36-29.06,11.49-62.27,19-31.76,2.76-81.16-5.62-90.86,2.64-14.3,19.95,10.9,81.73,4.9,120.28,21.44.09,39.59.24,53,.33,83.89,6,108.07,6.72,92.53,11.52-34.18,10.57-236.52,22.85-247.9,27,16.48,10.05,63.06,16.74,106.71,25.34,6.45-8-8.3-23.94-.5-27.75,9.65-2.09,119.46-.33,133.13,15.71,3.64,6.23,9,27.37,12.27,34.15,33.68,5.78,119.71,7.05,141.62,11,74.23,26.93,65.3,23.09,80.54,34.68-44.14,2.64-178.94-17.41-214.58-18.18,4.22,26.32,96.1,154.4,76.55,173.3-19.93,9.08-127.14-16.51-149.72-30.05-28.29-44.28-59.42-146.79-67.59-153.1-28.43-3.8-195.27-11.11-254.36-23.69-25.46-10,83.54-25.76,96.64-34.44-25.75-3.25-190.27-3.2-173.8,10.55,66.17,57.59,384.3,174.66,337.69,230.9-52.22,61.53-315-32.22-367.68-46.36-35-3.63,138.27,101.66,101.28,101.78-64.28.2-167.66-47.58-193.47-59.84-31.56-25.27-84.52-91.37-97.47-104.16C832.23,493.5,812,491.8,777.63,495c-18,8.11-18.28,72.17-37.9,79.76-16.19,2.45-86.54,5-118.28-.6,2.44-26.7,28.09-65.15,22.11-67.57-10.2-4.14-30.66,30.76-62,45.92-43.09,20.8-83.72,19.94-107.78,17.5-13.42-1.36-40.42-11.29-50.06-13.78-17,18.54-114.55,56.94-255.2,54.08C83.22,607.68,9.06,572,0,507.34c-.94-29.61,34.53-93,98-150.84C130.74,335,180.87,315,229.64,304.91,262,294.4,309.85,370.42,334.4,381.47c3.05-7.25,20.37-69.14,48.31-67.41,22.06-2.89,46.29-3.37,67.38-3-17.52-6.39-32.15-12.43-36.81-15.42-4-5.28-210.87,4.19-208-3.52,3.92-10.53,33.49-13.95,49.16-17,21-4.09,109.2,4.82,150.9-.77,6.51,1.12.15-24.45-12.31-28.34-65.69-5.14-165.21,4.38-171.8-4.28-4.21-5.52,33.81-11.94,54.85-16.13,35.36-7,94.82,3.41,113.54-5-.21-5.8-9.93-22.34-11.92-24.63-8.85-6-85.73,4.46-127.42,2.12-52-2.91-97.27-17.53-84.12-17.42ZM1302,320.07c-2.61-43.64,2.46-115.51-23.29-119.94-70-1.66-140.22-8.46-180.12-19-17.35-4.59,66.46-25.55,48.62-26-92.73-3.82-200.23,24.67-218.84,40.41-1.26,1.69,6,15.36,49.71,27,88.37,23.56,228.13,66.4,261,98.41,21.44-.44,42.6-.73,62.94-.91ZM949.42,385.12c-10.47-3.48-21.12-7.14-31.8-10.94C891,364.7,887,328,865.6,320.39a220.41,220.41,0,0,0-22.48-1.79c-2,3.34-3.51,6.19-3.12,7.32,0,10.08,179,216.63,181.83,204.64-2.54-9.2-29.26-29.64-19.29-34,42.65-4,108.36,2.73,133.43,6.3,12.44,11,96.47,80.41,141.76,67.51,53.11-2.94-168.08-88.79-291.57-154.66-14.15-11.07-27.35-21.4-36.74-30.63Zm-247.7-28.89a277.5,277.5,0,0,1-36.15-6.4c-13.15-2.37,18.21-45.21,5.41-46.87-23.15,0-147-.06-142.46-4.63-11-.12,11.42,31.12-3.53,34.77-7-.83-17.91-3.57-30.33-7.23-4.45,13.52-20.53,31.5-13.29,30.76,12.38,3.22,81.79-10.29,134.06,4.31,26.45,7.39,40.05,41.08,56.9,48.87,8.93-2.11,20-36.6,29.39-53.58Zm89.34,52c19.88,5.4,46.41,48.66,45.41,55.33-1.82,3.46-46.27-3.13-59.13-10.81,2.25-31.64,10.71-47.27,13.72-44.52ZM513.28,535.06c-38.18,4.79-55.86-77-43.24-112.5,15.07-21.72,48.71-36.92,69.8-40.65C606.39,401,587.41,536,513.28,535.06ZM183.87,382.33c17.95-12.67,24.07,46.85,51.57,59.11,7.73,10.4,87-19.86,102.84-18.13,6.94,50,11.23,96.23,69,125.91-16.82,2.67-54.88.38-109,5-38.52,13.52-106.94,16-144.75,9.87-32.28-14.85-45.49-34.41-45.25-66.7.21-28.86,46.52-98.52,75.66-115.11Zm932.62-65.87c10.77,5.55-67.54-.13-93.65,4.86-22.22,1-46.84,9.67-50.77,9.14-8.59-.35-89.46-68.21-84.81-78.24-8.31-7.6,41.84,10.63,80.79,19.73,67.39,15.39,137.32,35.06,148.44,44.51ZM782.6,282.83c6.91-15.54,10.27-27.08,17.19-28.41,3.88.8,19.63,17,40.9,42.61-12.05.25-58.56-10.61-58.09-14.2Z"/></g></g></svg>