<svg xmlns="http://www.w3.org/2000/svg" viewBox="0 0 346 75.63"><defs><style>.cls-1{fill:#ed1c24;}.cls-1,.cls-2{fill-rule:evenodd;}</style></defs><g id="Layer_2" data-name="Layer 2"><g id="Layer_1-2" data-name="Layer 1"><polygon class="cls-1" points="87.57 26.39 108.68 26.39 87.57 75.63 87.57 26.39 87.57 26.39"/><path d="M0,66.66H7.27V55a8.79,8.79,0,0,0,1.14.15c.42,0,.88,0,1.36,0a19.92,19.92,0,0,0,6-.84,12,12,0,0,0,4.58-2.57,8.44,8.44,0,0,0,2.23-3.33,12.06,12.06,0,0,0,.76-4.38,10,10,0,0,0-.94-4.33,8.54,8.54,0,0,0-2.53-3.18,11,11,0,0,0-4.07-2A23.23,23.23,0,0,0,9.92,34c-2.23,0-4.16.07-5.79.2A41.34,41.34,0,0,0,0,34.65v32ZM7.27,39.8a6.63,6.63,0,0,1,1.15-.18q.75-.06,1.83-.06a6.56,6.56,0,0,1,4.28,1.26,4.36,4.36,0,0,1,1.5,3.5,5.17,5.17,0,0,1-.77,2.82,4.9,4.9,0,0,1-2.17,1.8,8.55,8.55,0,0,1-3.37.63c-.54,0-1,0-1.41,0a7.2,7.2,0,0,1-1-.15V39.8ZM28,66.52c.82.12,1.9.23,3.23.32s2.91.15,4.71.16a40.68,40.68,0,0,0,5.65-.35,20,20,0,0,0,4.19-1,10.62,10.62,0,0,0,2.92-1.6,9.17,9.17,0,0,0,1.77-1.86,8.38,8.38,0,0,0,1.17-2.31A8.73,8.73,0,0,0,52,57.13a8,8,0,0,0-.85-3.68,7.84,7.84,0,0,0-2.28-2.7,9.49,9.49,0,0,0-3.32-1.56v-.1a9.81,9.81,0,0,0,3-1.77,7,7,0,0,0,1.76-2.38,6.75,6.75,0,0,0,.57-2.73,7.36,7.36,0,0,0-.5-2.72,6.68,6.68,0,0,0-1.34-2.15,7.58,7.58,0,0,0-2-1.54,12.29,12.29,0,0,0-2.57-1.1,18.65,18.65,0,0,0-3.1-.57c-1.16-.11-2.47-.16-4-.16-1.25,0-2.47,0-3.67.1s-2.31.15-3.32.25-1.83.22-2.49.33V66.52Zm7.27-27c.28,0,.66-.1,1.16-.14s1.16,0,2,0a6.6,6.6,0,0,1,3.84,1,3.25,3.25,0,0,1,1.36,2.8,3.42,3.42,0,0,1-.67,2.1,4.29,4.29,0,0,1-2,1.4,9.57,9.57,0,0,1-3.27.5h-2.4V39.51Zm0,12.8h2.5a12.41,12.41,0,0,1,2.58.25,6.85,6.85,0,0,1,2.09.81,4,4,0,0,1,1.41,1.4,4.13,4.13,0,0,1,.52,2.07A4.48,4.48,0,0,1,43.82,59a3.92,3.92,0,0,1-1.37,1.46,6.46,6.46,0,0,1-2,.82,10.22,10.22,0,0,1-2.38.26H36.46c-.46,0-.87,0-1.22-.09V52.31ZM79.77,60a12.24,12.24,0,0,1-1.76.55,18.65,18.65,0,0,1-2.14.37,19,19,0,0,1-2.27.14A11.45,11.45,0,0,1,68,59.78a8.64,8.64,0,0,1-3.55-3.66,12.21,12.21,0,0,1-1.24-5.63,13.3,13.3,0,0,1,.8-4.73,8.92,8.92,0,0,1,5.46-5.35,12.07,12.07,0,0,1,4-.66,16.21,16.21,0,0,1,3.53.37,14.11,14.11,0,0,1,2.63.83l1.54-5.77a8.67,8.67,0,0,0-1.81-.7A19.15,19.15,0,0,0,76.74,34a26.2,26.2,0,0,0-3.47-.22,21,21,0,0,0-5.62.73,17.55,17.55,0,0,0-4.86,2.13A15.2,15.2,0,0,0,59,40.09a15.5,15.5,0,0,0-2.51,4.79,19.69,19.69,0,0,0-.9,6,18.6,18.6,0,0,0,1.08,6.44,14.41,14.41,0,0,0,3.21,5.16A14.59,14.59,0,0,0,65.16,66a21,21,0,0,0,7.38,1.24,30.25,30.25,0,0,0,3.6-.22A26.6,26.6,0,0,0,79,66.44a10.44,10.44,0,0,0,1.86-.65l-1-5.77Z"/><path d="M121.67,56.45l3.6,10.21h4.66L118.42,34.21h-5.2l-11.5,32.45h4.5l3.5-10.21Zm-11-3.27,3.3-9.39q.52-1.49.93-3c.27-1,.53-2,.77-2.9h.1c.24.93.51,1.89.79,2.87s.6,2,1,3.05l3.35,9.34Zm43.76-9.82H150V57.61a5.53,5.53,0,0,1-.11,1.17,4,4,0,0,1-.29,1,6.73,6.73,0,0,1-1.2,1.87,6.55,6.55,0,0,1-2,1.44,6.21,6.21,0,0,1-2.64.59,5.08,5.08,0,0,1-3.16-1,5.21,5.21,0,0,1-1.72-2.62,12.41,12.41,0,0,1-.52-3.9V43.36H134V57a14.88,14.88,0,0,0,.76,5,8,8,0,0,0,2,3.13,7,7,0,0,0,2.69,1.6,9.24,9.24,0,0,0,2.91.45,9.78,9.78,0,0,0,2.91-.42,8.91,8.91,0,0,0,2.29-1,8.57,8.57,0,0,0,1.69-1.4,7.67,7.67,0,0,0,1.11-1.47h.1l.25,3.8h3.9c-.07-.91-.12-1.9-.16-3s0-2.2,0-3.43V43.36Zm8.3-4.33v4.33h-3.75v3.23h3.75V59.33a14.57,14.57,0,0,0,.4,3.57,6,6,0,0,0,1.3,2.51,5.61,5.61,0,0,0,2,1.31,7.82,7.82,0,0,0,2.76.47A13.71,13.71,0,0,0,171.4,67a11.27,11.27,0,0,0,1.64-.4l-.2-3.22a6.34,6.34,0,0,1-1.07.21,12.07,12.07,0,0,1-1.48.08,3.29,3.29,0,0,1-1.95-.53,3,3,0,0,1-1.05-1.54,8.42,8.42,0,0,1-.31-2.46V46.59h6.31V43.36H167V37.78L162.68,39Zm25.51,3.85a13,13,0,0,0-4.68.83A11.09,11.09,0,0,0,177.13,50a13.93,13.93,0,0,0-.94,5.2,13.56,13.56,0,0,0,.9,5A11.2,11.2,0,0,0,179.55,64a11,11,0,0,0,3.68,2.4,12.65,12.65,0,0,0,4.56.83,13.31,13.31,0,0,0,3.48-.46,12,12,0,0,0,3.27-1.42,11,11,0,0,0,2.74-2.41,11.13,11.13,0,0,0,1.86-3.48,14.43,14.43,0,0,0,.7-4.6A13.69,13.69,0,0,0,199,50a11.05,11.05,0,0,0-2.38-3.77,10.44,10.44,0,0,0-3.68-2.44,12.87,12.87,0,0,0-4.75-.87Zm-.1,3.18a6.74,6.74,0,0,1,2.75.54,6.3,6.3,0,0,1,2,1.45,8.2,8.2,0,0,1,1.4,2.07,10.75,10.75,0,0,1,.8,2.4,12.18,12.18,0,0,1,.25,2.44,11.61,11.61,0,0,1-.56,3.63,8.64,8.64,0,0,1-1.54,2.86,7.11,7.11,0,0,1-2.32,1.89A6.7,6.7,0,0,1,188,64a6.61,6.61,0,0,1-3-.68,7,7,0,0,1-2.31-1.88,9.15,9.15,0,0,1-1.5-2.84,11.54,11.54,0,0,1-.53-3.55,12.37,12.37,0,0,1,.43-3.26,9.65,9.65,0,0,1,1.33-2.89,7,7,0,0,1,2.31-2.07,6.88,6.88,0,0,1,3.33-.78Zm17.3,20.6h4.31v-14a6.58,6.58,0,0,1,.08-1.09,4.14,4.14,0,0,1,.26-1,6.55,6.55,0,0,1,1.13-2A6.19,6.19,0,0,1,213,47a5.07,5.07,0,0,1,2.46-.62,4.69,4.69,0,0,1,2.8.82A4.87,4.87,0,0,1,220,49.4a8.92,8.92,0,0,1,.57,3.3v14h4.3V52.27a5.83,5.83,0,0,1,.1-1.12,9.13,9.13,0,0,1,.25-1,6.48,6.48,0,0,1,1.15-1.89,5.88,5.88,0,0,1,1.78-1.38,5.08,5.08,0,0,1,2.32-.53,4.81,4.81,0,0,1,2.92.85,5.16,5.16,0,0,1,1.75,2.44,11.37,11.37,0,0,1,.58,3.88V66.66H240V53a15.71,15.71,0,0,0-.51-4.16,9.58,9.58,0,0,0-1.36-2.89,7.61,7.61,0,0,0-1.9-1.83,7.72,7.72,0,0,0-2.15-1,8.2,8.2,0,0,0-2.08-.27,9.46,9.46,0,0,0-3,.42,8.24,8.24,0,0,0-2.33,1.22,10.12,10.12,0,0,0-1.47,1.28A8.78,8.78,0,0,0,224,47.55h-.1a7.42,7.42,0,0,0-1.51-2.43A6.94,6.94,0,0,0,220,43.48a7.5,7.5,0,0,0-3-.6,9.38,9.38,0,0,0-3.49.62,7.79,7.79,0,0,0-2.48,1.57,9.41,9.41,0,0,0-1.68,2.09h-.16l-.2-3.8h-3.85c.05,1,.1,1.93.15,3s0,2.14,0,3.36v17Zm52-23.78a13.1,13.1,0,0,0-4.69.83,11.28,11.28,0,0,0-3.81,2.43A11,11,0,0,0,246.3,50a13.93,13.93,0,0,0-1,5.2,13.56,13.56,0,0,0,.9,5A11.22,11.22,0,0,0,248.72,64a11,11,0,0,0,3.68,2.4,12.61,12.61,0,0,0,4.56.83,13.37,13.37,0,0,0,3.48-.46,12.15,12.15,0,0,0,3.27-1.42,10.91,10.91,0,0,0,2.73-2.41,11.15,11.15,0,0,0,1.87-3.48,14.43,14.43,0,0,0,.7-4.6,13.69,13.69,0,0,0-.84-4.86,11.05,11.05,0,0,0-2.38-3.77,10.53,10.53,0,0,0-3.68-2.44,12.91,12.91,0,0,0-4.75-.87Zm-.1,3.18a6.74,6.74,0,0,1,2.75.54,6.3,6.3,0,0,1,2.05,1.45,8.47,8.47,0,0,1,1.4,2.07,11.28,11.28,0,0,1,.8,2.4,13,13,0,0,1,.25,2.44,11.61,11.61,0,0,1-.56,3.63,9,9,0,0,1-1.54,2.86,7.15,7.15,0,0,1-2.33,1.89,6.74,6.74,0,0,1-5.88,0,7,7,0,0,1-2.31-1.88,9.15,9.15,0,0,1-1.5-2.84,11.54,11.54,0,0,1-.54-3.55,12.38,12.38,0,0,1,.44-3.26,9.41,9.41,0,0,1,1.33-2.89,6.58,6.58,0,0,1,5.64-2.85Zm18.3-7v4.33h-3.75v3.23h3.75V59.33a14.1,14.1,0,0,0,.4,3.57,6,6,0,0,0,1.3,2.51,5.52,5.52,0,0,0,2,1.31,7.8,7.8,0,0,0,2.75.47,13.84,13.84,0,0,0,2.27-.18,10.78,10.78,0,0,0,1.63-.4l-.2-3.22a6,6,0,0,1-1.06.21,12.25,12.25,0,0,1-1.49.08,3.23,3.23,0,0,1-1.94-.53,3,3,0,0,1-1.05-1.54,8.09,8.09,0,0,1-.31-2.46V46.59h6.3V43.36h-6.3V37.78L275.56,39Zm20,27.63V43.36h-4.41v23.3Zm-2.21-32.45a3,3,0,0,0-1.45.37,2.7,2.7,0,0,0-.95,1,2.62,2.62,0,0,0-.35,1.33,2.65,2.65,0,0,0,.34,1.32,2.39,2.39,0,0,0,.91.93,2.88,2.88,0,0,0,1.4.35,3.21,3.21,0,0,0,1.51-.35,2.46,2.46,0,0,0,1-.93,2.76,2.76,0,0,0,0-2.67,2.39,2.39,0,0,0-.95-.94,2.89,2.89,0,0,0-1.41-.36Zm6.51,9.15,9.2,23.3h4.2l9.5-23.3h-4.6l-4.7,13c-.4,1.07-.78,2.11-1.12,3.09s-.66,2-.93,2.92h-.15c-.25-1-.53-1.93-.86-2.92s-.69-2-1.09-3.09l-4.75-13Zm46,12.42a5.94,5.94,0,0,0,.11-.84c0-.32,0-.7,0-1.13A14,14,0,0,0,345.7,51a12.41,12.41,0,0,0-1-2.91,9.44,9.44,0,0,0-1.8-2.61,8.61,8.61,0,0,0-2.87-1.9,11.12,11.12,0,0,0-4.09-.72,11.5,11.5,0,0,0-4.76,1,10.19,10.19,0,0,0-3.56,2.65,11.63,11.63,0,0,0-2.25,4,15.28,15.28,0,0,0-.79,4.92,14,14,0,0,0,.81,4.8,10.25,10.25,0,0,0,6.09,6.13,14,14,0,0,0,5,.86A25.39,25.39,0,0,0,340,67a20.82,20.82,0,0,0,2.7-.56,18.05,18.05,0,0,0,1.94-.69l-.8-3a12.33,12.33,0,0,1-1.75.61,14.55,14.55,0,0,1-2.17.44,22.8,22.8,0,0,1-2.78.16,10.45,10.45,0,0,1-3.16-.46A7.26,7.26,0,0,1,331.34,62a6.77,6.77,0,0,1-1.8-2.51,9.79,9.79,0,0,1-.72-3.68Zm-17-3a10.25,10.25,0,0,1,.57-2.31,8.5,8.5,0,0,1,1.25-2.21,6.1,6.1,0,0,1,2-1.66,6.38,6.38,0,0,1,2.91-.66,6.7,6.7,0,0,1,2.54.46,5.07,5.07,0,0,1,1.76,1.19,6.08,6.08,0,0,1,1.1,1.63,8,8,0,0,1,.55,1.83,8.87,8.87,0,0,1,.15,1.73Z"/><path class="cls-2" d="M29.12,22.43C75,18.23,114.59.86,168.72,0,208.09,2.59,228.65,17,246,25.34c-24.24-9.55-48.07-23-81.5-22.32-22,1.08-34,3.77-50.46,6.14,9.7,5.07,17.83,11.75,30.3,15.33,37,.94,73.71,2.69,110.66,3.67,3.88.11,5.64-1.07,9.14-2.82,48.59.9,65.1,6.85,81.85,11.32-47.48-8.23-54.27-3.95-81.85-4.2H135.42C118.92,27.39,106.5,16.58,83,17.25,65.52,19,47.55,23.94,29.12,22.43Zm199.11-1.91c-2.1-.93-4.78-2.11-6.49-3l-8.87-.86c-5.07-.38-5.44,3.85,3.18,4.29,3,.22,7-.14,12.18-.43Zm33.54,3.54C229.4,10.17,206.12,3,189.06.47,202.49,3.31,215.56,5.89,252,26c5.15.52,7-1.06,9.78-1.92ZM92.12,13.24,111.7,9.79,127,20a174.35,174.35,0,0,0-34.87-6.78Z"/></g></g></svg>