<svg xmlns="http://www.w3.org/2000/svg" viewBox="0 0 720 199.96"><defs><style>.cls-1{fill:#16222f;}.cls-2{fill:#a0907a;}.cls-3{fill:#fff;}</style></defs><g id="Layer_2" data-name="Layer 2"><g id="Layer_1-2" data-name="Layer 1"><path class="cls-1" d="M49.4,44.52A60.91,60.91,0,0,1,66.46,47,42,42,0,0,1,81,54.27a63,63,0,0,1,14.31-7,58.78,58.78,0,0,1,19.19-2.76,59.62,59.62,0,0,1,15.79,2.12,40.43,40.43,0,0,1,13.78,6.68,32.34,32.34,0,0,1,9.65,12.09q3.6,7.52,3.6,18.33v66.79a49.1,49.1,0,0,1-6.68,1.27,68.8,68.8,0,0,1-9.43.64,50.39,50.39,0,0,1-8.38-.64,14.26,14.26,0,0,1-6.25-2.54,12.28,12.28,0,0,1-3.92-5.2,22.44,22.44,0,0,1-1.38-8.58V84.8q0-6.36-3.6-9.22t-9.76-2.86a16.92,16.92,0,0,0-6.36,1.38A18.48,18.48,0,0,0,96.46,77a6.25,6.25,0,0,1,.22,1.59v72a60,60,0,0,1-6.89,1.27,67.4,67.4,0,0,1-9.23.64,50.18,50.18,0,0,1-8.37-.64,14.3,14.3,0,0,1-6.26-2.54,12.37,12.37,0,0,1-3.92-5.2,22.44,22.44,0,0,1-1.38-8.58V84.8q0-6.36-3.92-9.22a15.54,15.54,0,0,0-9.43-2.86,16.7,16.7,0,0,0-6.57,1.17A48.83,48.83,0,0,0,36,76.11v74.42a49.1,49.1,0,0,1-6.68,1.27,68.8,68.8,0,0,1-9.43.64,50.39,50.39,0,0,1-8.38-.64,14.26,14.26,0,0,1-6.25-2.54,12.28,12.28,0,0,1-3.92-5.2A22.44,22.44,0,0,1,0,135.48v-64q0-5.73,2.44-9.12A27.45,27.45,0,0,1,9.12,56,61,61,0,0,1,27,47.7,78.14,78.14,0,0,1,49.4,44.52Z"/><path class="cls-1" d="M195.7,12.72a59.23,59.23,0,0,1,6.78-1.38A61.21,61.21,0,0,1,212,10.6a49.34,49.34,0,0,1,8.38.64,14.21,14.21,0,0,1,6.25,2.54,11.45,11.45,0,0,1,3.82,5.2,24.12,24.12,0,0,1,1.27,8.58V48.34a51.34,51.34,0,0,1,10.07-3,60.67,60.67,0,0,1,10.5-.85,51.86,51.86,0,0,1,19.29,3.61,47.69,47.69,0,0,1,16.11,10.49,48.69,48.69,0,0,1,11,17.07,63.74,63.74,0,0,1,4,23.53q0,13.78-4.13,24.06a46,46,0,0,1-11.55,17.07A49,49,0,0,1,269,150.63a75.58,75.58,0,0,1-23.64,3.5q-14,0-23.75-3.28A62.18,62.18,0,0,1,205,142.68q-9.33-6.57-9.33-17v-113Zm49.61,113q9.75,0,15.16-6.68t5.4-19.82q0-13.35-5.51-19.93t-14.84-6.57a27.49,27.49,0,0,0-7.31.85,41.64,41.64,0,0,0-6.68,2.54v46.22a21.77,21.77,0,0,0,5.62,2.44,29.57,29.57,0,0,0,8.16,1Z"/><path class="cls-1" d="M305.13,19.08a18.62,18.62,0,0,1,5.41-13.57Q315.94,0,324.85,0t14.31,5.51a18.66,18.66,0,0,1,5.41,13.57,18.64,18.64,0,0,1-5.41,13.57q-5.4,5.51-14.31,5.51t-14.31-5.51a18.61,18.61,0,0,1-5.41-13.57Zm37.74,131.45q-2.33.42-6.89,1.16a56.69,56.69,0,0,1-9.22.75,50.39,50.39,0,0,1-8.38-.64,14.21,14.21,0,0,1-6.25-2.54,12.28,12.28,0,0,1-3.92-5.2,22.44,22.44,0,0,1-1.38-8.58V49.19c1.55-.29,3.85-.67,6.89-1.17a57.82,57.82,0,0,1,9.22-.74,50.46,50.46,0,0,1,8.38.63,14.39,14.39,0,0,1,6.25,2.55,12.19,12.19,0,0,1,3.92,5.19,22.49,22.49,0,0,1,1.38,8.59v86.29Z"/><path class="cls-1" d="M386.18,150.53q-2.32.42-6.89,1.16a56.59,56.59,0,0,1-9.22.75,50.18,50.18,0,0,1-8.37-.64,14.25,14.25,0,0,1-6.26-2.54,12.37,12.37,0,0,1-3.92-5.2,22.44,22.44,0,0,1-1.38-8.58v-123c1.56-.28,3.85-.67,6.89-1.17a57.91,57.91,0,0,1,9.22-.74,49.17,49.17,0,0,1,8.38.64,14.21,14.21,0,0,1,6.25,2.54,12.18,12.18,0,0,1,3.93,5.2,22.65,22.65,0,0,1,1.37,8.58v123Z"/><path class="cls-1" d="M391.76,19.08a18.62,18.62,0,0,1,5.41-13.57Q402.57,0,411.48,0t14.31,5.51a18.65,18.65,0,0,1,5.4,13.57,18.64,18.64,0,0,1-5.4,13.57q-5.42,5.51-14.31,5.51t-14.31-5.51a18.61,18.61,0,0,1-5.41-13.57ZM429.5,150.53c-1.56.28-3.85.67-6.89,1.16a56.69,56.69,0,0,1-9.22.75,50.3,50.3,0,0,1-8.38-.64,14.21,14.21,0,0,1-6.25-2.54,12.3,12.3,0,0,1-3.93-5.2,22.65,22.65,0,0,1-1.37-8.58V49.19c1.55-.29,3.85-.67,6.89-1.17a57.82,57.82,0,0,1,9.22-.74,50.24,50.24,0,0,1,8.37.63,14.38,14.38,0,0,1,6.26,2.55,12.27,12.27,0,0,1,3.92,5.19,22.49,22.49,0,0,1,1.38,8.59v86.29Z"/><path class="cls-1" d="M495.71,154.13a74.15,74.15,0,0,1-23.22-3.5,52.66,52.66,0,0,1-18.65-10.49,48.58,48.58,0,0,1-12.51-17.6q-4.56-10.59-4.56-24.8,0-14,4.56-24.07A46.59,46.59,0,0,1,470.27,47.6a63.19,63.19,0,0,1,19.5-3.08,58.94,58.94,0,0,1,20.46,3.39,49.46,49.46,0,0,1,15.9,9.33,41.44,41.44,0,0,1,10.39,14.21,43.56,43.56,0,0,1,3.71,18q0,7.2-4,11T525,105.37l-52.37,7.84a17.6,17.6,0,0,0,9.54,10.5,37.48,37.48,0,0,0,16.54,3.5A59.34,59.34,0,0,0,515.11,125a52,52,0,0,0,12.61-5.19,17.82,17.82,0,0,1,5.73,5.93,15.27,15.27,0,0,1,2.33,8.06q0,9.54-8.91,14.2a47.06,47.06,0,0,1-15.26,4.88,107.15,107.15,0,0,1-15.9,1.27Zm-5.94-83.32a21.06,21.06,0,0,0-8.8,1.7,17.86,17.86,0,0,0-6,4.34,18.24,18.24,0,0,0-3.5,5.94,24.67,24.67,0,0,0-1.37,6.68l36.25-5.94q-.63-4.23-4.66-8.48t-11.88-4.24Z"/><path class="cls-1" d="M581.85,150.53a49.1,49.1,0,0,1-6.68,1.27,68.8,68.8,0,0,1-9.43.64,50.39,50.39,0,0,1-8.38-.64,14.26,14.26,0,0,1-6.25-2.54,12.28,12.28,0,0,1-3.92-5.2,22.44,22.44,0,0,1-1.38-8.58V71.87a18.08,18.08,0,0,1,1.8-8.37,19.63,19.63,0,0,1,5.2-6.26,37.56,37.56,0,0,1,8.37-5,86.67,86.67,0,0,1,10.71-3.92,89.55,89.55,0,0,1,11.87-2.65,79.64,79.64,0,0,1,12.3-1q10.17,0,16.11,3.93t5.93,12.82a20.55,20.55,0,0,1-.84,5.83,26.91,26.91,0,0,1-2.12,5.2q-4.46,0-9.12.42c-3.11.28-6.15.71-9.12,1.27s-5.76,1.17-8.37,1.81a36.48,36.48,0,0,0-6.68,2.22v72.3Z"/><path class="cls-1" d="M675.48,154.13a74.15,74.15,0,0,1-23.22-3.5,52.58,52.58,0,0,1-18.65-10.49,48.46,48.46,0,0,1-12.51-17.6q-4.56-10.59-4.56-24.8,0-14,4.56-24.07A46.59,46.59,0,0,1,650,47.6a63.19,63.19,0,0,1,19.5-3.08A58.94,58.94,0,0,1,690,47.91a49.46,49.46,0,0,1,15.9,9.33,41.57,41.57,0,0,1,10.39,14.21,43.56,43.56,0,0,1,3.71,18q0,7.2-4,11t-11.23,4.88l-52.37,7.84a17.57,17.57,0,0,0,9.54,10.5,37.45,37.45,0,0,0,16.54,3.5A59.34,59.34,0,0,0,694.88,125a52,52,0,0,0,12.61-5.19,17.82,17.82,0,0,1,5.73,5.93,15.27,15.27,0,0,1,2.33,8.06q0,9.54-8.91,14.2a47.06,47.06,0,0,1-15.26,4.88,107.36,107.36,0,0,1-15.9,1.27Zm-5.94-83.32a21.06,21.06,0,0,0-8.8,1.7,17.86,17.86,0,0,0-6,4.34,18.24,18.24,0,0,0-3.5,5.94,25.08,25.08,0,0,0-1.38,6.68l36.26-5.94q-.65-4.23-4.67-8.48t-11.87-4.24Z"/><path class="cls-2" d="M231.39,99.22a64,64,0,0,1-4,23.43A47.61,47.61,0,0,1,216,139.93a48.15,48.15,0,0,1-17.49,10.6,67.62,67.62,0,0,1-22.68,3.6,64.33,64.33,0,0,1-22.69-3.81,50.15,50.15,0,0,1-17.49-10.92,48.8,48.8,0,0,1-11.34-17.28,61.71,61.71,0,0,1-4-22.9,61,61,0,0,1,4-22.68,48.63,48.63,0,0,1,11.34-17.28,49.86,49.86,0,0,1,17.49-10.92,64.1,64.1,0,0,1,22.69-3.82,62.69,62.69,0,0,1,22.68,3.92,51.1,51.1,0,0,1,17.49,11,48.65,48.65,0,0,1,11.35,17.28,60.62,60.62,0,0,1,4,22.47Z"/><path class="cls-3" d="M199.18,77.88c1-4.29-1-6.43-1-6.43s-2.2-1.16-5.68.23-15.91,1.44-16.67,1.45-13.31-.1-16.68-1.45-5.67-.23-5.67-.23-2,2.14-1,6.43,4.4,11.35,4.87,13.2,1.74,7.82.17,10.25c0,0-3.67-2.29-4.31.2l-.06,0,0,.09a3.06,3.06,0,0,0-.06.45c-.21,3,1.83,18.52,17.55,21.33v.44s-.12.32.46.9a4.54,4.54,0,0,0,1.25.87l.2-.43-1.12-.82s-.31-.07-.35-.88a29.07,29.07,0,0,0,3.63.34v5.73l-13.14,1.82s-1,.4-1.06,1h-.36v1h2.72V133h26.2v.49h2.72v-1h-.36c0-.64-1.06-1-1.06-1l-13.14-1.81v-5.75c19.11-.87,21.48-18.47,21.25-21.74a3.06,3.06,0,0,0-.06-.45l0-.09,0,0c-.65-2.49-4.32-.2-4.32-.2-1.56-2.43-.29-8.39.18-10.25s3.88-8.92,4.86-13.2Z"/><polygon class="cls-1" points="13.24 174.71 13.24 177.31 3.29 177.31 3.29 185.82 12.16 185.82 12.16 188.38 3.29 188.38 3.29 197.11 13.24 197.11 13.24 199.71 0 199.71 0 174.71 13.24 174.71 13.24 174.71"/><polygon class="cls-1" points="43.73 174.71 43.73 199.71 40.41 199.71 40.41 181.49 32.04 199.71 29.91 199.71 21.5 181.49 21.5 199.71 18.22 199.71 18.22 174.71 21.58 174.71 30.99 195.2 40.37 174.71 43.73 174.71 43.73 174.71"/><path class="cls-1" d="M57.25,174.71c2.82,0,5,.68,6.44,2A6.87,6.87,0,0,1,65.91,182a7.06,7.06,0,0,1-2.15,5.29q-2.15,2.07-6.51,2.07H52.42v10.32H49.14v-25Zm-4.83,12.08h4.83a5.64,5.64,0,0,0,4-1.24,4.55,4.55,0,0,0,1.32-3.48q0-4.73-5.34-4.73H52.42v9.45Z"/><path class="cls-1" d="M73.27,189.39v10.32H70v-25H78.1c2.82,0,5,.68,6.44,2a6.6,6.6,0,0,1,2.22,5,7,7,0,0,1-6.49,7.45l6.89,10.46H83l-6.56-10.32Zm0-12v9.45H78.1a5.69,5.69,0,0,0,4-1.24,4.58,4.58,0,0,0,1.31-3.48q0-4.73-5.34-4.73Z"/><polygon class="cls-1" points="105.48 174.71 105.48 177.31 95.53 177.31 95.53 185.82 104.4 185.82 104.4 188.38 95.53 188.38 95.53 197.11 105.48 197.11 105.48 199.71 92.24 199.71 92.24 174.71 105.48 174.71 105.48 174.71"/><path class="cls-1" d="M113.13,181.38a3.39,3.39,0,0,0,.76,2.27,4.38,4.38,0,0,0,2,1.34,21.15,21.15,0,0,0,2.65.76c1,.21,2,.46,2.92.74a12.64,12.64,0,0,1,2.65,1.06,5.07,5.07,0,0,1,2,1.95,6.3,6.3,0,0,1,.76,3.21,6.84,6.84,0,0,1-2.24,5.08,8.3,8.3,0,0,1-6,2.17,10.18,10.18,0,0,1-6.19-1.75,5.58,5.58,0,0,1-2.38-4.74h3.5a4,4,0,0,0,1.35,2.74,5.4,5.4,0,0,0,3.59,1,5.6,5.6,0,0,0,3.79-1.22,3.72,3.72,0,0,0,1.41-2.87,3.8,3.8,0,0,0-.76-2.53,4.61,4.61,0,0,0-2-1.31,18.67,18.67,0,0,0-2.65-.74c-1-.21-2-.45-2.92-.74a13,13,0,0,1-2.65-1.1,5.12,5.12,0,0,1-1.95-2,7.08,7.08,0,0,1,1.49-8.37,8.78,8.78,0,0,1,5.88-1.92,9.13,9.13,0,0,1,5.78,1.67,6.55,6.55,0,0,1,2.47,4.64h-3.65a3.67,3.67,0,0,0-1.39-2.53,5,5,0,0,0-3.35-1,5.33,5.33,0,0,0-3.44,1.06,3.76,3.76,0,0,0-1.34,3.12Z"/><path class="cls-1" d="M148.88,199.71l-1.95-5.49H135.82l-1.95,5.49h-3.35l9.09-25h3.61l9.05,25Zm-12.12-8.08H146l-4.61-12.92-4.62,12.92Z"/><path class="cls-1" d="M159.85,189.39v10.32h-3.29v-25h8.12q4.22,0,6.44,2a6.6,6.6,0,0,1,2.22,5,7,7,0,0,1-6.5,7.45l6.89,10.46h-4.11l-6.56-10.32Zm0-12v9.45h4.83a5.68,5.68,0,0,0,4-1.24,4.55,4.55,0,0,0,1.32-3.48q0-4.73-5.34-4.73Z"/><polygon class="cls-1" points="178.82 199.71 178.82 174.71 182.1 174.71 182.1 199.71 178.82 199.71 178.82 199.71"/><path class="cls-1" d="M204.76,199.71l-1.95-5.49H191.7l-1.95,5.49H186.4l9.09-25h3.6l9.06,25Zm-12.12-8.08h9.23l-4.62-12.92-4.61,12.92Z"/><polygon class="cls-1" points="212.44 174.71 215.72 174.71 215.72 197.18 224.49 197.18 224.49 199.71 212.44 199.71 212.44 174.71 212.44 174.71"/><polygon class="cls-1" points="254.61 174.71 257.93 174.71 257.93 199.71 254.61 199.71 254.61 188.42 242.02 188.42 242.02 199.71 238.74 199.71 238.74 174.71 242.02 174.71 242.02 185.82 254.61 185.82 254.61 174.71 254.61 174.71"/><path class="cls-1" d="M281.49,194.33a11,11,0,0,0,0-14.27,9.82,9.82,0,0,0-13.48,0,10.9,10.9,0,0,0,0,14.27,9.07,9.07,0,0,0,6.75,2.71,9,9,0,0,0,6.71-2.71ZM274.78,200A12.49,12.49,0,0,1,262,187.17a12.24,12.24,0,0,1,3.68-9.13,13.22,13.22,0,0,1,18.09,0,12.77,12.77,0,0,1-9,21.92Z"/><path class="cls-1" d="M302.79,199.92A12.87,12.87,0,0,1,293.93,178a12.47,12.47,0,0,1,9.06-3.58,13.22,13.22,0,0,1,6.94,1.83,10.93,10.93,0,0,1,4.49,5.31h-4c-1.49-2.82-4-4.22-7.46-4.22a9.06,9.06,0,0,0-6.73,2.68,10.93,10.93,0,0,0,0,14.27,8.85,8.85,0,0,0,6.6,2.71,9,9,0,0,0,6.35-2.24,9.23,9.23,0,0,0,2.79-6.06H301.69v-2.6h13.78v2.6a12.15,12.15,0,0,1-4,8,12.44,12.44,0,0,1-8.67,3.17Z"/><path class="cls-1" d="M336.82,199.71l-1.95-5.49H323.76l-1.94,5.49h-3.36l9.09-25h3.61l9,25Zm-12.12-8.08h9.24l-4.62-12.92-4.62,12.92Z"/><path class="cls-1" d="M347.79,189.39v10.32h-3.28v-25h8.11c2.82,0,5,.68,6.44,2a6.6,6.6,0,0,1,2.22,5,7,7,0,0,1-6.49,7.45l6.89,10.46h-4.11L351,189.39Zm0-12v9.45h4.83a5.69,5.69,0,0,0,4-1.24,4.58,4.58,0,0,0,1.31-3.48q0-4.73-5.34-4.73Z"/><path class="cls-1" d="M377.55,190.94V174.71h3.32v16.23a6.08,6.08,0,0,0,1.64,4.64,7.49,7.49,0,0,0,9.07,0,6,6,0,0,0,1.66-4.64V174.71h3.28v16.23a8.37,8.37,0,0,1-2.68,6.71,11.19,11.19,0,0,1-13.62,0,8.39,8.39,0,0,1-2.67-6.71Z"/><path class="cls-1" d="M405.15,189.39v10.32h-3.29v-25H410q4.22,0,6.44,2a6.6,6.6,0,0,1,2.22,5,7,7,0,0,1-6.5,7.45L419,199.71h-4.11l-6.56-10.32Zm0-12v9.45H410a5.68,5.68,0,0,0,4-1.24,4.55,4.55,0,0,0,1.32-3.48q0-4.73-5.34-4.73Z"/><path class="cls-1" d="M424.12,174.71h8.95a8.58,8.58,0,0,1,5.91,1.86,6.08,6.08,0,0,1,2.1,4.78q0,4.17-4.8,5.51a6.29,6.29,0,0,1,5.37,6.25,5.93,5.93,0,0,1-2.22,4.72,8.86,8.86,0,0,1-5.93,1.88h-9.38v-25Zm3.28,2.63v8.23h5.52a5.32,5.32,0,0,0,3.56-1.1,4.17,4.17,0,0,0,0-6,5.22,5.22,0,0,0-3.56-1.12Zm0,19.77h5.92a5.46,5.46,0,0,0,3.73-1.19,4.1,4.1,0,0,0,1.36-3.27,4,4,0,0,0-1.46-3.26,6,6,0,0,0-3.88-1.19H427.4v8.91Z"/><path class="cls-1" d="M463.44,199.71l-1.95-5.49H450.38l-1.95,5.49h-3.35l9.09-25h3.61l9.05,25Zm-12.12-8.08h9.24l-4.62-12.92-4.62,12.92Z"/><polygon class="cls-1" points="487.61 174.71 490.89 174.71 490.89 199.71 487.61 199.71 474.41 179.87 474.41 199.71 471.13 199.71 471.13 174.71 474.41 174.71 487.61 194.55 487.61 174.71 487.61 174.71"/><path class="cls-1" d="M514.45,194.33a11,11,0,0,0,0-14.27,9.8,9.8,0,0,0-13.47,0,10.88,10.88,0,0,0,0,14.27,9.07,9.07,0,0,0,6.75,2.71,8.94,8.94,0,0,0,6.71-2.71ZM507.74,200A12.49,12.49,0,0,1,495,187.17a12.2,12.2,0,0,1,3.68-9.13,13.22,13.22,0,0,1,18.09,0,12.77,12.77,0,0,1-9,21.92Z"/><polygon class="cls-1" points="544.61 199.71 541.32 199.71 541.32 190.25 533.17 174.71 536.78 174.71 542.95 187.22 549.08 174.71 552.72 174.71 544.61 190.25 544.61 199.71 544.61 199.71"/><polygon class="cls-1" points="580.03 174.71 580.03 177.31 570.08 177.31 570.08 185.82 578.95 185.82 578.95 188.38 570.08 188.38 570.08 197.11 580.03 197.11 580.03 199.71 566.79 199.71 566.79 174.71 580.03 174.71 580.03 174.71"/><path class="cls-1" d="M587.68,181.38a3.39,3.39,0,0,0,.76,2.27,4.41,4.41,0,0,0,1.94,1.34,21.83,21.83,0,0,0,2.66.76c1,.21,1.94.46,2.92.74a12.64,12.64,0,0,1,2.65,1.06,5.07,5.07,0,0,1,1.95,1.95,6.3,6.3,0,0,1,.75,3.21,6.83,6.83,0,0,1-2.23,5.08,8.3,8.3,0,0,1-6,2.17,10.18,10.18,0,0,1-6.19-1.75,5.58,5.58,0,0,1-2.38-4.74H588a3.88,3.88,0,0,0,1.35,2.74,5.4,5.4,0,0,0,3.59,1A5.6,5.6,0,0,0,596.7,196a3.7,3.7,0,0,0,1.4-2.87,3.8,3.8,0,0,0-.75-2.53,4.61,4.61,0,0,0-2-1.31,19.06,19.06,0,0,0-2.65-.74c-1-.21-2-.45-2.92-.74a13.34,13.34,0,0,1-2.66-1.1,5.16,5.16,0,0,1-1.94-2,7.08,7.08,0,0,1,1.49-8.37,8.78,8.78,0,0,1,5.88-1.92,9.1,9.1,0,0,1,5.77,1.67,6.52,6.52,0,0,1,2.48,4.64H597.2a3.67,3.67,0,0,0-1.39-2.53,5.07,5.07,0,0,0-3.35-1,5.36,5.36,0,0,0-3.45,1.06,3.75,3.75,0,0,0-1.33,3.12Z"/><path class="cls-1" d="M617.62,199.92a12.44,12.44,0,0,1-9-3.6,13.19,13.19,0,0,1,0-18.28,12.46,12.46,0,0,1,9-3.58,13.2,13.2,0,0,1,6.94,1.83,10.94,10.94,0,0,1,4.5,5.31h-4c-1.49-2.82-4-4.22-7.47-4.22a9.06,9.06,0,0,0-6.73,2.68,10.93,10.93,0,0,0,0,14.27,9,9,0,0,0,6.73,2.71,8.91,8.91,0,0,0,4.44-1.1,7.63,7.63,0,0,0,3-3.16h4a10.88,10.88,0,0,1-4.5,5.3,13.11,13.11,0,0,1-6.94,1.84Z"/><path class="cls-1" d="M652.36,194.33a11,11,0,0,0,0-14.27,9.8,9.8,0,0,0-13.47,0,10.88,10.88,0,0,0,0,14.27,9.07,9.07,0,0,0,6.75,2.71,8.94,8.94,0,0,0,6.71-2.71ZM645.65,200a12.47,12.47,0,0,1-12.73-12.79,12.23,12.23,0,0,1,3.67-9.13,13.23,13.23,0,0,1,18.1,0,12.77,12.77,0,0,1-9,21.92Z"/><polygon class="cls-1" points="662.42 174.71 665.71 174.71 665.71 197.18 674.47 197.18 674.47 199.71 662.42 199.71 662.42 174.71 662.42 174.71"/><path class="cls-1" d="M695.14,199.71l-1.95-5.49H682.08l-1.94,5.49h-3.36l9.09-25h3.61l9,25ZM683,191.63h9.24l-4.62-12.92L683,191.63Z"/><path class="cls-1" d="M706.11,189.39v10.32h-3.28v-25h8.11c2.82,0,5,.68,6.44,2a6.6,6.6,0,0,1,2.22,5,7,7,0,0,1-6.49,7.45L720,199.71h-4.12l-6.56-10.32Zm0-12v9.45h4.83a5.64,5.64,0,0,0,4-1.24,4.55,4.55,0,0,0,1.32-3.48q0-4.73-5.34-4.73Z"/></g></g></svg>