<svg xmlns="http://www.w3.org/2000/svg" viewBox="0 0 399.2 388.6"><defs><style>.cls-1{fill:#eee;}.cls-2{fill:#fff;}.cls-3{fill:#555;}.cls-4{fill:#ababab;}.cls-5{fill:#c34;}.cls-6{fill:#222;}</style></defs><g id="Capa_2" data-name="Capa 2"><g id="Layer_1" data-name="Layer 1"><path class="cls-1" d="M41.1,216.8l.6.7a14.2,14.2,0,0,0,.7-2.2Z"/><path class="cls-1" d="M395.4,202.2C381,97.1,381-43,205.8,12.6S-13.3,44.2,3.2,194.6,25.8,412.2,202,381.3C390.8,348.1,409.8,307.3,395.4,202.2Zm-24-3.9h0a3.7,3.7,0,0,1-2.5-1c-.4,1.2-1,2.5-1.6,3.9a2.3,2.3,0,0,1,1.4.4,2.5,2.5,0,0,1,.7,3.5c-9.1,13.4-31.3,35-60.2,52.8-24.9,15.3-64.1,33.5-109.6,33.5-43.1,0-79-13.5-101.5-24.9C72,253.3,48.6,235.1,35.5,217.9a2.6,2.6,0,0,1,.8-3.7,8.6,8.6,0,0,0,3.5-9.9,8.9,8.9,0,0,0-4.1-5,7.9,7.9,0,0,0-5.2-.9,2.6,2.6,0,0,1-2.7,1.3,2.9,2.9,0,0,1-2.2-2.2,3.3,3.3,0,0,1-1.3-2.6c-.1-9.6,7.1-22.3,20.3-35.6,16-16.2,38.5-31.2,63.3-42.2,29.4-13,61.1-19.9,91.7-19.9,67,0,125.8,35.5,155.8,65.9,12.5,12.7,19.6,24.3,19.5,31.8A3.5,3.5,0,0,1,371.4,198.3Z"/><path class="cls-2" d="M367.9,194.8c.1-4.1-4.5-13.6-17.5-26.8-22.4-22.8-61.5-48.5-108.1-59a95.9,95.9,0,0,1,30.4,147.8,2,2,0,0,1-1.6.7,2.2,2.2,0,0,1-1.3-.4,2,2,0,0,1-.2-2.8c-2.9-9.7-11.3-17.3-22.1-17.3a23.8,23.8,0,0,0-11.3,2.9h7.3a1,1,0,0,1,1,1v23.3a1,1,0,0,1-1,1H229.7a.9.9,0,0,1-1-1V246a19.6,19.6,0,0,0-3.3,5.3v12.9a1,1,0,0,1-1,1h-.1a24.7,24.7,0,0,0,9.8,14.7,16.9,16.9,0,0,0,2.8-1.2,2.1,2.1,0,0,1,2.7,1,1.9,1.9,0,0,1-.3,2.1c64.1-14.7,113.3-60.8,126-79.5a2.3,2.3,0,0,1,2-1.1c.6-1.4,1.2-2.7,1.6-3.9A3.9,3.9,0,0,1,367.9,194.8Z"/><path class="cls-2" d="M38.1,194.9a13.7,13.7,0,0,1,4.3,20.4,14.2,14.2,0,0,1-.7,2.2c18.8,23,63.4,55.1,120.5,65.5a95.7,95.7,0,0,1-34.1-151.9,1.9,1.9,0,0,1,2.8-.2,2,2,0,0,1,.2,2.8,83.5,83.5,0,0,0-6.5,8.2,22.2,22.2,0,0,0,16.8,7.8,24.9,24.9,0,0,0,14.4-4.8v-3.8a5.8,5.8,0,0,1,5.9-5.9h2a20.9,20.9,0,0,0,1.6-8.6,25.4,25.4,0,0,0-5.1-14.7,78.8,78.8,0,0,0-7.6,4,2,2,0,0,1-2.7-.7,1.9,1.9,0,0,1,.7-2.7,75.8,75.8,0,0,1,7.4-4c-45.8,9.4-85.6,32.6-108.4,55.7-10.8,10.9-17.5,21.7-18.2,29.1A13.3,13.3,0,0,1,38.1,194.9Z"/><path class="cls-1" d="M165.3,126.6a20.9,20.9,0,0,1-1.6,8.6H167a.9.9,0,0,1,1,1h6.3a1,1,0,0,1,1-1h74.1a5.8,5.8,0,0,1,4.1,1.6l.2.2a5.8,5.8,0,0,1,1.6,4.1V162a.9.9,0,0,1-1,1v8.2a.9.9,0,0,1,1,1v13.7h7.5a5.8,5.8,0,0,1,5.7,5.8V227a5.8,5.8,0,0,1-5.7,5.8H235.4l-14.2,10.6a55.7,55.7,0,0,1-8.1,2.9h11.3a1,1,0,0,1,1,1v4a19.6,19.6,0,0,1,3.3-5.3v-5.1a.9.9,0,0,1,1-1h6.5a23.8,23.8,0,0,1,11.3-2.9c10.8,0,19.2,7.6,22.1,17.3h0a91.8,91.8,0,0,0-49.2-148.8,178.7,178.7,0,0,0-20.8-1.2,190.5,190.5,0,0,0-20.1,1,90.2,90.2,0,0,0-19.3,6.7A25.4,25.4,0,0,1,165.3,126.6Z"/><path class="cls-1" d="M209.6,264.2V247l-4.4.7v16.5a.9.9,0,0,1-1,1H190.4a1,1,0,0,1-1-1V247a52.2,52.2,0,0,1-24.8-12.2V240a3.8,3.8,0,0,1-3.9,3.9h-9.3a.9.9,0,0,1-1-1h-4.3a.9.9,0,0,1-1,1h-6.2A3.8,3.8,0,0,1,135,240V196a3.8,3.8,0,0,1,3.9-3.8h7.6a54.6,54.6,0,0,1,2.4-13.5H131.7a1,1,0,0,1-1-1V171a1,1,0,0,1,1-1h0v-5h0a.9.9,0,0,1-1-1V153.3a.9.9,0,0,1,1-1h24.1v-7.4a24.9,24.9,0,0,1-14.4,4.8,22.2,22.2,0,0,1-16.8-7.8,91.8,91.8,0,0,0,67,144.4h8c3.1,0,6.1,0,9.1-.2a91.9,91.9,0,0,0,25.4-6.3,24.7,24.7,0,0,1-9.8-14.7H210.6A.9.9,0,0,1,209.6,264.2Z"/><path class="cls-3" d="M153.9,176.5l-3,.2h4Z"/><path class="cls-3" d="M184.5,230.7a8.4,8.4,0,0,1-2.8-2.5A3.7,3.7,0,0,0,184.5,230.7Z"/><path class="cls-3" d="M155.7,178.7h-6.8a54.6,54.6,0,0,0-2.4,13.5h9.2Z"/><path class="cls-3" d="M179.5,227v-6.8H164.6v14.6A52.2,52.2,0,0,0,189.4,247v-6.1a1,1,0,0,1,1-1h13.8a.9.9,0,0,1,1,1v6.8l4.4-.7a1,1,0,0,1,1-.7h2.5a55.7,55.7,0,0,0,8.1-2.9l14.2-10.6H185.2A5.8,5.8,0,0,1,179.5,227Z"/><path class="cls-2" d="M253.7,137l-.2-.2Z"/><path class="cls-2" d="M167,137.2h-5.3a3.8,3.8,0,0,0-3.9,3.9v3.1h69.7a1.1,1.1,0,0,1,1,1,1,1,0,0,1-1,1H157.8v6.1h56.3a.9.9,0,0,1,1,1v10.6a1,1,0,0,1-1,1,1.1,1.1,0,0,1-1-1v-9.6H132.7V164a1,1,0,0,1-1,1v5a1.1,1.1,0,0,1,1,1v5.7h18.2l3-.2,1,.2h58.2V170a1.1,1.1,0,0,1,1-1,1,1,0,0,1,1,1v7.7a1,1,0,0,1-1,1H157.7v13.5h3a3.8,3.8,0,0,1,3.9,3.8v22.2h14.9v-6a.9.9,0,0,1,1-1,1,1,0,0,1,1,1v6a1,1,0,0,1,0,2V227a5,5,0,0,0,.2,1.2,8.4,8.4,0,0,0,2.8,2.5h78.3a3.8,3.8,0,0,0,3.7-3.8V191.7a3.8,3.8,0,0,0-3.7-3.8h-7.5a.9.9,0,0,1-1,1,1,1,0,0,1-1-1H213.2a1,1,0,0,1-1-1,1.1,1.1,0,0,1,1-1h40.1V172.2a1,1,0,0,1,1-1h0V163h0a1,1,0,0,1-1-1V146.2h-7.5a.9.9,0,0,1-1-1,1,1,0,0,1,1-1h7.5v-3.1a3.8,3.8,0,0,0-3.9-3.9H175.3a1.1,1.1,0,0,1-1-1H168A1,1,0,0,1,167,137.2Zm14.5,54.5v5.8a1,1,0,0,1-1,1,.9.9,0,0,1-1-1v-5.8a5.8,5.8,0,0,1,5.7-5.8h11.1a1,1,0,0,1,1,1,.9.9,0,0,1-1,1H185.2A3.8,3.8,0,0,0,181.5,191.7ZM245,223.3a3.6,3.6,0,0,1-3.5,3.6h-32a3.6,3.6,0,0,1-3.6-3.6v-.7a3.6,3.6,0,0,1,3.6-3.5h32a3.5,3.5,0,0,1,3.5,3.5Zm7.3-11.3H231.9a.9.9,0,0,1-1-1,1,1,0,0,1,1-1h20.4a1,1,0,0,1,1,1A.9.9,0,0,1,252.3,212Zm-23.8-9.6h29.8a1,1,0,0,1,1,1,1.1,1.1,0,0,1-1,1H228.5a1,1,0,0,1-1-1A.9.9,0,0,1,228.5,202.4Zm-7.7-8a.5.5,0,0,1,.5.5v17.8a.5.5,0,0,1-.5.5H192.7a.5.5,0,0,1-.5-.5V194.9a.5.5,0,0,1,.5-.5Zm17.7-35.5H221.4a.9.9,0,0,1-1-1,1,1,0,0,1,1-1h17.1a1,1,0,0,1,1,1A.9.9,0,0,1,238.5,158.9Zm11.9-6.6a1,1,0,0,1,1,1,1.1,1.1,0,0,1-1,1h-29a1,1,0,0,1-1-1,.9.9,0,0,1,1-1Z"/><rect class="cls-2" x="193.2" y="195.4" width="27.1" height="16.89"/><polygon class="cls-2" points="179.5 220.2 179.5 220.2 179.5 220.2 179.5 220.2"/><rect class="cls-2" x="206.9" y="220.1" width="37.1" height="5.82" rx="2.5"/><path class="cls-2" d="M151.4,241.9h9.3a1.8,1.8,0,0,0,1.9-1.9V220.2a1,1,0,0,1-.7-1,1,1,0,0,1,.7-.9V196a1.8,1.8,0,0,0-1.9-1.8h-3a.9.9,0,0,1-1,1h0a1,1,0,0,1-1-1H138.9A1.8,1.8,0,0,0,137,196v44a1.8,1.8,0,0,0,1.9,1.9h6.2a1,1,0,0,1,1,1h4.3A1,1,0,0,1,151.4,241.9ZM142.2,199a.5.5,0,0,1-.5-.5.6.6,0,0,1,.5-.5h15.3a.6.6,0,0,1,.5.5.5.5,0,0,1-.5.5Z"/><rect class="cls-2" x="191.4" y="241.9" width="11.8" height="21.33"/><rect class="cls-2" x="211.6" y="248.3" width="11.8" height="14.97"/><rect class="cls-2" x="230.7" y="241.9" width="11.8" height="21.33"/><path class="cls-4" d="M149.9,115.2a2,2,0,0,0,2.7.7,78.8,78.8,0,0,1,7.6-4,90.2,90.2,0,0,1,19.3-6.7,188.7,188.7,0,0,0-21.5,3.3,75.8,75.8,0,0,0-7.4,4A1.9,1.9,0,0,0,149.9,115.2Z"/><path class="cls-4" d="M291.4,194.8a91.4,91.4,0,0,1-21.8,59.4h0a2,2,0,0,0,.2,2.8,2.2,2.2,0,0,0,1.3.4,2,2,0,0,0,1.6-.7A95.9,95.9,0,0,0,242.3,109a192.3,192.3,0,0,0-21.9-3.6A91.8,91.8,0,0,1,291.4,194.8Z"/><path class="cls-4" d="M239.3,281.8a1.9,1.9,0,0,0,.3-2.1,2.1,2.1,0,0,0-2.7-1,16.9,16.9,0,0,1-2.8,1.2,91.9,91.9,0,0,1-25.4,6.3A180.5,180.5,0,0,0,239.3,281.8Z"/><path class="cls-4" d="M107.8,194.8a91.4,91.4,0,0,1,16.8-52.9,83.5,83.5,0,0,1,6.5-8.2,2,2,0,0,0-.2-2.8,1.9,1.9,0,0,0-2.8.2A95.7,95.7,0,0,0,162.2,283a198.8,198.8,0,0,0,29.4,3.3A92,92,0,0,1,107.8,194.8Z"/><path class="cls-5" d="M253.3,172.2v13.7H213.2a1.1,1.1,0,0,0-1,1,1,1,0,0,0,1,1h40.1a1,1,0,0,0,1,1,.9.9,0,0,0,1-1h7.5a3.8,3.8,0,0,1,3.7,3.8V227a3.8,3.8,0,0,1-3.7,3.8H184.5a3.7,3.7,0,0,1-2.8-2.5,5,5,0,0,1-.2-1.2v-6.8a1,1,0,0,0,0-2v-6a1,1,0,0,0-1-1,.9.9,0,0,0-1,1v6H164.6V196a3.8,3.8,0,0,0-3.9-3.8h-3V178.7h56.4a1,1,0,0,0,1-1V170a1,1,0,0,0-1-1,1.1,1.1,0,0,0-1,1v6.7H132.7V171a1.1,1.1,0,0,0-1-1h0a1,1,0,0,0-1,1v6.7a1,1,0,0,0,1,1h24v13.5H138.9A3.8,3.8,0,0,0,135,196v44a3.8,3.8,0,0,0,3.9,3.9h6.2a.9.9,0,0,0,1-1h0a1,1,0,0,0-1-1h-6.2A1.8,1.8,0,0,1,137,240V196a1.8,1.8,0,0,1,1.9-1.8h16.8a1,1,0,0,0,1,1h0a.9.9,0,0,0,1-1h3a1.8,1.8,0,0,1,1.9,1.8v22.3a1,1,0,0,0-.7.9,1,1,0,0,0,.7,1V240a1.8,1.8,0,0,1-1.9,1.9h-9.3a1,1,0,0,0-1,1h0a.9.9,0,0,0,1,1h9.3a3.8,3.8,0,0,0,3.9-3.9V220.2h14.9V227a5.8,5.8,0,0,0,5.7,5.8h77.6a5.8,5.8,0,0,0,5.7-5.8V191.7a5.8,5.8,0,0,0-5.7-5.8h-7.5V172.2a.9.9,0,0,0-1-1h0A1,1,0,0,0,253.3,172.2Z"/><path class="cls-5" d="M175.3,137.2h74.1a3.8,3.8,0,0,1,3.9,3.9v3.1h-7.5a1,1,0,0,0-1,1,.9.9,0,0,0,1,1h7.5V162a1,1,0,0,0,1,1h0a.9.9,0,0,0,1-1V141.1a5.8,5.8,0,0,0-1.6-4.1l-.2-.2a5.8,5.8,0,0,0-4.1-1.6H175.3a1,1,0,0,0-1,1A1.1,1.1,0,0,0,175.3,137.2Z"/><path class="cls-5" d="M155.8,152.3H131.7a.9.9,0,0,0-1,1V164a.9.9,0,0,0,1,1h0a1,1,0,0,0,1-1v-9.7h80.4v9.6a1.1,1.1,0,0,0,1,1,1,1,0,0,0,1-1V153.3a.9.9,0,0,0-1-1H157.8v-6.1h69.7a1,1,0,0,0,1-1,1.1,1.1,0,0,0-1-1H157.8v-3.1a3.8,3.8,0,0,1,3.9-3.9H167a1,1,0,0,0,1-1,.9.9,0,0,0-1-1h-5.3a5.8,5.8,0,0,0-5.9,5.9v11.2Z"/><path class="cls-5" d="M221.4,152.3a.9.9,0,0,0-1,1,1,1,0,0,0,1,1h29a1.1,1.1,0,0,0,1-1,1,1,0,0,0-1-1Z"/><path class="cls-5" d="M239.5,157.9a1,1,0,0,0-1-1H221.4a1,1,0,0,0-1,1,.9.9,0,0,0,1,1h17.1A.9.9,0,0,0,239.5,157.9Z"/><path class="cls-5" d="M197.3,186.9a1,1,0,0,0-1-1H185.2a5.8,5.8,0,0,0-5.7,5.8v5.8a.9.9,0,0,0,1,1,1,1,0,0,0,1-1v-5.8a3.8,3.8,0,0,1,3.7-3.8h11.1A.9.9,0,0,0,197.3,186.9Z"/><path class="cls-5" d="M228.5,204.4h29.8a1.1,1.1,0,0,0,1-1,1,1,0,0,0-1-1H228.5a.9.9,0,0,0-1,1A1,1,0,0,0,228.5,204.4Z"/><path class="cls-5" d="M252.3,210H231.9a1,1,0,0,0-1,1,.9.9,0,0,0,1,1h20.4a.9.9,0,0,0,1-1A1,1,0,0,0,252.3,210Z"/><path class="cls-5" d="M192.2,194.9v17.8a.5.5,0,0,0,.5.5h28.1a.5.5,0,0,0,.5-.5V194.9a.5.5,0,0,0-.5-.5H192.7A.5.5,0,0,0,192.2,194.9Zm1,.5h27.1v16.8H193.2Z"/><path class="cls-5" d="M241.5,219.1h-32a3.6,3.6,0,0,0-3.6,3.5v.7a3.6,3.6,0,0,0,3.6,3.6h32a3.6,3.6,0,0,0,3.5-3.6v-.7A3.5,3.5,0,0,0,241.5,219.1Zm0,6.8h-32a2.6,2.6,0,0,1-2.6-2.6v-.7a2.6,2.6,0,0,1,2.6-2.5h32a2.5,2.5,0,0,1,2.5,2.5v.7A2.6,2.6,0,0,1,241.5,225.9Z"/><path class="cls-5" d="M204.2,239.9H190.4a1,1,0,0,0-1,1v23.3a1,1,0,0,0,1,1h13.8a.9.9,0,0,0,1-1V240.9A.9.9,0,0,0,204.2,239.9Zm-12.8,23.3V241.9h11.8v21.3Z"/><path class="cls-5" d="M224.4,246.3H210.6a1,1,0,0,0-1,.7v17.2a.9.9,0,0,0,1,1h13.8a1,1,0,0,0,1-1V247.3A1,1,0,0,0,224.4,246.3Zm-1,2v14.9H211.6V248.3Z"/><path class="cls-5" d="M228.7,240.9v23.3a.9.9,0,0,0,1,1h13.8a1,1,0,0,0,1-1V240.9a1,1,0,0,0-1-1H229.7A.9.9,0,0,0,228.7,240.9Zm13.8,22.3H230.7V241.9h11.8Z"/><path class="cls-5" d="M157.5,199a.5.5,0,0,0,.5-.5.6.6,0,0,0-.5-.5H142.2a.6.6,0,0,0-.5.5.5.5,0,0,0,.5.5Z"/><path class="cls-3" d="M365.3,202.3c-12.7,18.7-61.9,64.8-126,79.5a180.5,180.5,0,0,1-30.6,4.4c-3,.2-6,.2-9.1.2h-8a198.8,198.8,0,0,1-29.4-3.3c-57.1-10.4-101.7-42.5-120.5-65.5l-.6-.7,1.3-1.5a13.7,13.7,0,0,0-4.3-20.4,13.3,13.3,0,0,0-6.7-1.6,7.6,7.6,0,0,0-.1,1.5,3.5,3.5,0,0,1-3.5,3.5h0a3.5,3.5,0,0,1-2.2-.8,2.9,2.9,0,0,0,2.2,2.2,2.6,2.6,0,0,0,2.7-1.3,7.9,7.9,0,0,1,5.2.9,8.9,8.9,0,0,1,4.1,5,8.6,8.6,0,0,1-3.5,9.9,2.6,2.6,0,0,0-.8,3.7c13.1,17.2,36.5,35.4,62.6,48.6,22.5,11.4,58.4,24.9,101.5,24.9,45.5,0,84.7-18.2,109.6-33.5,28.9-17.8,51.1-39.4,60.2-52.8a2.5,2.5,0,0,0-.7-3.5,2.5,2.5,0,0,0-3.4.7Z"/><path class="cls-6" d="M199.6,97.2c-30.6,0-62.3,6.9-91.7,19.9-24.8,11-47.3,26-63.3,42.2-13.2,13.3-20.4,26-20.3,35.6a3.3,3.3,0,0,0,1.3,2.6,3.5,3.5,0,0,0,2.2.8h0a3.5,3.5,0,0,0,3.5-3.5,7.6,7.6,0,0,1,.1-1.5c.7-7.4,7.4-18.2,18.2-29.1,22.8-23.1,62.6-46.3,108.4-55.7a204.2,204.2,0,0,1,41.6-4.3,178.7,178.7,0,0,1,20.8,1.2,192.3,192.3,0,0,1,21.9,3.6c46.6,10.5,85.7,36.2,108.1,59,13,13.2,17.6,22.7,17.5,26.8a3.9,3.9,0,0,0,1,2.5,3.7,3.7,0,0,0,2.5,1h0a3.5,3.5,0,0,0,3.5-3.4c.1-7.5-7-19.1-19.5-31.8C325.4,132.7,266.6,97.2,199.6,97.2Z"/></g></g></svg>