<svg xmlns="http://www.w3.org/2000/svg" viewBox="0 0 399.5 388.9"><defs><style>.cls-1{fill:#eee;}.cls-2{fill:#fff;}.cls-3{fill:#e34;}.cls-4{fill:#fdd;}.cls-5{opacity:0.19;}.cls-6{fill:#faa;}.cls-7{fill:#222;}</style></defs><g id="Capa_2" data-name="Capa 2"><g id="Layer_1" data-name="Layer 1"><path class="cls-1" d="M3.2,194.8C-13.3,44.2,30.7,68.3,206,12.6S381.2,97.2,395.7,202.3s-4.6,146.1-193.6,179.2C25.8,412.4,19.7,345.3,3.2,194.8Z"/><polygon class="cls-2" points="48.2 257.3 48.2 73.9 214.6 73.9 214.6 257.9 48.2 257.3"/><path class="cls-3" d="M216.9,259.3l-169.3-.6V72.5H216.9ZM50.4,255.9l163.6.6V75.3H50.4Z"/><path class="cls-3" d="M137.7,253.1l-78.4-.6-.4-28.8h.6l77.8.4Zm-77.3-1.7,76.1.6-.4-26.8-76-.4Z"/><path class="cls-3" d="M205.1,144.8l-145.7-.2V85.5H205.1ZM60.8,143.1l142.8.2V87H60.8Z"/><path class="cls-3" d="M131.5,219.3l-72.7-.2V149.7h72.7ZM60,218l70.4.2V150.8H60Z"/><rect class="cls-3" x="94.6" y="135" width="1.1" height="99.05" transform="translate(-103.9 125.7) rotate(-46.2)"/><rect class="cls-3" x="45.7" y="183.8" width="98.9" height="1.14" transform="translate(-101 116.8) rotate(-43.7)"/><path class="cls-3" d="M96.8,103.8h-29V92h29Zm-27.9-1.1H95.7V93.1H68.9Z"/><path class="cls-2" d="M322.9,217.2l-27.4.7L282,223.1l-58.6,37.1-24.9-2.3s5.7-6.1,4.2-13.6-12.8-19-12.8-19l-6.5-3-20.2-5.6V89.6H350.9V217.4Z"/><path class="cls-3" d="M353.5,219l-191-.7V88h191Zm-187.8-3.9,184.5.7V91.2H165.7Z"/><path class="cls-3" d="M342.6,206.5,180.3,206V100.5H342.6Zm-161.1-1.7,159.9.6V101.6H181.5Z"/><path class="cls-2" d="M280.9,250l-25.6,10.6-17.9-1.8-58.7,37.1-24.9-2.3s5.7-6.1,4.2-13.6-12.8-19-12.8-19l-6.4-2.9-20.3-5.7V45.6H306.3V253.1Z"/><rect class="cls-4" x="130.7" y="235.8" width="165.2" height="41.62"/><path class="cls-2" d="M57.8,310.2l18.1-29.6-.4-13.4L82,239.9s17-16.6,19.3-17,17.7-5.2,17.7-5.2l.3,36.5s13.8.1,19.5,3.9,12.8,8,15,12.5,4.7,9.2,4.2,13.4-4.8,9.4-4.8,9.4l23.6,1.9,7.6-3.7,50.5-31.7s11.8-1.9,13.7-1.8,8.5,3.3,8.5,3.3S274.8,251,283,250.9a90.1,90.1,0,0,1,16.8,1.5l5.9,5,.3,5.8,12,4,6.8,6.9-2.4,7.3-30.8,21.7-17,17.5L241.5,348l-6.8,4.2-23.9,3.3-15.1,5.4-12,.5-17.9-8.5-6.1,4.7-14.9,14.9-20.7,7.4-26.6-.5-15.7-5.9L70.6,359l-8.2-18.1L57.1,323Z"/><g class="cls-5"><path class="cls-3" d="M321.2,270.1l2.2,1.3c-.1-1.2-1.7-2.3-3.8-3.3A5.9,5.9,0,0,1,321.2,270.1Z"/></g><g class="cls-5"><path class="cls-3" d="M191.4,361.3h.6l1.7-.5Z"/></g><polygon class="cls-3" points="308.8 263.6 305.6 263.6 305.6 47.2 121 47.2 121 252.4 117.8 252.4 117.8 44 308.8 44 308.8 263.6"/><rect class="cls-4" x="130.7" y="64.1" width="165.2" height="79.77"/><rect class="cls-4" x="130.7" y="149.3" width="94.9" height="79.77"/><rect class="cls-4" x="235.1" y="149.3" width="61.4" height="79.77"/><rect class="cls-3" x="235.5" y="71" width="9.7" height="3.21"/><rect class="cls-3" x="254" y="71" width="9.7" height="3.21"/><rect class="cls-3" x="272.5" y="71" width="9.7" height="3.21"/><rect class="cls-6" x="139.4" y="72" width="35.9" height="14.61"/><rect class="cls-6" x="250.5" y="157" width="30.6" height="3.13"/><rect class="cls-6" x="240.3" y="172.8" width="50.9" height="1.6"/><rect class="cls-6" x="240.3" y="178.2" width="50.9" height="1.6"/><rect class="cls-6" x="240.3" y="183.6" width="50.9" height="1.6"/><rect class="cls-6" x="240.3" y="189" width="50.9" height="1.6"/><rect class="cls-6" x="240.3" y="194.4" width="50.9" height="1.6"/><path class="cls-1" d="M320.9,275.5c-.4-.2-3.3.3-4.4.5h-.1a65,65,0,0,0-22.8,9.7l-1.8,1.2a57.6,57.6,0,0,0-10.9,8.8l-1.1,1.2c-3.3,3.1-15.5,9.7-18.7,12.8s3.3-4.9,5.6-7.1c4.1-4.2,8.7-8,12.7-12.2l1.7-1.9a2.1,2.1,0,0,1,.8-1.6,73.8,73.8,0,0,1,8-5.8l1-.9c4.1-3.5,7.5-7.9,11.2-11.7,1.9-1.9,3.8-3.7,6.1-4.3l-2.5-6.9s-23.3,10.9-29.1,12.9-50.7,38.1-50.7,38.1l-29.7,26.5L124.7,339c7.3,17.8-3,30.8-40,36.5l8.9,4.4s18.3,1.6,30.5,0,23.5-10.4,23.5-10.4L162.5,352l1.3.3a2.5,2.5,0,0,1,3.3-1c2.3,1,22.2,1.5,26.5.3,8.6-2.3,31.5-9.5,30-7s-3.1,2.6-6.4,4.7l-2.4,1.4a1.8,1.8,0,0,1-1,2.7l-7.2,2.9a8,8,0,0,1-2.2,1.7l1.3-.4,30-5.8,37.6-28.9s12.5-13.7,20.5-21.1S323,280.5,323,280.5s0-2.2.2-4.8A2,2,0,0,1,320.9,275.5Z"/><path class="cls-7" d="M208.1,357.8a1.6,1.6,0,0,1-1.6-1.4,1.7,1.7,0,0,1,1.3-1.8l27.3-4.3L272.2,321a167.1,167.1,0,0,1,47-39.3,6.8,6.8,0,0,0,.5-11.7,37.1,37.1,0,0,0-13.1-4.7,1.8,1.8,0,0,1-1.3-1.9,1.7,1.7,0,0,1,1.9-1.3c5.8,1.1,10.6,2.8,14.3,5.2a10.1,10.1,0,0,1-.7,17.2,161.7,161.7,0,0,0-46.2,38.7l-.3.3L236.7,353l-.7.4-27.6,4.4Z"/><path class="cls-7" d="M108.5,325.5a1.3,1.3,0,0,1-1.2-.5c-12.6-13.5-26.8-30.6-29.1-38.3l-4.9-14.4a1.4,1.4,0,0,1,0-.9c.3-1.1,6.7-26.5,8.7-31.5,1.2-2.9,6.3-8.2,7.9-9.7a86.2,86.2,0,0,1,9.7-8.3c5-3.7,18.4-5.4,19-5.5a1.7,1.7,0,0,1,1.8,1.4,1.7,1.7,0,0,1-1.4,1.8c-3.7.5-13.9,2.3-17.5,4.9a79.8,79.8,0,0,0-9.3,8c-4.3,4.2-6.7,7.4-7.2,8.6-1.8,4.4-7.6,27.1-8.5,30.7l4.8,13.9c1.8,5.9,12.9,20.5,28.3,37.1a1.6,1.6,0,0,1,0,2.3A1.5,1.5,0,0,1,108.5,325.5Z"/><path class="cls-7" d="M108.8,382.3c-8.7,0-17.7-1.3-24.9-5.4-15-8.6-23.2-37.4-26.8-53.9a30.8,30.8,0,0,1,4.1-23.1l14.9-23.5a1.7,1.7,0,0,1,2.2-.5,1.7,1.7,0,0,1,.5,2.3L63.9,301.6a27.4,27.4,0,0,0-3.6,20.7c3.4,16,11.3,43.8,25.2,51.8s35.5,4.8,47.1,2.2a27.4,27.4,0,0,0,13.9-7.9l17-17.7a1.6,1.6,0,0,1,2.3-.1,1.7,1.7,0,0,1,0,2.3l-17,17.8a30.5,30.5,0,0,1-15.5,8.7A115.1,115.1,0,0,1,108.8,382.3Z"/><path class="cls-7" d="M160.7,338.6a1.6,1.6,0,0,1-1.6-1.5,1.6,1.6,0,0,1,1.5-1.7l39.9-3.9,57.8-56.9a7.2,7.2,0,0,0,2.1-6.4,7,7,0,0,0-3.7-5.4h-.2a25.7,25.7,0,0,0-26.1,1.2l-51,33a1.8,1.8,0,0,1-1,.2l-23.7-2a1.5,1.5,0,0,1-1.5-1.7,1.6,1.6,0,0,1,1.7-1.5l23.2,2,50.5-32.7a29.2,29.2,0,0,1,29.4-1.4l.3.2a10.4,10.4,0,0,1,5.3,7.8,10.1,10.1,0,0,1-3.1,9l-58.2,57.4a1.5,1.5,0,0,1-1,.4l-40.4,4Z"/><path class="cls-7" d="M101.9,299.8a1.4,1.4,0,0,1-.9-.3l-11.7-7.8a1.5,1.5,0,0,1-.5-2.2,1.6,1.6,0,0,1,2.3-.5l11.2,7.5,41.7-1.3a13.7,13.7,0,0,0,13.2-12.6,24.4,24.4,0,0,0-.1-2.7c-.2-2.2-1.3-4.8-3.5-7.8A39.8,39.8,0,0,0,121,255.7h-.1l-24.5-2a1.7,1.7,0,0,1-1.5-1.8,1.7,1.7,0,0,1,1.8-1.4l24.4,1.9a43.3,43.3,0,0,1,35.1,17.8c2.5,3.5,3.9,6.6,4.1,9.4a16.1,16.1,0,0,1,.1,3.1,16.9,16.9,0,0,1-16.3,15.7l-42.2,1.4Z"/><path class="cls-7" d="M189.4,363.1a37,37,0,0,1-22.3-7.5l-3-2.2c-3.2-.1-20-.7-27.4-2-.7-.1-2.5-.5-13.7-10.7a1.6,1.6,0,0,1-.1-2.3,1.6,1.6,0,0,1,2.2-.1c10,9.1,12,9.9,12.2,9.9,7.8,1.5,27.2,2,27.4,2a1.4,1.4,0,0,1,.9.3l3.5,2.6a34,34,0,0,0,39.3.9l9.5-6.4,85.2-82.4A6.7,6.7,0,0,0,305,259a6.6,6.6,0,0,0-4-4.9l-2-.7a37,37,0,0,0-27.3,2l-14.5,7a1.6,1.6,0,0,1-2.2-.7,1.7,1.7,0,0,1,.8-2.2l14.5-7a39.8,39.8,0,0,1,29.7-2.1l2.2.8a9.8,9.8,0,0,1,6,7.2,10,10,0,0,1-2.9,9.1L220.1,350h-.2l-9.7,6.6A37.4,37.4,0,0,1,189.4,363.1Z"/></g></g></svg>