<?xml version="1.0" standalone="no"?>
<!-- Generator: Adobe Fireworks 10, Export SVG Extension by Aaron Beall (http://fireworks.abeall.com) . Version: 0.6.1  -->
<!DOCTYPE svg PUBLIC "-//W3C//DTD SVG 1.1//EN" "http://www.w3.org/Graphics/SVG/1.1/DTD/svg11.dtd">
<svg id="svg.fw-logo-colors" viewBox="0 0 340 149" style="background-color:#ffffff00" version="1.1"
	xmlns="http://www.w3.org/2000/svg" xmlns:xlink="http://www.w3.org/1999/xlink" xml:space="preserve"
	x="0px" y="0px" width="340px" height="149px"
>
	<g id="Layer%201">
		<g>
			<path id="st0" d="M 170 22.4632 L 170 22.4632 L 160.2672 32.321 C 160.2672 32.321 154.4276 38.6237 154.4276 47.1887 C 154.4276 47.1887 153.9408 54.6226 160.2672 61.8949 L 170 71.7527 L 170 71.7527 L 170 83.0651 L 170 83.0651 L 155.7251 68.6822 C 146.479 58.0163 147.1279 47.1887 147.1279 47.1887 C 147.1279 34.5835 155.7251 25.5336 155.7251 25.5336 L 170 11.1508 L 170 11.1508 L 170 22.4632 L 170 22.4632 Z" fill="#00b2e2"/>
			<path id="st1" d="M 139.8282 41.5326 L 139.8282 41.5326 L 149.7233 31.8362 C 149.7233 31.8362 156.0497 26.0184 164.6469 26.0184 C 164.6469 26.0184 172.1088 25.5336 179.4084 31.8362 L 189.3035 41.5326 L 189.3035 41.5326 L 200.6584 41.5326 L 200.6584 41.5326 L 186.2214 27.3113 C 175.5153 18.0998 164.6469 18.7462 164.6469 18.7462 C 151.9943 18.7462 142.9103 27.3113 142.9103 27.3113 L 128.4733 41.5326 L 128.4733 41.5326 L 139.8282 41.5326 L 139.8282 41.5326 Z" fill="#004e7d"/>
			<path id="st12" d="M 150.8587 41.5326 L 150.8587 41.5326 L 160.7538 51.2289 C 160.7538 51.2289 167.0801 57.0467 175.6775 57.0467 C 175.6775 57.0467 183.1393 57.5314 190.4389 51.2289 L 200.3339 41.5326 L 200.3339 41.5326 L 211.6888 41.5326 L 211.6888 41.5326 L 197.2519 55.7538 C 186.5457 64.9653 175.6775 64.3189 175.6775 64.3189 C 163.0248 64.3189 153.9408 55.7538 153.9408 55.7538 L 139.5037 41.5326 L 139.5037 41.5326 L 150.8587 41.5326 L 150.8587 41.5326 Z" fill="#004e7d"/>
			<path id="st02" d="M 170.1621 11.3124 L 170.1621 11.3124 L 179.895 21.1703 C 179.895 21.1703 185.7347 27.4729 185.7347 36.038 C 185.7347 36.038 186.2214 43.4718 179.895 50.7441 L 170.1621 60.6019 L 170.1621 60.6019 L 170.1621 71.9143 L 170.1621 71.9143 L 184.4371 57.5314 C 193.6832 46.8655 193.0342 36.038 193.0342 36.038 C 193.0342 23.4328 184.4371 14.3829 184.4371 14.3829 L 170.1621 0 L 170.1621 0 L 170.1621 11.3124 L 170.1621 11.3124 Z" fill="#00b2e2"/>
		</g>
		<g>
			<path id="st13" d="M 0 113.4469 L 0 98.256 C 0 96.1551 0.8111 94.8623 2.5953 94.3775 C 3.082 94.2159 3.4065 94.2159 3.5687 94.2159 C 3.8931 94.2159 5.0286 94.2159 7.4618 94.3775 C 9.7328 94.3775 11.5172 94.539 12.6526 94.7006 L 12.6526 97.7711 L 5.0286 97.7711 C 4.3798 97.7711 4.0554 97.9327 3.8931 98.256 C 3.7309 98.5792 3.7309 98.9024 3.7309 99.2256 L 3.7309 102.1345 L 11.5172 102.4577 L 11.5172 105.5283 L 3.7309 105.6898 L 3.7309 113.4469 L 0 113.4469 L 0 113.4469 Z" fill="#004e7d"/>
			<path id="st14" d="M 22.3854 113.6085 L 22.061 113.6085 C 19.9522 113.6085 18.4923 113.4469 17.8435 112.9621 C 17.5191 112.8005 17.1946 112.4772 16.708 111.9925 C 16.2214 111.5076 15.897 111.0228 15.7347 110.538 C 15.248 109.0835 14.9237 107.3059 14.9237 105.0434 L 14.9237 94.2159 L 18.6545 94.2159 L 18.6545 105.0434 C 18.6545 106.6594 18.8168 107.9523 19.1412 108.7604 C 19.4656 109.4067 19.9522 109.8915 20.9255 110.0531 C 21.25 110.0531 21.8989 110.2148 22.5477 110.2148 C 23.1966 110.2148 23.8455 110.0531 24.332 109.8915 C 25.3053 109.4067 25.9542 107.7907 25.9542 105.2049 L 25.9542 94.3775 L 29.6851 94.3775 L 29.6851 105.2049 C 29.6851 107.9523 29.3606 109.8915 28.5496 111.1844 C 28.2252 111.6692 28.0629 111.9925 27.7385 112.3156 C 27.4141 112.6388 27.0897 112.8005 26.7653 112.9621 C 26.4408 113.1236 25.9542 113.2852 25.7919 113.4469 C 25.6298 113.6085 25.1431 113.6085 24.6566 113.6085 C 24.0076 113.4469 23.3587 113.6085 22.3854 113.6085 L 22.3854 113.6085 Z" fill="#004e7d"/>
			<path id="st15" d="M 33.9026 95.0239 C 34.3893 94.7006 34.7137 94.539 35.2004 94.539 C 35.6871 94.3775 36.0115 94.3775 36.1736 94.3775 C 36.4981 94.3775 37.6336 94.3775 39.9045 94.539 C 42.1755 94.539 43.9599 94.7006 44.9332 94.8623 L 44.9332 97.9327 L 37.3092 97.9327 C 36.6603 97.9327 36.3359 98.0944 36.1736 98.4176 C 36.0115 98.7407 36.0115 99.0641 36.0115 99.3872 L 36.0115 102.2962 L 43.7977 102.6193 L 43.7977 105.6898 L 36.0115 105.8514 L 36.0115 108.7604 C 36.0115 109.4067 36.1736 109.8915 36.4981 109.8915 C 36.8225 110.0531 37.1469 110.0531 37.6336 110.0531 L 44.9332 110.0531 L 44.9332 113.1236 C 44.1221 113.2852 41.8511 113.4469 38.4446 113.4469 L 36.6603 113.4469 C 36.4981 113.4469 36.3359 113.4469 36.1736 113.4469 C 36.0115 113.4469 35.6871 113.4469 35.5248 113.4469 C 35.2004 113.4469 34.876 113.2852 34.3893 113.1236 C 33.9026 112.9621 33.5782 112.8005 33.2538 112.4772 C 32.605 111.8308 32.2805 110.8611 32.2805 109.5684 L 32.2805 98.0944 C 32.4427 96.64 32.9294 95.5086 33.9026 95.0239 L 33.9026 95.0239 Z" fill="#004e7d"/>
			<path id="st16" d="M 47.3665 113.4469 L 47.3665 94.2159 L 51.0974 94.2159 L 58.7214 106.6594 L 58.7214 94.2159 L 62.4523 94.2159 L 62.4523 113.4469 L 58.7214 113.4469 L 51.0974 101.1648 L 51.0974 113.4469 L 47.3665 113.4469 L 47.3665 113.4469 Z" fill="#004e7d"/>
			<path id="st17" d="M 64.3989 97.6096 L 64.3989 94.2159 L 78.6736 94.2159 L 78.6736 97.6096 L 73.3206 97.6096 L 73.3206 113.4469 L 69.5896 113.4469 L 69.5896 97.6096 L 64.3989 97.6096 L 64.3989 97.6096 Z" fill="#004e7d"/>
			<path id="st18" d="M 81.5935 95.0239 C 82.0801 94.7006 82.4045 94.539 82.8912 94.539 C 83.3778 94.3775 83.7022 94.3775 83.8646 94.3775 C 84.1889 94.3775 85.3243 94.3775 87.5955 94.539 C 89.8664 94.539 91.6508 94.7006 92.624 94.8623 L 92.624 97.9327 L 84.9999 97.9327 C 84.3511 97.9327 84.0267 98.0944 83.8646 98.4176 C 83.7022 98.7407 83.7022 99.0641 83.7022 99.3872 L 83.7022 102.2962 L 91.4885 102.6193 L 91.4885 105.6898 L 83.7022 105.8514 L 83.7022 108.7604 C 83.7022 109.4067 83.8646 109.8915 84.1889 109.8915 C 84.5134 110.0531 84.8378 110.0531 85.3243 110.0531 L 92.624 110.0531 L 92.624 113.1236 C 91.8129 113.2852 89.542 113.4469 86.1354 113.4469 L 84.3511 113.4469 C 84.1889 113.4469 84.0267 113.4469 83.8646 113.4469 C 83.7022 113.4469 83.3778 113.4469 83.2156 113.4469 C 82.8912 113.4469 82.5668 113.2852 82.0801 113.1236 C 81.5935 112.9621 81.2691 112.8005 80.9446 112.4772 C 80.2958 111.8308 79.9713 110.8611 79.9713 109.5684 L 79.9713 98.0944 C 80.2958 96.64 80.7824 95.5086 81.5935 95.0239 L 81.5935 95.0239 Z" fill="#004e7d"/>
			<path id="st19" d="M 94.895 100.6801 L 94.895 99.0641 C 94.895 97.2863 95.3817 95.9935 96.355 95.1855 C 97.3282 94.539 98.4637 94.2159 100.0859 94.2159 C 100.2481 94.2159 100.7347 94.2159 101.3836 94.2159 C 102.0324 94.2159 103.0057 94.2159 104.3034 94.3775 C 105.6011 94.539 106.7366 94.7006 107.3856 94.8623 L 107.3856 97.7711 C 105.439 97.6096 103.8168 97.448 102.6813 97.448 C 101.5458 97.448 100.897 97.448 100.7347 97.448 C 99.9236 97.448 99.437 97.6096 98.9504 97.7711 C 98.626 97.9327 98.4637 98.4176 98.4637 99.3872 L 98.4637 100.3568 C 98.4637 101.1648 98.626 101.6497 98.9504 101.8113 C 99.2748 102.1345 99.7615 102.1345 100.5725 102.1345 L 103.6545 102.1345 C 105.6011 102.1345 107.0611 102.9425 107.7099 104.5586 C 108.0344 105.3666 108.1966 106.3363 108.1966 107.3059 L 108.1966 108.5987 C 108.1966 110.8611 107.3856 112.4772 105.9255 113.1236 C 105.1144 113.4469 104.1412 113.7701 103.0057 113.7701 C 99.7615 113.7701 97.3282 113.4469 95.5438 112.9621 L 95.5438 110.0531 C 97.4904 110.2148 99.1125 110.3764 100.5725 110.3764 C 102.0324 110.3764 102.8434 110.3764 103.0057 110.3764 C 103.1679 110.3764 103.4923 110.2148 103.6545 110.2148 C 104.1412 110.0531 104.4656 109.5684 104.4656 108.7604 L 104.4656 107.7907 C 104.4656 106.821 104.1412 106.3363 103.6545 106.1746 C 103.4923 106.013 103.1679 106.013 102.8434 106.013 L 99.9236 106.013 C 96.6794 105.8514 94.895 104.0738 94.895 100.6801 L 94.895 100.6801 Z" fill="#004e7d"/>
			<path id="st110" d="M 122.958 106.013 L 127.5 106.013 L 125.3912 99.2256 L 122.958 106.013 L 122.958 106.013 ZM 116.6317 113.4469 L 123.1202 94.2159 L 127.3378 94.2159 L 133.6641 113.4469 L 129.771 113.4469 L 128.4733 109.2451 L 122.147 109.2451 L 120.687 113.4469 L 116.6317 113.4469 L 116.6317 113.4469 Z" fill="#004e7d"/>
			<path id="st111" d="M 139.0172 102.9425 L 143.3969 102.9425 C 144.0458 102.9425 144.5324 102.7809 144.8569 102.4577 C 145.1812 102.1345 145.3434 101.3265 145.3434 100.3568 C 145.3434 99.2256 145.1812 98.5792 144.8569 98.0944 C 144.5324 97.7711 144.0458 97.448 143.3969 97.448 L 139.0172 97.448 L 139.0172 102.9425 L 139.0172 102.9425 ZM 143.7213 94.2159 C 145.3434 94.2159 146.6412 94.7006 147.4522 95.5086 C 148.4255 96.4783 148.9122 98.0944 148.9122 100.1952 C 148.9122 102.6193 148.4255 104.2353 147.2901 105.0434 C 146.9656 105.3666 146.6412 105.5283 146.479 105.5283 C 146.3168 105.5283 145.9922 105.6898 145.668 105.8514 L 149.3988 113.4469 L 145.1812 113.4469 L 141.937 106.1746 L 138.6926 105.8514 L 138.6926 113.4469 L 134.9619 113.4469 L 134.9619 94.2159 L 143.7213 94.2159 L 143.7213 94.2159 Z" fill="#004e7d"/>
			<path id="st112" d="M 163.6736 117.9718 C 163.0248 118.1334 162.5382 118.1334 161.8893 118.1334 C 161.2404 118.1334 160.7538 117.9718 160.2672 117.8102 C 159.7805 117.6487 159.2939 117.487 158.8072 117.1638 C 158.3206 116.8406 157.9962 116.5173 157.6718 116.0326 C 157.3473 115.5477 157.1851 114.9012 157.1851 114.2549 L 159.2939 114.2549 C 159.7805 114.9012 160.4293 115.2246 161.5649 115.2246 C 162.2137 115.2246 162.8625 115.0629 163.6736 114.9012 L 163.6736 117.9718 L 163.6736 117.9718 ZM 154.5897 100.0337 C 154.4276 100.5184 154.4276 101.0032 154.4276 101.6497 C 154.4276 102.2962 154.4276 103.1042 154.4276 104.0738 C 154.4276 105.0434 154.4276 105.8514 154.5897 106.4979 C 154.5897 107.1443 154.7518 107.7907 154.9141 108.2755 C 155.0763 108.7604 155.4008 109.0835 155.5629 109.4067 C 156.2118 109.8915 157.0229 110.0531 158.3206 110.0531 C 159.6183 110.0531 160.4293 109.8915 160.9161 109.5684 C 161.4025 109.2451 161.8893 108.5987 162.2137 107.7907 C 162.5382 106.9827 162.5382 105.8514 162.5382 104.3969 C 162.5382 103.1042 162.5382 101.9728 162.376 101.3265 C 162.376 100.6801 162.2137 100.0337 162.0515 99.5488 C 161.8893 99.0641 161.7272 98.7407 161.5649 98.4176 C 161.4025 98.0944 161.0782 97.9327 160.7538 97.7711 C 160.2672 97.6096 159.6183 97.448 158.8072 97.448 C 157.9962 97.448 157.5095 97.448 157.1851 97.448 C 156.8607 97.448 156.5362 97.6096 156.2118 97.6096 C 155.8874 97.7711 155.5629 97.7711 155.4008 98.0944 C 155.2386 98.4176 155.0763 98.5792 154.9141 98.9024 C 154.9141 99.2256 154.7518 99.5488 154.5897 100.0337 L 154.5897 100.0337 ZM 150.8587 107.3059 C 150.6965 106.1746 150.6965 105.0434 150.6965 103.9122 C 150.6965 102.9425 150.6965 101.9728 150.8587 101.1648 C 150.8587 100.3568 151.021 99.5488 151.1832 99.0641 C 151.3455 98.4176 151.5076 97.9327 151.6697 97.448 C 151.832 96.9631 152.1565 96.4783 152.3187 96.1551 C 152.4808 95.832 152.8054 95.5086 153.2919 95.1855 C 153.6165 94.8623 153.9408 94.7006 154.4276 94.539 C 154.9141 94.3775 155.2386 94.2159 155.7251 94.2159 C 156.5362 94.0542 157.3473 94.0542 158.1583 94.0542 C 158.9694 94.0542 159.6183 94.0542 160.105 94.0542 C 160.5916 94.0542 161.0782 94.2159 161.5649 94.2159 C 162.0515 94.3775 162.5382 94.539 162.8625 94.7006 C 163.187 94.8623 163.6736 95.1855 163.9981 95.5086 C 164.3225 95.832 164.6469 96.3167 164.9714 96.8015 C 165.2958 97.2863 165.4579 97.9327 165.6202 98.5792 C 165.9446 99.8721 166.269 101.6497 166.269 103.9122 C 166.269 106.821 165.9446 109.0835 165.1336 110.6996 C 164.6469 111.5076 163.9981 112.154 163.187 112.6388 C 162.2137 113.1236 160.7538 113.4469 158.645 113.4469 C 156.5362 113.4469 155.0763 113.1236 154.103 112.6388 C 153.1297 112.154 152.4808 111.5076 152.1565 110.6996 C 151.3455 109.73 151.021 108.5987 150.8587 107.3059 L 150.8587 107.3059 Z" fill="#004e7d"/>
			<path id="st113" d="M 176.0018 113.6085 L 175.6775 113.6085 C 173.5686 113.6085 172.1088 113.4469 171.46 112.9621 C 171.1354 112.8005 170.8111 112.4772 170.3243 111.9925 C 169.8379 111.5076 169.5132 111.0228 169.3511 110.538 C 168.8644 109.0835 168.54 107.3059 168.54 105.0434 L 168.54 94.2159 L 172.271 94.2159 L 172.271 105.0434 C 172.271 106.6594 172.4332 107.9523 172.7576 108.7604 C 173.0821 109.4067 173.5686 109.8915 174.5419 110.0531 C 174.8664 110.0531 175.5153 110.2148 176.1641 110.2148 C 176.8129 110.2148 177.4618 110.0531 177.9485 109.8915 C 178.9218 109.4067 179.5707 107.7907 179.5707 105.2049 L 179.5707 94.3775 L 183.3015 94.3775 L 183.3015 105.2049 C 183.3015 107.9523 182.9771 109.8915 182.1661 111.1844 C 181.8416 111.6692 181.6793 111.9925 181.355 112.3156 C 181.0305 112.6388 180.7061 112.8005 180.3817 112.9621 C 180.0572 113.1236 179.5707 113.2852 179.4084 113.4469 C 179.2461 113.6085 178.7596 113.6085 178.2728 113.6085 C 177.624 113.4469 176.9752 113.6085 176.0018 113.6085 L 176.0018 113.6085 Z" fill="#004e7d"/>
			<path id="st114" d="M 186.0592 113.4469 L 186.0592 94.2159 L 189.79 94.2159 L 189.79 113.4469 L 186.0592 113.4469 L 186.0592 113.4469 Z" fill="#004e7d"/>
			<path id="st115" d="M 191.7366 97.6096 L 191.7366 94.2159 L 206.0114 94.2159 L 206.0114 97.6096 L 200.6584 97.6096 L 200.6584 113.4469 L 196.9275 113.4469 L 196.9275 97.6096 L 191.7366 97.6096 L 191.7366 97.6096 Z" fill="#004e7d"/>
			<path id="st116" d="M 208.9313 95.0239 C 209.4179 94.7006 209.7423 94.539 210.229 94.539 C 210.7156 94.3775 211.0401 94.3775 211.2023 94.3775 C 211.5267 94.3775 212.6622 94.3775 214.9332 94.539 C 217.2042 94.539 218.9885 94.7006 219.9618 94.8623 L 219.9618 97.9327 L 212.3378 97.9327 C 211.6888 97.9327 211.3646 98.0944 211.2023 98.4176 C 211.0401 98.7407 211.0401 99.0641 211.0401 99.3872 L 211.0401 102.2962 L 218.8263 102.6193 L 218.8263 105.6898 L 211.0401 105.8514 L 211.0401 108.7604 C 211.0401 109.4067 211.2023 109.8915 211.5267 109.8915 C 211.8511 110.0531 212.1755 110.0531 212.6622 110.0531 L 219.9618 110.0531 L 219.9618 113.1236 C 219.1507 113.2852 216.8798 113.4469 213.4733 113.4469 L 211.6888 113.4469 C 211.5267 113.4469 211.3646 113.4469 211.2023 113.4469 C 211.0401 113.4469 210.7156 113.4469 210.5534 113.4469 C 210.229 113.4469 209.9045 113.2852 209.4179 113.1236 C 208.9313 112.9621 208.6069 112.8005 208.2824 112.4772 C 207.6335 111.8308 207.3092 110.8611 207.3092 109.5684 L 207.3092 98.0944 C 207.4713 96.64 207.9581 95.5086 208.9313 95.0239 L 208.9313 95.0239 Z" fill="#004e7d"/>
			<path id="st117" d="M 223.3683 96.64 C 224.0172 95.5086 224.9905 94.7006 226.2881 94.3775 C 226.937 94.2159 227.7481 94.0542 228.5591 94.0542 C 230.9923 94.0542 233.2634 94.3775 235.2098 94.8623 L 235.2098 97.7711 C 234.8856 97.7711 234.7233 97.7711 234.561 97.7711 C 234.3988 97.7711 234.0745 97.7711 233.75 97.7711 C 233.4255 97.7711 233.1012 97.7711 232.7767 97.7711 C 232.4523 97.7711 232.1279 97.7711 231.6412 97.7711 C 230.8302 97.7711 230.0191 97.7711 229.3702 97.7711 C 228.7213 97.7711 228.2347 97.7711 227.9102 97.9327 C 227.5859 97.9327 227.2614 98.0944 226.937 98.4176 C 226.6126 98.5792 226.2881 99.0641 226.126 99.5488 C 225.8016 100.5184 225.6393 102.1345 225.6393 104.3969 C 225.6393 106.6594 225.9637 108.2755 226.4504 109.2451 C 226.937 110.2148 227.9102 110.6996 229.3702 110.6996 C 230.9923 110.6996 232.6144 110.6996 234.3988 110.538 L 235.2098 110.538 L 235.2098 113.4469 C 233.5877 113.9316 231.6412 114.2549 229.0458 114.2549 C 228.8835 114.2549 228.7213 114.2549 228.397 114.2549 C 226.126 114.2549 224.3416 113.4469 223.3683 111.6692 C 222.395 110.0531 221.9084 107.4674 221.9084 104.2353 C 222.0706 100.3568 222.395 98.0944 223.3683 96.64 L 223.3683 96.64 Z" fill="#004e7d"/>
			<path id="st118" d="M 236.832 97.6096 L 236.832 94.2159 L 251.1069 94.2159 L 251.1069 97.6096 L 245.7537 97.6096 L 245.7537 113.4469 L 242.0229 113.4469 L 242.0229 97.6096 L 236.832 97.6096 L 236.832 97.6096 Z" fill="#004e7d"/>
			<path id="st119" d="M 258.8931 92.5998 L 261.3264 88.8829 L 264.5706 88.8829 L 261.3264 92.5998 L 258.8931 92.5998 L 258.8931 92.5998 ZM 256.2976 100.0337 C 256.1354 100.5184 256.1354 101.0032 256.1354 101.6497 C 256.1354 102.2962 256.1354 103.1042 256.1354 104.0738 C 256.1354 105.0434 256.1354 105.8514 256.2976 106.4979 C 256.2976 107.1443 256.4599 107.7907 256.6222 108.2755 C 256.7844 108.7604 257.1087 109.0835 257.4332 109.4067 C 258.082 109.8915 259.0554 110.0531 260.353 110.0531 C 261.6508 110.0531 262.4618 109.8915 263.1107 109.4067 C 263.9218 108.7604 264.4083 106.9827 264.4083 103.9122 C 264.4083 101.8113 264.2462 100.5184 264.0839 99.8721 C 263.9218 99.2256 263.5973 98.7407 263.4351 98.4176 C 263.2729 98.0944 262.9485 97.9327 262.624 97.7711 C 262.1374 97.6096 261.4886 97.448 260.6776 97.448 C 259.8665 97.448 259.3797 97.448 259.2176 97.448 C 258.8931 97.448 258.5687 97.6096 258.2443 97.6096 C 257.9198 97.7711 257.5955 97.7711 257.4332 98.0944 C 257.271 98.4176 257.1087 98.5792 256.9466 98.9024 C 256.4599 99.2256 256.4599 99.5488 256.2976 100.0337 L 256.2976 100.0337 ZM 252.729 108.7604 C 252.5668 108.1139 252.5668 107.4674 252.4045 106.6594 C 252.4045 105.8514 252.2423 104.8818 252.2423 103.7505 C 252.2423 102.6193 252.2423 101.6497 252.4045 100.6801 C 252.5668 99.7104 252.729 98.9024 252.8912 98.0944 C 253.0533 97.448 253.3779 96.8015 253.8644 96.3167 C 254.189 95.832 254.6755 95.5086 255.0001 95.1855 C 255.3243 94.8623 255.8111 94.7006 256.4599 94.539 C 257.4332 94.2159 258.4065 94.2159 259.3797 94.2159 C 260.353 94.2159 261.1641 94.2159 261.6508 94.2159 C 262.1374 94.2159 262.624 94.3775 263.1107 94.3775 C 263.5973 94.539 264.0839 94.7006 264.4083 94.8623 C 264.7329 95.0239 265.2194 95.3471 265.5439 95.6703 C 265.8683 95.9935 266.1927 96.4783 266.5172 96.9631 C 266.8416 97.448 267.0038 98.0944 267.1661 98.7407 C 267.4904 100.0337 267.8149 101.4881 267.8149 103.2657 C 267.8149 105.0434 267.8149 106.3363 267.6526 107.3059 C 267.4904 108.2755 267.3282 109.0835 267.1661 109.73 C 267.0038 110.3764 266.6794 111.0228 266.355 111.5076 C 266.0305 111.9925 265.5439 112.3156 265.2194 112.6388 C 264.895 112.9621 264.4083 113.1236 263.7595 113.2852 C 262.4618 113.6085 260.6776 113.7701 258.5687 113.6085 C 257.4332 113.6085 256.6222 113.4469 256.1354 113.2852 C 255.6489 113.1236 255.1622 112.8005 254.8378 112.6388 C 254.5134 112.4772 254.189 112.154 253.8644 111.8308 C 253.5401 111.5076 253.3779 111.0228 253.2156 110.538 C 253.0533 109.8915 252.8912 109.2451 252.729 108.7604 L 252.729 108.7604 Z" fill="#004e7d"/>
			<path id="st120" d="M 270.2481 113.4469 L 270.2481 94.2159 L 273.979 94.2159 L 281.603 106.6594 L 281.603 94.2159 L 285.3339 94.2159 L 285.3339 113.4469 L 281.603 113.4469 L 273.979 101.1648 L 273.979 113.4469 L 270.2481 113.4469 L 270.2481 113.4469 Z" fill="#004e7d"/>
			<path id="st121" d="M 288.0916 113.4469 L 288.0916 94.2159 L 291.8225 94.2159 L 291.8225 113.4469 L 288.0916 113.4469 L 288.0916 113.4469 Z" fill="#004e7d"/>
			<path id="st122" d="M 295.3912 96.64 C 296.04 95.5086 297.0134 94.7006 298.311 94.3775 C 298.9599 94.2159 299.771 94.0542 300.5821 94.0542 C 303.0153 94.0542 305.2863 94.3775 307.2328 94.8623 L 307.2328 97.7711 C 306.9084 97.7711 306.7462 97.7711 306.5839 97.7711 C 306.4218 97.7711 306.0974 97.7711 305.7728 97.7711 C 305.4485 97.7711 305.124 97.7711 304.7996 97.7711 C 304.4752 97.7711 304.1507 97.7711 303.6641 97.7711 C 302.8531 97.7711 302.042 97.7711 301.3931 97.7711 C 300.7443 97.7711 300.2577 97.7711 299.9332 97.9327 C 299.6089 97.9327 299.2842 98.0944 298.9599 98.4176 C 298.6354 98.5792 298.311 99.0641 298.1489 99.5488 C 297.8245 100.5184 297.6621 102.1345 297.6621 104.3969 C 297.6621 106.6594 297.9866 108.2755 298.4733 109.2451 C 298.9599 110.2148 299.9332 110.6996 301.3931 110.6996 C 303.0153 110.6996 304.6374 110.6996 306.4218 110.538 L 307.2328 110.538 L 307.2328 113.4469 C 305.6107 113.9316 303.6641 114.2549 301.0687 114.2549 C 300.9064 114.2549 300.7443 114.2549 300.4199 114.2549 C 298.1489 114.2549 296.3646 113.4469 295.3912 111.6692 C 294.4179 110.0531 293.9314 107.4674 293.9314 104.2353 C 294.0935 100.3568 294.4179 98.0944 295.3912 96.64 L 295.3912 96.64 Z" fill="#004e7d"/>
			<path id="st123" d="M 315.1813 106.013 L 319.7233 106.013 L 317.6146 99.2256 L 315.1813 106.013 L 315.1813 106.013 ZM 308.855 113.4469 L 315.3434 94.2159 L 319.561 94.2159 L 325.8874 113.4469 L 321.9943 113.4469 L 320.6967 109.2451 L 314.2081 109.2451 L 312.7481 113.4469 L 308.855 113.4469 L 308.855 113.4469 Z" fill="#004e7d"/>
			<path id="st124" d="M 326.6985 100.6801 L 326.6985 99.0641 C 326.6985 97.2863 327.1851 95.9935 328.1584 95.1855 C 329.1317 94.539 330.2672 94.2159 331.8893 94.2159 C 332.0516 94.2159 332.5381 94.2159 333.187 94.2159 C 333.8359 94.2159 334.8091 94.2159 336.1069 94.3775 C 337.4045 94.539 338.5401 94.7006 339.1889 94.8623 L 339.1889 97.7711 C 337.2423 97.6096 335.6202 97.448 334.4848 97.448 C 333.3492 97.448 332.7004 97.448 332.5381 97.448 C 331.7271 97.448 331.2405 97.6096 330.7538 97.7711 C 330.2672 97.9327 330.2672 98.4176 330.2672 99.3872 L 330.2672 100.3568 C 330.2672 101.1648 330.4294 101.6497 330.7538 101.8113 C 331.0782 102.1345 331.5649 102.1345 332.376 102.1345 L 335.4581 102.1345 C 337.4045 102.1345 338.8644 102.9425 339.5134 104.5586 C 339.8377 105.3666 340 106.3363 340 107.3059 L 340 108.5987 C 340 110.8611 339.1889 112.4772 337.7291 113.1236 C 336.918 113.4469 335.9446 113.7701 334.8091 113.7701 C 331.5649 113.7701 329.1317 113.4469 327.3474 112.9621 L 327.3474 110.0531 C 329.2938 110.2148 330.916 110.3764 332.376 110.3764 C 333.8359 110.3764 334.647 110.3764 334.8091 110.3764 C 334.9713 110.3764 335.2958 110.2148 335.4581 110.2148 C 335.9446 110.0531 336.2691 109.5684 336.2691 108.7604 L 336.2691 107.7907 C 336.2691 106.821 335.9446 106.3363 335.4581 106.1746 C 335.2958 106.013 334.9713 106.013 334.647 106.013 L 331.7271 106.013 C 328.3206 105.8514 326.6985 104.0738 326.6985 100.6801 L 326.6985 100.6801 Z" fill="#004e7d"/>
		</g>
		<g>
			<path id="st03" d="M 115.3339 122.8199 L 115.3339 121.3654 L 123.7691 121.3654 L 123.7691 122.8199 L 120.2003 122.8199 L 120.2003 133.3243 L 118.7405 133.3243 L 118.7405 122.8199 L 115.3339 122.8199 L 115.3339 122.8199 Z" fill="#00b2e2"/>
			<path id="st04" d="M 124.0935 126.8601 C 123.9312 127.0216 123.9312 127.345 123.9312 127.6681 C 123.9312 127.9913 123.9312 128.4761 123.9312 128.961 C 123.9312 129.4457 123.9312 129.769 123.9312 130.0922 C 123.9312 130.4154 124.0935 130.7386 124.0935 130.9002 C 124.2557 131.0618 124.2557 131.2234 124.418 131.3851 C 124.5801 131.5467 124.7423 131.5467 124.9047 131.7082 C 125.2291 131.8698 125.5533 131.8698 126.0401 131.8698 C 126.5267 131.8698 126.8512 131.8698 127.0134 131.8698 C 127.1755 131.8698 127.5 131.7082 127.6622 131.7082 C 127.8245 131.5467 127.9866 131.3851 128.1489 131.2234 C 128.311 130.7386 128.4733 130.0922 128.4733 129.1226 C 128.4733 128.153 128.4733 127.5065 128.311 127.1833 C 128.1489 126.8601 128.1489 126.6985 127.9866 126.5369 C 127.8245 126.3753 127.6622 126.2136 127.5 126.2136 C 127.1755 126.052 126.8512 126.052 126.3644 126.052 C 125.8779 126.052 125.5533 126.052 125.3912 126.052 C 125.2291 126.052 125.0668 126.052 124.7423 126.2136 C 124.5801 126.2136 124.418 126.3753 124.2557 126.5369 C 124.2557 126.5369 124.0935 126.6985 124.0935 126.8601 L 124.0935 126.8601 ZM 122.3091 128.961 C 122.3091 127.8297 122.4714 126.8601 122.6335 126.2136 C 122.958 125.5672 123.2824 125.0825 123.7691 124.7592 C 124.2557 124.436 125.0668 124.436 126.0401 124.436 C 127.5 124.436 128.4733 124.7592 129.1221 125.4056 C 129.6087 126.052 129.9332 127.1833 129.9332 128.961 C 129.9332 130.5771 129.6087 131.7082 129.1221 132.3547 C 128.6354 133.0011 127.5 133.3243 126.0401 133.3243 C 124.5801 133.3243 123.6069 133.0011 122.958 132.3547 C 122.6335 131.7082 122.3091 130.5771 122.3091 128.961 L 122.3091 128.961 Z" fill="#00b2e2"/>
			<path id="st05" d="M 137.0706 127.6681 C 137.0706 127.1833 137.0706 127.0216 137.0706 126.6985 C 137.0706 126.5369 136.9084 126.3753 136.7462 126.2136 C 136.584 126.052 136.4218 126.052 136.2594 126.052 C 136.0973 126.052 135.7729 126.052 135.4484 126.052 C 135.124 126.052 134.7996 126.052 134.7996 126.052 C 134.6373 126.052 134.4752 126.052 134.3129 126.052 C 134.1508 126.052 133.9885 126.052 133.8264 126.2136 C 133.6641 126.2136 133.6641 126.3753 133.5019 126.3753 C 133.3397 126.5369 133.3397 126.5369 133.1775 126.6985 C 133.1775 126.8601 133.0153 127.0216 133.0153 127.1833 C 132.853 127.5065 132.853 127.9913 132.853 128.6377 L 136.0973 128.6377 C 136.7462 128.3145 137.0706 128.153 137.0706 127.6681 L 137.0706 127.6681 ZM 131.7176 126.052 C 131.8798 125.7289 132.0419 125.4056 132.2042 125.244 C 132.3664 125.0825 132.6908 124.9209 133.0153 124.7592 C 133.5019 124.5975 134.3129 124.436 135.2862 124.436 C 136.4218 124.436 137.0706 124.5975 137.5573 124.7592 C 138.0438 124.9209 138.2062 125.244 138.3683 125.7289 C 138.5305 126.2136 138.6926 126.8601 138.6926 127.6681 C 138.6926 128.961 137.8817 129.769 136.4218 129.769 L 133.0153 129.769 C 133.0153 130.7386 133.1775 131.3851 133.3397 131.5467 C 133.5019 131.8698 133.9885 132.0315 134.6373 132.0315 C 136.4218 132.0315 137.7194 132.0315 138.5305 131.8698 L 138.5305 133.0011 C 137.5573 133.3243 136.0973 133.4858 134.3129 133.4858 C 133.1775 133.4858 132.5287 133.1627 132.0419 132.5163 C 131.7176 131.8698 131.3931 130.7386 131.3931 129.2841 C 131.3931 127.6681 131.5554 126.6985 131.7176 126.052 L 131.7176 126.052 Z" fill="#00b2e2"/>
			<path id="st06" d="M 141.6126 120.3959 L 141.6126 125.5672 C 141.6126 125.5672 141.7748 125.5672 141.937 125.4056 C 142.0992 125.244 142.0992 125.244 142.2615 125.244 C 142.2615 125.244 142.4236 125.244 142.5859 125.0825 C 142.748 124.9209 142.748 124.9209 142.9103 124.9209 C 142.9103 124.9209 143.0725 124.9209 143.2347 124.7592 C 143.3969 124.7592 143.3969 124.5975 143.5591 124.5975 C 143.5591 124.5975 143.7213 124.5975 143.8836 124.436 C 144.0458 124.436 144.0458 124.436 144.208 124.436 C 144.5324 124.436 144.6947 124.436 145.019 124.436 C 145.8301 124.436 146.479 124.7592 146.9656 125.244 C 147.4522 125.7289 147.6144 126.5369 147.6144 127.1833 L 147.6144 133.1627 L 146.1545 133.1627 L 146.1545 127.1833 C 146.1545 126.6985 145.9922 126.3753 145.8301 126.052 C 145.668 125.7289 145.1812 125.7289 144.6947 125.7289 C 144.208 125.7289 143.7213 125.7289 143.3969 125.8905 C 143.0725 126.052 142.5859 126.2136 141.937 126.5369 L 141.937 133.1627 L 140.4771 133.1627 L 140.4771 120.3959 L 141.6126 120.3959 L 141.6126 120.3959 Z" fill="#00b2e2"/>
			<path id="st07" d="M 150.3722 126.8601 C 150.2099 127.0216 150.2099 127.345 150.2099 127.6681 C 150.2099 127.9913 150.2099 128.4761 150.2099 128.961 C 150.2099 129.4457 150.2099 129.769 150.2099 130.0922 C 150.2099 130.4154 150.3722 130.7386 150.3722 130.9002 C 150.5344 131.0618 150.5344 131.2234 150.6965 131.3851 C 150.8587 131.5467 151.021 131.5467 151.1832 131.7082 C 151.5076 131.8698 151.832 131.8698 152.3187 131.8698 C 152.8054 131.8698 153.1297 131.8698 153.2919 131.8698 C 153.4542 131.8698 153.7786 131.7082 153.9408 131.7082 C 154.103 131.5467 154.2653 131.3851 154.4276 131.2234 C 154.5897 130.7386 154.7518 130.0922 154.7518 129.1226 C 154.7518 128.153 154.7518 127.5065 154.5897 127.1833 C 154.4276 126.8601 154.4276 126.6985 154.2653 126.5369 C 154.103 126.3753 153.9408 126.2136 153.7786 126.2136 C 153.4542 126.052 153.1297 126.052 152.6431 126.052 C 152.1565 126.052 151.832 126.052 151.6697 126.052 C 151.5076 126.052 151.3455 126.052 151.021 126.2136 C 150.8587 126.2136 150.6965 126.3753 150.5344 126.5369 C 150.6965 126.5369 150.5344 126.6985 150.3722 126.8601 L 150.3722 126.8601 ZM 148.75 128.961 C 148.75 127.8297 148.9122 126.8601 149.0743 126.2136 C 149.3988 125.5672 149.7233 125.0825 150.2099 124.7592 C 150.6965 124.436 151.5076 124.436 152.4808 124.436 C 153.9408 124.436 154.9141 124.7592 155.5629 125.4056 C 156.0497 126.052 156.374 127.1833 156.374 128.961 C 156.374 130.5771 156.0497 131.7082 155.5629 132.3547 C 155.0763 133.0011 153.9408 133.3243 152.4808 133.3243 C 151.021 133.3243 150.0476 133.0011 149.3988 132.3547 C 148.9122 131.7082 148.75 130.5771 148.75 128.961 L 148.75 128.961 Z" fill="#00b2e2"/>
			<path id="st08" d="M 158.1583 130.0922 L 158.1583 120.3959 L 159.6183 120.3959 L 159.6183 129.9306 C 159.6183 130.5771 159.6183 131.0618 159.7805 131.2234 C 159.9427 131.5467 160.105 131.7082 160.4293 131.7082 C 161.2404 131.8698 161.7272 132.0315 161.7272 132.0315 L 161.7272 133.0011 L 160.105 133.0011 C 158.8072 133.1627 158.1583 132.1931 158.1583 130.0922 L 158.1583 130.0922 Z" fill="#00b2e2"/>
			<path id="st09" d="M 163.6736 128.961 C 163.6736 130.9002 164.1604 132.0315 165.1336 132.0315 C 166.1069 132.0315 166.9179 131.8698 168.0534 131.3851 L 168.0534 126.3753 C 167.0801 126.052 166.1069 126.052 165.1336 126.052 C 164.8091 126.052 164.4847 126.052 164.3225 126.2136 C 163.9981 126.3753 163.6736 127.345 163.6736 128.961 L 163.6736 128.961 ZM 162.2137 128.961 C 162.2137 127.1833 162.5382 126.052 163.0248 125.4056 C 163.5114 124.7592 164.1604 124.436 165.1336 124.436 C 165.6202 124.436 166.269 124.436 166.9179 124.5975 C 167.5668 124.7592 167.8911 124.9209 168.2156 125.0825 L 168.2156 120.3959 L 169.6755 120.3959 L 169.6755 133.1627 L 168.54 133.1627 L 168.2156 132.1931 C 167.8911 132.3547 167.4047 132.6778 166.9179 132.8395 C 166.269 133.0011 165.7825 133.1627 165.2958 133.1627 C 163.187 133.3243 162.2137 131.8698 162.2137 128.961 L 162.2137 128.961 Z" fill="#00b2e2"/>
			<path id="st010" d="M 175.5153 133.1627 L 176.3264 121.2039 L 178.4351 121.2039 L 181.355 130.5771 L 184.1125 121.2039 L 186.2214 121.2039 L 187.1946 133.1627 L 185.7347 133.1627 L 184.9236 123.9512 L 182.1661 133.1627 L 180.5439 133.1627 L 177.624 123.9512 L 176.9752 133.1627 L 175.5153 133.1627 L 175.5153 133.1627 Z" fill="#00b2e2"/>
			<path id="st011" d="M 191.5745 123.4664 L 193.1966 121.3654 L 194.8187 121.3654 L 192.7099 123.4664 L 191.5745 123.4664 L 191.5745 123.4664 ZM 193.1966 128.3145 C 193.8453 128.3145 194.1699 127.9913 194.1699 127.5065 C 194.1699 127.0216 194.1699 126.8601 194.1699 126.5369 C 194.1699 126.3753 194.0076 126.2136 193.8453 126.052 C 193.6832 125.8905 193.521 125.8905 193.3588 125.8905 C 193.1966 125.8905 192.8721 125.8905 192.5478 125.8905 C 192.2233 125.8905 192.061 125.8905 191.8989 125.8905 C 191.7366 125.8905 191.5745 125.8905 191.4121 125.8905 C 191.25 125.8905 191.0878 125.8905 191.0878 125.8905 C 190.9257 125.8905 190.9257 125.8905 190.7634 126.052 C 190.601 126.052 190.601 126.2136 190.4389 126.2136 C 190.4389 126.3753 190.2767 126.3753 190.2767 126.5369 C 190.2767 126.6985 190.1146 126.8601 190.1146 127.0216 C 190.1146 127.345 189.9522 127.8297 189.9522 128.3145 L 193.1966 128.3145 L 193.1966 128.3145 ZM 188.8168 126.052 C 188.9789 125.7289 189.1412 125.4056 189.3035 125.244 C 189.4656 125.0825 189.79 124.9209 190.1146 124.7592 C 190.601 124.5975 191.4121 124.436 192.3854 124.436 C 193.521 124.436 194.1699 124.5975 194.6564 124.7592 C 195.1431 124.9209 195.3053 125.244 195.4675 125.7289 C 195.6298 126.2136 195.792 126.8601 195.792 127.5065 C 195.792 128.7993 194.981 129.6074 193.521 129.6074 L 190.1146 129.6074 C 190.1146 130.5771 190.2767 131.2234 190.4389 131.3851 C 190.601 131.7082 191.0878 131.8698 191.7366 131.8698 C 193.521 131.8698 194.8187 131.8698 195.6298 131.7082 L 195.6298 132.8395 C 194.6564 133.1627 193.1966 133.3243 191.4121 133.3243 C 190.2767 133.3243 189.6278 133.0011 189.1412 132.3547 C 188.8168 131.7082 188.4924 130.5771 188.4924 129.1226 C 188.4924 127.6681 188.6545 126.6985 188.8168 126.052 L 188.8168 126.052 Z" fill="#00b2e2"/>
			<path id="st012" d="M 196.7653 133.1627 L 199.8474 128.7993 L 196.7653 124.436 L 198.5496 124.436 L 200.6584 127.5065 L 202.9294 124.436 L 204.7138 124.436 L 201.6317 128.7993 L 204.7138 133.1627 L 202.9294 133.1627 L 200.8206 130.0922 L 198.7117 133.1627 L 196.7653 133.1627 L 196.7653 133.1627 Z" fill="#00b2e2"/>
			<path id="st013" d="M 206.0114 133.1627 L 206.0114 124.436 L 207.4713 124.436 L 207.4713 133.1627 L 206.0114 133.1627 L 206.0114 133.1627 ZM 205.8492 123.3048 L 205.8492 122.3351 C 205.8492 122.0119 206.0114 121.8503 206.1736 121.8503 L 207.3092 121.8503 C 207.4713 121.8503 207.4713 121.8503 207.6335 122.0119 C 207.6335 122.1735 207.7958 122.1735 207.7958 122.3351 L 207.7958 123.3048 C 207.7958 123.628 207.6335 123.628 207.4713 123.628 L 206.3359 123.628 C 206.1736 123.628 206.1736 123.628 206.0114 123.4664 C 205.8492 123.4664 205.8492 123.3048 205.8492 123.3048 L 205.8492 123.3048 Z" fill="#00b2e2"/>
			<path id="st014" d="M 209.4179 130.7386 C 209.2557 130.2537 209.2557 129.6074 209.2557 128.7993 C 209.2557 128.153 209.2557 127.5065 209.4179 126.8601 C 209.5802 126.3753 209.5802 125.8905 209.7423 125.5672 C 209.9045 125.244 210.0667 124.9209 210.3913 124.7592 C 210.8778 124.436 211.3646 124.2744 212.1755 124.2744 C 212.8245 124.2744 213.4733 124.2744 214.2844 124.436 C 215.0953 124.5975 215.582 124.5975 215.9065 124.7592 L 215.9065 125.7289 C 214.4467 125.7289 213.4733 125.5672 212.9866 125.5672 C 212.3378 125.5672 212.0134 125.5672 211.8511 125.5672 C 211.6888 125.5672 211.5267 125.7289 211.3646 125.7289 C 211.2023 125.8905 211.0401 126.052 211.0401 126.2136 C 210.8778 126.6985 210.7156 127.5065 210.7156 128.3145 C 210.7156 129.2841 210.7156 129.9306 210.8778 130.4154 C 211.0401 130.9002 211.2023 131.0618 211.3646 131.2234 C 211.5267 131.3851 211.8511 131.3851 212.3378 131.3851 C 213.1488 131.3851 214.2844 131.3851 215.4199 131.2234 L 216.0688 131.2234 L 216.0688 132.3547 C 215.2577 132.6778 214.4467 132.8395 213.4733 132.8395 C 212.3378 132.8395 211.6888 132.8395 211.2023 132.8395 C 210.8778 132.6778 210.5534 132.6778 210.3913 132.3547 C 210.0667 132.1931 209.9045 131.8698 209.7423 131.5467 C 209.5802 131.7082 209.4179 131.3851 209.4179 130.7386 L 209.4179 130.7386 Z" fill="#00b2e2"/>
			<path id="st015" d="M 218.8263 126.8601 C 218.6641 127.0216 218.6641 127.345 218.6641 127.6681 C 218.6641 127.9913 218.6641 128.4761 218.6641 128.961 C 218.6641 129.4457 218.6641 129.769 218.6641 130.0922 C 218.6641 130.4154 218.8263 130.7386 218.8263 130.9002 C 218.9885 131.0618 218.9885 131.2234 219.1507 131.3851 C 219.313 131.5467 219.4752 131.5467 219.6374 131.7082 C 219.9618 131.8698 220.2863 131.8698 220.7729 131.8698 C 221.2595 131.8698 221.5839 131.8698 221.7463 131.8698 C 221.9084 131.8698 222.2327 131.7082 222.395 131.7082 C 222.5573 131.5467 222.7195 131.3851 222.8817 131.2234 C 223.0438 130.7386 223.2061 130.0922 223.2061 129.1226 C 223.2061 128.153 223.2061 127.5065 223.0438 127.1833 C 222.8817 126.8601 222.8817 126.6985 222.7195 126.5369 C 222.5573 126.3753 222.395 126.2136 222.2327 126.2136 C 221.9084 126.052 221.5839 126.052 221.0974 126.052 C 220.6106 126.052 220.2863 126.052 220.1241 126.052 C 219.9618 126.052 219.7995 126.052 219.4752 126.2136 C 219.313 126.2136 219.1507 126.3753 218.9885 126.5369 C 218.9885 126.5369 218.8263 126.6985 218.8263 126.8601 L 218.8263 126.8601 ZM 217.042 128.961 C 217.042 127.8297 217.2042 126.8601 217.3664 126.2136 C 217.6909 125.5672 218.0153 125.0825 218.5019 124.7592 C 218.9885 124.436 219.7995 124.436 220.7729 124.436 C 222.2327 124.436 223.2061 124.7592 223.8549 125.4056 C 224.3416 126.052 224.666 127.1833 224.666 128.961 C 224.666 130.5771 224.3416 131.7082 223.8549 132.3547 C 223.3683 133.0011 222.2327 133.3243 220.7729 133.3243 C 219.313 133.3243 218.3397 133.0011 217.6909 132.3547 C 217.3664 131.7082 217.042 130.5771 217.042 128.961 L 217.042 128.961 Z" fill="#00b2e2"/>
		</g>
		<g>
			<path id="st125" d="M 93.4351 145.4447 L 96.1927 145.4447 L 94.895 141.5661 L 93.4351 145.4447 L 93.4351 145.4447 ZM 91.0019 148.8383 L 94.2462 139.95 L 95.3817 139.95 L 98.4637 148.8383 L 97.166 148.8383 L 96.355 146.4143 L 92.9485 146.4143 L 92.1374 148.8383 L 91.0019 148.8383 L 91.0019 148.8383 Z" fill="#004e7d"/>
			<path id="st126" d="M 103.979 148.3536 C 103.3302 148.8383 102.5191 149 101.7081 149 C 100.7347 149 100.0859 148.6768 99.5992 148.192 C 99.2748 147.7072 98.9504 146.8992 98.7881 145.9296 C 98.7881 145.4447 98.7881 144.9599 98.7881 144.4751 C 98.7881 143.9902 98.7881 143.5055 98.7881 143.0206 C 98.7881 142.5358 98.9504 142.2126 99.1125 141.7278 C 99.2748 141.4045 99.437 140.9197 99.5992 140.7581 C 100.0859 140.1117 100.7347 139.95 101.7081 139.95 C 102.1946 139.95 102.6813 139.95 103.3302 140.1117 C 103.979 140.1117 104.4656 140.2734 104.9523 140.435 L 104.9523 141.4045 L 104.79 141.4045 C 104.6279 141.4045 104.4656 141.4045 104.3034 141.4045 C 104.1412 141.4045 103.8168 141.4045 103.6545 141.4045 C 103.0057 141.4045 102.5191 141.4045 102.1946 141.4045 C 101.8702 141.4045 101.5458 141.4045 101.2213 141.5661 C 101.0592 141.7278 100.897 141.7278 100.7347 141.8894 C 100.5725 142.051 100.4102 142.2126 100.4102 142.5358 C 100.2481 143.0206 100.2481 143.8286 100.2481 144.9599 C 100.2481 146.0911 100.4102 146.8992 100.5725 147.384 C 100.897 147.8687 101.3836 148.192 102.0324 148.192 C 102.3569 148.192 102.5191 148.192 103.0057 148.0303 C 103.3302 147.8687 103.6545 147.8687 103.8168 147.7072 L 104.1412 147.5456 L 104.1412 145.2831 L 102.3569 145.2831 L 102.3569 144.4751 C 103.0057 144.3135 103.6545 144.1518 104.4656 144.1518 C 104.79 144.1518 104.9523 144.1518 105.2767 144.1518 L 105.2767 149 L 104.4656 149 L 103.979 148.3536 L 103.979 148.3536 Z" fill="#004e7d"/>
			<path id="st127" d="M 109.9809 149 L 109.8188 149 C 108.8453 149 108.1966 148.8383 107.8721 148.6768 C 107.7099 148.5152 107.5477 148.5152 107.3856 148.192 C 107.2233 148.0303 107.0611 147.7072 106.8988 147.5456 C 106.7366 146.8992 106.5745 146.0911 106.5745 144.9599 L 106.5745 139.95 L 107.7099 139.95 L 107.7099 144.9599 C 107.7099 145.6062 107.7099 145.9296 107.7099 146.2527 C 107.7099 146.5759 107.8721 146.7376 107.8721 146.8992 C 107.8721 147.0607 108.0344 147.2223 108.0344 147.2223 C 108.0344 147.384 108.1966 147.384 108.1966 147.5456 C 108.1966 147.5456 108.3588 147.7072 108.5209 147.7072 C 108.6832 147.7072 108.6832 147.8687 108.8453 147.8687 C 109.0077 147.8687 109.0077 147.8687 109.1698 147.8687 C 109.332 147.8687 109.6565 147.8687 109.8188 147.8687 C 110.1431 147.8687 110.3054 147.8687 110.4675 147.8687 C 110.6298 147.8687 110.792 147.8687 110.9542 147.8687 C 111.1165 147.8687 111.2786 147.7072 111.2786 147.7072 C 111.4409 147.7072 111.4409 147.5456 111.603 147.384 C 111.7653 147.2223 111.7653 147.0607 111.9275 146.8992 C 112.0897 146.4143 112.0897 145.9296 112.0897 145.1215 L 112.0897 140.1117 L 113.2252 140.1117 L 113.2252 145.1215 C 113.2252 146.7376 112.9007 147.7072 112.4141 148.3536 C 112.2519 148.5152 112.0897 148.6768 111.9275 148.8383 C 111.7653 149 111.603 149 111.2786 149 C 110.9542 149 110.4675 149 109.9809 149 L 109.9809 149 Z" fill="#004e7d"/>
			<path id="st128" d="M 116.3073 145.4447 L 119.0649 145.4447 L 117.7672 141.5661 L 116.3073 145.4447 L 116.3073 145.4447 ZM 113.874 148.8383 L 117.1183 139.95 L 118.2537 139.95 L 121.3359 148.8383 L 120.0382 148.8383 L 119.2271 146.4143 L 115.8206 146.4143 L 115.0095 148.8383 L 113.874 148.8383 L 113.874 148.8383 Z" fill="#004e7d"/>
			<path id="st129" d="M 129.1221 148.8383 L 127.9866 148.8383 L 127.9866 145.7679 L 125.2291 139.95 L 126.5267 139.95 L 128.6354 144.4751 L 131.0687 139.95 L 132.3664 139.95 L 129.2844 145.7679 L 129.2844 148.8383 L 129.1221 148.8383 Z" fill="#004e7d"/>
			<path id="st130" d="M 136.4218 147.384 L 136.4218 140.1117 L 137.5573 140.1117 L 137.5573 147.384 C 137.5573 147.7072 137.7194 147.8687 137.8817 147.8687 C 138.0438 147.8687 138.2062 147.8687 138.3683 147.8687 L 141.937 147.8687 L 141.937 149 L 138.2062 149 C 137.395 149 136.9084 148.6768 136.584 148.192 C 136.584 147.8687 136.4218 147.7072 136.4218 147.384 L 136.4218 147.384 Z" fill="#004e7d"/>
			<path id="st131" d="M 145.9922 149 L 145.8301 149 C 144.8569 149 144.208 148.8383 143.8836 148.6768 C 143.7213 148.5152 143.5591 148.5152 143.3969 148.192 C 143.2347 148.0303 143.0725 147.7072 142.9103 147.5456 C 142.748 146.8992 142.5859 146.0911 142.5859 144.9599 L 142.5859 139.95 L 143.7213 139.95 L 143.7213 144.9599 C 143.7213 145.6062 143.7213 145.9296 143.7213 146.2527 C 143.7213 146.5759 143.8836 146.7376 143.8836 146.8992 C 143.8836 147.0607 144.0458 147.2223 144.0458 147.2223 C 144.0458 147.384 144.208 147.384 144.208 147.5456 C 144.208 147.5456 144.3701 147.7072 144.5324 147.7072 C 144.6947 147.7072 144.6947 147.8687 144.8569 147.8687 C 145.019 147.8687 145.019 147.8687 145.1812 147.8687 C 145.3434 147.8687 145.668 147.8687 145.8301 147.8687 C 146.1545 147.8687 146.3168 147.8687 146.479 147.8687 C 146.6412 147.8687 146.8033 147.8687 146.9656 147.8687 C 147.1279 147.8687 147.2901 147.7072 147.2901 147.7072 C 147.4522 147.7072 147.4522 147.5456 147.6144 147.384 C 147.7767 147.2223 147.7767 147.0607 147.939 146.8992 C 148.1011 146.4143 148.1011 145.9296 148.1011 145.1215 L 148.1011 140.1117 L 149.2366 140.1117 L 149.2366 145.1215 C 149.2366 146.7376 148.9122 147.7072 148.4255 148.3536 C 148.2634 148.5152 148.1011 148.6768 147.939 148.8383 C 147.7767 149 147.6144 149 147.2901 149 C 146.8033 149 146.479 149 145.9922 149 L 145.9922 149 Z" fill="#004e7d"/>
			<path id="st132" d="M 150.3722 148.8383 L 150.3722 147.7072 L 155.0763 140.9197 L 150.3722 140.9197 L 150.3722 139.7885 L 156.374 139.7885 L 156.374 140.9197 L 151.832 147.7072 L 156.374 147.7072 L 156.374 148.8383 L 150.3722 148.8383 L 150.3722 148.8383 Z" fill="#004e7d"/>
			<path id="st133" d="M 162.2137 139.95 C 162.2137 139.95 162.8625 139.95 164.1604 140.1117 C 165.4579 140.1117 166.1069 140.2734 166.269 140.2734 L 166.269 141.243 L 162.5382 141.243 C 162.2137 141.243 162.0515 141.243 162.0515 141.4045 C 162.0515 141.5661 162.0515 141.7278 162.0515 141.8894 L 162.0515 143.9902 L 165.9446 144.1518 L 165.9446 145.1215 L 162.0515 145.2831 L 162.0515 147.384 C 162.0515 147.7072 162.2137 147.8687 162.376 147.8687 C 162.5382 147.8687 162.7004 147.8687 162.8625 147.8687 L 166.5935 147.8687 L 166.5935 148.8383 L 162.8625 149 L 162.7004 149 C 161.7272 149 161.0782 148.5152 161.0782 147.384 L 161.0782 141.7278 C 161.0782 141.0814 161.2404 140.7581 161.5649 140.435 C 161.5649 140.1117 161.8893 139.95 162.2137 139.95 L 162.2137 139.95 Z" fill="#004e7d"/>
			<path id="st134" d="M 167.729 148.8383 L 167.729 139.95 L 168.8644 139.95 L 173.2443 146.7376 L 173.2443 139.95 L 174.3797 139.95 L 174.3797 148.8383 L 173.2443 148.8383 L 168.8644 142.051 L 168.8644 148.8383 L 167.729 148.8383 L 167.729 148.8383 Z" fill="#004e7d"/>
			<path id="st135" d="M 178.7596 148.8383 L 179.4084 139.95 L 181.0305 139.95 L 183.1393 147.0607 L 185.2482 139.95 L 186.8703 139.95 L 187.6813 148.8383 L 186.5457 148.8383 L 186.0592 141.8894 L 183.9503 148.8383 L 182.8149 148.8383 L 180.7061 141.8894 L 180.2194 148.8383 L 178.7596 148.8383 L 178.7596 148.8383 Z" fill="#004e7d"/>
			<path id="st136" d="M 189.79 142.859 C 189.79 143.0206 189.79 143.3438 189.79 143.667 C 189.79 143.9902 189.79 144.3135 189.79 144.6366 C 189.79 144.9599 189.79 145.4447 189.79 145.6062 C 189.79 145.9296 189.79 146.2527 189.9522 146.4143 C 189.9522 146.7376 190.1146 146.8992 190.1146 147.0607 C 190.2767 147.2223 190.2767 147.384 190.4389 147.5456 C 190.601 147.7072 190.7634 147.7072 190.9257 147.8687 C 191.25 148.0303 191.5745 148.0303 192.061 148.0303 C 192.5478 148.0303 192.8721 148.0303 193.0342 148.0303 C 193.1966 148.0303 193.521 147.8687 193.6832 147.8687 C 193.8453 147.7072 194.0076 147.7072 194.1699 147.5456 C 194.332 147.384 194.332 147.2223 194.4943 146.8992 C 194.6564 146.4143 194.6564 145.7679 194.6564 144.7982 C 194.6564 144.1518 194.6564 143.5055 194.6564 143.1822 C 194.6564 142.859 194.4943 142.6975 194.4943 142.5358 C 194.4943 142.3741 194.332 142.2126 194.332 142.051 C 194.332 141.8894 194.1699 141.8894 194.1699 141.7278 C 194.1699 141.5661 194.0076 141.5661 193.8453 141.5661 C 193.6832 141.5661 193.6832 141.4045 193.521 141.4045 C 193.3588 141.4045 193.3588 141.4045 193.1966 141.4045 C 193.0342 141.4045 192.7099 141.4045 192.3854 141.4045 C 192.061 141.4045 191.8989 141.4045 191.8989 141.4045 C 191.7366 141.4045 191.7366 141.4045 191.5745 141.4045 C 191.4121 141.4045 191.25 141.4045 191.25 141.4045 C 191.0878 141.4045 191.0878 141.4045 190.9257 141.5661 C 190.7634 141.5661 190.7634 141.7278 190.601 141.7278 C 190.601 141.8894 190.4389 141.8894 190.4389 142.051 C 190.4389 142.2126 190.2767 142.3741 190.2767 142.5358 C 189.9522 142.3741 189.79 142.5358 189.79 142.859 L 189.79 142.859 ZM 188.4924 144.3135 C 188.4924 143.667 188.4924 143.0206 188.6545 142.3741 C 188.8168 141.7278 188.9789 141.4045 189.1412 141.0814 C 189.3035 140.7581 189.6278 140.435 189.9522 140.2734 C 190.2767 140.1117 190.601 139.95 190.9257 139.95 C 191.25 139.95 191.5745 139.95 192.061 139.95 C 192.3854 139.95 192.7099 139.95 193.0342 139.95 C 193.1966 139.95 193.521 139.95 193.8453 140.1117 C 194.1699 140.1117 194.332 140.2734 194.4943 140.435 C 194.6564 140.5965 194.8187 140.7581 194.981 140.9197 C 195.1431 141.0814 195.3053 141.4045 195.3053 141.7278 C 195.4675 142.3741 195.6298 143.3438 195.6298 144.4751 C 195.6298 145.7679 195.4675 146.7376 195.1431 147.384 C 194.981 147.7072 194.8187 148.0303 194.6564 148.192 C 194.4943 148.3536 194.1699 148.5152 194.0076 148.6768 C 193.521 148.8383 192.8721 149 192.061 149 C 190.9257 149 190.1146 148.8383 189.79 148.5152 C 189.3035 148.192 189.1412 147.7072 188.8168 147.2223 C 188.6545 146.4143 188.4924 145.4447 188.4924 144.3135 L 188.4924 144.3135 Z" fill="#004e7d"/>
			<path id="st137" d="M 196.1164 139.95 L 197.2519 139.95 L 199.6851 147.2223 L 202.2806 139.95 L 203.416 139.95 L 200.1718 148.8383 L 199.0363 148.8383 L 196.1164 139.95 L 196.1164 139.95 Z" fill="#004e7d"/>
			<path id="st138" d="M 204.876 148.8383 L 204.876 139.95 L 206.0114 139.95 L 206.0114 148.8383 L 204.876 148.8383 L 204.876 148.8383 Z" fill="#004e7d"/>
			<path id="st139" d="M 207.147 148.8383 L 207.7958 139.95 L 209.4179 139.95 L 211.5267 147.0607 L 213.6356 139.95 L 215.2577 139.95 L 216.0688 148.8383 L 214.9332 148.8383 L 214.4467 141.8894 L 212.3378 148.8383 L 211.2023 148.8383 L 209.0934 141.8894 L 208.6069 148.8383 L 207.147 148.8383 L 207.147 148.8383 Z" fill="#004e7d"/>
			<path id="st140" d="M 217.5286 148.8383 L 217.5286 139.95 L 218.6641 139.95 L 218.6641 148.8383 L 217.5286 148.8383 L 217.5286 148.8383 Z" fill="#004e7d"/>
			<path id="st141" d="M 221.7463 139.95 C 221.7463 139.95 222.395 139.95 223.6927 140.1117 C 224.9905 140.1117 225.6393 140.2734 225.8016 140.2734 L 225.8016 141.243 L 222.0706 141.243 C 221.7463 141.243 221.5839 141.243 221.5839 141.4045 C 221.5839 141.5661 221.5839 141.7278 221.5839 141.8894 L 221.5839 143.9902 L 225.477 144.1518 L 225.477 145.1215 L 221.5839 145.2831 L 221.5839 147.384 C 221.5839 147.7072 221.7463 147.8687 221.9084 147.8687 C 222.0706 147.8687 222.2327 147.8687 222.395 147.8687 L 226.126 147.8687 L 226.126 148.8383 L 222.395 149 L 222.2327 149 C 221.2595 149 220.6106 148.5152 220.6106 147.384 L 220.6106 141.7278 C 220.6106 141.0814 220.7729 140.7581 221.0974 140.435 C 221.4216 140.1117 221.2595 139.95 221.7463 139.95 L 221.7463 139.95 Z" fill="#004e7d"/>
			<path id="st142" d="M 227.0992 148.8383 L 227.0992 139.95 L 228.2347 139.95 L 232.6144 146.7376 L 232.6144 139.95 L 233.75 139.95 L 233.75 148.8383 L 232.6144 148.8383 L 228.2347 142.051 L 228.2347 148.8383 L 227.0992 148.8383 L 227.0992 148.8383 Z" fill="#004e7d"/>
			<path id="st143" d="M 235.0477 141.0814 L 235.0477 139.95 L 241.374 139.95 L 241.374 141.0814 L 238.7787 141.0814 L 238.7787 148.8383 L 237.6431 148.8383 L 237.6431 141.0814 L 235.0477 141.0814 L 235.0477 141.0814 Z" fill="#004e7d"/>
			<path id="st144" d="M 243.3206 142.859 C 243.3206 143.0206 243.3206 143.3438 243.3206 143.667 C 243.3206 143.9902 243.3206 144.3135 243.3206 144.6366 C 243.3206 144.9599 243.3206 145.4447 243.3206 145.6062 C 243.3206 145.9296 243.3206 146.2527 243.4828 146.4143 C 243.4828 146.7376 243.645 146.8992 243.645 147.0607 C 243.8073 147.2223 243.8073 147.384 243.9694 147.5456 C 244.1317 147.7072 244.2938 147.7072 244.4562 147.8687 C 244.7805 148.0303 245.105 148.0303 245.5916 148.0303 C 246.0782 148.0303 246.4026 148.0303 246.5648 148.0303 C 246.7271 148.0303 247.0515 147.8687 247.2137 147.8687 C 247.3759 147.7072 247.5382 147.7072 247.7004 147.5456 C 247.8626 147.384 247.8626 147.2223 248.0248 146.8992 C 248.187 146.4143 248.187 145.7679 248.187 144.7982 C 248.187 144.1518 248.187 143.5055 248.187 143.1822 C 248.187 142.859 248.0248 142.6975 248.0248 142.5358 C 248.0248 142.3741 247.8626 142.2126 247.8626 142.051 C 247.8626 141.8894 247.7004 141.8894 247.7004 141.7278 C 247.7004 141.5661 247.5382 141.5661 247.3759 141.5661 C 247.2137 141.5661 247.2137 141.4045 247.0515 141.4045 C 246.8894 141.4045 246.8894 141.4045 246.7271 141.4045 C 246.5648 141.4045 246.2405 141.4045 245.9161 141.4045 C 245.5916 141.4045 245.4294 141.4045 245.4294 141.4045 C 245.2673 141.4045 245.2673 141.4045 245.105 141.4045 C 244.9426 141.4045 244.7805 141.4045 244.7805 141.4045 C 244.6183 141.4045 244.6183 141.4045 244.4562 141.5661 C 244.2938 141.5661 244.2938 141.7278 244.1317 141.7278 C 244.1317 141.8894 243.9694 141.8894 243.9694 142.051 C 243.9694 142.2126 243.8073 142.3741 243.8073 142.5358 C 243.4828 142.3741 243.3206 142.5358 243.3206 142.859 L 243.3206 142.859 ZM 242.1851 144.3135 C 242.1851 143.667 242.1851 143.0206 242.3473 142.3741 C 242.5095 141.7278 242.6718 141.4045 242.834 141.0814 C 242.9962 140.7581 243.3206 140.435 243.645 140.2734 C 243.9694 140.1117 244.2938 139.95 244.6183 139.95 C 244.9426 139.95 245.2673 139.95 245.7537 139.95 C 246.0782 139.95 246.4026 139.95 246.7271 139.95 C 246.8894 139.95 247.2137 139.95 247.5382 140.1117 C 247.8626 140.2734 248.0248 140.2734 248.187 140.435 C 248.3492 140.5965 248.5115 140.7581 248.6736 140.9197 C 248.8359 141.0814 248.998 141.4045 248.998 141.7278 C 249.1603 142.3741 249.3226 143.3438 249.3226 144.4751 C 249.3226 145.7679 249.1603 146.7376 248.8359 147.384 C 248.6736 147.7072 248.5115 148.0303 248.3492 148.192 C 248.187 148.3536 247.8626 148.5152 247.7004 148.6768 C 247.2137 148.8383 246.5648 149 245.7537 149 C 244.6183 149 243.8073 148.8383 243.4828 148.5152 C 242.9962 148.192 242.834 147.7072 242.5095 147.2223 C 242.1851 146.4143 242.1851 145.4447 242.1851 144.3135 L 242.1851 144.3135 Z" fill="#004e7d"/>
		</g>
	</g>
</svg>