<svg xmlns="http://www.w3.org/2000/svg" viewBox="0 0 398.1 387.6"><defs><style>.cls-1{fill:#eee;}.cls-2{fill:#fff;}.cls-3{fill:#222;}.cls-4{fill:#e34;}</style></defs><g id="Capa_2" data-name="Capa 2"><g id="Layer_1" data-name="Layer 1"><path class="cls-1" d="M197.6,121.8a7.5,7.5,0,0,0-1.5,4.4,4.8,4.8,0,0,0,1.3,3.3,3.7,3.7,0,0,0,2.8,1c1.4,0,2.9-.7,4.7-2.2V115.6A25.8,25.8,0,0,0,197.6,121.8Z"/><path class="cls-1" d="M394.3,201.6C380,96.8,380-42.9,205.3,12.6l-8,2.5,1.3,56.2a1.5,1.5,0,0,1-1.2,1.4,7.3,7.3,0,0,0-2.5.8l-1.3-57.3C28.6,67.1-12.9,47.5,3.2,194.1,19.6,344.1,25.7,411,201.4,380.2,389.7,347.2,408.7,306.5,394.3,201.6ZM224.8,92.9l15-44.3,3.6,1.2L227,98.1,224.9,94A1.4,1.4,0,0,1,224.8,92.9Zm-20.3,10.9a4.9,4.9,0,0,0-1.8-2,5.7,5.7,0,0,0-2.9-.8,7.1,7.1,0,0,0-4.3,1.2,2,2,0,0,0-1.1,1.7,4.2,4.2,0,0,0,1.1,2.1,4.4,4.4,0,0,1,.1,6.7,5.6,5.6,0,0,1-3.8,1.4,5.9,5.9,0,0,1-4.3-1.6,4.4,4.4,0,0,1-1.7-3.6,8.1,8.1,0,0,1,2.3-5.5,14.8,14.8,0,0,1,6.4-4.1,27.2,27.2,0,0,1,8.6-1.4,14.5,14.5,0,0,1,8.5,2.3,11.2,11.2,0,0,1,4,4.9q.6,1.8.6,7.8v14.7a19.6,19.6,0,0,0,.2,3.3,1.5,1.5,0,0,0,.6.9,1.2,1.2,0,0,0,.9.4c.7,0,1.4-.5,2.2-1.5l1.2.9a16.2,16.2,0,0,1-4.2,4.4,9,9,0,0,1-4.9,1.3,7.9,7.9,0,0,1-5.1-1.5,6.9,6.9,0,0,1-2.2-4.6c-4.6,4.1-8.7,6.1-12.4,6.1a7.6,7.6,0,0,1-5.4-2.1,7.2,7.2,0,0,1-2.1-5.3,10.3,10.3,0,0,1,3.7-7.8c2.5-2.3,7.9-5.3,16.2-9.2v-3.8C204.9,106.3,204.8,104.5,204.5,103.8ZM147,89.2c0-.1.1-.1.2-.2a1.6,1.6,0,0,1,2.2.6s23.4,39.1,23.3,39.5-.9,2.8-1.3,4.2L146.2,91.5A1.6,1.6,0,0,1,147,89.2ZM125.3,49.9l14.9,24.5a1.4,1.4,0,0,1-.4,1.9,9.8,9.8,0,0,0-1.7,1.8l-16-26.3ZM60.1,125.6l12.1,4a7.6,7.6,0,0,0-1.1,2.2,1.4,1.4,0,0,1-1.8.8l-10.4-3.5ZM347,253.6l-13,41.2a8.9,8.9,0,0,1-8.7,6.3h-1.8l-6,10.5a61.7,61.7,0,0,1-27.4,25.1L255,353.1a7.2,7.2,0,0,1-3.3.7,7.7,7.7,0,0,1-3.2-.7,10.7,10.7,0,0,1-2.2-1.5l-15.4,6.9-17.7,10.1a16.9,16.9,0,0,1-8.5,2.3h-.2v4.3h-3.7v-4.9l-1.3-.3-2.8-1.1c-2.1-1.1-2.9-3.2-3.1-6l-.4-.2-.9-.5a23.5,23.5,0,0,1-5.6,5,12.7,12.7,0,0,1-6.3,2.1,4.2,4.2,0,0,1-2.2-.5c-1.1-.5-2.2-2-3.3-3.8a11.3,11.3,0,0,1-2.8,3.4,12.7,12.7,0,0,1-7.4,3.2h-1.3a12.4,12.4,0,0,1-10.4-5.9l-4.7-7.9c-1,3.8-2.6,6.2-4.9,7.5a8.6,8.6,0,0,1-3.9.9,14.3,14.3,0,0,1-3.9-.6h-.2l-.4-.4a10.9,10.9,0,0,1-2.3-.9l-.3-.2-23.6-15.9a44.3,44.3,0,0,1-16.9-21.9L80.1,293.2a2.3,2.3,0,0,1-.7.7l-8.2,6.5a7.9,7.9,0,0,1-5,1.8h0a8.4,8.4,0,0,1-2.7-.4,8,8,0,0,1-5.2-5.8l-8.5-35.4a21.9,21.9,0,0,1,.1-10.5c1.4-5.6,3.5-15.5,5.5-25.2,3.7-18.2,6.1-29.5,7.5-32s6.3-8,11.8-13.4l-35.6.8v-3.7l39.7-.9c2-2,4.2-3.9,6.3-5.8l-9.7-20.6a19.3,19.3,0,0,1-1.5-12.5c2-9.2,7.4-25.9,21-33.7s35.4-4.6,47.1-2a19.6,19.6,0,0,1,11.9,8.1l8.1,12a2,2,0,0,1,.4,1.3c4.4,7.5,13.7,23,21.5,35.8l2.8-7.5a2,2,0,0,1,1.9-1.3h27.1a2,2,0,0,1,1.9,1.3l.7,1.8,16.9-27.4a2.9,2.9,0,0,1,.2-.9l5.9-10.5a22.5,22.5,0,0,1,4-5.2c.4-.6.5-.9.6-.9h.2a22,22,0,0,1,7.9-4.4l26.7-33.3,2.9,2.3-23.9,29.9h.4c16.3-.7,45.3-1.1,56.7,3.3,6.9,2.7,10.7,9.3,12.9,16.3l17-6.7,1.4,3.5-17.5,6.8A64.5,64.5,0,0,1,332,136a28.2,28.2,0,0,1-2.9,13.7l-13,25.3c6.1,5.1,11.8,10.1,13,12.2s12.2,35.9,18,54.9A19.6,19.6,0,0,1,347,253.6Zm-16.1-79.9a1.4,1.4,0,0,1-1.5-1.3,5.3,5.3,0,0,0-.6-2.4l30.2-.6v3.7Z"/><path class="cls-2" d="M196.8,195.6l-1.2,3.8h1.1A37.8,37.8,0,0,0,196.8,195.6Z"/><path class="cls-2" d="M326.8,144.9l-1.1,2.6A20.3,20.3,0,0,0,326.8,144.9Z"/><path class="cls-2" d="M135.4,365.9h.2l-.6-.3Z"/><path class="cls-2" d="M288.5,333a61.8,61.8,0,0,0,7.9-4.5l-22.3,11.2Z"/><rect class="cls-2" x="66.2" y="302.2"/><path class="cls-2" d="M95.7,325.3a44.6,44.6,0,0,0,2.8,6.3c-.9-2.2-1.9-4.4-3-6.8Z"/><path class="cls-2" d="M200.5,349.7v-2.4a17.2,17.2,0,0,0-.7,2.1Z"/><path class="cls-2" d="M337.5,243.2c-1.9-8.3-6.2-15.8-10.5-23.1h0L288.3,207a1.2,1.2,0,0,1-.9-1.7,10,10,0,0,0,.4-2.4l36.6,12.4c-2.4-4.6-4.2-9.4-6.5-14a10,10,0,0,0-3.1-7.5,21.5,21.5,0,0,1-3.6-6.5c-1.4-3.4-2.6-7-4-10.4l-1.2-2.6-58.4,1.3c0-1.2,0-2.5-.1-3.7l56.5-1.3v-.2l-6.6-5.2a2,2,0,0,1-.4-2.8,1.7,1.7,0,0,1,1.3-.7l-3.2-4c-1.3-1.5-2.7-2.9-4.1-4.3.7-1.1,1.3-2.3,2.1-3.4l.9-1.4.5-.6,1.6-1.6,1-.8,2.2-1.3,4.5-2.5a46,46,0,0,0,12.9-10.9L298.5,138a1.7,1.7,0,0,1-2.1-.9v-.3a1.7,1.7,0,0,1,.8-2.3l23.2-9a27.4,27.4,0,0,0,2.8-8.8,16,16,0,0,0-7.8-7.4c-10.7-4.1-39.2-3.7-55.2-3.1a20.5,20.5,0,0,0-4.2.7L238,129.3l-.3-.9c-5.4,8.9-12,19.5-17.8,28.9l27.9,74.1a2.5,2.5,0,0,1-.2,1.9,2.1,2.1,0,0,1-1.7.8H219.8a2.1,2.1,0,0,1-1.9-1.4l-3.6-11.9H189l-3.5,11.9a2,2,0,0,1-1.9,1.4H158.2a2.1,2.1,0,0,1-1.7-.8c0-.1-.1-.2-.1-.3l.3,2.1h-.6l-.3-3.2q-.6-5.7-.9-11.4a51.8,51.8,0,0,1,.4-6.6l2.5-2a38.7,38.7,0,0,0-1.3,5.9,58,58,0,0,0-.3,13.8c.1,0,.1-.1.1-.2L182,163.1c-10.9-17.9-25.6-42.8-25.8-43.1h.1l-5.8-8.4A15.6,15.6,0,0,0,141,105c-11.1-2.5-31.7-5.6-44.2,1.6a33,33,0,0,0-11.6,11.6,120.7,120.7,0,0,0,8.5,18.7l69,22.9c-.3,1.2-.5,2.4-.8,3.7L96.8,141.8a71,71,0,0,0,8.3,10.5l.4-.3a2,2,0,0,1,2.5,3.1h0c1.8,1.7,3.7,3.3,5.6,4.8-3,1.9-5.9,3.8-8.8,5.9A123.4,123.4,0,0,0,93,175.4l13.9-.3a6.7,6.7,0,0,0-.7,2.4,1.3,1.3,0,0,1-1.4,1.3l-15.8.4a89.6,89.6,0,0,0-14.5,19.7,127.4,127.4,0,0,0-10.7,26.7l30.4-11.9a1.7,1.7,0,0,1,2.2,1.2v.2a1.6,1.6,0,0,1-.9,2.1L62.7,230a95.5,95.5,0,0,0-2.3,14.2c-.8,7.7,1,14.5,3.8,21.3a21.9,21.9,0,0,0,2.4,16.1c.9,1.6,3.9,7.3,1.2.4a31.7,31.7,0,0,0,6.6,10.8l2.5-2a23.3,23.3,0,0,0,8.6-20.3l-.8-8.7a41.2,41.2,0,0,1,2.9-19.9l6.8-16.3a2,2,0,0,1,3.7,1.5l-6.8,16.3a38.3,38.3,0,0,0-2.7,18l.9,8.7a29.9,29.9,0,0,1-.2,6.7c1.7,8.5,7.2,33.6,16.5,48.7.1,0,17.8,19.4,20.4,19.4,6.8,0,10.4-5.1,10.7-10.3a42,42,0,0,0-7.2-6.6,2.3,2.3,0,0,1-.8-2l-19-31.5a1.9,1.9,0,0,1,.7-2.7,2,2,0,0,1,2.7.6l20,33.1c0,.1.1.2.1.3,3.1,2.5,10.3,8.8,12.6,16.2a4.3,4.3,0,0,0,.1.5l.2.2a15.5,15.5,0,0,0,9,3.5,11,11,0,0,0,9.5-5.2,9.8,9.8,0,0,0,1.3-3.2,37.6,37.6,0,0,0-8.1-9.9l-.4-.6-15.3-29.4a2.1,2.1,0,0,1,.8-2.7,2,2,0,0,1,2.7.9l15.2,29c7.4,6.8,10.4,13.3,12.9,21.5a10.2,10.2,0,0,0,7.4,2.8c7.3,0,10.9-5.9,10.7-11.6a20.6,20.6,0,0,0-1.4-5.4,1.7,1.7,0,0,1-.1-.7L171.2,289a2,2,0,0,1,3.6-1.6l20.1,44.3a1.7,1.7,0,0,1,.1,1.2,61.9,61.9,0,0,1,1.8,12.7,43,43,0,0,1,3.5-6.1l-.6-38.4a1.3,1.3,0,0,1,1.1-1.4l2.6-.7.6,35.8a89.4,89.4,0,0,1,12.5-12.2c8.1-6.4,11.5-25.8,11.6-26a2,2,0,0,1,2.3-1.6,2,2,0,0,1,1.6,2.3c-.2.9-3.8,21-13,28.4a80.3,80.3,0,0,0-14.9,15.4v9.3h.2a10.8,10.8,0,0,0,6.2-1.8c.5-4.2,1.4-7.5,2.8-9.7,3-4.7,8.3-7.9,14.5-11.5,3.7-2.2,7.5-4.5,11.5-7.4,10-7.6,17.7-23.7,17.8-23.9a2,2,0,0,1,3.6,1.7c-.3.7-8.2,17.2-19,25.3a138.1,138.1,0,0,1-11.9,7.7c-5.7,3.4-10.6,6.3-13.1,10.2a10.6,10.6,0,0,0-1.4,3.7,67.9,67.9,0,0,0,30.3-11.9c0,.3.1.7.1,1.1,5.3-9.4,19.7-19.1,28.8-24.6,2.3-1.4,5.9-11.3,7.9-19.8a2,2,0,0,1,2.4-1.5,2.1,2.1,0,0,1,1.5,2.4c-.8,3.2-4.9,19.4-9.7,22.3-12.7,7.7-26.5,18.2-28.6,25.9a11.5,11.5,0,0,0,11.2,3.7c9-1.6,16-7.2,22.8-12.9s14.1-8.4,19.3-15.7a1,1,0,0,0,.4-.5,70.8,70.8,0,0,0,17.5-12.9l.4-.7c-9.1-3.8-14.5-10.2-15.3-18.2-1.1-10.4-.2-22.8.7-31.3a27.3,27.3,0,0,0-2.1-14.4l-6.4-15.2a2.1,2.1,0,0,1,1.1-2.6,2,2,0,0,1,2.6,1.1l6.4,15.2a32.5,32.5,0,0,1,2.4,16.3c-.9,8.4-1.8,20.4-.8,30.5s8.2,13.3,14.5,15.6A72,72,0,0,0,335.5,275,56.6,56.6,0,0,0,337.5,243.2Zm-81.9-92.5,26.7-10.4a5.2,5.2,0,0,0,.3,2.5,1.4,1.4,0,0,1-.9,1.7l-26.3,10.3-.6-2.5A1.3,1.3,0,0,1,255.6,150.7ZM152.1,174l-.3,2.6a1.4,1.4,0,0,1-1.4,1.2l-28.2.7a1.4,1.4,0,0,1-1.4-1.4,8.6,8.6,0,0,0-.5-2.3Zm-2.8,64.6-31.8,41-2.9-2.3,34.5-44.5c.1,1.6.3,3.1.5,4.7A2,2,0,0,1,149.3,238.6Zm-36.8-28a1.6,1.6,0,0,1-2.1-1.2c-.1,0-.1-.1-.1-.2a1.6,1.6,0,0,1,.9-2.1l40.6-15.8c.1,1.1.3,2.2.5,3.3s.1.3.2.4Zm58.6,52.8-12.8,37.7-3.5-1.2,14.3-42.4c.6,1.7,1.2,3.3,1.9,4.9A1.7,1.7,0,0,1,171.1,263.4Zm40.1,22.3a17.3,17.3,0,0,1-1.2-2.5,14.1,14.1,0,0,1-.6-2.7,18.6,18.6,0,0,1-6.3,4.4,25.9,25.9,0,0,1-10,1.8c-5.1,0-8.9-1.2-11.5-3.5a11.8,11.8,0,0,1-1.1-16.6c1.9-2.1,5.3-3.6,10.4-4.7s10.1-2,11.9-2.5a56.1,56.1,0,0,0,5.7-2q0-3-1.2-4.2c-.8-.8-2.3-1.2-4.4-1.2a12.1,12.1,0,0,0-6,1.3,7.6,7.6,0,0,0-2.5,3.8l-15.5-1.7a18.2,18.2,0,0,1,2.5-6.4,13.9,13.9,0,0,1,4.8-4,19,19,0,0,1,6.2-1.9,44.6,44.6,0,0,1,8.4-.7,71.2,71.2,0,0,1,11.7.8,15.4,15.4,0,0,1,7.4,3.4,11.9,11.9,0,0,1,3.3,5.1,18.4,18.4,0,0,1,1.2,6.3v18.7a17.2,17.2,0,0,0,2,9Zm33.6-93.4c.4-1.2.7-2.4,1.1-3.6l28.9,9.8a9.4,9.4,0,0,0-1.2,2.2,1.3,1.3,0,0,1-1.7.8Zm28,107.5-27.9-45.9a6.2,6.2,0,0,0,2.4-.8,1.3,1.3,0,0,1,1.8.5L276,297.9Z"/><path class="cls-2" d="M195.3,270.3a4.1,4.1,0,0,0-.1,6.1,5.4,5.4,0,0,0,4,1.3,9.7,9.7,0,0,0,5-1.4,6.9,6.9,0,0,0,3.3-3.2,9.9,9.9,0,0,0,1-4.9v-2.6a64.1,64.1,0,0,1-7,2.1C198.2,268.6,196.1,269.5,195.3,270.3Z"/><path class="cls-2" d="M201.5,199.4h6.4l-4.5-14.6A35.6,35.6,0,0,0,201.5,199.4Z"/><path class="cls-1" d="M66.6,281.6a21.9,21.9,0,0,1-2.4-16.1c-2.8-6.8-4.6-13.6-3.8-21.3A95.5,95.5,0,0,1,62.7,230l-1.2.5L60.1,227l3.7-1.4a127.4,127.4,0,0,1,10.7-26.7A89.6,89.6,0,0,1,89,179.2l-8.5.2c-6.6,6.3-12.3,12.2-14.1,15.5s-4.5,18-7.1,30.9c-2.1,10-4.1,19.6-5.5,25.3a16.3,16.3,0,0,0-.1,8.5l8.5,35.5a4,4,0,0,0,2.6,2.9,3.9,3.9,0,0,0,3.9-.7l5.7-4.5A31.7,31.7,0,0,1,67.8,282C70.5,288.9,67.5,283.2,66.6,281.6Z"/><path class="cls-1" d="M85.7,138.2a1.5,1.5,0,0,1-.9-1.8,15.5,15.5,0,0,0,.5-2.3l8.4,2.8a120.7,120.7,0,0,1-8.5-18.7,63.6,63.6,0,0,0-7.5,19.5,15.4,15.4,0,0,0,1.2,9.9l9.2,19.5c8-7.2,15.3-13.3,17-14.8a71,71,0,0,1-8.3-10.5Z"/><path class="cls-1" d="M113.6,159.9c-1.9-1.5-3.8-3.1-5.6-4.8-.8.6-9.4,7.9-18.7,16.3a2.2,2.2,0,0,1-1,.9h-.1l-3.5,3.2,8.3-.2a123.4,123.4,0,0,1,11.8-9.6C107.7,163.7,110.6,161.8,113.6,159.9Z"/><path class="cls-1" d="M304,170.6h.2l-.3-.2Z"/><path class="cls-1" d="M199.5,350.1a74,74,0,0,0-2,11.9.8.8,0,0,1,0,.7c.1,1.4.3,2.4,1,2.7l2.2.9-.2-16.6-.8-.3A6.4,6.4,0,0,0,199.5,350.1Z"/><path class="cls-1" d="M325.9,123.3a29.8,29.8,0,0,0-2.8-6.6,27.4,27.4,0,0,1-2.8,8.8Z"/><path class="cls-1" d="M303.7,141.8l-4.5,2.5-2.2,1.3-1,.8-1.6,1.6-.5.6L293,150c-.8,1.1-1.4,2.3-2.1,3.4,1.4,1.4,2.8,2.8,4.1,4.3l3.2,4a2.1,2.1,0,0,1,1.5.3l10.7,8.5H314l11.5-22.5c.1-.1.1-.2.2-.4l1.1-2.6a23,23,0,0,0,1.2-8.6,69.8,69.8,0,0,0-1.2-9.3l-10.2,3.9A46,46,0,0,1,303.7,141.8Z"/><path class="cls-1" d="M126.2,344.9c-2.6,0-20.3-19.4-20.4-19.4-9.3-15.1-14.8-40.2-16.5-48.7a28.3,28.3,0,0,1-6,13.3l12.2,34.7c1.1,2.4,2.1,4.6,3,6.8a41,41,0,0,0,12.6,13.6L134.5,361c3.1,1.5,5.4,1.8,6.9,1s3-3.7,3.6-8.1a107.1,107.1,0,0,0-2.9-10.7,23.9,23.9,0,0,0-5.2-8.6C136.6,339.8,133,344.9,126.2,344.9Z"/><path class="cls-1" d="M155.3,346.2a15.5,15.5,0,0,1-9-3.5l-.2-.2c1.2,4.1,1.9,6.8,2.3,8.5a2.3,2.3,0,0,1,.7.7l7.4,12.1a8.1,8.1,0,0,0,7.8,4,9.1,9.1,0,0,0,5.2-2.3,9.8,9.8,0,0,0,3-5.1,30.3,30.3,0,0,1-1.3-3,1.9,1.9,0,0,1,.9-2.5c-1.8-6.9-3.3-12.3-6-17.1a9.8,9.8,0,0,1-1.3,3.2A11,11,0,0,1,155.3,346.2Z"/><path class="cls-1" d="M181.3,349.4a10.2,10.2,0,0,1-7.4-2.8c.8,2.3,1.4,4.9,2.2,7.6v.4a13.1,13.1,0,0,1,.4,5.2c1.4,2.9,2.8,5.2,3.5,5.6s2.3,0,5-1.8a19,19,0,0,0,5.3-5.4h0a2.2,2.2,0,0,1,.9-1.6,14.8,14.8,0,0,0,1.6-7,68,68,0,0,0-.9-11.8C192.2,343.5,188.6,349.4,181.3,349.4Z"/><path class="cls-1" d="M215.4,344.7a46.4,46.4,0,0,0-1.3,11.8,3.3,3.3,0,0,0,1.5,2.8,3.1,3.1,0,0,0,3.1.2l25.7-11.4a26.8,26.8,0,0,1-.6-8.3,15.9,15.9,0,0,1,2-5.9c0-.4-.1-.8-.1-1.1A67.9,67.9,0,0,1,215.4,344.7Z"/><path class="cls-1" d="M301.4,313.7c-5.2,7.3-13,10.3-19.3,15.7s-13.8,11.3-22.8,12.9a11.5,11.5,0,0,1-11.2-3.7,4,4,0,0,0-.3,1.5,22.1,22.1,0,0,0,.5,7.1,3.6,3.6,0,0,0,1.9,2.3,4.2,4.2,0,0,0,3.1,0l20.8-9.8,22.3-11.2a58.2,58.2,0,0,0,17.6-19l5.3-9.2a70.8,70.8,0,0,1-17.5,12.9A1,1,0,0,1,301.4,313.7Z"/><path class="cls-1" d="M204.2,350.4l.3,16.5a12.2,12.2,0,0,0,6.7-1.7l3.4-2-1.1-.5a7.5,7.5,0,0,1-3.4-6.2,61.8,61.8,0,0,1,.5-7.9,10.8,10.8,0,0,1-6.2,1.8Z"/><path class="cls-1" d="M307.2,176.9c1.4,3.4,2.6,7,4,10.4a21.5,21.5,0,0,0,3.6,6.5,10,10,0,0,1,3.1,7.5c2.3,4.6,4.1,9.4,6.5,14l3.8,1.3-1.2,3.5c4.3,7.3,8.6,14.8,10.5,23.1a56.6,56.6,0,0,1-2,31.8,72,72,0,0,1-12.7,21.6l.8.3a5.6,5.6,0,0,0,4-.3,5.5,5.5,0,0,0,2.6-3l13-41.2a15.2,15.2,0,0,0,0-9.2c-9.4-31-16.1-51.7-17.5-54s-6.2-6.2-12.5-11.3l-.7-.2a2.1,2.1,0,0,1-1-1.3l-2.8-2.2H306Z"/><path d="M224.4,276.7V258a18.4,18.4,0,0,0-1.2-6.3,11.9,11.9,0,0,0-3.3-5.1,15.4,15.4,0,0,0-7.4-3.4,71.2,71.2,0,0,0-11.7-.8,44.6,44.6,0,0,0-8.4.7,19,19,0,0,0-6.2,1.9,13.9,13.9,0,0,0-4.8,4,18.2,18.2,0,0,0-2.5,6.4l15.5,1.7a7.6,7.6,0,0,1,2.5-3.8,12.1,12.1,0,0,1,6-1.3c2.1,0,3.6.4,4.4,1.2s1.2,2.2,1.2,4.2a56.1,56.1,0,0,1-5.7,2c-1.8.5-5.8,1.3-11.9,2.5s-8.5,2.6-10.4,4.7a11.8,11.8,0,0,0,1.1,16.6c2.6,2.3,6.4,3.5,11.5,3.5a25.9,25.9,0,0,0,10-1.8,18.6,18.6,0,0,0,6.3-4.4,14.1,14.1,0,0,0,.6,2.7,17.3,17.3,0,0,0,1.2,2.5h15.2a17.2,17.2,0,0,1-2-9Zm-15.9-8.5a9.9,9.9,0,0,1-1,4.9,6.9,6.9,0,0,1-3.3,3.2,9.7,9.7,0,0,1-5,1.4,5.4,5.4,0,0,1-4-1.3,4.1,4.1,0,0,1,.1-6.1c.8-.8,2.9-1.7,6.2-2.6a64.1,64.1,0,0,0,7-2.1Z"/><path class="cls-2" d="M188.7,122.1a10.3,10.3,0,0,0-3.7,7.8,7.2,7.2,0,0,0,2.1,5.3,7.6,7.6,0,0,0,5.4,2.1c3.7,0,7.8-2,12.4-6.1a6.9,6.9,0,0,0,2.2,4.6,7.9,7.9,0,0,0,5.1,1.5,9,9,0,0,0,4.9-1.3,16.2,16.2,0,0,0,4.2-4.4l-1.2-.9c-.8,1-1.5,1.5-2.2,1.5a1.2,1.2,0,0,1-.9-.4,1.5,1.5,0,0,1-.6-.9,19.6,19.6,0,0,1-.2-3.3V112.9q0-6-.6-7.8a11.2,11.2,0,0,0-4-4.9,14.5,14.5,0,0,0-8.5-2.3,27.2,27.2,0,0,0-8.6,1.4,14.8,14.8,0,0,0-6.4,4.1,8.1,8.1,0,0,0-2.3,5.5,4.4,4.4,0,0,0,1.7,3.6,5.9,5.9,0,0,0,4.3,1.6,5.6,5.6,0,0,0,3.8-1.4,4.4,4.4,0,0,0-.1-6.7,4.2,4.2,0,0,1-1.1-2.1,2,2,0,0,1,1.1-1.7,7.1,7.1,0,0,1,4.3-1.2,5.7,5.7,0,0,1,2.9.8,4.9,4.9,0,0,1,1.8,2c.3.7.4,2.5.4,5.3v3.8C196.6,116.8,191.2,119.8,188.7,122.1Zm16.2,6.2c-1.8,1.5-3.3,2.2-4.7,2.2a3.7,3.7,0,0,1-2.8-1,4.8,4.8,0,0,1-1.3-3.3,7.5,7.5,0,0,1,1.5-4.4,25.8,25.8,0,0,1,7.3-6.2Z"/><path class="cls-3" d="M329.1,187.2c-1.2-2.1-6.9-7.1-13-12.2l13-25.3A28.2,28.2,0,0,0,332,136a64.5,64.5,0,0,0-1.5-10.5l-3.7,1.5a69.8,69.8,0,0,1,1.2,9.3,23,23,0,0,1-1.2,8.6,20.3,20.3,0,0,1-1.1,2.6c-.1.2-.1.3-.2.4L314,170.4h1.7a9.2,9.2,0,0,0-.8,2.7,1.4,1.4,0,0,1-1.4,1.1h-4.8l2.8,2.2a2.1,2.1,0,0,0,1,1.3l.7.2c6.3,5.1,11.6,9.7,12.5,11.3s8.1,23,17.5,54a15.2,15.2,0,0,1,0,9.2l-13,41.2a5.5,5.5,0,0,1-2.6,3,5.6,5.6,0,0,1-4,.3l-.8-.3c-6.3-2.3-13.5-6.8-14.5-15.6s-.1-22.1.8-30.5a32.5,32.5,0,0,0-2.4-16.3L300.3,219a2,2,0,0,0-2.6-1.1,2.1,2.1,0,0,0-1.1,2.6l6.4,15.2a27.3,27.3,0,0,1,2.1,14.4c-.9,8.5-1.8,20.9-.7,31.3.8,8,6.2,14.4,15.3,18.2l-.4.7-5.3,9.2a58.2,58.2,0,0,1-17.6,19,61.8,61.8,0,0,1-7.9,4.5l-14.4,6.7-20.8,9.8a4.2,4.2,0,0,1-3.1,0,3.6,3.6,0,0,1-1.9-2.3,22.1,22.1,0,0,1-.5-7.1,4,4,0,0,1,.3-1.5c2.1-7.7,15.9-18.2,28.6-25.9,4.8-2.9,8.9-19.1,9.7-22.3a2.1,2.1,0,0,0-1.5-2.4,2,2,0,0,0-2.4,1.5c-2,8.5-5.6,18.4-7.9,19.8-9.1,5.5-23.5,15.2-28.8,24.6a15.9,15.9,0,0,0-2,5.9,26.8,26.8,0,0,0,.6,8.3l-25.7,11.4a3.1,3.1,0,0,1-3.1-.2,3.3,3.3,0,0,1-1.5-2.8,46.4,46.4,0,0,1,1.3-11.8,10.6,10.6,0,0,1,1.4-3.7c2.5-3.9,7.4-6.8,13.1-10.2a138.1,138.1,0,0,0,11.9-7.7c10.8-8.1,18.7-24.6,19-25.3a2,2,0,0,0-3.6-1.7c-.1.2-7.8,16.3-17.8,23.9-4,2.9-7.8,5.2-11.5,7.4-6.2,3.6-11.5,6.8-14.5,11.5-1.4,2.2-2.3,5.5-2.8,9.7a61.8,61.8,0,0,0-.5,7.9,7.5,7.5,0,0,0,3.4,6.2l1.1.5-3.4,2a12.2,12.2,0,0,1-6.7,1.7v4h.2a16.9,16.9,0,0,0,8.5-2.3l17.7-10.1,15.4-6.9a10.7,10.7,0,0,0,2.2,1.5,7.7,7.7,0,0,0,3.2.7,7.2,7.2,0,0,0,3.3-.7l35.1-16.5a61.7,61.7,0,0,0,27.4-25.1l6-10.5h1.8a8.9,8.9,0,0,0,8.7-6.3l13-41.2a19.6,19.6,0,0,0,.1-11.5C341.3,223.1,331.3,190.7,329.1,187.2Z"/><path class="cls-3" d="M296.9,162.4a2,2,0,0,0,.4,2.8l6.6,5.2.3.2h6.2L299.7,162a2.1,2.1,0,0,0-1.5-.3A1.7,1.7,0,0,0,296.9,162.4Z"/><path class="cls-3" d="M219,325.7c9.2-7.4,12.8-27.5,13-28.4a2,2,0,0,0-1.6-2.3,2,2,0,0,0-2.3,1.6c-.1.2-3.5,19.6-11.6,26A89.4,89.4,0,0,0,204,334.8v6.3A80.3,80.3,0,0,1,219,325.7Z"/><path class="cls-3" d="M203.4,184.8l-1.7-5.6-4.9,16.4a37.8,37.8,0,0,1-.1,3.8h4.8A35.6,35.6,0,0,1,203.4,184.8Z"/><path class="cls-3" d="M84.7,175.6l3.5-3.2h.1a2.2,2.2,0,0,0,1-.9c9.3-8.4,17.9-15.7,18.7-16.3h0a2,2,0,0,0-2.5-3.1l-.4.3c-1.7,1.5-9,7.6-17,14.8l-9.2-19.5a15.4,15.4,0,0,1-1.2-9.9,63.6,63.6,0,0,1,7.5-19.5,33,33,0,0,1,11.6-11.6c12.5-7.2,33.1-4.1,44.2-1.6a15.6,15.6,0,0,1,9.5,6.5l5.8,8.4h-.1c.2.3,14.9,25.2,25.8,43.1l1.8-4.8c-7.8-12.8-17.1-28.3-21.5-35.8a2,2,0,0,0-.4-1.3l-8.1-12a19.6,19.6,0,0,0-11.9-8.1c-11.7-2.6-33.4-5.8-47.1,2s-19,24.5-21,33.7a19.3,19.3,0,0,0,1.5,12.5L85,169.9c-2.1,1.9-4.3,3.8-6.3,5.8Z"/><path class="cls-3" d="M255.9,106.9a20.5,20.5,0,0,1,4.2-.7c16-.6,44.5-1,55.2,3.1a16,16,0,0,1,7.8,7.4,29.8,29.8,0,0,1,2.8,6.6l3.7-1.4c-2.2-7-6-13.6-12.9-16.3-11.4-4.4-40.4-4-56.7-3.3h-.4Z"/><path class="cls-3" d="M219.9,157.3c5.8-9.4,12.4-20,17.8-28.9-.2-.9-.5-1.9-.8-2.8a1.4,1.4,0,0,1,.3-1.3l16.7-20.9a22,22,0,0,0-7.9,4.4h-.2c-.1,0-.2.3-.6.9a22.5,22.5,0,0,0-4,5.2l-5.9,10.5a2.9,2.9,0,0,0-.2.9l-16.9,27.4Z"/><path class="cls-3" d="M200.7,366.3l-2.2-.9c-.7-.3-.9-1.3-1-2.7a.8.8,0,0,0,0-.7,74,74,0,0,1,2-11.9,6.4,6.4,0,0,1,.2-.7,17.2,17.2,0,0,1,.7-2.1v-7.8a43,43,0,0,0-3.5,6.1,61.9,61.9,0,0,0-1.8-12.7,1.7,1.7,0,0,0-.1-1.2l-20.1-44.3a2,2,0,0,0-3.6,1.6l19.3,42.7a1.7,1.7,0,0,0,.1.7,20.6,20.6,0,0,1,1.4,5.4,68,68,0,0,1,.9,11.8,14.8,14.8,0,0,1-1.6,7,2.2,2.2,0,0,0-.9,1.6h0a19,19,0,0,1-5.3,5.4c-2.7,1.8-4.7,1.9-5,1.8s-2.1-2.7-3.5-5.6a13.1,13.1,0,0,0-.4-5.2v-.4c-.8-2.7-1.4-5.3-2.2-7.6-2.5-8.2-5.5-14.7-12.9-21.5l-15.2-29a2,2,0,0,0-2.7-.9,2.1,2.1,0,0,0-.8,2.7l15.3,29.4.4.6a37.6,37.6,0,0,1,8.1,9.9c2.7,4.8,4.2,10.2,6,17.1a1.9,1.9,0,0,0-.9,2.5,30.3,30.3,0,0,0,1.3,3,9.8,9.8,0,0,1-3,5.1,9.1,9.1,0,0,1-5.2,2.3,8.1,8.1,0,0,1-7.8-4l-7.4-12.1a2.3,2.3,0,0,0-.7-.7c-.4-1.7-1.1-4.4-2.3-8.5a4.3,4.3,0,0,1-.1-.5c-2.3-7.4-9.5-13.7-12.6-16.2,0-.1-.1-.2-.1-.3l-20-33.1a2,2,0,0,0-2.7-.6,1.9,1.9,0,0,0-.7,2.7l19,31.5a2.3,2.3,0,0,0,.8,2,42,42,0,0,1,7.2,6.6,23.9,23.9,0,0,1,5.2,8.6,107.1,107.1,0,0,1,2.9,10.7q-.9,6.6-3.6,8.1c-1.5.8-3.8.5-6.9-1l-23.4-15.8a41,41,0,0,1-12.6-13.6,44.6,44.6,0,0,1-2.8-6.3l-.2-.5L83.3,290.1a28.3,28.3,0,0,0,6-13.3,29.9,29.9,0,0,0,.2-6.7l-.9-8.7a38.3,38.3,0,0,1,2.7-18l6.8-16.3a2,2,0,0,0-3.7-1.5l-6.8,16.3a41.2,41.2,0,0,0-2.9,19.9l.8,8.7a23.3,23.3,0,0,1-8.6,20.3l-2.5,2-5.7,4.5a3.9,3.9,0,0,1-3.9.7,4,4,0,0,1-2.6-2.9l-8.5-35.5a16.3,16.3,0,0,1,.1-8.5c1.4-5.7,3.4-15.3,5.5-25.3,2.6-12.9,5.9-28.8,7.1-30.9s7.5-9.2,14.1-15.5H74.7c-5.5,5.4-10.1,10.4-11.8,13.4s-3.8,13.8-7.5,32c-2,9.7-4.1,19.6-5.5,25.2a21.9,21.9,0,0,0-.1,10.5L58.3,296a8,8,0,0,0,5.2,5.8,8.4,8.4,0,0,0,2.7.4h0a7.9,7.9,0,0,0,5-1.8l8.2-6.5a2.3,2.3,0,0,0,.7-.7l11.8,33.4a44.3,44.3,0,0,0,16.9,21.9l23.6,15.9.3.2a10.9,10.9,0,0,0,2.3.9l.6.3a14.3,14.3,0,0,0,3.9.6,8.6,8.6,0,0,0,3.9-.9c2.3-1.3,3.9-3.7,4.9-7.5l4.7,7.9a12.4,12.4,0,0,0,10.4,5.9h1.3a12.7,12.7,0,0,0,7.4-3.2,11.3,11.3,0,0,0,2.8-3.4c1.1,1.8,2.2,3.3,3.3,3.8a4.2,4.2,0,0,0,2.2.5,12.7,12.7,0,0,0,6.3-2.1,23.5,23.5,0,0,0,5.6-5l.9.5.4.2c.2,2.8,1,4.9,3.1,6l2.8,1.1,1.3.3Z"/><path class="cls-2" d="M161,230.1h21.1l3.5-11.9a2,2,0,0,1,1.9-1.4h28.3a2,2,0,0,1,1.9,1.4l3.6,11.9H243l-28.8-76.6H189.8Zm40.7-59.7h0a2,2,0,0,1,1.9,1.4l8.9,29a1.9,1.9,0,0,1-.3,1.8,1.8,1.8,0,0,1-1.6.8H192.9a2.1,2.1,0,0,1-1.6-.8,1.9,1.9,0,0,1-.3-1.8l8.8-29A2.1,2.1,0,0,1,201.7,170.4Z"/><path class="cls-4" d="M182,163.1l-25.7,68.3c0,.1,0,.2-.1.2a58,58,0,0,1,.3-13.8,38.7,38.7,0,0,1,1.3-5.9l-2.5,2a51.8,51.8,0,0,0-.4,6.6q.3,5.7.9,11.4l.3,3.2h.6l-.3-2.1c0,.1.1.2.1.3a2.1,2.1,0,0,0,1.7.8h25.4a2,2,0,0,0,1.9-1.4l3.5-11.9h25.3l3.6,11.9a2.1,2.1,0,0,0,1.9,1.4h26.1a2.1,2.1,0,0,0,1.7-.8,2.5,2.5,0,0,0,.2-1.9l-27.9-74.1-1.7-4.7-.7-1.8a2,2,0,0,0-1.9-1.3H188.5a2,2,0,0,0-1.9,1.3l-2.8,7.5Zm32.2-9.6L243,230.1H221.3l-3.6-11.9a2,2,0,0,0-1.9-1.4H187.5a2,2,0,0,0-1.9,1.4l-3.5,11.9H161l28.8-76.6Z"/><path class="cls-4" d="M191,200.8a1.9,1.9,0,0,0,.3,1.8,2.1,2.1,0,0,0,1.6.8h17.7a1.8,1.8,0,0,0,1.6-.8,1.9,1.9,0,0,0,.3-1.8l-8.9-29a2,2,0,0,0-1.9-1.4h0a2.1,2.1,0,0,0-1.9,1.4Zm10.5-1.4h-5.9l1.2-3.8,4.9-16.4,1.7,5.6,4.5,14.6Z"/><path class="cls-4" d="M114.6,277.3l2.9,2.3,31.8-41a2,2,0,0,0,.3-1.1c-.2-1.6-.4-3.1-.5-4.7Z"/><path class="cls-4" d="M237.2,124.3a1.4,1.4,0,0,0-.3,1.3c.3.9.6,1.9.8,2.8l.3.9,17.9-22.4,3.7-4.6,23.9-29.9-2.9-2.3-26.7,33.3Z"/><path class="cls-4" d="M151.8,191.3l-40.6,15.8a1.6,1.6,0,0,0-.9,2.1c0,.1,0,.2.1.2a1.6,1.6,0,0,0,2.1,1.2l40-15.6c-.1-.1-.1-.3-.2-.4S151.9,192.4,151.8,191.3Z"/><path class="cls-4" d="M61.5,230.5l1.2-.5,32.8-12.8a1.6,1.6,0,0,0,.9-2.1v-.2a1.7,1.7,0,0,0-2.2-1.2L63.8,225.6,60.1,227Z"/><path class="cls-4" d="M325.9,123.3l-5.6,2.2-23.2,9a1.7,1.7,0,0,0-.8,2.3v.3a1.7,1.7,0,0,0,2.1.9l18.1-7.1,10.2-3.9,3.7-1.5,17.5-6.8-1.4-3.5-17,6.7Z"/><path class="cls-4" d="M255.4,154.8l26.3-10.3a1.4,1.4,0,0,0,.9-1.7,5.2,5.2,0,0,1-.3-2.5l-26.7,10.4a1.3,1.3,0,0,0-.8,1.6Z"/><path class="cls-4" d="M122.2,178.5l28.2-.7a1.4,1.4,0,0,0,1.4-1.2l.3-2.6-31.8.8a8.6,8.6,0,0,1,.5,2.3A1.4,1.4,0,0,0,122.2,178.5Z"/><path class="cls-4" d="M80.5,179.4l8.5-.2,15.8-.4a1.3,1.3,0,0,0,1.4-1.3,6.7,6.7,0,0,1,.7-2.4l-13.9.3-8.3.2h-6l-39.7.9v3.7l35.6-.8Z"/><path class="cls-4" d="M304.2,170.6H304l-56.5,1.3c.1,1.2.1,2.5.1,3.7l58.4-1.3h7.5a1.4,1.4,0,0,0,1.4-1.1,9.2,9.2,0,0,1,.8-2.7H304.2Z"/><path class="cls-4" d="M328.8,170a5.3,5.3,0,0,1,.6,2.4,1.4,1.4,0,0,0,1.5,1.3l28.2-.6v-3.7Z"/><path class="cls-4" d="M273.6,200.7a9.4,9.4,0,0,1,1.2-2.2l-28.9-9.8c-.4,1.2-.7,2.4-1.1,3.6l27.1,9.2A1.3,1.3,0,0,0,273.6,200.7Z"/><path class="cls-4" d="M287.4,205.3a1.2,1.2,0,0,0,.9,1.7L327,220.1h0l1.2-3.5-3.8-1.3-36.6-12.4A10,10,0,0,1,287.4,205.3Z"/><path class="cls-4" d="M84.8,136.4a1.5,1.5,0,0,0,.9,1.8l11.1,3.6,65.1,21.7c.3-1.3.5-2.5.8-3.7l-69-22.9-8.4-2.8A15.5,15.5,0,0,1,84.8,136.4Z"/><path class="cls-4" d="M71.1,131.8a7.6,7.6,0,0,1,1.1-2.2l-12.1-4-1.2,3.5,10.4,3.5A1.4,1.4,0,0,0,71.1,131.8Z"/><path class="cls-4" d="M247.3,253.1a6.2,6.2,0,0,1-2.4.8l27.9,45.9,3.2-1.9-26.9-44.3A1.3,1.3,0,0,0,247.3,253.1Z"/><path class="cls-4" d="M171.4,133.3c.4-1.4.8-2.8,1.3-4.2s-23.3-39.5-23.3-39.5a1.6,1.6,0,0,0-2.2-.6c-.1.1-.2.1-.2.2a1.6,1.6,0,0,0-.8,2.3Z"/><path class="cls-4" d="M139.8,76.3a1.4,1.4,0,0,0,.4-1.9L125.3,49.9l-3.2,1.9,16,26.3A9.8,9.8,0,0,1,139.8,76.3Z"/><path class="cls-4" d="M204.5,366.9l-.3-16.5V334.8l-.6-35.8-2.6.7a1.3,1.3,0,0,0-1.1,1.4l.6,38.4v10.2l.2,16.6v9h3.7v-8.3Z"/><path class="cls-4" d="M197.4,72.7a1.5,1.5,0,0,0,1.2-1.4l-1.3-56.2V12.3h-3.8v3.8l1.3,57.3A7.3,7.3,0,0,1,197.4,72.7Z"/><path class="cls-4" d="M227,98.1l16.4-48.3-3.6-1.2-15,44.3a1.4,1.4,0,0,0,.1,1.1Z"/><path class="cls-4" d="M169.1,257.5l-14.3,42.4,3.5,1.2,12.8-37.7a1.7,1.7,0,0,0-.1-1C170.3,260.8,169.7,259.2,169.1,257.5Z"/></g></g></svg>