<svg xmlns="http://www.w3.org/2000/svg" viewBox="0 0 650.4 431.6"><defs><style>.cls-1{fill:#eee;}.cls-2{fill:#ababab;}.cls-3{fill:#9b9a9b;}.cls-11,.cls-14,.cls-18,.cls-23,.cls-4,.cls-9{fill:none;stroke-miterlimit:10;}.cls-18,.cls-4{stroke:#222;}.cls-4{stroke-width:1.86px;}.cls-5{fill:#252525;}.cls-6{fill:#323232;}.cls-7{fill:#222;}.cls-15,.cls-17,.cls-8{fill:#555;}.cls-9{stroke:#323232;}.cls-10{fill:#fdd;}.cls-11{stroke:#eee;stroke-width:0.93px;}.cls-12,.cls-24,.cls-27{fill:#fff;}.cls-13,.cls-19{fill:#e34;}.cls-14,.cls-23{stroke:#e34;}.cls-15{opacity:0.3;}.cls-16{fill:#faa;}.cls-17{opacity:0.18;}.cls-18{stroke-width:2px;}.cls-19{font-size:33.91px;}.cls-19,.cls-24,.cls-27{font-family:Roboto-Black, Roboto;font-weight:800;}.cls-20{font-size:7.15px;font-family:Roboto-LightItalic, Roboto;font-weight:300;}.cls-20,.cls-25,.cls-28{font-style:italic;}.cls-21{letter-spacing:0.01em;}.cls-22{letter-spacing:0em;}.cls-23{stroke-width:1.22px;}.cls-24{font-size:13.96px;}.cls-25{font-size:6.26px;}.cls-25,.cls-28{font-family:Roboto-ThinItalic, Roboto;font-weight:200;}.cls-26{letter-spacing:-0.01em;}.cls-27{font-size:13.9px;}.cls-28{font-size:6.22px;}.cls-29{letter-spacing:-0.01em;}</style></defs><g id="Capa_2" data-name="Capa 2"><g id="fondo"><g id="fondo-2" data-name="fondo"><g id="fondo-2-2" data-name="fondo-2"><path class="cls-1" d="M4,208.7C-8.6,125,8.2,90.3,60.1,69S199.5,40,335.9,11.9C467.4-15.7,536.5,7.6,579,51.8S636,161.1,646.7,217c14.8,69.3-15.4,104.8-72.5,129.6S432.3,385.4,329.9,411C201.3,444,134,435.7,87.2,397.8S17,292.4,4,208.7Z"/></g></g></g><g id="laptop"><path class="cls-2" d="M184.8,242.8,223.7,57.4a7.2,7.2,0,0,1,3.7-4.8l.5-.2a8,8,0,0,1,3.3-.8l298.3,6a8.3,8.3,0,0,1,7.4,5l.6,1.1a9.2,9.2,0,0,1,.6,4.3L513,280.9l1.6.5s-.2,9.6-2.5,13.3-7.7,5.1-7.7,5.1L460.2,390s-2,3.7-5.5,3.7S56.8,328.6,56.8,328.6s-3.8-3.1,0-5.4l124.3-80.1Z"/><polygon class="cls-3" points="119.3 287.3 184.2 244.9 502.2 279.3 468.3 337.8 119.3 287.3"/><path class="cls-4" d="M513,272.3l6.9.4a7,7,0,0,0,7.4-7.2l-2-89"/><path class="cls-5" d="M525.3,176.5l2,89a7,7,0,0,1-7.4,7.2l-6.9-.4,12.3-95.8"/><line class="cls-6" x1="163.6" y1="254.7" x2="490.5" y2="293.7"/><line class="cls-6" x1="171.1" y1="247.7" x2="494" y2="284.8"/><path class="cls-5" d="M184.8,242.8,223.7,57.4a7.2,7.2,0,0,1,3.7-4.8l.5-.2a8,8,0,0,1,3.3-.8l298.3,6a8.3,8.3,0,0,1,7.4,5l.6,1.1a9.2,9.2,0,0,1,.6,4.3L513,280.9l1.6.5s-4.4-2.5-7.9-2.5-307.8-35-307.8-35Z"/><path class="cls-7" d="M231,51.6h.2l298.3,6a8.3,8.3,0,0,1,7.4,5l.6,1.1a9.2,9.2,0,0,1,.6,4.3L513,280.9l1.6.5s-.2,9.6-2.5,13.3-7.7,5.1-7.7,5.1L460.2,390s-2,3.7-5.5,3.7S56.8,328.6,56.8,328.6s-3.8-3.1,0-5.4l124.3-80.1,3.7-.3L223.7,57.4a7.2,7.2,0,0,1,3.7-4.8l.5-.2a7.1,7.1,0,0,1,3.1-.8m0-1.8h0a8.9,8.9,0,0,0-3.9.9l-.5.3a8.9,8.9,0,0,0-4.7,6L183.3,241.1l-2.3.2h-.5l-.4.3-124.3,80a4.4,4.4,0,0,0-2.5,3.7,5.9,5.9,0,0,0,2.3,4.7l.4.3h.4c40.4,6.7,394.7,65.1,398.3,65.1s7.1-4.4,7.2-4.6h0l43.8-89.5c1.8-.6,5.8-2.2,7.9-5.6s2.9-13.2,2.9-14.2v-1.4l-1.2-.4H515L539.9,68.3a9.7,9.7,0,0,0-.7-5.3l-.6-1.2a10.1,10.1,0,0,0-9.1-6.1L231.2,49.8Z"/><polygon class="cls-8" points="177.1 335.4 211.9 306.9 214.7 306.9 341.2 325.1 314 357.3 177.1 335.4"/><path class="cls-6" d="M122.1,288v-1.4a.8.8,0,0,1,.3-.7l9.9-6.6h.5l20.5,3a.8.8,0,0,1,.8.8v1l-10.4,7Z"/><path class="cls-6" d="M135.6,279v-1.5a.8.8,0,0,1,.4-.7l8.8-5.7a.4.4,0,0,1,.5-.1l35.8,3.8a1,1,0,0,1,.7.9v.9l-10.4,7.1Z"/><path class="cls-6" d="M147.2,271.1v-.9a.8.8,0,0,1,.4-.6l8.8-5.7h.6l24.1,1.8a.8.8,0,0,1,.7.8v.9l-9.5,6.1Z"/><path class="cls-6" d="M159.4,263.6v-.9a.7.7,0,0,1,.3-.6l9.3-6.5a.4.4,0,0,1,.5-.1l17.2,1.9c.4.1.8.4.8.8v.9l-9,5.9Z"/><path class="cls-6" d="M171.1,254.8v-.9a.8.8,0,0,1,.4-.6l7.4-4.6h.6l13.1,1.5c.5.1.8.4.8.8v.9l-6.8,4.7Z"/><path class="cls-6" d="M181.8,248.9v-.8a.8.8,0,0,1,.4-.7l3.2-2.2.6-.2,13.7,1a.8.8,0,0,1,.7.8v.9l-4,2.4Z"/><path class="cls-6" d="M202.2,250.5v-.8a1,1,0,0,1,.4-.7l2.9-1.9.5-.2,14.4,1.1a.8.8,0,0,1,.7.8v1l-4.1,2.4Z"/><path class="cls-6" d="M221.1,252.9V252a1,1,0,0,1,.4-.7l3.2-2.1.6-.2,14.3,1.2a.8.8,0,0,1,.8.8v.9l-3.1,2.8Z"/><path class="cls-6" d="M241.5,255.1v-.8a.9.9,0,0,1,.3-.7l3.2-2.1.6-.2,14.4,1.2a.7.7,0,0,1,.7.8v.9l-3.1,2.8Z"/><path class="cls-6" d="M260.5,257.2v-.8a1,1,0,0,1,.4-.7l3.2-2.1.6-.2,14.3,1.1c.4.1.8.4.8.8v1l-3.1,2.8Z"/><path class="cls-6" d="M279.9,259.6v-.9a.9.9,0,0,1,.3-.7l3.2-2.1a.7.7,0,0,1,.6-.1l14.3,1.1a.8.8,0,0,1,.8.8v.9l-3.1,2.8Z"/><path class="cls-6" d="M299.5,261.7v-.9a.6.6,0,0,1,.4-.6l3.2-2.2h.5L318,259a.8.8,0,0,1,.7.8v.9l-3.1,2.8Z"/><path class="cls-6" d="M320.4,264.1v-.8a.8.8,0,0,1,.4-.7l2.6-2.1.5-.2,14.4,1.2a.8.8,0,0,1,.8.8v.9l-2.6,2.8Z"/><path class="cls-6" d="M340.2,266.6v-.9a1,1,0,0,1,.4-.7l2.2-2.1h.5l14.8,1.1a.9.9,0,0,1,.8.8v.9l-2.6,2.8Z"/><path class="cls-6" d="M361.7,269v-.9a.8.8,0,0,1,.4-.7l2.2-2.1.5-.2,14.8,1.2a.8.8,0,0,1,.8.8v.9l-2.6,2.8Z"/><path class="cls-6" d="M381.6,271.1v-.9a1,1,0,0,1,.4-.7l2.5-2.3h.7l17,1.2a.9.9,0,0,1,.9.8v1l-2.9,3Z"/><path class="cls-6" d="M403.7,273.6v-.9a1,1,0,0,1,.5-.8l2.5-2.2.6-.2,17,1.2c.5.1.9.4.9.9v.9l-2.9,3Z"/><path class="cls-6" d="M426.2,276.3v-.9c0-.3.2-.5.5-.7l2.5-2.3h.6l17,1.2a.9.9,0,0,1,.9.8v1l-2.9,3Z"/><path class="cls-6" d="M449.1,279v-.9a1,1,0,0,1,.4-.7l2.5-2.3h.7l17,1.2a.9.9,0,0,1,.9.8v1l-2.9,3Z"/><path class="cls-6" d="M471.6,281.3v-.9a33.5,33.5,0,0,1,2.6-3.4h.6l24.7,2.2a.8.8,0,0,1,.8.8v1l-2.9,2.9Z"/><path class="cls-6" d="M148.2,291.6v-1.5a.8.8,0,0,1,.4-.7l9-6.4.5-.2L175,285a.8.8,0,0,1,.8.8v.6l-10.2,7.7Z"/><path class="cls-6" d="M198,287.1v-1.2c0-.2.2-.4.4-.6l8-6.4h.5l16,2a.7.7,0,0,1,.7.7v.5l-9.3,7.3Z"/><path class="cls-6" d="M176.6,284.3v-1.2a.9.9,0,0,1,.3-.6l7.7-6.5h.5l16,2.1a.8.8,0,0,1,.7.7v.5l-9,7.3Z"/><path class="cls-6" d="M219.6,290v-1.2a.6.6,0,0,1,.3-.6l7.9-6.5.5-.2,16,2.3a.7.7,0,0,1,.7.6v.5l-8.6,7.2Z"/><path class="cls-6" d="M241.3,292.8v-1.2a.8.8,0,0,1,.4-.6l7.8-6.5h.5l16.1,2.2c.4,0,.6.3.6.7v.5l-8.5,7.1Z"/><path class="cls-6" d="M264.6,295.8v-1.2a.9.9,0,0,1,.3-.6l7.7-6.5h.5l16,2.2a.8.8,0,0,1,.7.7v.5l-7.4,7.3Z"/><path class="cls-6" d="M287.5,298.9v-1.2a.5.5,0,0,1,.4-.6l7.4-6.4h.5l17.7,2.3a.7.7,0,0,1,.7.7v.5l-8.6,7.1Z"/><path class="cls-6" d="M311.4,302v-1.2a.8.8,0,0,1,.4-.6l7.5-6.4h.5l17.6,2.3a.7.7,0,0,1,.7.7v.5l-7.6,7.2Z"/><path class="cls-6" d="M198.5,277v-1.2c0-.2.2-.4.4-.6l7.1-5.3h.5l16.2,1.6a.7.7,0,0,1,.7.7v.5l-8.6,6.6Z"/><path class="cls-6" d="M177.1,274.3v-1.2a.6.6,0,0,1,.3-.6l7.7-5.3.5-.2,15.4,1.7a.7.7,0,0,1,.7.6v.5l-8.4,6.6Z"/><path class="cls-6" d="M184.5,266.1v-1a.5.5,0,0,1,.3-.5l6.9-5.4h.4l14.3,1.7a.6.6,0,0,1,.6.6v.4l-7,6Z"/><path class="cls-6" d="M191.6,257.8v-.9a.5.5,0,0,1,.3-.5l6.6-5h.4l13,1.5a.6.6,0,0,1,.5.6v.4l-6.7,5.5Z"/><path class="cls-6" d="M209.2,259.9V259a.5.5,0,0,1,.3-.5l6.6-5h.4l15.4,1.7a.6.6,0,0,1,.6.5v.4l-6.7,5.8Z"/><path class="cls-6" d="M230,262.2v-.9a.8.8,0,0,1,.2-.5l6.7-5h.4l15.4,1.7a.6.6,0,0,1,.5.6v.4l-6.7,5.7Z"/><path class="cls-6" d="M251.1,264.8v-.9a.5.5,0,0,1,.3-.5l6.3-5.1h.3l15.5,1.7a.5.5,0,0,1,.5.5v.4l-6.7,5.7Z"/><path class="cls-6" d="M272.4,267.3v-1c0-.2.2-.3.3-.5l6.2-5h.4l15.4,1.7a.6.6,0,0,1,.6.5v.4l-6.7,5.8Z"/><path class="cls-6" d="M293.6,269.7v-.9a.5.5,0,0,1,.3-.5l6.1-5c.1-.1.3-.2.4-.1l15.9,1.7c.3.1.6.3.6.6v.4l-6.7,5.7Z"/><path class="cls-6" d="M314.5,272.4v-1a.5.5,0,0,1,.3-.5l6.3-5.2h.4l16.4,1.8a.6.6,0,0,1,.6.6v.4l-6.9,5.9Z"/><path class="cls-6" d="M337.4,275v-1a.5.5,0,0,1,.3-.5l5.9-5.4h.4l17.1,1.9a.6.6,0,0,1,.6.5v.5l-6.6,6.2Z"/><path class="cls-6" d="M359.8,277.8v-1a.8.8,0,0,1,.2-.5l5.8-5.5h.5l16.6,1.9a.6.6,0,0,1,.6.5v.4l-6.5,6.3Z"/><path class="cls-6" d="M382.7,280.4v-1a.5.5,0,0,1,.3-.5l5.9-5.5h.4l17.8,2a.6.6,0,0,1,.6.5v.5l-5.2,6.4Z"/><path class="cls-6" d="M406.8,283.4v-1a.9.9,0,0,1,.3-.5l4.5-5.7h.4l18.7,2.1a.6.6,0,0,1,.6.6v.4l-5.3,6.4Z"/><path class="cls-6" d="M431.3,286v-1a.8.8,0,0,1,.2-.5l4.7-5.4c.2-.1.3-.2.5-.1l18.5,2a.6.6,0,0,1,.6.5v.5l-5.3,6.4Z"/><path class="cls-6" d="M455.1,289.2v-1.1a.5.5,0,0,1,.3-.5l4.5-6c.2-.1.3-.2.5-.1l35.5,4.2a.7.7,0,0,1,.6.7v.4l-5.1,6.9Z"/><path class="cls-6" d="M204.1,268.3v-1.1a.5.5,0,0,1,.3-.5l6.4-5.2h.4l15.7,1.8c.3.1.6.3.6.6v.5l-7.9,6Z"/><path class="cls-6" d="M223.4,270.6v-1.1a.5.5,0,0,1,.3-.5l6.6-5.1.5-.2,16.1,2q.6.2.6.6v.5l-7.2,6Z"/><path class="cls-6" d="M245,273.2v-1.1a.5.5,0,0,1,.3-.5l6.9-5.2h.5l16.8,2a.6.6,0,0,1,.6.6v.5l-7.5,6Z"/><path class="cls-6" d="M267.3,275.9v-1a.5.5,0,0,1,.3-.5l6.9-5.2h.5l16.8,2a.6.6,0,0,1,.6.6v.4l-7.5,6Z"/><path class="cls-6" d="M289,278.9v-1c0-.2.2-.9.4-1l6.9-5.2h.4l16.9,2c.3.1.6.3.6.6v.5l-7.5,6.4Z"/><path class="cls-6" d="M311.6,281.7v-1.1a.5.5,0,0,1,.3-.5l6.3-5.6h.5l16.8,2c.4,0,.7.2.7.5v.5l-7,6.5Z"/><path class="cls-6" d="M334.2,284.4v-1a.5.5,0,0,1,.3-.5l6.2-5.7a.4.4,0,0,1,.5-.1l16.5,2.1c.4,0,.7.2.7.6v.4l-6.6,6.4Z"/><path class="cls-6" d="M357,287.2v-1a.5.5,0,0,1,.3-.5l5.7-5.8h.4l16.9,2.1c.4,0,.7.2.7.5v.5l-5.8,6.6Z"/><path class="cls-6" d="M381.2,290.1v-1a.5.5,0,0,1,.3-.5l5.3-5.8h.4l18.5,2c.3.1.6.3.6.6v.5l-5.8,6.6Z"/><path class="cls-6" d="M405.9,293.1V292a.5.5,0,0,1,.3-.5l5.3-5.8h.4l18.5,2.1a.6.6,0,0,1,.6.6v.4l-5.8,6.6Z"/><path class="cls-6" d="M430.5,296.1V295a.5.5,0,0,1,.3-.5l4.7-6h.5l19.7,2.3c.3,0,.4.4.4.7v.5l-5.6,6.4Z"/><path class="cls-6" d="M456.1,299.3v-1.1a.5.5,0,0,1,.3-.5l4.8-6h.4l28.6,3.1c.3,0,.4.4.4.8v.4l-4.8,7Z"/><path class="cls-6" d="M220.1,279.9v-1.2a.6.6,0,0,1,.3-.6l6.9-5.5h.5l16.3,1.9a.7.7,0,0,1,.7.7v.5l-7.9,6.4Z"/><path class="cls-6" d="M241.8,282.7v-1.2a.6.6,0,0,1,.4-.6l6.9-5.4h.5l16.3,1.8a.7.7,0,0,1,.7.7v.5l-7.9,6.4Z"/><path class="cls-6" d="M262.7,286v-1.2a.7.7,0,0,1,.3-.6l6.9-5.9.5-.2,16.1,1.6a.8.8,0,0,1,.7.7v.5l-7.7,6.9Z"/><path class="cls-6" d="M284.6,288.3v-1.2a.5.5,0,0,1,.4-.6l6.8-5.7h.5l17.4,1.7a.8.8,0,0,1,.7.7v.5l-7.7,7Z"/><path class="cls-6" d="M307.8,291.4v-1.2c-.1-.2.1-.4.3-.6l6.2-5.6h.5l17.6,1.7a1,1,0,0,1,.8.7v.5l-7,6.9Z"/><path class="cls-6" d="M331,294.7v-1.2a.7.7,0,0,1,.3-.6l6.2-5.6h.5l17.6,1.7a.8.8,0,0,1,.8.7v.5l-7,6.9Z"/><path class="cls-6" d="M355.1,297.5v-1.2a.5.5,0,0,1,.3-.5l5.2-5.7c.2-.1.4-.2.5-.1l18.6,1.8c.4,0,.8.3.8.6v.5l-5.9,6.9Z"/><path class="cls-6" d="M380.5,300.7l-.2-1.2a.9.9,0,0,1,.3-.6l5.2-5.9h.5l18.5,1.9a.7.7,0,0,1,.7.7v.5l-5.8,7.1Z"/><path class="cls-6" d="M404.7,304.1l-.2-1.2a.7.7,0,0,1,.3-.6l5.2-6.2h.5l19.2,1.6a.7.7,0,0,1,.7.7v.5l-6,7.5Z"/><path class="cls-6" d="M429.2,306.6v-1.1a.6.6,0,0,1,.3-.6l5.2-6.2c.2-.1.3-.2.5-.1l49.9,5.5c.4.1.7.3.7.7v.5l-5.2,8.2Z"/><path class="cls-6" d="M336.2,305.3v-1.2a.9.9,0,0,1,.3-.6l6.9-6.5h.5l17.8,2.3a.7.7,0,0,1,.7.7v.5l-6.8,7.3Z"/><path class="cls-6" d="M360.8,308.5v-1.2a.6.6,0,0,1,.3-.6l6.5-6.5.5-.2,18.2,2.5a.7.7,0,0,1,.7.7v.5l-6.7,7.3Z"/><path class="cls-6" d="M385.4,311.7v-1.2c0-.2.2-.4.4-.6l5.7-6.5h.5l18.9,2.4a.8.8,0,0,1,.7.7v.5l-5.7,7.4Z"/><path class="cls-6" d="M410.2,314.9v-1.2a.6.6,0,0,1,.3-.6l5.7-6.4h.5l62.4,8.2a.7.7,0,0,1,.7.7v.5l-4.9,7.3Z"/><path class="cls-6" d="M169.7,294.6v-1.5a1.1,1.1,0,0,1,.3-.7l9-6.6h.6l16.1,2.1a.8.8,0,0,1,.7.8v1l-9,7.5Z"/><path class="cls-6" d="M191.6,297.5v-1.4a.7.7,0,0,1,.4-.7l8.3-6.8h.5l16.9,2.1a.8.8,0,0,1,.8.8v1l-8.4,7.8Z"/><path class="cls-6" d="M342.4,318.7v-1.5a.9.9,0,0,1,.4-.7l7.5-7.9a.4.4,0,0,1,.5-.1l17.3,2.1a.8.8,0,0,1,.7.8v1l-7.4,8.8Z"/><path class="cls-6" d="M366.9,322.3v-1.5a1,1,0,0,1,.4-.7l7.2-8.4a.7.7,0,0,1,.6-.1l17.2,2.2a.9.9,0,0,1,.8.8v1l-7.2,9Z"/><path class="cls-6" d="M446.1,332.9l-.2-1.6c-.1-.3,0-.5.3-.7l6.4-8.2h.6l19.7,2.6a1.1,1.1,0,0,1,1,.9l.2,1-6.3,9.4Z"/><path class="cls-6" d="M393.3,325.3l-.2-1.5a.7.7,0,0,1,.3-.8l5.8-7.9h.6l20,2.5c.5.1,1,.5,1,.9l.2,1-6,9.2Z"/><path class="cls-6" d="M419.1,328.9l-.3-1.5a.8.8,0,0,1,.3-.8l5.8-7.8a.7.7,0,0,1,.6-.2l20.1,2.5a1.3,1.3,0,0,1,1,.9l.2,1.1-2.9,4.4-3.2,4.7Z"/><path class="cls-6" d="M213.8,300.6v-1.4a.7.7,0,0,1,.4-.7l8.3-6.8.5-.2,120.7,16.2a.8.8,0,0,1,.8.8v1l-8.4,7.8Z"/><line class="cls-6" x1="421.8" y1="322.9" x2="444.8" y2="326.1"/><line class="cls-9" x1="513.5" y1="279.7" x2="503.7" y2="302.3"/><polygon class="cls-10" points="193.8 241 231.5 62.2 527.8 71.2 498.1 274.8 193.8 241"/><line class="cls-11" x1="58.1" y1="325.4" x2="449.1" y2="389.3"/></g><g id="pantallas"><g id="pantalla_f" data-name="pantalla f"><polygon class="cls-12" points="155.8 275.2 28 265.4 59.7 143.9 181.2 149.2 155.8 275.2"/><polygon class="cls-13" points="104.5 264.7 37.7 259.8 63.5 152.9 126.9 155.9 104.5 264.7"/><path d="M131,183.8h3v.4h-3.5l1.3-5.7h.5Z"/><path d="M134.9,182.1a3.7,3.7,0,0,1,.5-1.1,2.2,2.2,0,0,1,.9-.7,1.4,1.4,0,0,1,1.1-.2,1.3,1.3,0,0,1,1.2.6,1.7,1.7,0,0,1,.2,1.6h0a1.9,1.9,0,0,1-.5,1,2,2,0,0,1-.8.8l-1.1.2a1.5,1.5,0,0,1-1.3-.6,2.1,2.1,0,0,1-.2-1.6Zm.5.2a1.6,1.6,0,0,0,.1,1.2,1.1,1.1,0,0,0,1,.5,1.9,1.9,0,0,0,1.2-.4,2.6,2.6,0,0,0,.6-1.3h.1v-.9c-.1-.2-.2-.5-.4-.6s-.4-.2-.7-.3a1.7,1.7,0,0,0-1.2.5,1.9,1.9,0,0,0-.7,1.3Z"/><path d="M142.3,180.7h-.4a1.3,1.3,0,0,0-.8.3,1.7,1.7,0,0,0-.6.6l-.6,2.9h-.5l.9-4.2h.5l-.2.7a1.8,1.8,0,0,1,1.5-.7h.3Z"/><path d="M143.8,184.6a1.7,1.7,0,0,1-1-.3,1.8,1.8,0,0,1-.5-.7,2,2,0,0,1,0-1.1v-.2a3.1,3.1,0,0,1,.5-1,1.8,1.8,0,0,1,.9-.8,1.6,1.6,0,0,1,1-.2,1.3,1.3,0,0,1,1.1.5,1.9,1.9,0,0,1,.2,1.5v.2h-3.1a1.6,1.6,0,0,0,.1,1.2,1.2,1.2,0,0,0,1,.5h.7l.7-.4.2.2A2.2,2.2,0,0,1,143.8,184.6Zm.8-3.9a1.2,1.2,0,0,0-1,.3,2.3,2.3,0,0,0-.7,1h2.6a1.1,1.1,0,0,0-.1-1A.9.9,0,0,0,144.6,180.7Z"/><path d="M147.8,180.4l-.2.7.8-.5a1.2,1.2,0,0,1,.8-.2c.7,0,1.1.3,1.2.8a1.8,1.8,0,0,1,.7-.5,1.6,1.6,0,0,1,1-.2c.9,0,1.3.5,1.1,1.5l-.6,2.8h-.5l.6-2.8a.9.9,0,0,0-.1-.8.8.8,0,0,0-.7-.3,1.7,1.7,0,0,0-1,.3,1.3,1.3,0,0,0-.6.7l-.6,2.8h-.5l.6-2.8a1.1,1.1,0,0,0,0-.8,1,1,0,0,0-.8-.3l-.8.2-.7.7-.6,2.9h-.5l.9-4.2Z"/><path d="M128.8,193.7h-.5l.9-4.2h.5Zm.6-5.4c0-.1,0-.2.1-.2h.5c.1,0,.1.1.1.2l-.2.2h-.5Z"/><path d="M134.1,191.8a2.7,2.7,0,0,1-.8,1.5,2,2,0,0,1-1.4.6,1.1,1.1,0,0,1-1.2-.7l-.5,2.2h-.5l1.3-5.8h.5l-.2.6a2.1,2.1,0,0,1,1.6-.7,1.1,1.1,0,0,1,1.1.6,2.8,2.8,0,0,1,.1,1.6Zm-.5-.1a1.8,1.8,0,0,0-.1-1.3.8.8,0,0,0-.8-.5l-.8.2a1.3,1.3,0,0,0-.7.6l-.4,2a1.3,1.3,0,0,0,.4.6l.7.2a1.3,1.3,0,0,0,1.1-.5A2.3,2.3,0,0,0,133.6,191.7Z"/><path d="M137.6,192.9a.7.7,0,0,0-.2-.6l-.8-.3-.9-.3-.4-.4v-.6a1.6,1.6,0,0,1,.6-.8,2.7,2.7,0,0,1,1.2-.3,2.3,2.3,0,0,1,1.1.4,1.1,1.1,0,0,1,.3.9H138a.7.7,0,0,0-.2-.6c-.2-.2-.4-.2-.8-.3l-.8.2c-.2.2-.4.3-.4.5s0,.4.1.5a1.5,1.5,0,0,0,.8.4l.9.3c.2.1.4.3.4.4a1.3,1.3,0,0,1,.1.6,1.3,1.3,0,0,1-.7.8,2.1,2.1,0,0,1-1.2.3,1.6,1.6,0,0,1-1.2-.4.8.8,0,0,1-.3-.9h.5a.8.8,0,0,0,.2.7l.9.2a1.1,1.1,0,0,0,.8-.2A.8.8,0,0,0,137.6,192.9Z"/><path d="M141.9,193.6a2.5,2.5,0,0,1-1.6.5,1.2,1.2,0,0,1-1-.4,2.3,2.3,0,0,1-.1-1.2l.6-2.7h.5l-.6,2.7c-.2.8.1,1.2.8,1.2a1.5,1.5,0,0,0,1.5-.8l.7-3h.5l-1,4.2h-.5Z"/><path d="M144.9,189.9l-.2.7.8-.5.8-.2a1,1,0,0,1,1.2.9,1.3,1.3,0,0,1,.7-.6,1.5,1.5,0,0,1,.9-.2q1.5,0,1.2,1.5l-.7,2.8h-.5l.7-2.8a1.7,1.7,0,0,0-.1-.8c-.1-.2-.4-.3-.8-.3l-.9.3a1.3,1.3,0,0,0-.6.7l-.6,2.8h-.5l.6-2.8c.1-.4.1-.6-.1-.8a.8.8,0,0,0-.7-.3l-.9.2a2.8,2.8,0,0,0-.6.8l-.7,2.8h-.4l.9-4.2Z"/><path d="M126.4,201.1a2.2,2.2,0,0,1,.8-1.5,1.8,1.8,0,0,1,1.3-.6,1.6,1.6,0,0,1,1.3.7l.5-2.3h.5l-1.4,5.9H129v-.5a2,2,0,0,1-1.5.6,1.4,1.4,0,0,1-1.1-.7,1.9,1.9,0,0,1-.1-1.5Zm.4.1a1.8,1.8,0,0,0,.1,1.3,1.1,1.1,0,0,0,.9.5,1.7,1.7,0,0,0,1.4-.8l.4-1.9a1,1,0,0,0-1.1-.9,1.3,1.3,0,0,0-1,.4A3.7,3.7,0,0,0,126.8,201.2Z"/><path d="M130.9,201.2a3.7,3.7,0,0,1,.5-1.1,3.1,3.1,0,0,1,.9-.7,2,2,0,0,1,1.1-.3,2.1,2.1,0,0,1,1.3.7,2.4,2.4,0,0,1,.2,1.5h-.1a2.2,2.2,0,0,1-.5,1.1,2,2,0,0,1-.8.8l-1.1.2a1.5,1.5,0,0,1-1.3-.6,2.1,2.1,0,0,1-.2-1.6Zm.5.1a1.8,1.8,0,0,0,.1,1.3,1.2,1.2,0,0,0,1,.5,1.9,1.9,0,0,0,1.2-.4,5.4,5.4,0,0,0,.7-1.3h0a1.4,1.4,0,0,0,0-.9.9.9,0,0,0-.4-.6.9.9,0,0,0-.7-.3,1.8,1.8,0,0,0-1.2.5,2.3,2.3,0,0,0-.7,1.3Z"/><path d="M135.9,203.5h-.5l1.4-6h.5Z"/><path d="M137.5,201.4a2.2,2.2,0,0,1,.5-1.1,1.8,1.8,0,0,1,.8-.7,2.3,2.3,0,0,1,1.1-.3,1.6,1.6,0,0,1,1.3.7,1.9,1.9,0,0,1,.2,1.5h0a3.7,3.7,0,0,1-.5,1.1c-.3.3-.5.6-.9.7a2,2,0,0,1-1.1.3,1.6,1.6,0,0,1-1.3-.6,2.7,2.7,0,0,1-.2-1.6Zm.4.1a1.9,1.9,0,0,0,.2,1.3,1.1,1.1,0,0,0,.9.5,1.3,1.3,0,0,0,1.2-.5,2.4,2.4,0,0,0,.7-1.2h0a1.4,1.4,0,0,0,0-.9.7.7,0,0,0-.4-.6.9.9,0,0,0-.7-.3,2.1,2.1,0,0,0-1.2.5,3.5,3.5,0,0,0-.7,1.2Z"/><path d="M144.8,199.9h-.3l-.9.2-.6.7-.6,2.9h-.5l1-4.2h.4v.7a1.4,1.4,0,0,1,1.4-.7h.3Z"/><path d="M149.6,202.8a.4.4,0,0,0-.1-.5,1.9,1.9,0,0,0-.9-.4l-.8-.3a.8.8,0,0,1-.4-.4.4.4,0,0,1,0-.5.9.9,0,0,1,.6-.8,2.1,2.1,0,0,1,1.2-.3,1.4,1.4,0,0,1,1.1.4.9.9,0,0,1,.2.9H150a.4.4,0,0,0-.2-.6.8.8,0,0,0-.7-.3,1.1,1.1,0,0,0-.8.2.5.5,0,0,0-.4.5.4.4,0,0,0,.1.5l.8.3a1.9,1.9,0,0,1,.9.4.8.8,0,0,1,.4.4.4.4,0,0,1,0,.5,1.5,1.5,0,0,1-.6.9,1.9,1.9,0,0,1-1.3.2,1.6,1.6,0,0,1-1.1-.3,1,1,0,0,1-.3-1h.5c-.1.2,0,.4.2.6s.5.2.8.3l.9-.2C149.4,203.2,149.6,203,149.6,202.8Z"/><path d="M151.5,204H151l1-4.2h.4Zm.6-5.5.2-.2h.5v.2c0,.1-.1.2-.1.3h-.5A.4.4,0,0,1,152.1,198.5Z"/><path d="M154.8,198.7l-.3,1.1h.9v.4h-.9l-.6,2.8v.5l.4.2h.4v.4H154a.6.6,0,0,1-.6-.3,1.1,1.1,0,0,1-.1-.8l.6-2.8h-.8v-.4h.8l.3-1.1Z"/><path d="M126.8,212.9c-.1-.2,0-.4,0-.6l-.8.4a1.2,1.2,0,0,1-.8.2,1.1,1.1,0,0,1-1-.4.8.8,0,0,1-.2-.8,1.4,1.4,0,0,1,.7-1,4.1,4.1,0,0,1,1.6-.3h.9v-.5a.8.8,0,0,0-.1-.7c-.2-.2-.4-.2-.8-.3a1.2,1.2,0,0,0-.9.3c-.3.1-.4.3-.5.6h-.5a1.3,1.3,0,0,1,.7-.8,2,2,0,0,1,1.3-.4l1.1.4a1.2,1.2,0,0,1,.2,1l-.4,2c-.1.4-.2.7-.1.9h-.5Zm-1.5-.4.9-.2.7-.6.2-.9h-.8a2.1,2.1,0,0,0-1.2.3.7.7,0,0,0-.6.6.6.6,0,0,0,.1.6A.9.9,0,0,0,125.3,212.5Z"/><path d="M129.8,208.7v.7a1.8,1.8,0,0,1,.7-.5,1.5,1.5,0,0,1,.9-.2c.7,0,1,.3,1.1.8l.8-.6h.9c.9,0,1.3.5,1.1,1.5l-.6,2.8h-.5l.6-2.8c.1-.4.1-.7-.1-.8s-.3-.3-.7-.3a1.7,1.7,0,0,0-1,.3,1.2,1.2,0,0,0-.5.7l-.7,2.8h-.4l.6-2.8a1,1,0,0,0-.1-.8c-.1-.2-.4-.3-.8-.3l-.8.2a2.3,2.3,0,0,0-.7.7l-.6,2.9h-.5l.9-4.2Z"/><path d="M137.5,213.2a1.2,1.2,0,0,1-.9-.3,1.1,1.1,0,0,1-.6-.7,2,2,0,0,1,0-1.1h0a3.7,3.7,0,0,1,.5-1.1,3.4,3.4,0,0,1,.9-.8l1-.2a1.3,1.3,0,0,1,1.1.5,1.9,1.9,0,0,1,.2,1.5v.2h-3.1a1.6,1.6,0,0,0,.1,1.2,1.1,1.1,0,0,0,1,.5.8.8,0,0,0,.7-.1l.7-.4.2.2A1.8,1.8,0,0,1,137.5,213.2Zm.8-3.9a1.7,1.7,0,0,0-1,.3,3,3,0,0,0-.7,1.1h2.7a1.5,1.5,0,0,0-.2-1A.8.8,0,0,0,138.3,209.3Z"/><path d="M142.1,208l-.3,1.1h.9v.4h-.9l-.6,2.8v.6h.8v.4h-.6a.8.8,0,0,1-.6-.2,1.3,1.3,0,0,1-.1-.9l.6-2.8h-.8V209h.8l.3-1Z"/><path d="M142.5,214.4l-.3-.2a3.7,3.7,0,0,0,.6-1l.2-.6h.4v.5A2.6,2.6,0,0,1,142.5,214.4Z"/><path d="M123.6,222.1l.9-.3a1.8,1.8,0,0,0,.5-.7h.5a1.6,1.6,0,0,1-.4.7l-.8.5a1.1,1.1,0,0,1-.8.1,1.5,1.5,0,0,1-1.3-.6,1.9,1.9,0,0,1-.1-1.5v-.2a2.7,2.7,0,0,1,1.3-1.8l1-.2a1.6,1.6,0,0,1,1.1.4,1.1,1.1,0,0,1,.3,1.1h-.5a.8.8,0,0,0-.2-.8c-.1-.2-.4-.3-.8-.3a1.5,1.5,0,0,0-1.1.4,2.3,2.3,0,0,0-.6,1.3h0a1.9,1.9,0,0,0,0,1.3C122.8,221.9,123.1,222,123.6,222.1Z"/><path d="M126.4,220.3a2.2,2.2,0,0,1,.5-1.1,1.8,1.8,0,0,1,.8-.7,2.3,2.3,0,0,1,1.1-.3,1.5,1.5,0,0,1,1.3.6,2.1,2.1,0,0,1,.2,1.6h0a3.7,3.7,0,0,1-.5,1.1c-.3.3-.5.6-.9.7a2,2,0,0,1-1.1.3,1.7,1.7,0,0,1-1.3-.7,2.4,2.4,0,0,1-.2-1.5Zm.4.1a1.9,1.9,0,0,0,.2,1.3,1.1,1.1,0,0,0,.9.5,1.7,1.7,0,0,0,1.2-.5,2.4,2.4,0,0,0,.7-1.2h0a1.4,1.4,0,0,0,0-.9.7.7,0,0,0-.4-.6.9.9,0,0,0-.7-.3,1.6,1.6,0,0,0-1.2.5,3.5,3.5,0,0,0-.7,1.2Z"/><path d="M132.2,218.4v.7l.7-.6a1.4,1.4,0,0,1,.9-.1,1.1,1.1,0,0,1,1,.4,1.8,1.8,0,0,1,.1,1.1l-.7,2.8h-.4l.6-2.8a2.2,2.2,0,0,0-.1-.9l-.7-.2a1,1,0,0,0-.9.2l-.7.7-.6,2.9h-.5l1-4.2Z"/><path d="M138.3,221.7a.7.7,0,0,0-.2-.6l-.8-.3-.9-.3c-.1-.1-.3-.2-.3-.4a.7.7,0,0,1-.1-.5,1.2,1.2,0,0,1,.6-.8,2.7,2.7,0,0,1,1.2-.3,1.6,1.6,0,0,1,1.1.3,1.2,1.2,0,0,1,.3,1h-.5a.8.8,0,0,0-.2-.7l-.8-.2h-.8a1.3,1.3,0,0,0-.4.6.9.9,0,0,0,.1.5l.9.3.8.3.4.4a1.3,1.3,0,0,1,.1.6,1.1,1.1,0,0,1-.7.8,2.1,2.1,0,0,1-1.2.3,1.6,1.6,0,0,1-1.2-.4c-.3-.2-.3-.5-.3-.9h.5a1.4,1.4,0,0,0,.2.7l.9.2a1.1,1.1,0,0,0,.8-.2A.8.8,0,0,0,138.3,221.7Z"/><path d="M141.3,222.9l-1-.2a2.2,2.2,0,0,1-.5-.8,2,2,0,0,1,0-1.1h0a3.7,3.7,0,0,1,.5-1.1,2.4,2.4,0,0,1,.9-.8l1-.2a1.3,1.3,0,0,1,1.1.5,1.9,1.9,0,0,1,.2,1.5v.2h-3.1a1.2,1.2,0,0,0,1.1,1.8l.7-.2a1.3,1.3,0,0,0,.7-.4l.2.3A2,2,0,0,1,141.3,222.9Zm.8-3.9a1.7,1.7,0,0,0-1,.3,2.1,2.1,0,0,0-.7,1.1H143a1.1,1.1,0,0,0-.1-1A.8.8,0,0,0,142.1,219Z"/><path d="M145.6,222.7a1.2,1.2,0,0,0,.9-.3,1.3,1.3,0,0,0,.6-.7h.4a1,1,0,0,1-.4.7,1.8,1.8,0,0,1-.7.5l-.9.2a1.6,1.6,0,0,1-1.2-.6,2.1,2.1,0,0,1-.2-1.6h.1a1.8,1.8,0,0,1,.4-1.1,2,2,0,0,1,.8-.8l1.1-.2a1.4,1.4,0,0,1,1.1.5,1.6,1.6,0,0,1,.3,1.1h-.5a1.1,1.1,0,0,0-.2-.8,1.1,1.1,0,0,0-.8-.3,1.5,1.5,0,0,0-1.1.4,3.2,3.2,0,0,0-.7,1.3h0a1.8,1.8,0,0,0,.1,1.3A1.1,1.1,0,0,0,145.6,222.7Z"/><path d="M150.2,220.8h-1.9v-.4h1.9Z"/><path d="M121.7,226.6l-.3,1.1h.9v.4h-.9l-.7,2.8a.7.7,0,0,0,.1.5c0,.1.1.2.4.2h.4v.4H121c-.4,0-.6-.1-.7-.3a1.9,1.9,0,0,1-.1-.8l.7-2.8h-.8v-.4h.9l.2-1.1Z"/><path d="M124.1,232.1a1.2,1.2,0,0,1-.9-.3,1.6,1.6,0,0,1-.6-.8,1.7,1.7,0,0,1,0-1v-.2a3.7,3.7,0,0,1,.5-1.1c.3-.3.5-.6.9-.7a1.7,1.7,0,0,1,1-.3,1.1,1.1,0,0,1,1.1.6,1.6,1.6,0,0,1,.2,1.4v.3h-3.1a1.7,1.7,0,0,0,.1,1.2,1.4,1.4,0,0,0,1,.5h.7a1.8,1.8,0,0,0,.7-.5l.2.3A2.1,2.1,0,0,1,124.1,232.1Zm.8-4a1.3,1.3,0,0,0-1,.4,2,2,0,0,0-.7,1h2.7a1.6,1.6,0,0,0-.2-1A.8.8,0,0,0,124.9,228.1Z"/><path d="M128.7,226.8l-.3,1.1h.9v.4h-.9l-.6,2.8v.5l.4.2h.4v.4h-.6a.6.6,0,0,1-.6-.3,1.1,1.1,0,0,1-.1-.8l.6-2.9H127v-.4h.8l.3-1.1Z"/><path d="M132.4,231.7a2.1,2.1,0,0,1-1.6.6,1.6,1.6,0,0,1-1-.5c-.2-.2-.2-.6-.1-1.1l.6-2.8h.5l-.6,2.7c-.2.8.1,1.2.8,1.3a1.6,1.6,0,0,0,1.5-.8l.7-3.1h.5l-1,4.2h-.5Z"/><path d="M135.7,232.4a1.7,1.7,0,0,1-1-.3,1.6,1.6,0,0,1-.5-.8,1.7,1.7,0,0,1,0-1v-.2a2.2,2.2,0,0,1,.5-1.1,2.7,2.7,0,0,1,.8-.7l1-.3a1.2,1.2,0,0,1,1.2.6,2,2,0,0,1,.2,1.4v.3h-3.2a1.6,1.6,0,0,0,.2,1.2,1.1,1.1,0,0,0,1,.5h.7l.6-.4.3.2A2.2,2.2,0,0,1,135.7,232.4Zm.8-4a1.7,1.7,0,0,0-1.1.4,1.7,1.7,0,0,0-.6,1h2.6a1.6,1.6,0,0,0-.1-1A1.2,1.2,0,0,0,136.5,228.4Z"/><path d="M141.2,228.6h-.4l-.8.2-.6.7-.6,2.9h-.5l.9-4.2h.5v.7a1.3,1.3,0,0,1,1.4-.7h.3Z"/><path d="M120.4,241.5a1.5,1.5,0,0,1,.1-.6l-.8.5h-.9a1,1,0,0,1-.9-.4.6.6,0,0,1-.2-.8c0-.4.3-.7.7-1a3.5,3.5,0,0,1,1.6-.3h.9v-.4a1.1,1.1,0,0,0-.2-.8,1.3,1.3,0,0,0-.8-.2,1.5,1.5,0,0,0-.9.2.7.7,0,0,0-.4.6h-.5a1.3,1.3,0,0,1,.7-.9,2.8,2.8,0,0,1,1.3-.3,1.2,1.2,0,0,1,1,.4c.3.2.3.5.3.9l-.5,2a3.4,3.4,0,0,0-.1.9h-.5Zm-1.4-.4.9-.2a1.3,1.3,0,0,0,.7-.6l.2-.9h-.9a2.2,2.2,0,0,0-1.2.2.8.8,0,0,0-.5.7.5.5,0,0,0,.1.6Z"/><path d="M122.4,239.4a2.7,2.7,0,0,1,.8-1.6,2.2,2.2,0,0,1,1.4-.5,1.2,1.2,0,0,1,1.2.7l.5-2.4h.5l-1.4,5.9H125v-.5a1.7,1.7,0,0,1-1.5.5,1.1,1.1,0,0,1-1.1-.6,2.1,2.1,0,0,1-.1-1.6Zm.5.1a1.9,1.9,0,0,0,0,1.3c.2.3.4.4.9.4a1.4,1.4,0,0,0,1.4-.7l.4-1.9a1,1,0,0,0-1-.9,1.4,1.4,0,0,0-1.1.4A2.6,2.6,0,0,0,122.9,239.5Z"/><path d="M127.3,241.7h-.5l.9-4.2h.5Zm.6-5.5V236h.5a.4.4,0,0,1,.1.3l-.2.2h-.5Z"/><path d="M132.6,239.8a3.6,3.6,0,0,1-.8,1.5,1.6,1.6,0,0,1-1.4.5,1.2,1.2,0,0,1-1.2-.6l-.5,2.1h-.5l1.3-5.8h.5v.6a2,2,0,0,1,1.5-.6,1.1,1.1,0,0,1,1.1.6,2.1,2.1,0,0,1,.1,1.6Zm-.5-.1a2.8,2.8,0,0,0,0-1.3,1.1,1.1,0,0,0-.9-.5,1.1,1.1,0,0,0-.8.2.9.9,0,0,0-.6.6l-.5,2a1,1,0,0,0,.4.5.8.8,0,0,0,.7.2,1.2,1.2,0,0,0,1.1-.4A2.3,2.3,0,0,0,132.1,239.7Z"/><path d="M133.8,241.9h-.5l.9-4.2h.5Zm.6-5.5v-.2h.5v.2l-.2.3h-.5Z"/><path d="M138,240.9a1.4,1.4,0,0,0-.2-.6l-.8-.3-.9-.3-.4-.4c0-.1-.1-.3,0-.5a1.2,1.2,0,0,1,.6-.8,1.3,1.3,0,0,1,1.2-.3,1.6,1.6,0,0,1,1.1.3,1.2,1.2,0,0,1,.2,1h-.4a.7.7,0,0,0-.2-.6l-.8-.2a1.1,1.1,0,0,0-.8.1c-.2.2-.4.3-.4.6s0,.3.1.5l.8.3.9.3.4.4a.6.6,0,0,1,0,.6.9.9,0,0,1-.6.8,2.4,2.4,0,0,1-1.2.3,1.5,1.5,0,0,1-1.2-.4.8.8,0,0,1-.3-.9h.5a.8.8,0,0,0,.2.7l.8.2c.4,0,.7,0,.9-.2A.8.8,0,0,0,138,240.9Z"/><path d="M141.3,239.8h-1.9v-.4h1.9Z"/><path d="M117.2,250.7a1.2,1.2,0,0,0,.9-.3,1.3,1.3,0,0,0,.6-.7h.4a1,1,0,0,1-.4.7,1.8,1.8,0,0,1-.7.5l-.9.2a1.6,1.6,0,0,1-1.2-.6,2.1,2.1,0,0,1-.2-1.6h.1a1.8,1.8,0,0,1,.4-1.1,2,2,0,0,1,.8-.8l1.1-.2a1.4,1.4,0,0,1,1.1.5,1.6,1.6,0,0,1,.3,1.1H119a1.1,1.1,0,0,0-.2-.8,1,1,0,0,0-.8-.3,1.5,1.5,0,0,0-1.1.4,4,4,0,0,0-.7,1.3h0a1.8,1.8,0,0,0,.1,1.3A1.1,1.1,0,0,0,117.2,250.7Z"/><path d="M120.4,251.1h-.5l.9-4.2h.5Zm.6-5.4v-.3h.5a.4.4,0,0,1,.1.3l-.2.2H121Z"/><path d="M123.1,246.9l-.2.7.8-.5a1.2,1.2,0,0,1,.8-.2,1.1,1.1,0,0,1,1,.4c.2.3.2.6.1,1.2l-.6,2.7h-.5l.6-2.8a1.1,1.1,0,0,0,0-.8,1,1,0,0,0-.8-.3l-.8.2a2.7,2.7,0,0,0-.7.8l-.6,2.8h-.5l.9-4.2Z"/><path d="M126.5,249.1a2.7,2.7,0,0,1,.8-1.5,2,2,0,0,1,1.4-.6,1.3,1.3,0,0,1,1.2.7l.2-.6h.4l-.9,4.2a1.9,1.9,0,0,1-.7,1.2,2.4,2.4,0,0,1-1.4.5,1.6,1.6,0,0,1-.9-.3l-.5-.5.3-.3a1.5,1.5,0,0,0,1.1.7,2,2,0,0,0,1.1-.3,3.1,3.1,0,0,0,.5-1v-.5a2,2,0,0,1-1.5.6,1.4,1.4,0,0,1-1.1-.7,2.4,2.4,0,0,1-.1-1.5Zm.5.1a1.8,1.8,0,0,0,.1,1.3.8.8,0,0,0,.8.5,1.9,1.9,0,0,0,1.5-.8l.4-1.9a.9.9,0,0,0-.4-.6.8.8,0,0,0-.7-.3,1.2,1.2,0,0,0-1,.5A2.3,2.3,0,0,0,127,249.2Z"/><path d="M134.6,251.6a2.9,2.9,0,0,1-1-.3,2.2,2.2,0,0,1-.5-.8,2,2,0,0,1,0-1.1h0a3.7,3.7,0,0,1,.5-1.1,1.6,1.6,0,0,1,.9-.7,1.7,1.7,0,0,1,1-.3,1.1,1.1,0,0,1,1.1.6,1.6,1.6,0,0,1,.2,1.4v.3h-3.1a1.7,1.7,0,0,0,.1,1.2,1.2,1.2,0,0,0,1,.5h.7l.7-.5.2.3A2.6,2.6,0,0,1,134.6,251.6Zm.8-4a1.3,1.3,0,0,0-1,.4,1.5,1.5,0,0,0-.7,1h2.6a1.1,1.1,0,0,0-.1-1A.9.9,0,0,0,135.4,247.6Z"/><path d="M137.8,251.6h-.5l1.3-6h.5Z"/><path d="M139.6,251.6h-.5l1-4.2h.4Zm.6-5.4.2-.2h.5v.2a.3.3,0,0,1-.1.2h-.5C140.2,246.4,140.2,246.3,140.2,246.2Z"/><path d="M142.9,246.4l-.3,1.1h.9v.4h-1l-.6,2.8v.5a.5.5,0,0,0,.4.2h.4v.4h-.6a.6.6,0,0,1-.6-.3,1.9,1.9,0,0,1-.1-.8l.7-2.9h-.9v-.4h.8l.3-1.1Z"/><path d="M143.3,252.8l-.3-.2a1.4,1.4,0,0,0,.6-1l.2-.6h.4v.5A2.2,2.2,0,0,1,143.3,252.8Z"/><polygon class="cls-14" points="155.8 274.8 28 265 59.7 143.9 184.2 148.8 155.8 274.8"/></g><g id="galeria"><polygon id="sombra" class="cls-15" points="148.5 214.4 43.2 205.4 77.3 79.9 174.8 84.3 148.5 214.4"/><g id="galeria-2" data-name="galeria"><polygon class="cls-12" points="143.6 207.6 15.8 197.8 47.4 76.7 171.9 81.6 143.6 207.6"/><path class="cls-8" d="M144,208.1h-.5L15.1,198.3,47,76.2h.4l125.1,4.9ZM16.4,197.4l126.8,9.7,28.1-125L47.8,77.2Z"/><polygon class="cls-10" points="136.4 187.8 31 180.2 52.3 102.6 155.6 107.2 136.4 187.8"/><circle class="cls-13" cx="52.3" cy="189.3" r="2"/><circle class="cls-13" cx="70" cy="190.7" r="2"/><circle class="cls-13" cx="87.8" cy="192.2" r="2"/><circle class="cls-13" cx="105.5" cy="193.7" r="2"/><path class="cls-13" d="M61.9,97.2a3.3,3.3,0,0,1-1.2.5,3.9,3.9,0,0,1-1.5.2,2.3,2.3,0,0,1-1.9-.9,2.8,2.8,0,0,1-.3-2.1v-.5a4,4,0,0,1,.8-1.6,2.6,2.6,0,0,1,1.1-1,4.1,4.1,0,0,1,1.6-.3,2.2,2.2,0,0,1,1.7.6,2,2,0,0,1,.4,1.6H61.2c0-.4,0-.6-.2-.8s-.3-.2-.6-.3a1.6,1.6,0,0,0-1.1.5,3.2,3.2,0,0,0-.6,1.3v.4a3.2,3.2,0,0,0,0,1.4,1.1,1.1,0,0,0,.9.5,1.2,1.2,0,0,0,1-.2l.2-.9H59.6l.3-1h2.6Z"/><path class="cls-13" d="M65.2,98.1v-.4a2,2,0,0,1-1.3.4,1.2,1.2,0,0,1-1-.4,1,1,0,0,1-.3-1,1.8,1.8,0,0,1,.9-1.2,4,4,0,0,1,1.7-.3h.5V95c.1-.4,0-.6-.4-.6s-.6.1-.6.4H63.2a1.8,1.8,0,0,1,.8-1.1,2.2,2.2,0,0,1,1.6-.3,1.6,1.6,0,0,1,1.3.5,1.2,1.2,0,0,1,.3,1.2l-.5,2a1.7,1.7,0,0,0,0,1H65.2Zm-.7-1H65l.3-.2.2-.8H65a.8.8,0,0,0-.9.7.4.4,0,0,0,.1.3Z"/><path class="cls-13" d="M68.8,98.3H67.4l1.5-6.6h1.5Z"/><path class="cls-13" d="M72,98.5a1.9,1.9,0,0,1-1.6-.7,2.3,2.3,0,0,1-.3-1.7h0a3.4,3.4,0,0,1,.6-1.2,1.9,1.9,0,0,1,1-.8,2.8,2.8,0,0,1,1.3-.3,1.9,1.9,0,0,1,1.4.7,1.9,1.9,0,0,1,.2,1.7v.6l-3-.2a1.4,1.4,0,0,0,.2.7l.7.2a1.9,1.9,0,0,0,1.2-.4l.5.8-.9.6A2.5,2.5,0,0,1,72,98.5Zm.7-3.7c-.4,0-.7.3-.9.8h1.5a.7.7,0,0,0-.1-.5A.5.5,0,0,0,72.7,94.8Z"/><path class="cls-13" d="M78.3,95.4h-.5a1.1,1.1,0,0,0-1,.4l-.7,3H74.6l1.1-4.7h1.4v.6a1.7,1.7,0,0,1,1.2-.6h.4Z"/><path class="cls-13" d="M79.6,98.8H78.1l1.1-4.6h1.5Zm-.2-5.9c0-.2.1-.3.3-.5a.8.8,0,0,1,.7-.1c.2,0,.4,0,.5.2a.4.4,0,0,1,.1.5.9.9,0,0,1-.3.5l-.7.2a.5.5,0,0,1-.5-.3A.4.4,0,0,1,79.4,92.9Z"/><path class="cls-13" d="M83.1,99v-.4a1.7,1.7,0,0,1-1.2.4,1.4,1.4,0,0,1-1.1-.4,1.2,1.2,0,0,1-.2-1,2,2,0,0,1,.8-1.2,4.2,4.2,0,0,1,1.8-.3h.4v-.3c.1-.4-.1-.6-.5-.7a.6.6,0,0,0-.6.5H81.1a1.6,1.6,0,0,1,.9-1.1,2.1,2.1,0,0,1,1.6-.3,1.7,1.7,0,0,1,1.3.5,1,1,0,0,1,.2,1.2l-.4,2a4.1,4.1,0,0,0-.1,1H83.1Zm-.7-1h.5l.4-.2v-.8H83a.8.8,0,0,0-.9.7c-.1.1,0,.2,0,.3Z"/></g></g><g id="blog2"><path id="sombra-2" data-name="sombra" class="cls-16" d="M484,265.9l-97.3-8a5.3,5.3,0,0,1-4.7-6.4l29.9-128.6a5.4,5.4,0,0,1,5.5-4.2l92.2,5.2a5.3,5.3,0,0,1,4.9,6.2L489.7,261.5A5.4,5.4,0,0,1,484,265.9Z"/><g id="blog2-2" data-name="blog2"><path class="cls-12" d="M482.3,261.9l-97.3-8a5.2,5.2,0,0,1-4.7-6.4l29.9-128.6a5.2,5.2,0,0,1,5.5-4.1l92.2,5.2a5.2,5.2,0,0,1,4.9,6.2L488,257.6A5.4,5.4,0,0,1,482.3,261.9Z"/><path class="cls-13" d="M426.4,142.3l-3.2-.2-.4,2,3.8.2-.4,1.6-5.9-.3,2-8.3,5.9.2-.4,1.6-3.8-.2-.4,1.8h3.2Z"/><path class="cls-13" d="M431.9,143.9a.8.8,0,0,0-.1-.7l-1-.6-1.2-.5a2.1,2.1,0,0,1-1.2-2.3,3.5,3.5,0,0,1,.7-1.2l1.4-.8,1.8-.2,1.5.4a1.7,1.7,0,0,1,.9,1,2.2,2.2,0,0,1,.1,1.4h-2a1,1,0,0,0-.1-.8l-.8-.4-1,.2c-.2.2-.4.4-.4.6s0,.4.2.6l1.1.6,1.3.7a2,2,0,0,1,.9,2.2,2.7,2.7,0,0,1-1.3,1.7,4.3,4.3,0,0,1-2.4.5,4.8,4.8,0,0,1-1.8-.5,2.4,2.4,0,0,1-1-1,2.6,2.6,0,0,1-.1-1.5h2a1.1,1.1,0,0,0,.2,1,1.9,1.9,0,0,0,1,.4l.9-.2A.7.7,0,0,0,431.9,143.9Z"/><path class="cls-13" d="M442.8,139.8h-2.6l-1.6,6.8h-2l1.6-6.8h-2.5l.3-1.6,7.1.4Z"/><path class="cls-13" d="M450,143a5.1,5.1,0,0,1-1,2.1,3.6,3.6,0,0,1-1.6,1.4,3.8,3.8,0,0,1-2.1.4,2.8,2.8,0,0,1-1.8-.6,2.4,2.4,0,0,1-1-1.4,7.4,7.4,0,0,1,0-2.1v-.5a6.8,6.8,0,0,1,1-2.1,4.6,4.6,0,0,1,1.7-1.4,4.5,4.5,0,0,1,2-.4,2.8,2.8,0,0,1,1.8.6,3.1,3.1,0,0,1,1,1.5,3.7,3.7,0,0,1,0,2.1Zm-2-.4a3,3,0,0,0,0-1.9,1,1,0,0,0-1-.7c-1.1-.1-1.8.6-2.2,2.1v.6a3.2,3.2,0,0,0-.1,1.9,1.3,1.3,0,0,0,1.1.8,1.6,1.6,0,0,0,1.3-.6,3.7,3.7,0,0,0,.9-1.9Z"/><path class="cls-13" d="M423.2,156.3h-3.3l-.4,1.9,3.8.2-.4,1.6-5.8-.3,1.9-8.3,5.9.3-.4,1.5-3.8-.2-.4,1.8h3.2Z"/><path class="cls-13" d="M428.6,157.9a.6.6,0,0,0-.1-.7l-1-.5-1.2-.6c-1-.6-1.4-1.3-1.1-2.3a2.5,2.5,0,0,1,.7-1.2,2.7,2.7,0,0,1,1.3-.7,3.6,3.6,0,0,1,1.8-.2,2.4,2.4,0,0,1,1.5.4,1.8,1.8,0,0,1,1,.9,2.2,2.2,0,0,1,0,1.4h-2a1.1,1.1,0,0,0-.1-.8,1.1,1.1,0,0,0-.8-.3.9.9,0,0,0-.9.2c-.3.1-.5.3-.5.5a.4.4,0,0,0,.2.6l1.1.6,1.3.7a2,2,0,0,1,.9,2.2,3,3,0,0,1-1.2,1.7,4.9,4.9,0,0,1-2.5.5,3.5,3.5,0,0,1-1.8-.5,1.9,1.9,0,0,1-1-1,2.5,2.5,0,0,1-.1-1.5h2.1c-.1.5-.1.8.1,1a1.4,1.4,0,0,0,1.1.4l.8-.2A.7.7,0,0,0,428.6,157.9Z"/><path class="cls-13" d="M442.8,152.5l-1.3,5.4a4.6,4.6,0,0,1-.7,1.6,7.1,7.1,0,0,1-1.4,1,4,4,0,0,1-1.9.2,2.9,2.9,0,0,1-2.3-.9,2.6,2.6,0,0,1-.4-2.2l1.3-5.5h2.1l-1.3,5.5c-.2,1,.1,1.4,1,1.5a1.5,1.5,0,0,0,1.6-1.4l1.3-5.4Z"/><path class="cls-13" d="M449.2,161.2h-2l-1.8-5.3-1.2,5.1h-2.1l2-8.3h2l1.8,5.3,1.2-5.1h2.1Z"/><path class="cls-13" d="M455.8,159.9H453l-.8,1.5H450l5-8.1h2l1.1,8.4h-2.2Zm-1.9-1.6h1.8l-.3-2.9Z"/><path class="cls-13" d="M416.2,172.2h3.5l-.3,1.6-5.6-.3,1.9-8.3h2.1Z"/><path class="cls-13" d="M422.7,172.5l3.5.2-.3,1.5-5.6-.3,1.9-8.3h2Z"/><path class="cls-13" d="M432,172.9h-2.8l-.8,1.5h-2.2l5-8.1h2l1.2,8.4h-2.2Zm-1.9-1.6h1.8l-.2-3Z"/><path class="cls-13" d="M439.6,166.5l.5,5.9,3.3-5.7h2.7l-2,8.3h-2l.4-1.9,1.2-4-3.5,5.8h-1.3l-.7-6.1-.7,4-.5,2h-2l1.9-8.3Z"/><path class="cls-13" d="M450.7,173.9l-2.8-.2-.8,1.6h-2.2l5-8.2h2l1.2,8.5h-2.2Zm-1.9-1.7h1.8l-.2-2.9Z"/><path class="cls-13" d="M453.7,175.6l1.9-8.3h2.8a6,6,0,0,1,1.9.6,3.1,3.1,0,0,1,1,1.5,4.8,4.8,0,0,1,.1,2.1v.4a5.4,5.4,0,0,1-1,2,4.3,4.3,0,0,1-1.7,1.3,3.9,3.9,0,0,1-2.1.4Zm3.6-6.7-1.2,5.3h.7a2,2,0,0,0,1.5-.6,3,3,0,0,0,.9-1.7v-.4a2.1,2.1,0,0,0-.1-1.8,1.1,1.1,0,0,0-1.2-.7Z"/><path class="cls-13" d="M466.5,174.7l-2.8-.2-.9,1.6-2.2-.2,5.1-8.1h1.9l1.2,8.5-2.2-.2Zm-2-1.7h1.8l-.2-2.9Z"/><path class="cls-13" d="M410.5,187.6l1.9-8.3,2.8.2a3.1,3.1,0,0,1,1.9.6,2.6,2.6,0,0,1,1.1,1.4,5,5,0,0,1,0,2.1v.4a5.4,5.4,0,0,1-1,2,3.7,3.7,0,0,1-1.7,1.3,4.1,4.1,0,0,1-2.1.5Zm3.6-6.6-1.2,5.2h.7a2,2,0,0,0,1.5-.5,3.8,3.8,0,0,0,.9-1.8v-.4a2.1,2.1,0,0,0-.1-1.8,1.3,1.3,0,0,0-1.2-.7Z"/><path class="cls-13" d="M424.3,184.7h-3.2l-.5,2,3.8.2-.3,1.5-5.9-.3,2-8.3,5.8.3-.3,1.5-3.9-.2-.4,1.8,3.3.2Z"/><path class="cls-13" d="M433.1,187.2l-2.8-.2-.9,1.6h-2.2l5.1-8.2h1.9l1.2,8.5h-2.2Zm-2-1.7h1.8l-.2-2.9Z"/><path class="cls-13" d="M443.6,182.4H441l-1.6,6.8h-2l1.6-6.8h-2.5l.3-1.6,7.1.4Z"/><path class="cls-13" d="M448.9,186l-3.2-.2-.5,2,3.8.2-.3,1.5-5.9-.3,2-8.3,5.8.3-.3,1.6-3.8-.2-.4,1.7,3.2.2Z"/><path class="cls-13" d="M456.6,189.9h-2l-1.8-5.3-1.2,5.2h-2.1l2-8.3h2l1.8,5.3,1.2-5.2h2.1Z"/><path class="cls-13" d="M465.4,187.5a2.8,2.8,0,0,1-.8,1.5,3.1,3.1,0,0,1-1.5,1,5.8,5.8,0,0,1-1.9.3,2.8,2.8,0,0,1-2.3-1.2,4,4,0,0,1-.3-3.1v-.4a6.7,6.7,0,0,1,.9-2.1,5.2,5.2,0,0,1,1.6-1.4,4.5,4.5,0,0,1,2-.4,3.3,3.3,0,0,1,2.3,1,2.6,2.6,0,0,1,.6,2.2H464c.1-.5.1-.9-.1-1.1a1.6,1.6,0,0,0-1.1-.4,1.3,1.3,0,0,0-1.2.5,5.1,5.1,0,0,0-.8,1.8v.6a3.2,3.2,0,0,0-.1,1.9c.1.4.4.6,1,.6a2.1,2.1,0,0,0,1.2-.3,1.4,1.4,0,0,0,.6-1Z"/><path class="cls-13" d="M467.9,190.5h-2l1.9-8.3h2.1Z"/><path class="cls-13" d="M477.5,186.9a5,5,0,0,1-1,2.2,4,4,0,0,1-1.6,1.3,4.1,4.1,0,0,1-2.1.5,4.8,4.8,0,0,1-1.8-.6,3.1,3.1,0,0,1-1-1.5,3.7,3.7,0,0,1,0-2.1v-.5a5.1,5.1,0,0,1,1-2.1,4.3,4.3,0,0,1,1.6-1.4,5.2,5.2,0,0,1,2.1-.4,4.8,4.8,0,0,1,1.8.6,3.1,3.1,0,0,1,1,1.5,8.1,8.1,0,0,1,0,2.2Zm-2-.4a3,3,0,0,0,0-1.9,1,1,0,0,0-1.1-.7c-1-.1-1.7.7-2.1,2.2l-.2.6a3,3,0,0,0,0,1.9,1.1,1.1,0,0,0,1.1.7,1.8,1.8,0,0,0,1.3-.6,3.8,3.8,0,0,0,.9-1.8Zm0-6.3h2.1l-2,1.7H474Z"/><path class="cls-13" d="M484.7,191.3h-2.1l-1.7-5.3-1.3,5.2h-2l1.9-8.3h2.1l1.8,5.3,1.2-5.2h2Z"/><path class="cls-13" d="M482.8,262.4h-.5l-97.4-8a5.4,5.4,0,0,1-4.1-2.3,5.6,5.6,0,0,1-1-4.7l29.9-128.6a5.7,5.7,0,0,1,6-4.5l92.2,5.2a5.6,5.6,0,0,1,4.3,2.1,6,6,0,0,1,1.1,4.7L488.4,257.7A5.6,5.6,0,0,1,482.8,262.4ZM415.4,115.3a4.7,4.7,0,0,0-4.7,3.7l-30,128.7a4.8,4.8,0,0,0,4.3,5.7l97.4,8a4.9,4.9,0,0,0,5.1-3.9l24.8-131.4a4.6,4.6,0,0,0-.9-3.8,4.5,4.5,0,0,0-3.5-1.8l-92.3-5.2Z"/><path class="cls-13" d="M452.4,249.2l-38.2-2.7a8.3,8.3,0,0,1-7.5-10.1h0a8.3,8.3,0,0,1,8.7-6.3l38.2,2.7a8.3,8.3,0,0,1,7.5,9.8h0A8.3,8.3,0,0,1,452.4,249.2Z"/><path class="cls-12" d="M417.3,239.1l.4-.2.3-.3h1.3a1.8,1.8,0,0,1-.5.8l-.8.4a1.1,1.1,0,0,1-1,.1,1.4,1.4,0,0,1-1.2-.7,1.9,1.9,0,0,1-.1-1.5h0a3.9,3.9,0,0,1,.6-1.1l.9-.7a2.5,2.5,0,0,1,1.2-.1,1.1,1.1,0,0,1,1.1.6,1.2,1.2,0,0,1,.2,1.2h-1.2c.1-.4-.1-.7-.4-.7s-.8.3-1,1v.6A.5.5,0,0,0,417.3,239.1Z"/><path class="cls-12" d="M420.7,240.3h-1.3l2.2-5.8h1.3Z"/><path class="cls-12" d="M423,240.5h-1.4l1.6-4.1h1.3Zm.5-5.3a.5.5,0,0,1,.3-.4.7.7,0,0,1,.6-.1.6.6,0,0,1,.5.2.6.6,0,0,1,.1.4.5.5,0,0,1-.3.5h-.6l-.5-.2A.7.7,0,0,1,423.5,235.2Z"/><path class="cls-12" d="M426.1,239.8h.4c.2-.1.3-.2.3-.4h1.3a1.4,1.4,0,0,1-.5.8l-.8.5a1.6,1.6,0,0,1-1,.1,1.3,1.3,0,0,1-1.2-.7,1.6,1.6,0,0,1-.1-1.5h0a2.4,2.4,0,0,1,.6-1.1l.9-.7a2.5,2.5,0,0,1,1.2-.1,1.3,1.3,0,0,1,1.1.5,1.9,1.9,0,0,1,.2,1.3h-1.2c0-.5-.1-.7-.4-.8s-.8.3-1,1.1l-.2.4h0C425.6,239.6,425.7,239.8,426.1,239.8Z"/><path class="cls-12" d="M430.4,239.6l-.5.3-.5,1.2-1.3-.2,2.2-5.8,1.3.2-1.2,3h.2l1.5-1.1h1.7l-2.2,1.6.6,2.5h-1.4Z"/><path class="cls-12" d="M437.1,241.7v-.4a1.6,1.6,0,0,1-1.2.4,1.2,1.2,0,0,1-.8-.4,1,1,0,0,1-.2-.9,1.2,1.2,0,0,1,.8-1,2.7,2.7,0,0,1,1.6-.2h.5v-.4c0-.3-.1-.4-.3-.4a.5.5,0,0,0-.6.4h-1.4a1.2,1.2,0,0,1,.5-.7,1.2,1.2,0,0,1,.8-.4h1a1.1,1.1,0,0,1,.8.3.8.8,0,0,1,.5.5,1.1,1.1,0,0,1,0,.8l-.7,1.9v.8h-1.3Zm-.6-.9c.3.1.5,0,.8-.3l.2-.6h-.3a.7.7,0,0,0-.6.1.8.8,0,0,0-.4.4.4.4,0,0,0,.1.3C436.3,240.8,436.4,240.8,436.5,240.8Z"/><path class="cls-12" d="M439.6,239.8a3.7,3.7,0,0,1,.5-1.1,2.8,2.8,0,0,1,.9-.7l.9-.2c.5.1.8.3.9.7l.3-.5h1.2l-2.1,5.7h-1.4l.8-1.9a2.3,2.3,0,0,1-1.1.3,1.1,1.1,0,0,1-.9-.5,2.2,2.2,0,0,1-.2-1.2C439.5,240.2,439.5,240,439.6,239.8Zm1.2.5a.6.6,0,0,0,0,.6c0,.1.1.2.3.2a.8.8,0,0,0,.8-.2l.6-1.7c0-.2-.2-.3-.5-.3s-.8.3-1.1,1Z"/><path class="cls-12" d="M446.4,242.1a1.7,1.7,0,0,1-1.3.4c-.5,0-.8-.2-.9-.5a1.6,1.6,0,0,1-.1-1.2l1-2.6h1.4l-1,2.7v.2c0,.2.1.3.4.3a.7.7,0,0,0,.7-.2l1.1-2.9H449l-1.6,4.1h-1.2Z"/><path class="cls-12" d="M449.6,242.8h-1.4l1.6-4.1h1.3Zm.5-5.2a.5.5,0,0,1,.3-.5h.6l.4.2c.2.1.2.3.2.5a.5.5,0,0,1-.3.4.7.7,0,0,1-.6.1.6.6,0,0,1-.5-.2C450.1,237.9,450.1,237.8,450.1,237.6Z"/></g><path class="cls-13" d="M495.3,128.8l.3-1.3-4.7-.3-.3,1.3-.7,2.7,4.7.3Zm-4.6,1.8.6-2,3.3.2-.5,2Z"/><polygon class="cls-13" points="499.4 131.4 500.8 130.3 501.6 131.5 502.2 131.1 501.4 129.9 502.8 128.8 502.4 128.3 501 129.4 500.2 128.2 499.6 128.7 500.4 129.8 499.1 130.9 499.4 131.4"/><polygon class="cls-13" points="486.4 128.6 482.5 128.3 482.3 129 486.2 129.3 486.4 128.6"/></g><g id="blog"><path id="sombra-3" data-name="sombra" class="cls-17" d="M468.6,231.4,373.9,225a6,6,0,0,1-5.5-7.2L395.4,89a5.9,5.9,0,0,1,6.1-4.8l92.9,3.3a6,6,0,0,1,5.6,7.1L474.9,226.5A6.1,6.1,0,0,1,468.6,231.4Z"/><g id="blog-2" data-name="blog"><path class="cls-12" d="M467,228.2l-94.7-6.4a6.1,6.1,0,0,1-5.5-7.3l27-128.8a5.9,5.9,0,0,1,6-4.8l92.9,3.3a6.1,6.1,0,0,1,5.7,7.2L473.3,223.3A6.1,6.1,0,0,1,467,228.2Z"/><path class="cls-8" d="M467.4,228.7h-.5l-94.7-6.5a6.3,6.3,0,0,1-4.7-2.5,6.6,6.6,0,0,1-1.2-5.3l27-128.8a6.5,6.5,0,0,1,6.3-5.2h.3l92.9,3.3a6.5,6.5,0,0,1,4.8,2.5,6.2,6.2,0,0,1,1.3,5.2l-25.1,132A6.5,6.5,0,0,1,467.4,228.7ZM399.6,81.4a5.5,5.5,0,0,0-5.4,4.4L367.3,214.6a5.6,5.6,0,0,0,1,4.5,5.8,5.8,0,0,0,4,2.2l94.7,6.4a5.6,5.6,0,0,0,5.8-4.5L497.9,91.3a5.6,5.6,0,0,0-1.1-4.5,5.9,5.9,0,0,0-4.1-2.1l-92.9-3.3Z"/><path d="M400.5,133.1l2.8.2v.2l-3-.2,2.1-5.5h.2Z"/><path d="M404.6,131.4a2.1,2.1,0,0,1,.6-1,2,2,0,0,1,.8-.8l1-.2a.9.9,0,0,1,.7.3.7.7,0,0,1,.4.5,2.8,2.8,0,0,1,.1.9,2.1,2.1,0,0,1-.2.6,2.4,2.4,0,0,1-.6,1.1,2.7,2.7,0,0,1-.8.7l-1,.2-.8-.2-.4-.6a2.2,2.2,0,0,1,0-.8A2.5,2.5,0,0,1,404.6,131.4Zm0,.8c0,.4,0,.7.2.9a1.2,1.2,0,0,0,.8.4,1.9,1.9,0,0,0,1.2-.4,3.5,3.5,0,0,0,.9-1.1,2.3,2.3,0,0,0,.3-1.1,2,2,0,0,0-.2-.9l-.8-.4a1.9,1.9,0,0,0-1.2.4,2.4,2.4,0,0,0-.9,1.1A2.6,2.6,0,0,0,404.6,132.2Z"/><path d="M411.5,129.9h-.2a1.3,1.3,0,0,0-1,.3,1.8,1.8,0,0,0-.8.9l-1,2.7h-.2l1.5-4.1h.2l-.3.8a1.6,1.6,0,0,1,.8-.6.9.9,0,0,1,.9-.2h.2Z"/><path d="M412.3,134a1.1,1.1,0,0,1-.8-.3,1.5,1.5,0,0,1-.4-.8,3.8,3.8,0,0,1,.1-1v-.2a2.1,2.1,0,0,1,.6-1,2.8,2.8,0,0,1,.9-.7,1.5,1.5,0,0,1,.9-.2,1.1,1.1,0,0,1,.9.5,1.6,1.6,0,0,1,.1,1.2h-.1v.3l-3.1-.2v.2a1.4,1.4,0,0,0-.2.7,1.6,1.6,0,0,0,.3.9.8.8,0,0,0,.7.3,1.6,1.6,0,0,0,1.4-.5l.2.2A1.9,1.9,0,0,1,412.3,134Zm1.4-4a1.9,1.9,0,0,0-1.2.4,2.5,2.5,0,0,0-.9,1.1h2.8a1.3,1.3,0,0,0,.1-.6.6.6,0,0,0-.2-.7A.7.7,0,0,0,413.7,130Z"/><path d="M417.5,134.2h-.2l1.1-2.7c0-.2.1-.3.1-.5a.7.7,0,0,0-.2-.6l-.5-.2a1.9,1.9,0,0,0-1.2.4,2.4,2.4,0,0,0-.8.9l-1,2.6h-.2l1.6-4.1h.2l-.4,1a3.2,3.2,0,0,1,.9-.8l.9-.2a.8.8,0,0,1,.7.3.8.8,0,0,1,.2.7,1.6,1.6,0,0,1,.8-.6l1-.3a.8.8,0,0,1,.7.3.8.8,0,0,1,.2.7c0,.2-.1.4-.1.7l-1,2.6h-.2l1-2.7c0-.2.1-.3.1-.5s0-.5-.1-.6-.3-.2-.6-.3l-.8.2-.7.4-.4.6Z"/><path d="M423.6,134.6h-.2l1.6-4.2h.2Zm1.7-5.5h.4v.2h-.4C425.3,129.3,425.3,129.2,425.3,129.1Z"/><path d="M426.5,134.8l-.7-.2-.4-.6-.8,2.2h-.2l2.1-5.7h.2l-.3.8a2.1,2.1,0,0,1,.8-.6l.9-.2a1.1,1.1,0,0,1,.9.9,1.1,1.1,0,0,1,0,.8.9.9,0,0,0-.1.5l-.2.2a2.8,2.8,0,0,1-.9,1.4A1.7,1.7,0,0,1,426.5,134.8Zm2.1-2.1.2-.4a2,2,0,0,0,0-1.1,1.2,1.2,0,0,0-.7-.5,2.3,2.3,0,0,0-1.1.3,2.3,2.3,0,0,0-.7.7l-.7,1.9a1.4,1.4,0,0,0,.2.7,1.1,1.1,0,0,0,.8.3,1.3,1.3,0,0,0,1.1-.5,3,3,0,0,0,.9-1.3Z"/><path d="M432.1,134c.2-.5-.1-.9-.9-1.1h-.4c-.5-.3-.7-.6-.5-1.1a1.1,1.1,0,0,1,.6-.7,2,2,0,0,1,1.1-.3,1.9,1.9,0,0,1,.9.4c.2.2.2.5.1.9h-.2a1.1,1.1,0,0,0-.1-.8l-.8-.3-.9.2-.5.6c-.2.4,0,.7.5.9l.5.2h.2c.6.2.8.6.6,1.1a1.3,1.3,0,0,1-.7.8l-1.1.2a1,1,0,0,1-.9-.4.6.6,0,0,1-.2-.8h.2a.8.8,0,0,0,.1.7,1.2,1.2,0,0,0,.9.3l.9-.2Z"/><path d="M435.7,135.2l.3-.7-.8.6h-.9a.9.9,0,0,1-.7-.3.8.8,0,0,1-.2-.7,1.4,1.4,0,0,1,.2-.7l.9-2.6h.2l-.9,2.6c-.1.1-.1.3-.2.5s0,.5.2.6a.5.5,0,0,0,.5.3,2,2,0,0,0,1.1-.3,1.4,1.4,0,0,0,.8-.7l1-2.9h.2l-1.5,4.1Z"/><path d="M440.1,135.4h-.2l1-2.7a1.1,1.1,0,0,0,.1-.5.6.6,0,0,0-.1-.6l-.6-.2a2.3,2.3,0,0,0-1.1.3,1.9,1.9,0,0,0-.8,1l-1,2.6h-.2l1.5-4.1h.2l-.4.9.9-.7a1.5,1.5,0,0,1,.9-.2,1,1,0,0,1,.8.3.8.8,0,0,1,.1.7l.9-.7,1-.2a.9.9,0,0,1,.7.3,1.4,1.4,0,0,1,.2.7c-.1.2-.1.4-.2.6l-1,2.7h-.2l1-2.7a.9.9,0,0,0,.1-.5.6.6,0,0,0-.1-.6.6.6,0,0,0-.6-.3l-.7.2-.7.4-.5.6Z"/><path d="M446.5,133.6l.6-1.1.8-.7.9-.2a.9.9,0,0,1,.7.3.9.9,0,0,1,.4.6l.9-2.5h.2l-2.2,5.9h-.2l.3-.7-.8.5-.8.2a.9.9,0,0,1-.7-.3,1.6,1.6,0,0,1-.3-.6,2.5,2.5,0,0,1,.1-.8C446.4,134,446.5,133.8,446.5,133.6Zm.1.5a2.5,2.5,0,0,0-.1.8.8.8,0,0,0,.2.5.7.7,0,0,0,.6.3l.9-.2a2.7,2.7,0,0,0,.8-.7l.7-1.9a1.1,1.1,0,0,0-.2-.8.9.9,0,0,0-.7-.3,1.7,1.7,0,0,0-1,.3,2.2,2.2,0,0,0-.7.9A3.7,3.7,0,0,0,446.6,134.1Z"/><path d="M450.6,133.8l.6-1a2.8,2.8,0,0,1,.9-.7,1.9,1.9,0,0,1,1-.3.9.9,0,0,1,.7.3,1,1,0,0,1,.4.5,2.8,2.8,0,0,1,.1.9c-.1.1-.1.4-.2.6a2.4,2.4,0,0,1-.6,1.1l-.9.7-1,.2-.7-.2-.4-.6a2.2,2.2,0,0,1-.1-.8A6.4,6.4,0,0,0,450.6,133.8Zm0,.8a1.2,1.2,0,0,0,.3.9.8.8,0,0,0,.8.4,1.7,1.7,0,0,0,1.1-.4,2.7,2.7,0,0,0,1-1.1,4.5,4.5,0,0,0,.3-1.1,1.2,1.2,0,0,0-.3-.9c-.1-.2-.4-.3-.7-.4a1.9,1.9,0,0,0-1.2.4,2.4,2.4,0,0,0-.9,1.1A7.6,7.6,0,0,0,450.6,134.6Z"/><path d="M454.6,136.2h-.2l2.2-5.9h.2Z"/><path d="M456.4,134.1l.6-1a2.8,2.8,0,0,1,.9-.7,1.9,1.9,0,0,1,1-.3c.3.1.5.1.7.3a.7.7,0,0,1,.4.5,2.8,2.8,0,0,1,.1.9,1.4,1.4,0,0,1-.2.6,2.4,2.4,0,0,1-.6,1.1,2.2,2.2,0,0,1-.9.7,1.6,1.6,0,0,1-1,.2l-.7-.2a2.1,2.1,0,0,1-.4-.6,1.1,1.1,0,0,1,0-.8C456.3,134.6,456.4,134.4,456.4,134.1Zm.1.8a.9.9,0,0,0,.2.9.8.8,0,0,0,.8.4,1.9,1.9,0,0,0,1.2-.4,3.5,3.5,0,0,0,.9-1.1,2.3,2.3,0,0,0,.3-1.1,2,2,0,0,0-.2-.9l-.8-.4a1.9,1.9,0,0,0-1.2.4,2.4,2.4,0,0,0-.9,1.1A2.6,2.6,0,0,0,456.5,134.9Z"/><path d="M463.4,132.6h-.2a1.9,1.9,0,0,0-1,.3,1.8,1.8,0,0,0-.8.9l-1,2.7h-.2l1.5-4.1h.2l-.3.8a1.6,1.6,0,0,1,.8-.6.8.8,0,0,1,.8-.2h.3Z"/><path d="M467.5,135.8c.2-.4-.1-.8-.8-1.1h-.4c-.6-.2-.8-.6-.6-1.1a1.3,1.3,0,0,1,.6-.7,2.2,2.2,0,0,1,1.1-.2,1,1,0,0,1,.9.4.8.8,0,0,1,.1.8h-.2a.6.6,0,0,0-.1-.7.9.9,0,0,0-.7-.3c-.4,0-.7,0-.9.2a.9.9,0,0,0-.6.6c-.2.4,0,.7.5.9h.8c.5.3.7.6.5,1.1a1.2,1.2,0,0,1-.6.8,1.6,1.6,0,0,1-1.2.2,1.2,1.2,0,0,1-.9-.3.9.9,0,0,1-.2-.9h.2a.5.5,0,0,0,.2.6c.1.2.4.3.8.3a1,1,0,0,0,.9-.2A.9.9,0,0,0,467.5,135.8Z"/><path d="M468.7,136.9h-.2l1.5-4.1h.2Zm1.7-5.4h.4v.2h-.3Z"/><path d="M472.4,131.8l-.4,1.1h.9v.3H472l-1.2,3v.2c-.1.2-.1.3,0,.4l.3.2h.5v.2h-.4c-.4,0-.6-.2-.5-.7a.6.6,0,0,1,.1-.4l1-2.9H471v-.2h.7l.4-1.1Z"/><path d="M400.9,142.9a3.1,3.1,0,0,1,.2-.8,2.4,2.4,0,0,1-.9.6l-1,.2a1.2,1.2,0,0,1-.8-.4,1.1,1.1,0,0,1,0-.8,1.4,1.4,0,0,1,.8-.9,3.3,3.3,0,0,1,1.5-.3h1l.2-.6a.8.8,0,0,0-.1-.8c-.1-.2-.4-.3-.7-.4a1.7,1.7,0,0,0-1,.3,1.2,1.2,0,0,0-.7.7h-.2a1.8,1.8,0,0,1,.8-.9,2,2,0,0,1,1.1-.3,1.9,1.9,0,0,1,.9.4,1.1,1.1,0,0,1,.1,1l-.8,2.2v.3c0,.1-.1.2-.1.4h-.2Zm-1.6-.2,1-.2.9-.7.4-1h-.9a2.9,2.9,0,0,0-1.4.3,1,1,0,0,0-.7.7.8.8,0,0,0,0,.7A.9.9,0,0,0,399.3,142.7Z"/><path d="M405.2,143.1H405l1-2.7a1.1,1.1,0,0,0,.1-.5.6.6,0,0,0-.1-.6l-.6-.2a2.3,2.3,0,0,0-1.1.3,2.8,2.8,0,0,0-.9,1l-.9,2.6h-.2l1.5-4.1h.2l-.4.9.9-.7a1,1,0,0,1,.9-.2,1,1,0,0,1,.8.3.8.8,0,0,1,.1.7l.9-.7,1-.2a.9.9,0,0,1,.7.3.8.8,0,0,1,.1.7,1.3,1.3,0,0,1-.1.6l-1,2.7h-.2l1-2.6a1.1,1.1,0,0,0,.1-.5.6.6,0,0,0-.1-.6.6.6,0,0,0-.6-.3l-.7.2-.7.4-.5.6Z"/><path d="M410.7,143.5a1,1,0,0,1-.8-.3,1.2,1.2,0,0,1-.4-.8,2.1,2.1,0,0,1,.1-1.1h.1a2.4,2.4,0,0,1,.6-1.1,2.7,2.7,0,0,1,.8-.7l1-.2a1.1,1.1,0,0,1,.9.5,1.6,1.6,0,0,1,0,1.2h0v.3l-3-.2v.3a1.3,1.3,0,0,0-.1.6,2,2,0,0,0,.2.9,1.2,1.2,0,0,0,.8.4,2.7,2.7,0,0,0,1.4-.5h.1A2.2,2.2,0,0,1,410.7,143.5Zm1.3-4.1a1.7,1.7,0,0,0-1.1.4,3.1,3.1,0,0,0-.9,1.1l2.8.2h0a.9.9,0,0,0,.1-.5,1.9,1.9,0,0,0-.2-.8A.9.9,0,0,0,412,139.4Z"/><path d="M415.4,138.3l-.4,1.1h.9v.2h-1l-1.1,3.1v.2a.3.3,0,0,0,0,.4h.7v.2h-.4a.7.7,0,0,1-.6-.7.8.8,0,0,0,.1-.4l1.1-3H414v-.2h.7l.4-1.1Z"/><path d="M415,144.6h-.1a2.4,2.4,0,0,0,.6-.9l.2-.5h.2v.4A3.1,3.1,0,0,1,415,144.6Z"/><path d="M420.2,143.8a1.7,1.7,0,0,0,1-.3,1.4,1.4,0,0,0,.7-.8h.2a1.9,1.9,0,0,1-.8,1,2,2,0,0,1-1.1.3,1.3,1.3,0,0,1-.9-.4,3,3,0,0,1-.2-1,2.4,2.4,0,0,1,.2-.8h0l.6-1.1.8-.7,1-.2a1.1,1.1,0,0,1,.9.5,1.1,1.1,0,0,1,.1,1h-.2c.1-.4.1-.7-.1-.9a1,1,0,0,0-.8-.4,2.4,2.4,0,0,0-1.3.5,3.5,3.5,0,0,0-.9,1.6v.3a2.8,2.8,0,0,0,.1,1A1.4,1.4,0,0,0,420.2,143.8Z"/><path d="M423.2,141.9a3,3,0,0,1,.6-1.1,2.2,2.2,0,0,1,.9-.7l1-.2.7.2a2.1,2.1,0,0,1,.4.6,1.4,1.4,0,0,1,0,.9,1.5,1.5,0,0,1-.1.6l-.6,1.1-.9.7-1,.2-.7-.2a2.1,2.1,0,0,1-.4-.6,2.8,2.8,0,0,1-.1-.9Zm0,.8a2,2,0,0,0,.2.9,1.2,1.2,0,0,0,.8.4,1.9,1.9,0,0,0,1.2-.4,2.4,2.4,0,0,0,.9-1.1,2.6,2.6,0,0,0,.3-1.1.9.9,0,0,0-.2-.9,1,1,0,0,0-.8-.4,1.5,1.5,0,0,0-1.1.4,3.6,3.6,0,0,0-1,1.1A2.3,2.3,0,0,0,423.2,142.7Z"/><path d="M428.3,141.1a2.8,2.8,0,0,1,.9-.7,1.6,1.6,0,0,1,.9-.3l.7.3a1.5,1.5,0,0,1,.2.8c-.1.2-.1.4-.2.6l-1,2.6h-.2l1-2.6c.1-.2.1-.4.2-.6s0-.5-.2-.6-.3-.2-.6-.2a1.3,1.3,0,0,0-1,.3l-.9.9-1,2.7h-.2l1.6-4.2h.2Z"/><path d="M434,143.6c.2-.5-.1-.8-.8-1.1h-.4c-.6-.3-.8-.6-.6-1.1a1.3,1.3,0,0,1,.6-.7,2.3,2.3,0,0,1,1.1-.3,1.9,1.9,0,0,1,.9.4c.2.2.2.5.1.9h-.2a.6.6,0,0,0-.1-.7.9.9,0,0,0-.7-.3,1.3,1.3,0,0,0-.9.1l-.6.6c-.2.4,0,.7.5.9l.6.2h.2a.8.8,0,0,1,.5,1.1,1.6,1.6,0,0,1-.6.8,2.3,2.3,0,0,1-1.2.2,1.2,1.2,0,0,1-.9-.3,1,1,0,0,1-.2-.9h.2a.8.8,0,0,0,.2.7c.1.2.4.3.8.3a1.3,1.3,0,0,0,.9-.2A.9.9,0,0,0,434,143.6Z"/><path d="M436.4,144.8a1,1,0,0,1-1.1-1.1,1.7,1.7,0,0,1,.1-1v-.2a2.1,2.1,0,0,1,.6-1,1.8,1.8,0,0,1,.8-.7,1.2,1.2,0,0,1,1-.2c.4,0,.7.1.8.5a1.6,1.6,0,0,1,.1,1.2h0v.2h-3v.2a1.3,1.3,0,0,0-.1.6c0,.4,0,.7.2.9a.9.9,0,0,0,.8.4,2,2,0,0,0,1.4-.5h.1A1.7,1.7,0,0,1,436.4,144.8Zm1.4-4a1.4,1.4,0,0,0-1.1.3,2.7,2.7,0,0,0-.9,1.2h2.8c0-.2.1-.4.1-.6a1.4,1.4,0,0,0-.2-.7A.9.9,0,0,0,437.8,140.8Z"/><path d="M440.2,144.8l1.1-.2a1.6,1.6,0,0,0,.6-.8h.3a2.4,2.4,0,0,1-.8.9,2.7,2.7,0,0,1-1.2.3c-.4,0-.7-.1-.8-.4a1.5,1.5,0,0,1-.3-1,1.9,1.9,0,0,1,.2-.7v-.2l.6-1.1.9-.6a1,1,0,0,1,.9-.2,1,1,0,0,1,.9.4,1.3,1.3,0,0,1,.1,1.1h-.2a1.1,1.1,0,0,0-.1-1c-.1-.2-.4-.3-.8-.3a1.5,1.5,0,0,0-1.3.5,3.8,3.8,0,0,0-.9,1.5v.3a1.3,1.3,0,0,0,.1,1.1A.7.7,0,0,0,440.2,144.8Z"/><path d="M445.1,139.9l-.4,1.1h.9v.2h-.9l-1.1,3v.2c0,.2,0,.3.1.4s.1.2.3.2h.4v.2h-.4c-.5,0-.6-.3-.6-.7v-.4l1.1-2.9h-.7v-.2h.8l.4-1.1Z"/><path d="M446.7,145.4l-.8-.4a1,1,0,0,1-.4-.8,1.8,1.8,0,0,1,.1-1V143a2.7,2.7,0,0,1,.6-1,2.7,2.7,0,0,1,.8-.7,1.8,1.8,0,0,1,1-.2,1.1,1.1,0,0,1,.9.5,1.6,1.6,0,0,1,0,1.2h0v.3l-3-.2v.2a1.7,1.7,0,0,0-.1.7,2.9,2.9,0,0,0,.2.9l.8.4a2.7,2.7,0,0,0,1.4-.5h.1A2.2,2.2,0,0,1,446.7,145.4Zm1.3-4.1a1.7,1.7,0,0,0-1.1.4,2.4,2.4,0,0,0-.9,1.1h2.8a1.3,1.3,0,0,0,.1-.6,1.4,1.4,0,0,0-.2-.7A.9.9,0,0,0,448,141.3Z"/><path d="M451.4,140.2l-.4,1.1h.9v.2h-1l-1.1,3v.2a.4.4,0,0,0,0,.5h.7v.2h-.4c-.4,0-.6-.2-.6-.7s.1-.2.1-.4l1.1-2.9H450v-.2h.7l.4-1.1Z"/><path d="M454.2,145.7l.2-.7a1.5,1.5,0,0,1-.7.5l-.9.2a.8.8,0,0,1-.7-.3c-.2-.2-.2-.4-.2-.8s.1-.4.1-.6l1-2.6h.2l-1,2.7a4.3,4.3,0,0,0-.1.5,1.3,1.3,0,0,0,.1.6.6.6,0,0,0,.6.3,2.3,2.3,0,0,0,1.1-.3,1.6,1.6,0,0,0,.7-.7l1.1-2.9h.2l-1.5,4.1Z"/><path d="M457.2,145.9a1,1,0,0,1-.8-.3,2,2,0,0,1-.4-.8,3.4,3.4,0,0,1,.1-1v-.2a2.1,2.1,0,0,1,.6-1,2.3,2.3,0,0,1,.9-.8l.9-.2a1.1,1.1,0,0,1,.9.6,1.6,1.6,0,0,1,.1,1.2h-.1v.2h-3v.2c0,.2-.1.4-.1.6a1.2,1.2,0,0,0,.3.9.7.7,0,0,0,.7.4,1.9,1.9,0,0,0,1.4-.5h.1A2,2,0,0,1,457.2,145.9Zm1.3-4.1a3,3,0,0,0-1.1.4,2.7,2.7,0,0,0-.9,1.2h2.8a.7.7,0,0,0,.1-.5c0-.3,0-.6-.2-.7Z"/><path d="M462.8,142.1h-.2a1.2,1.2,0,0,0-1.1.3,1.6,1.6,0,0,0-.7.9l-1,2.7h-.2l1.5-4.2h.2l-.3.8a1.3,1.3,0,0,1,.7-.6l.9-.3h.3Z"/><path d="M399,152.3c.1-.2.1-.5.2-.7l-.8.5a2,2,0,0,1-1,.2.8.8,0,0,1-.8-.4.8.8,0,0,1-.1-.8,1.8,1.8,0,0,1,.8-.9,2.5,2.5,0,0,1,1.5-.2h1l.2-.6a.8.8,0,0,0,0-.8,1,1,0,0,0-.8-.3,1.3,1.3,0,0,0-1,.2,1.3,1.3,0,0,0-.6.7h-.2a1.6,1.6,0,0,1,.7-.9,1.7,1.7,0,0,1,1.2-.2,1,1,0,0,1,.9.4.9.9,0,0,1,0,.9l-.8,2.2v.7H399Zm-1.6-.2a1.8,1.8,0,0,0,1-.2l1-.7.3-1h-.9a2.5,2.5,0,0,0-1.3.2c-.4.2-.7.4-.8.7a.6.6,0,0,0,.1.7A.6.6,0,0,0,397.4,152.1Z"/><path d="M401.1,150.3a3.7,3.7,0,0,1,.5-1.1l.8-.7a1.5,1.5,0,0,1,.9-.2l.7.2a1,1,0,0,1,.4.7l.9-2.5h.2l-2.1,5.8h-.2l.2-.6-.8.5h-.8l-.7-.2-.3-.6a2.8,2.8,0,0,1,.1-.9A1.7,1.7,0,0,1,401.1,150.3Zm0,.5a2.2,2.2,0,0,0-.1.8.8.8,0,0,0,.2.5l.6.2a1.5,1.5,0,0,0,.9-.2,1.6,1.6,0,0,0,.8-.6l.8-1.9a1,1,0,0,0-.3-.8.8.8,0,0,0-.7-.3,1.6,1.6,0,0,0-.9.3,2,2,0,0,0-.8.8A6.1,6.1,0,0,0,401.1,150.8Z"/><path d="M404.9,152.6h-.2l1.5-4.1h.2Zm1.7-5.4h.4c0,.1,0,.1-.1.2h-.3Z"/><path d="M407.8,152.8a.8.8,0,0,1-.7-.2,1,1,0,0,1-.4-.5l-.8,2.2h-.2l2.1-5.7h.2l-.3.7.8-.5c.2-.2.5-.2.9-.2l.6.2a.9.9,0,0,1,.3.6v.9c-.1.1-.1.3-.2.5v.2a3.8,3.8,0,0,1-.9,1.4A1.6,1.6,0,0,1,407.8,152.8Zm2.1-2.1v-.4a1.1,1.1,0,0,0,0-1.1c-.1-.3-.3-.4-.7-.4l-1,.2a1.8,1.8,0,0,0-.7.8l-.8,1.9a.9.9,0,0,0,.3.7l.8.2c.4.1.7-.1,1.1-.4a3.8,3.8,0,0,0,.9-1.4Z"/><path d="M410.7,152.9h-.2l1.5-4.1h.2Zm1.7-5.4h.4s.1.1,0,.1v.2h-.3Z"/><path d="M415,152.1c.1-.5-.1-.8-.9-1.1h-.4a.9.9,0,0,1-.6-1.1,1.6,1.6,0,0,1,.7-.7,1.2,1.2,0,0,1,1-.2q.8,0,.9.3a1,1,0,0,1,.2.9h-.2a.8.8,0,0,0-.1-.7,1.1,1.1,0,0,0-.8-.3,1.5,1.5,0,0,0-.9.2,1,1,0,0,0-.6.5q-.2.6.6.9l.5.2h.2c.5.3.7.6.6,1.1a1.9,1.9,0,0,1-.7.8,1.4,1.4,0,0,1-1.1.2,1.5,1.5,0,0,1-1-.3.9.9,0,0,1-.1-.9h.2c-.1.3-.1.6.1.7a1,1,0,0,0,.8.3,1.6,1.6,0,0,0,1-.2A.9.9,0,0,0,415,152.1Z"/><path d="M417.3,153.1a1.2,1.2,0,0,0,1-.2,1.8,1.8,0,0,0,.7-.8h.2a1.4,1.4,0,0,1-.8.9,1.1,1.1,0,0,1-1.1.3,1,1,0,0,1-.9-.4c-.2-.2-.2-.5-.2-1s.1-.5.1-.7V151a2.1,2.1,0,0,1,.6-1,1.8,1.8,0,0,1,.8-.7,1.6,1.6,0,0,1,1-.2,1,1,0,0,1,.9.4,2,2,0,0,1,.1,1.1h-.2a1.3,1.3,0,0,0-.1-.9.8.8,0,0,0-.8-.4,1.7,1.7,0,0,0-1.3.5,3.5,3.5,0,0,0-.9,1.6v.2a1.9,1.9,0,0,0,.1,1.1A.8.8,0,0,0,417.3,153.1Z"/><path d="M420,153.4h-.2l1.6-4.1h.2Zm1.7-5.4h.5l-.2.2h-.3Z"/><path d="M422.8,150.3a2.7,2.7,0,0,1,.8-.7,2,2,0,0,1,1-.2.9.9,0,0,1,.7.3.8.8,0,0,1,.1.7,1.3,1.3,0,0,1-.1.6l-1,2.6h-.2l1-2.6a4.3,4.3,0,0,1,.1-.5.8.8,0,0,0-.1-.7l-.6-.2-1.1.3a2.5,2.5,0,0,0-.8,1l-1,2.6h-.2l1.5-4.1h.2Z"/><path d="M426.2,151.6a2.4,2.4,0,0,1,.6-1.1,1.8,1.8,0,0,1,.8-.7,1.5,1.5,0,0,1,.9-.2l.7.2a.9.9,0,0,1,.3.7l.3-.8h.2l-1.5,4a2.5,2.5,0,0,1-.9,1.3,1.9,1.9,0,0,1-1.2.4,1.1,1.1,0,0,1-1.1-.7l.2-.2a.9.9,0,0,0,.9.7,2,2,0,0,0,1.1-.3,4.4,4.4,0,0,0,.8-1.1l.2-.6-.7.5a1.4,1.4,0,0,1-.9.1l-.6-.2a.6.6,0,0,1-.3-.6,1.4,1.4,0,0,1,0-.9Zm0,.5a2,2,0,0,0,0,1.1.7.7,0,0,0,.7.4,1.2,1.2,0,0,0,1-.2,2.1,2.1,0,0,0,.8-.6l.7-1.9a1.1,1.1,0,0,0-.3-.8.8.8,0,0,0-.7-.3l-.9.3a3,3,0,0,0-.8.8A6.1,6.1,0,0,0,426.2,152.1Z"/><path d="M433.1,154.2c-.3,0-.5-.2-.8-.4a.9.9,0,0,1-.3-.7,2.1,2.1,0,0,1,.1-1.1v-.2a2.7,2.7,0,0,1,.6-1,2.7,2.7,0,0,1,.8-.7l1-.2a1.1,1.1,0,0,1,.9.5,1.6,1.6,0,0,1,0,1.2h0v.3l-3-.2v.2a2,2,0,0,0-.1.7c0,.4,0,.7.2.9l.8.4a2.7,2.7,0,0,0,1.4-.5h.1A2.5,2.5,0,0,1,433.1,154.2Zm1.4-4.1a1.5,1.5,0,0,0-1.1.4,2.4,2.4,0,0,0-.9,1.1l2.8.2h0a4.3,4.3,0,0,1,.1-.5,1.9,1.9,0,0,0-.2-.8A.9.9,0,0,0,434.5,150.1Z"/><path d="M435.8,154.2h-.2l2.1-5.8h.2Z"/><path d="M437.4,154.3h-.2l1.5-4.1h.2Zm1.7-5.4h.3a.1.1,0,0,1,.1.1h0v.2h-.3Z"/><path d="M441.1,149.2l-.4,1.1h.9v.3h-1l-1.1,3v.2c-.1.2-.1.3,0,.4l.3.2h.4v.2h-.4c-.4,0-.6-.2-.6-.7a.6.6,0,0,0,.1-.4l1.1-2.9h-.7v-.3h.7l.4-1.1Z"/><path d="M440.7,155.5v-.2a2.4,2.4,0,0,0,.6-.9l.2-.5h.2v.5A4.4,4.4,0,0,1,440.7,155.5Z"/><path d="M447.4,153.8c.2-.5-.1-.8-.9-1.1h-.4a.8.8,0,0,1-.5-1.1,1.3,1.3,0,0,1,.6-.7,1.4,1.4,0,0,1,1.1-.2,1.2,1.2,0,0,1,.9.3,1,1,0,0,1,.1.9h-.2a.6.6,0,0,0-.1-.7,1,1,0,0,0-.8-.3,1.5,1.5,0,0,0-.9.2,1.2,1.2,0,0,0-.5.5c-.2.4,0,.7.5.9l.6.2h.1c.6.3.8.6.6,1.1a1.1,1.1,0,0,1-.7.8,1.4,1.4,0,0,1-1.1.2,1.2,1.2,0,0,1-.9-.3.8.8,0,0,1-.2-.9h.2a.8.8,0,0,0,.1.7,1.2,1.2,0,0,0,.9.3,1.5,1.5,0,0,0,.9-.2A.9.9,0,0,0,447.4,153.8Z"/><path d="M449.8,155a1.1,1.1,0,0,1-.8-.3,1.5,1.5,0,0,1-.4-.8,2,2,0,0,1,.2-1v-.2l.6-1a2.8,2.8,0,0,1,.9-.7,1.5,1.5,0,0,1,.9-.2,1.1,1.1,0,0,1,.9.5,1.6,1.6,0,0,1,.1,1.2h0v.2h-3v.2a6.4,6.4,0,0,0-.2.7,1.6,1.6,0,0,0,.3.9,1,1,0,0,0,.8.3,1.7,1.7,0,0,0,1.4-.5v.2A1.9,1.9,0,0,1,449.8,155Zm1.4-4a1.9,1.9,0,0,0-1.2.4,3.5,3.5,0,0,0-.9,1.1h2.8a1.4,1.4,0,0,0,.2-.6.9.9,0,0,0-.3-.7A.6.6,0,0,0,451.2,151Z"/><path d="M452.8,153a2.4,2.4,0,0,1,.6-1.1,1.8,1.8,0,0,1,.8-.7,1.5,1.5,0,0,1,.9-.2l.7.2a.9.9,0,0,1,.3.7l1-2.5h.2l-2.2,5.8h-.2l.3-.6-.8.5h-.9l-.6-.2a.7.7,0,0,1-.3-.6,2.7,2.7,0,0,1,0-.9C452.7,153.4,452.7,153.2,452.8,153Zm.1.5a1.1,1.1,0,0,0-.1.8.8.8,0,0,0,.2.5l.5.2a1.6,1.6,0,0,0,1-.2,2.1,2.1,0,0,0,.8-.6l.7-1.9a1.5,1.5,0,0,0-.2-.8,1,1,0,0,0-.8-.3,1.6,1.6,0,0,0-.9.3,3,3,0,0,0-.8.8A5.6,5.6,0,0,0,452.9,153.5Z"/><path d="M458.9,153.3a3.7,3.7,0,0,1,.5-1.1l.8-.7a1.5,1.5,0,0,1,.9-.2l.7.2a1,1,0,0,1,.4.7l.9-2.5h.2l-2.1,5.9H461l.2-.6-.8.5a1.1,1.1,0,0,1-.8.1.8.8,0,0,1-.7-.2,1.6,1.6,0,0,1-.3-.6,2.8,2.8,0,0,1,.1-.9A1.7,1.7,0,0,1,458.9,153.3Zm0,.5a2.2,2.2,0,0,0-.1.8.8.8,0,0,0,.2.5.7.7,0,0,0,.6.2,1.4,1.4,0,0,0,.9-.1,2.7,2.7,0,0,0,.8-.7l.8-1.9a1.1,1.1,0,0,0-.3-.8.8.8,0,0,0-.7-.3,1.6,1.6,0,0,0-.9.3,3,3,0,0,0-.8.8A6.1,6.1,0,0,0,458.9,153.8Z"/><path d="M462.7,155.6h-.2l1.5-4.1h.2Zm1.7-5.4h.4v.2h-.4Z"/><path d="M466.7,155.8a2.5,2.5,0,0,1,.2-.7l-.9.6a1.6,1.6,0,0,1-1,.1.8.8,0,0,1-.8-1.1,1.4,1.4,0,0,1,.8-.9,3.3,3.3,0,0,1,1.5-.3h1l.2-.6a1.1,1.1,0,0,0,0-.8,1.1,1.1,0,0,0-.8-.3l-1,.2-.7.7H465a2,2,0,0,1,.8-.8,2,2,0,0,1,1.1-.3c.5,0,.8.1.9.4a1.1,1.1,0,0,1,.1,1l-.8,2.2v.2c0,.2-.1.3-.1.4h-.2Zm-1.6-.2a2,2,0,0,0,1-.2,2.8,2.8,0,0,0,.9-.7l.4-1h-.9l-1.4.2a1.4,1.4,0,0,0-.7.8.6.6,0,0,0,0,.6A.9.9,0,0,0,465.1,155.6Z"/><path d="M471,156.1h-.2l1-2.8a.7.7,0,0,0,.1-.5.7.7,0,0,0-.1-.6l-.6-.2a1.7,1.7,0,0,0-1.1.4,3.8,3.8,0,0,0-.9.9l-.9,2.6h-.2l1.5-4.1h.2l-.4,1,.9-.8.9-.2a.8.8,0,0,1,.9,1.1,2.8,2.8,0,0,1,.9-.7,1.2,1.2,0,0,1,1-.2l.7.2a1.9,1.9,0,0,1,.2.8c-.1.2-.1.4-.2.6l-1,2.6h-.2l1-2.7a.7.7,0,0,0,.1-.5.7.7,0,0,0-.1-.6.8.8,0,0,0-.6-.2h-.7l-.7.4-.5.6Z"/><path d="M395.9,158.4l.9-.7a1.5,1.5,0,0,1,.9-.2.8.8,0,0,1,.7.3c.2.1.2.4.2.7a1.4,1.4,0,0,1-.2.6l-.9,2.6h-.3l1-2.6c.1-.2.1-.4.2-.5a1.5,1.5,0,0,0-.1-.7l-.6-.2a1.5,1.5,0,0,0-1.1.4,2,2,0,0,0-.9.9l-1,2.6h-.2l1.6-4.1h.2Z"/><path d="M399.2,159.7l.6-1.1.9-.7,1-.2.7.2a2.1,2.1,0,0,1,.4.6,2.2,2.2,0,0,1,.1.8,2.5,2.5,0,0,1-.2.7,2.1,2.1,0,0,1-.6,1,1.5,1.5,0,0,1-.9.7,1.7,1.7,0,0,1-1,.3.9.9,0,0,1-.7-.3,1,1,0,0,1-.4-.5,1.4,1.4,0,0,1,0-.9A1.3,1.3,0,0,1,399.2,159.7Zm.1.8a.9.9,0,0,0,.2.9l.8.4a1.5,1.5,0,0,0,1.1-.4,3.6,3.6,0,0,0,1-1.1,2.6,2.6,0,0,0,.3-1.1,1.2,1.2,0,0,0-.3-.9.7.7,0,0,0-.7-.4,1.9,1.9,0,0,0-1.2.4,2,2,0,0,0-.9,1.1A2.3,2.3,0,0,0,399.3,160.5Z"/><path d="M404.3,158.9a2.8,2.8,0,0,1,.9-.7l.9-.3c.4,0,.6.1.7.3a.8.8,0,0,1,.2.7c0,.2-.1.4-.1.6l-1,2.7h-.2l1-2.7a4.3,4.3,0,0,0,.1-.5c0-.3,0-.5-.1-.6a.6.6,0,0,0-.6-.3,1.7,1.7,0,0,0-1.1.4,1.4,1.4,0,0,0-.8.9l-1,2.6H403l1.5-4.1h.2Z"/><path d="M409.9,162.4l.2-.7c-.2.3-.5.4-.7.6h-.9c-.4,0-.6-.1-.7-.3a.7.7,0,0,1-.2-.8,1.3,1.3,0,0,1,.1-.6l1-2.6h.2l-1,2.6a4.3,4.3,0,0,0-.1.5.6.6,0,0,0,.1.6.6.6,0,0,0,.6.3,2.3,2.3,0,0,0,1.1-.3,1.6,1.6,0,0,0,.7-.7l1.1-2.9h.2l-1.5,4.1Z"/><path d="M414.2,162.6H414l1.1-2.7a4.3,4.3,0,0,1,.1-.5c0-.3,0-.5-.2-.6l-.6-.2-1.1.3a3.9,3.9,0,0,0-.8,1l-1,2.6h-.2l1.6-4.1h.2l-.4.9.9-.7a1.5,1.5,0,0,1,.9-.2.8.8,0,0,1,.7.3c.2.1.2.4.2.7a2.7,2.7,0,0,1,.8-.7l1-.2a.8.8,0,0,1,.7.3.8.8,0,0,1,.2.7c0,.2-.1.4-.1.6l-1,2.7h-.2l1-2.7c0-.2.1-.3.1-.5s0-.5-.1-.6a.6.6,0,0,0-.6-.3l-.8.2-.7.4a2.1,2.1,0,0,0-.4.6Z"/><path d="M421.1,163h-.2l1-2.8a.7.7,0,0,0,.1-.5.4.4,0,0,0-.1-.5.6.6,0,0,0-.6-.3,1.7,1.7,0,0,0-1.1.4,2.2,2.2,0,0,0-.8.9l-1,2.6h-.2l1.5-4.1h.2l-.3,1a1.8,1.8,0,0,1,.8-.7,1.9,1.9,0,0,1,1-.3.9.9,0,0,1,.7.3,1,1,0,0,1,.1.8,2.8,2.8,0,0,1,.9-.7,1.2,1.2,0,0,1,1-.2.9.9,0,0,1,.7.3,1.2,1.2,0,0,1,.2.7c-.1.2-.1.4-.2.6l-1,2.6h-.2l1-2.6c.1-.2.1-.4.2-.6a.7.7,0,0,0-.2-.6l-.6-.2h-.7l-.7.4-.5.6Z"/><path d="M426.4,162.9h.1l2.8-3.7h.2l-3.6,4.7a2.9,2.9,0,0,1-.7.8.9.9,0,0,1-.7.1h-.3v-.2h.2c.4.1.7-.1,1-.5l.2-.2.5-.7V159h.3Z"/><path d="M432,160.3a3.1,3.1,0,0,1,.9-.7,1.5,1.5,0,0,1,.9-.2.9.9,0,0,1,.7.3,1.2,1.2,0,0,1,.2.7c-.1.2-.1.4-.2.6l-1,2.6h-.2l1-2.6a1.1,1.1,0,0,0,.1-.5.8.8,0,0,0-.1-.7l-.6-.2a1.9,1.9,0,0,0-1,.3,2.8,2.8,0,0,0-.9,1l-1,2.6h-.2l1.5-4.1h.3Z"/><path d="M435.1,163.7h-.2l1.5-4.1h.2Zm1.7-5.4c0-.1,0-.1.1-.1h.3v.2h-.3Z"/><path d="M438,163.9l-.7-.2a.7.7,0,0,1-.4-.6l-.3.7h-.2l2.2-5.9h.2l-.9,2.4.8-.6h.8l.7.2.3.6a2.8,2.8,0,0,1-.1.9c0,.1-.1.3-.1.4v.3a5,5,0,0,1-1,1.4A1.5,1.5,0,0,1,438,163.9Zm2.1-2.1v-.4a2.2,2.2,0,0,0,.1-.8.5.5,0,0,0-.3-.5l-.5-.2a1.6,1.6,0,0,0-1,.2,2,2,0,0,0-.8.8l-.7,1.8a1.1,1.1,0,0,0,.3.8l.7.2a1.5,1.5,0,0,0,1.2-.4,3.7,3.7,0,0,0,.8-1.4Z"/><path d="M442,160.9a3.2,3.2,0,0,1,.9-.8l.9-.2a.9.9,0,0,1,.7.3,1.4,1.4,0,0,1,.2.7c-.1.2-.1.4-.2.6l-1,2.6h-.2l1-2.6.2-.5a.8.8,0,0,0-.2-.7l-.6-.2a1.4,1.4,0,0,0-1,.4,2,2,0,0,0-.9.9l-1,2.6h-.2l2.2-5.8h.2Z"/><path d="M394.2,171.2l-.8-.4a1.6,1.6,0,0,1-.4-.7,4.1,4.1,0,0,1,.1-1.1v-.2a2.7,2.7,0,0,1,.6-1l.9-.7a1.5,1.5,0,0,1,.9-.2,1.1,1.1,0,0,1,.9.5,1.6,1.6,0,0,1,.1,1.2h-.1v.3l-3-.2v.2c0,.3-.1.5-.1.7a1.2,1.2,0,0,0,.3.9c.1.2.4.3.7.4a2.4,2.4,0,0,0,1.4-.5h.1A2,2,0,0,1,394.2,171.2Zm1.4-4.1a1.9,1.9,0,0,0-1.2.4,2.4,2.4,0,0,0-.9,1.1l2.8.2h0a1.5,1.5,0,0,0-.1-1.3A.7.7,0,0,0,395.6,167.1Z"/><path d="M399.3,171.4l.2-.7-.8.5-.8.2-.8-.3a1.1,1.1,0,0,1-.1-.8,1.3,1.3,0,0,1,.1-.6l1-2.6h.2l-1,2.6a1.1,1.1,0,0,0-.1.5.8.8,0,0,0,.1.7l.6.3a2.3,2.3,0,0,0,1.1-.3,1.9,1.9,0,0,0,.7-.8l1.1-2.9h.2l-1.5,4.1Z"/><path d="M401,171.4h-.2l1.5-4.1h.2Zm1.7-5.4h.4c.1.1.1.1,0,.2h-.4Z"/><path d="M405.3,170.6c.1-.4-.1-.8-.9-1l-.4-.2a.8.8,0,0,1-.6-1,1.8,1.8,0,0,1,.7-.8l1-.2a.9.9,0,0,1,1.1,1.2H406a.8.8,0,0,0-.1-.7,1.1,1.1,0,0,0-.8-.3,1.5,1.5,0,0,0-.9.2.9.9,0,0,0-.6.6q-.2.6.6.9l.5.2h.2a1.1,1.1,0,0,1,.6,1.2,1.6,1.6,0,0,1-.7.7,2,2,0,0,1-1.1.3,2.3,2.3,0,0,1-1-.4.8.8,0,0,1-.1-.8h.2a.6.6,0,0,0,.1.7l.8.3a1.7,1.7,0,0,0,1-.3A.9.9,0,0,0,405.3,170.6Z"/><path d="M409.1,171.9h-.2l1-2.8a4.3,4.3,0,0,0,.1-.5,1.3,1.3,0,0,0-.1-.6l-.6-.2a1.5,1.5,0,0,0-1.1.4,2.6,2.6,0,0,0-.9.9l-.9,2.6h-.3l1.6-4.1h.2l-.4,1,.9-.8.9-.2a1,1,0,0,1,.8.3.8.8,0,0,1,.1.7,2,2,0,0,1,.9-.6,1,1,0,0,1,.9-.2,1,1,0,0,1,.7.2.8.8,0,0,1,.2.8,1.3,1.3,0,0,1-.1.6l-1,2.6h-.2l1-2.7a4.3,4.3,0,0,0,.1-.5.7.7,0,0,0-.1-.6l-.6-.2h-.8l-.7.4a2.1,2.1,0,0,0-.4.6Z"/><path d="M413.5,169.9l.6-1a2.8,2.8,0,0,1,.9-.7,1.2,1.2,0,0,1,1-.2l.7.2a.9.9,0,0,1,.4.6,1.9,1.9,0,0,1,.1.8,2.5,2.5,0,0,1-.2.7,2.7,2.7,0,0,1-.6,1,2.2,2.2,0,0,1-.9.7,1.6,1.6,0,0,1-1,.2l-.7-.2a.9.9,0,0,1-.4-.6,1.1,1.1,0,0,1,0-.8A2,2,0,0,1,413.5,169.9Zm.1.9a1,1,0,0,0,.2.9,1,1,0,0,0,.8.3,2,2,0,0,0,1.1-.3,5.2,5.2,0,0,0,1-1.1,2.7,2.7,0,0,0,.3-1.2,1.6,1.6,0,0,0-.3-.9.8.8,0,0,0-.7-.3,1.8,1.8,0,0,0-1.2.3,3.1,3.1,0,0,0-.9,1.1A2.7,2.7,0,0,0,413.6,170.8Z"/><path d="M417.9,170.2a2.4,2.4,0,0,1,.6-1.1,1.8,1.8,0,0,1,.8-.7,1.2,1.2,0,0,1,.8-.2l.8.2a.9.9,0,0,1,.3.7l.9-2.5h.2l-2.1,5.8H420l.2-.6-.7.5a1.4,1.4,0,0,1-.9.1l-.7-.2a.8.8,0,0,1-.2-.6,1.4,1.4,0,0,1,0-.9Zm0,.5c0,.3-.1.5-.1.8s.1.4.3.5l.5.2a1.2,1.2,0,0,0,1-.2,1.3,1.3,0,0,0,.7-.6l.8-1.9a1.1,1.1,0,0,0-.3-.8.8.8,0,0,0-.7-.3l-.9.3-.8.8A6.1,6.1,0,0,0,417.9,170.7Z"/><path d="M421.4,172.3h.4c.1,0,.1.1.1.2h-.4Z"/><path class="cls-13" d="M478.3,94.1l.4-1.4-4.7-.3-.4,1.4-.7,2.6,4.7.3Zm-4.5,1.7.5-2,3.3.2-.5,2Z"/><polygon class="cls-13" points="482.5 96.6 483.9 95.6 484.7 96.7 485.3 96.3 484.5 95.1 485.8 94.1 485.5 93.5 484.1 94.6 483.3 93.4 482.7 93.9 483.5 95 482.1 96.1 482.5 96.6"/><polygon class="cls-13" points="469.4 93.8 465.5 93.6 465.4 94.2 469.3 94.5 469.4 93.8"/><path class="cls-13" d="M432.8,203.4l2.2-3.1h.8l-3,4.1h-.6v-4.3h.7Z"/><path class="cls-13" d="M436.9,204.8a1.5,1.5,0,0,1-1.2-.7,1.6,1.6,0,0,1-.1-1.5h0a4.5,4.5,0,0,1,.6-1.2,2.3,2.3,0,0,1,1-.7,1.8,1.8,0,0,1,1-.2,1.9,1.9,0,0,1,1.1.5,2.2,2.2,0,0,1,.2,1.2c0,.2-.1.3-.1.5v.3l-3-.2a1.7,1.7,0,0,0,0,1,.9.9,0,0,0,.8.5,1.8,1.8,0,0,0,1.3-.5l.4.4a2.6,2.6,0,0,1-.9.5A1.6,1.6,0,0,1,436.9,204.8Zm1.2-3.8-.9.2a3.5,3.5,0,0,0-.7.9l2.2.2h0a1.1,1.1,0,0,0,0-.8A.7.7,0,0,0,438.1,201Z"/><path class="cls-13" d="M442.9,201.5h-.4a1.4,1.4,0,0,0-1.2.6l-1.2,2.9h-.7l1.6-4.2h.7l-.2.5a1.6,1.6,0,0,1,1.2-.5h.4Z"/><path class="cls-13" d="M446.6,201.1l-.2.4a2.1,2.1,0,0,1,1.5-.4l.7.2a.7.7,0,0,1,.3.6,1.8,1.8,0,0,1,1.6-.6,1.1,1.1,0,0,1,1,.5,2,2,0,0,1,0,1.1l-1,2.8h-.8l1-2.8a.4.4,0,0,0,.1-.3.5.5,0,0,0-.6-.6.8.8,0,0,0-.8.2.9.9,0,0,0-.6.6l-1,2.8H447l1-2.7a.8.8,0,0,0,0-.7.5.5,0,0,0-.5-.3,1.4,1.4,0,0,0-1.3.5l-1.1,3.1h-.8l1.6-4.2Z"/><path class="cls-13" d="M454.4,205.9v-.4a2.1,2.1,0,0,1-1.5.4,1,1,0,0,1-.9-.4c-.2-.2-.2-.5-.1-.9a1.6,1.6,0,0,1,.8-1,3.8,3.8,0,0,1,1.6-.3h.8v-.3a.6.6,0,0,0-.6-.9.9.9,0,0,0-.7.1l-.5.5h-.7c0-.2.2-.4.4-.6l.8-.4h.9a1.2,1.2,0,0,1,1.2,1.5l-.8,2.1v.7h-.8Zm-1.1-.6h.7l.7-.4.3-.9h-.6l-1.1.2a.6.6,0,0,0-.5.6.5.5,0,0,0,0,.5Z"/><path class="cls-13" d="M459.2,205.1c.1-.3,0-.5-.4-.6l-.8-.3a1,1,0,0,1-.7-1.2,1.3,1.3,0,0,1,.7-.8,1.9,1.9,0,0,1,1.3-.3,1.2,1.2,0,0,1,1,.5c.3.2.3.5.3.9h-.8a.7.7,0,0,0-.1-.6l-.6-.2h-.7a1,1,0,0,0-.4.5.5.5,0,0,0,.4.5l.4.2a1.9,1.9,0,0,1,1,.5.8.8,0,0,1,.1.8,1,1,0,0,1-.4.7l-.7.4h-.9a1.6,1.6,0,0,1-1.1-.5,1,1,0,0,1-.3-1h.8a.6.6,0,0,0,.1.6.6.6,0,0,0,.6.3h.8A1,1,0,0,0,459.2,205.1Z"/><path class="cls-13" d="M461.2,205.6h.3c.1.1.1.2.1.4l-.2.3H461l-.3-.2a.4.4,0,0,1-.1-.3l.2-.3Z"/><path class="cls-13" d="M463.4,205.7l.3.2a.4.4,0,0,1,.1.3c0,.1-.1.2-.2.3h-.7c0-.1-.1-.2,0-.3s.1-.3.2-.3Z"/><path class="cls-13" d="M465.6,205.9h.4c0,.1.1.2,0,.4l-.2.3h-.3c-.2,0-.3-.1-.3-.2s-.1-.1-.1-.3.1-.2.2-.3Z"/><path class="cls-13" d="M405.3,118.1l2.6-11.2,4.1.2a5,5,0,0,1,3.2,1,2.2,2.2,0,0,1,.6,2.3,3.5,3.5,0,0,1-.7,1.5,2.8,2.8,0,0,1-1.5.8,1.8,1.8,0,0,1,1.2,1,1.9,1.9,0,0,1,.1,1.5,3.5,3.5,0,0,1-1.6,2.4,5.2,5.2,0,0,1-3.4.7Zm3.9-4.6-.7,2.7h1.8a1.8,1.8,0,0,0,1.3-.2,1.7,1.7,0,0,0,.6-1c.2-.9-.2-1.4-1.1-1.4Zm.4-1.8H411a2.6,2.6,0,0,0,1.4-.3,1.5,1.5,0,0,0,.6-.9,1,1,0,0,0-.2-1c-.2-.3-.6-.4-1.3-.4h-1.3Z"/><path class="cls-13" d="M418.9,116.7l4.8.2-.5,2.1-7.5-.4,2.6-11.2,2.8.2Z"/><path class="cls-13" d="M434.8,114.1a7,7,0,0,1-1.3,2.9,6.7,6.7,0,0,1-2.2,1.9,5.2,5.2,0,0,1-2.7.5,4.1,4.1,0,0,1-2.5-.8,3.6,3.6,0,0,1-1.3-1.9,7.1,7.1,0,0,1,0-2.9v-.6a8.6,8.6,0,0,1,1.3-2.9,6.3,6.3,0,0,1,2.2-1.8,5.7,5.7,0,0,1,2.8-.6,4.9,4.9,0,0,1,2.5.8,3.9,3.9,0,0,1,1.3,2,7.1,7.1,0,0,1,0,2.9Zm-2.7-.6a4.3,4.3,0,0,0,.1-2.5,1.8,1.8,0,0,0-1.5-1c-1.3,0-2.3.9-2.9,3l-.2.8a5.2,5.2,0,0,0,0,2.5,1.4,1.4,0,0,0,1.4,1,2.5,2.5,0,0,0,1.9-.8A4.8,4.8,0,0,0,432,114Z"/><path class="cls-13" d="M444.7,118.7a8.2,8.2,0,0,1-2.1,1,12.7,12.7,0,0,1-2.8.3,4.1,4.1,0,0,1-3.3-1.6,4.7,4.7,0,0,1-.6-3.8l.3-.9a6.9,6.9,0,0,1,1.2-2.9,5.5,5.5,0,0,1,2.2-1.8,4.9,4.9,0,0,1,2.7-.5,4,4,0,0,1,3.1,1.1,3.4,3.4,0,0,1,.7,2.9h-2.6a2.4,2.4,0,0,0-.3-1.4,2.2,2.2,0,0,0-1.3-.5,2.5,2.5,0,0,0-1.8.8,5.3,5.3,0,0,0-1.1,2.4l-.2.7a3.8,3.8,0,0,0,0,2.6,1.7,1.7,0,0,0,1.7.9,3.1,3.1,0,0,0,1.7-.4l.4-1.7h-1.9l.4-1.9,4.7.3Z"/></g></g><g id="pantalla_p" data-name="pantalla p"><path id="sombra-4" data-name="sombra" class="cls-16" d="M339.9,245.9l-136.1-12a8,8,0,0,1-7.1-9.9L228,91.4a8,8,0,0,1,8.2-6.2l134.4,2.2a8.1,8.1,0,0,1,7.6,9.7L348.5,239.5A8.2,8.2,0,0,1,339.9,245.9Z"/><path id="sombra_2" data-name="sombra 2" class="cls-15" d="M166.5,228.9l-58-4a8,8,0,0,1-7.1-9.9L132.7,82.3a8,8,0,0,1,8.2-6.1L189.2,70a8.1,8.1,0,0,1,7.5,9.7Z"/><g id="pantalla_p-2" data-name="pantalla p"><path class="cls-12" d="M336.4,240.6l-230.9-20a8.2,8.2,0,0,1-7.3-10.1L130.8,74.6a8.2,8.2,0,0,1,8.4-6.3l228.6,10a8.2,8.2,0,0,1,7.7,9.9L345.2,234.1A8.3,8.3,0,0,1,336.4,240.6Z"/><path class="cls-18" d="M336.4,240.6l-230.9-20a8.2,8.2,0,0,1-7.3-10.1L130.8,74.6a8.2,8.2,0,0,1,8.4-6.3l228.6,10a8.2,8.2,0,0,1,7.7,9.9L345.2,234.1A8.3,8.3,0,0,1,336.4,240.6Z"/><text class="cls-19" transform="matrix(1.04, 0.07, -0.29, 0.96, 144.76, 122)">tu</text><text class="cls-19" transform="matrix(1.04, 0.07, -0.29, 0.96, 136.24, 149.97)">sitio</text><text class="cls-19" transform="matrix(1.04, 0.07, -0.29, 0.96, 133.49, 176.97)">web</text><text class="cls-20" transform="matrix(0.96, 0.04, -0.19, 0.98, 243.38, 92.36)">se<tspan class="cls-21" x="7.2" y="0">r</tspan><tspan class="cls-22" x="9.6" y="0">vicios</tspan></text><text class="cls-20" transform="matrix(0.96, 0.04, -0.19, 0.98, 285.85, 94.16)">blog</text><text class="cls-20" transform="matrix(0.96, 0.04, -0.19, 0.98, 309.55, 95.16)">testimonios</text><ellipse class="cls-16" cx="281.4" cy="164.9" rx="60.1" ry="57.2" transform="translate(-35.2 243.3) rotate(-44.3)"/><path class="cls-12" d="M331.2,150.7a1.2,1.2,0,0,0-1-.5l-82.5-8.6h-.4a1.9,1.9,0,0,0-1.1.7,1.1,1.1,0,0,0-.1,1.4l13.6,16.7-27.2,24.3a1.2,1.2,0,0,0-.5,1.4.9.9,0,0,0,.9.5h.5l25.3-8.7-1.3,7.3c-.1.3,0,.5.3.7h.6l69-31.1.3-.2,1.9-.7a3.2,3.2,0,0,0,1.9-1.9A1.6,1.6,0,0,0,331.2,150.7Zm-96.8,34.1L258.8,163h.1l68.4-9.9Zm26.3-23.2,1.1-1,.3-.3a.7.7,0,0,0-.1-.5l-2.6-2.6,56.9-3.6Zm68.4-10-70.6,4.6-10.7-13.1Zm-14.2,7.2L259.1,184l1.2-6.6Z"/></g></g><g id="coment1"><path class="cls-12" d="M622.7,184.4l-84.1-1.9a6.4,6.4,0,0,1-6.1-8.3l8-25.6a6.3,6.3,0,0,1,6.1-4.5l82.2,1.2a6.3,6.3,0,0,1,6.2,7.8l-6,26.3A6.3,6.3,0,0,1,622.7,184.4Z"/><path class="cls-23" d="M622.7,184.4l-84.1-1.9a6.4,6.4,0,0,1-6.1-8.3l8-25.6a6.3,6.3,0,0,1,6.1-4.5l82.2,1.2a6.3,6.3,0,0,1,6.2,7.8l-6,26.3A6.3,6.3,0,0,1,622.7,184.4Z"/><ellipse class="cls-13" cx="550.4" cy="161.7" rx="10.4" ry="8.9" transform="translate(23.3 388.1) rotate(-39.6)"/><text class="cls-24" transform="matrix(1, 0.02, -0.17, 0.99, 544.94, 165.46)">A</text><text class="cls-25" transform="matrix(1, 0.02, -0.27, 0.96, 565.67, 160.19)">Lo<tspan class="cls-26" x="6.5" y="0">r</tspan><tspan x="8.5" y="0">em ipsum dolor sit </tspan><tspan x="0" y="7.5">amet, consectetuer </tspan></text></g><g id="coment2"><path class="cls-12" d="M633.2,235.7l-84.1-4a6.7,6.7,0,0,1-6.1-8.5l8-25.3a6.2,6.2,0,0,1,6.1-4.4l82.2,3.3a6.6,6.6,0,0,1,6.3,8l-6,26.1A6.4,6.4,0,0,1,633.2,235.7Z"/><path class="cls-23" d="M633.2,235.7l-84.1-4a6.7,6.7,0,0,1-6.1-8.5l8-25.3a6.2,6.2,0,0,1,6.1-4.4l82.2,3.3a6.6,6.6,0,0,1,6.3,8l-6,26.1A6.4,6.4,0,0,1,633.2,235.7Z"/><ellipse class="cls-16" cx="561" cy="211.1" rx="10.2" ry="9.1" transform="translate(-12.1 386.9) rotate(-37.7)"/><text class="cls-27" transform="matrix(1, 0.05, -0.17, 0.99, 555.46, 214.8)">B</text><text class="cls-28" transform="matrix(1.01, 0.05, -0.27, 0.96, 575.26, 211.21)">Lo<tspan class="cls-29" x="6.5" y="0">r</tspan><tspan x="8.5" y="0">em ipsum dolor sit </tspan><tspan x="0" y="7.5">amet, consectetuer </tspan></text></g><g id="coment3"><path class="cls-12" d="M594.3,282.4l-84.1-4.1a6.6,6.6,0,0,1-6.1-8.4l8-25.4a6.3,6.3,0,0,1,6.1-4.4l82.2,3.3a6.6,6.6,0,0,1,6.3,8l-6,26.1A6.3,6.3,0,0,1,594.3,282.4Z"/><path class="cls-23" d="M594.3,282.4l-84.1-4.1a6.6,6.6,0,0,1-6.1-8.4l8-25.4a6.3,6.3,0,0,1,6.1-4.4l82.2,3.3a6.6,6.6,0,0,1,6.3,8l-6,26.1A6.3,6.3,0,0,1,594.3,282.4Z"/><ellipse class="cls-10" cx="522.1" cy="257.8" rx="10.2" ry="9.1" transform="translate(-48.7 372.8) rotate(-37.7)"/><text class="cls-27" transform="matrix(1, 0.05, -0.17, 0.99, 516.56, 261.46)">C</text><text class="cls-28" transform="matrix(1.01, 0.05, -0.27, 0.96, 536.12, 257.27)">Lo<tspan class="cls-29" x="6.5" y="0">r</tspan><tspan x="8.5" y="0">em ipsum dolor sit </tspan><tspan x="0" y="7.5">amet, consectetuer </tspan></text></g></g></g></svg>