<svg xmlns="http://www.w3.org/2000/svg" viewBox="0 0 404.1 388.9"><defs><style>.cls-1{fill:#eee;}.cls-2{fill:#e34;}.cls-3{fill:#fff;}.cls-4{fill:#222;}.cls-5{fill:#fdd;}.cls-6{fill:#faa;}.cls-7{fill:#ababab;}</style></defs><g id="Capa_2" data-name="Capa 2"><g id="Layer_1" data-name="Layer 1"><path class="cls-1" d="M7.8,194.8C-8.7,44.2,35.3,68.3,210.6,12.6S385.8,97.2,400.3,202.3s-4.7,146.1-193.6,179.2C30.4,412.4,24.3,345.3,7.8,194.8Z"/><path class="cls-2" d="M300.5,79.3H289.7a1.1,1.1,0,0,1-1.1-1.1V69.4a1.1,1.1,0,0,1,1.1-1.2h10.8a1.2,1.2,0,0,1,1.2,1.2v8.8A1.1,1.1,0,0,1,300.5,79.3ZM290.9,77h8.5V70.5h-8.5Z"/><line class="cls-3" x1="310.2" y1="69.4" x2="321" y2="78.2"/><path class="cls-2" d="M321,79.3l-.7-.2-10.8-8.8a1.2,1.2,0,0,1-.2-1.7,1.2,1.2,0,0,1,1.7-.1l10.8,8.8a1.1,1.1,0,0,1,.1,1.6A1,1,0,0,1,321,79.3Z"/><line class="cls-3" x1="310.2" y1="78.2" x2="321" y2="69.4"/><path class="cls-2" d="M310.2,79.3a1.2,1.2,0,0,1-.9-.4,1.1,1.1,0,0,1,.2-1.6l10.8-8.8a1,1,0,0,1,1.6.1,1.2,1.2,0,0,1-.1,1.7L311,79.1Z"/><line class="cls-3" x1="269.2" y1="73.8" x2="280" y2="73.8"/><path class="cls-2" d="M280,74.9H269.2a1.2,1.2,0,0,1-1.2-1.1,1.2,1.2,0,0,1,1.2-1.2H280a1.2,1.2,0,0,1,1.2,1.2A1.1,1.1,0,0,1,280,74.9Z"/><circle class="cls-3" cx="15.6" cy="184.9" r="14.5"/><path class="cls-4" d="M15.6,200.5a15.6,15.6,0,1,1,15.7-15.6A15.6,15.6,0,0,1,15.6,200.5Zm0-29A13.4,13.4,0,1,0,29,184.9,13.5,13.5,0,0,0,15.6,171.5Z"/><polygon class="cls-2" points="6.5 183.5 10.8 180.3 15.5 185.1 31.5 173.1 34.4 177.1 15.7 191.3 6.5 183.5"/><rect class="cls-3" x="43.3" y="89.4" width="294.1" height="178.88" rx="11.2"/><rect class="cls-5" x="54.4" y="125.7" width="271.9" height="125.97"/><rect class="cls-5" x="54.4" y="256.6" width="271.9" height="11.26"/><path class="cls-2" d="M337.4,118.7H43.3c-.2,0-.4-.1-.4-.3V101.3A12.3,12.3,0,0,1,55.2,89H325.5a12.2,12.2,0,0,1,12.2,12.3v17.1A.3.3,0,0,1,337.4,118.7ZM43.7,118H337V101.3a11.5,11.5,0,0,0-11.5-11.5H55.2a11.4,11.4,0,0,0-11.5,11.5Z"/><path class="cls-2" d="M283.4,108.3H97.3a4.4,4.4,0,0,1-4.4-4.4,4.4,4.4,0,0,1,4.4-4.4H283.4a4.4,4.4,0,0,1,4.4,4.4A4.4,4.4,0,0,1,283.4,108.3ZM97.3,100.2a3.7,3.7,0,0,0,0,7.4H283.4a3.7,3.7,0,0,0,0-7.4Z"/><rect class="cls-6" x="65.4" y="135" width="49" height="10.4"/><rect class="cls-6" x="231.3" y="139" width="9.8" height="2.38"/><rect class="cls-6" x="246.8" y="139" width="9.8" height="2.38"/><rect class="cls-6" x="262.2" y="139" width="9.8" height="2.38"/><rect class="cls-6" x="277.7" y="139" width="9.8" height="2.38"/><path class="cls-4" d="M326.2,270.6H54.5A13.6,13.6,0,0,1,41,257.1V100.6A13.6,13.6,0,0,1,54.5,87.1H326.2a13.5,13.5,0,0,1,13.4,13.5V257.1A13.5,13.5,0,0,1,326.2,270.6ZM54.5,91.7a8.9,8.9,0,0,0-8.9,8.9V257.1a8.9,8.9,0,0,0,8.9,8.9H326.2a8.9,8.9,0,0,0,8.9-8.9V100.6a8.9,8.9,0,0,0-8.9-8.9Z"/><rect class="cls-3" x="288.1" y="149.5" width="100.9" height="178.88" rx="6.5"/><rect class="cls-5" x="286.8" y="169.5" width="100.9" height="68.29" rx="4"/><rect class="cls-5" x="286.8" y="241.6" width="100.9" height="68.29" rx="4"/><path class="cls-4" d="M382.5,330.7H294.7a8.8,8.8,0,0,1-8.8-8.8V156.1a8.7,8.7,0,0,1,8.8-8.8h87.8a8.7,8.7,0,0,1,8.8,8.8V321.9A8.8,8.8,0,0,1,382.5,330.7ZM294.7,151.8a4.3,4.3,0,0,0-4.3,4.3V321.9a4.3,4.3,0,0,0,4.3,4.3h87.8a4.3,4.3,0,0,0,4.3-4.3V156.1a4.3,4.3,0,0,0-4.3-4.3Z"/><path class="cls-4" d="M387,328.8H290.2a2.5,2.5,0,0,1-2.5-2.4V312.8a2.5,2.5,0,0,1,2.5-2.5H387a2.5,2.5,0,0,1,2.5,2.5v13.6A2.5,2.5,0,0,1,387,328.8Zm-96.8-17.7a1.7,1.7,0,0,0-1.6,1.7v13.6a1.6,1.6,0,0,0,1.6,1.6H387a1.6,1.6,0,0,0,1.6-1.6V312.8a1.7,1.7,0,0,0-1.6-1.7Z"/><rect class="cls-3" x="5.6" y="209.2" width="79.5" height="22.01" rx="11"/><path class="cls-6" d="M71.7,209.2h2.4a11,11,0,0,1,11,11v0a11,11,0,0,1-11,11H71.7a0,0,0,0,1,0,0v-22A0,0,0,0,1,71.7,209.2Z"/><path class="cls-2" d="M74.1,231.9H16.6a11.7,11.7,0,0,1,0-23.4H74.1a11.7,11.7,0,0,1,0,23.4Zm-57.5-22a10.3,10.3,0,1,0,0,20.6H74.1a10.3,10.3,0,1,0,0-20.6Z"/><rect class="cls-7" x="11.5" y="219.1" width="53.7" height="2.03"/><circle class="cls-3" cx="224" cy="270.6" r="14.5"/><path class="cls-4" d="M224,286.2a15.7,15.7,0,1,1,15.6-15.6A15.7,15.7,0,0,1,224,286.2Zm0-29a13.4,13.4,0,1,0,13.4,13.4A13.4,13.4,0,0,0,224,257.2Z"/><polygon class="cls-2" points="214.8 269.2 219.1 266 223.9 270.8 239.8 258.8 242.7 262.8 224 277 214.8 269.2"/><path class="cls-4" d="M388,167.1H289.8a.5.5,0,0,1-.4-.5.4.4,0,0,1,.4-.4H388a.4.4,0,0,1,.4.4A.5.5,0,0,1,388,167.1Z"/><rect class="cls-6" x="296.4" y="176.3" width="31.8" height="10.4"/><rect class="cls-6" x="370.5" y="176.3" width="6.4" height="1.63"/><rect class="cls-6" x="370.5" y="179.1" width="6.4" height="1.63"/><rect class="cls-6" x="370.5" y="181.8" width="6.4" height="1.63"/><path class="cls-4" d="M348,161.3H331.9a1.8,1.8,0,0,1-1.7-1.7,1.8,1.8,0,0,1,1.7-1.8H348a1.8,1.8,0,0,1,1.8,1.8A1.8,1.8,0,0,1,348,161.3Zm-16.1-3a1.2,1.2,0,0,0-1.2,1.3,1.2,1.2,0,0,0,1.2,1.2H348a1.2,1.2,0,0,0,1.3-1.2,1.3,1.3,0,0,0-1.3-1.3Z"/><path class="cls-3" d="M189.5,288.8H116.3V248a6,6,0,0,1,6-6.1h20.4a5.6,5.6,0,0,1,4.2,1.8l3.2,3.1h33a6.4,6.4,0,0,1,6.4,6.4Z"/><path class="cls-2" d="M189.5,289.8H116.3a1.1,1.1,0,0,1-1-1V248a7.1,7.1,0,0,1,7-7.1h20.4a6.8,6.8,0,0,1,4.9,2l2.9,2.9h32.6a7.4,7.4,0,0,1,7.4,7.4v35.6A1,1,0,0,1,189.5,289.8Zm-72.2-2h71.2V253.2a5.4,5.4,0,0,0-5.4-5.4h-33a.9.9,0,0,1-.7-.3l-3.2-3.1a4.7,4.7,0,0,0-3.5-1.5H122.3a5.1,5.1,0,0,0-5,5.1Z"/><path class="cls-3" d="M187.6,293H118.2a1.9,1.9,0,0,1-1.9-1.9v-35a5.1,5.1,0,0,1,5.1-5.1h63.1a5,5,0,0,1,5,5.1v35A1.8,1.8,0,0,1,187.6,293Z"/><path class="cls-2" d="M187.6,294H118.2a2.9,2.9,0,0,1-2.9-2.9v-35a6.1,6.1,0,0,1,6.1-6.1h63.1a6,6,0,0,1,6,6.1v35A2.9,2.9,0,0,1,187.6,294Zm-66.2-42a4.1,4.1,0,0,0-4.1,4.1v35a.9.9,0,0,0,.9.9h69.4a.9.9,0,0,0,.9-.9v-35a4,4,0,0,0-4-4.1Z"/><path class="cls-3" d="M154,303.4H80.7V262.5a6,6,0,0,1,6.1-6h20.3a6.3,6.3,0,0,1,4.3,1.7l3.1,3.2h33a6.4,6.4,0,0,1,6.5,6.4Z"/><path class="cls-2" d="M154,304.4H80.7a1.1,1.1,0,0,1-1-1V262.5a7.1,7.1,0,0,1,7.1-7h20.3a7.2,7.2,0,0,1,5,2l2.8,2.9h32.6a7.5,7.5,0,0,1,7.5,7.4v35.6A1.1,1.1,0,0,1,154,304.4Zm-72.3-2H153V267.8a5.5,5.5,0,0,0-5.5-5.4h-33l-.7-.3-3.1-3.2a5.2,5.2,0,0,0-3.6-1.4H86.8a5.1,5.1,0,0,0-5.1,5Z"/><path class="cls-3" d="M152.1,307.6H82.6a1.9,1.9,0,0,1-1.9-1.9V270.6a5.1,5.1,0,0,1,5.1-5h63.1a5.1,5.1,0,0,1,5.1,5v35.1A1.9,1.9,0,0,1,152.1,307.6Z"/><path class="cls-2" d="M152.1,308.6H82.6a2.9,2.9,0,0,1-2.9-2.9V270.6a6.1,6.1,0,0,1,6.1-6h63.1a6.1,6.1,0,0,1,6.1,6v35.1A2.9,2.9,0,0,1,152.1,308.6Zm-66.3-42a4.1,4.1,0,0,0-4.1,4v35.1a.9.9,0,0,0,.9.9h69.5a.9.9,0,0,0,.9-.9V270.6a4.1,4.1,0,0,0-4.1-4Z"/><path class="cls-3" d="M130.4,322.2H57.2V281.4a6,6,0,0,1,6-6H83.5a6.3,6.3,0,0,1,4.3,1.7l3.1,3.1h33a6.5,6.5,0,0,1,6.5,6.5Z"/><path class="cls-2" d="M130.4,323.2H57.2a.9.9,0,0,1-1-1V281.4a7,7,0,0,1,7-7H83.5a7.2,7.2,0,0,1,5,2l2.8,2.8h32.6a7.6,7.6,0,0,1,7.5,7.5v35.5A1,1,0,0,1,130.4,323.2Zm-72.2-2h71.2V286.7a5.5,5.5,0,0,0-5.5-5.5h-33a1.1,1.1,0,0,1-.7-.3l-3.1-3.1a5.2,5.2,0,0,0-3.6-1.4H63.2a5,5,0,0,0-5,5Z"/><path class="cls-3" d="M128.5,326.5H59.1a1.9,1.9,0,0,1-1.9-1.9V289.5a5,5,0,0,1,5-5h63.1a5,5,0,0,1,5.1,5v35.1A2,2,0,0,1,128.5,326.5Z"/><path class="cls-2" d="M128.5,327.5H59.1a2.9,2.9,0,0,1-2.9-2.9V289.5a6,6,0,0,1,6-6h63.1a6,6,0,0,1,6.1,6v35.1A2.9,2.9,0,0,1,128.5,327.5Zm-66.3-42a4,4,0,0,0-4,4v35.1a.9.9,0,0,0,.9.9h69.4a.9.9,0,0,0,.9-.9V289.5a4,4,0,0,0-4.1-4Z"/><circle class="cls-3" cx="364.3" cy="124.6" r="14.5"/><path class="cls-4" d="M364.3,140.2a15.7,15.7,0,1,1,15.6-15.6A15.6,15.6,0,0,1,364.3,140.2Zm0-29a13.4,13.4,0,1,0,13.4,13.4A13.4,13.4,0,0,0,364.3,111.2Z"/><polygon class="cls-2" points="355.1 123.2 359.4 120 364.2 124.7 380.1 112.7 383 116.8 364.3 130.9 355.1 123.2"/></g></g></svg>