<svg xmlns="http://www.w3.org/2000/svg" viewBox="0 0 650.4 431.6"><defs><style>.cls-1{fill:#eee;}.cls-2{fill:#fff;}.cls-3{fill:#555;}.cls-4{fill:#e34;}.cls-5{fill:none;}.cls-14,.cls-6{fill:#ababab;}.cls-7{fill:#9b9a9b;}.cls-8{fill:#212121;}.cls-9{fill:#222;}.cls-10{fill:#fdd;}.cls-11{fill:#323232;}.cls-12{fill:#faa;}.cls-13{opacity:0.61;}.cls-14{opacity:0.3;isolation:isolate;}.cls-15{fill:#c34;}.cls-16{fill:#fefefe;}.cls-17{fill:#f15c69;}.cls-18{fill:#022222;}</style></defs><g id="Capa_2" data-name="Capa 2"><g id="Capa_1-2" data-name="Capa 1"><g id="Capa_2-2" data-name="Capa 2"><g id="fondo"><g id="fondo-2"><path class="cls-1" d="M4,208.7C-8.6,125,8.2,90.3,60.1,69S199.5,40,335.9,11.9C467.4-15.7,536.5,7.6,579,51.8S636,161.1,646.7,217c14.8,69.3-15.4,104.8-72.5,129.6S432.3,385.4,329.9,411C201.3,444,134,435.7,87.2,397.8S17,292.4,4,208.7Z"/></g></g><g id="check"><g id="check5"><g id="cuadro"><path class="cls-2" d="M94.3,183.9h15.4V168.5H94.3Zm7.7-11.2a3.5,3.5,0,0,1,2.9,4.2,3.4,3.4,0,0,1-2.9,2.9,3.6,3.6,0,0,1-3-4.1A3.7,3.7,0,0,1,102,172.7Z"/><path class="cls-3" d="M92.5,166.8v18.9h18.9V166.8Zm17.2,17.1H94.3V168.5h15.4Z"/><circle class="cls-4" cx="102" cy="176.2" r="3.5"/></g><g id="numero"><path class="cls-5" d="M67.3,173.7a1.2,1.2,0,0,0-.8.4,5,5,0,0,0-.2,1.2V177a5.9,5.9,0,0,0,.2,1.3.7.7,0,0,0,.8.4.7.7,0,0,0,.7-.4,2.4,2.4,0,0,0,.3-1.2v-1.7a3.1,3.1,0,0,0-.3-1.3A.8.8,0,0,0,67.3,173.7Z"/><path class="cls-5" d="M55.9,173.7a.8.8,0,0,0-.7.4,2.7,2.7,0,0,0-.3,1.2V177a2.8,2.8,0,0,0,.3,1.3.8.8,0,0,0,1.1.3l.3-.3a2.4,2.4,0,0,0,.3-1.2v-1.7a3.1,3.1,0,0,0-.3-1.3A.8.8,0,0,0,55.9,173.7Z"/><path class="cls-5" d="M84.3,173.7a1,1,0,0,0-.7.4,5,5,0,0,0-.2,1.2V177a1.9,1.9,0,0,0,.2,1.3.7.7,0,0,0,.8.4.7.7,0,0,0,.7-.4,5,5,0,0,0,.2-1.2v-1.7a5.9,5.9,0,0,0-.2-1.3A1.2,1.2,0,0,0,84.3,173.7Z"/><polygon class="cls-2" points="48.2 173.7 48.2 174.9 49.8 174.4 49.8 179.8 51.2 179.8 51.2 172.7 51.1 172.7 48.2 173.7"/><path class="cls-2" d="M55.9,172.6a2.3,2.3,0,0,0-1.8.8,3,3,0,0,0-.6,2.2v1.3a2.9,2.9,0,0,0,.6,2.2,2.4,2.4,0,0,0,3.4.2c.1,0,.1-.1.2-.2a3.8,3.8,0,0,0,.6-2.3v-1.3a3.9,3.9,0,0,0-.6-2.1A2.3,2.3,0,0,0,55.9,172.6Zm1,4.5a2.4,2.4,0,0,1-.3,1.2.8.8,0,0,1-1.1.3l-.3-.3a2.8,2.8,0,0,1-.3-1.3v-1.7a2.7,2.7,0,0,1,.3-1.2.8.8,0,0,1,1.1-.3l.3.3a3.1,3.1,0,0,1,.3,1.3Z"/><polygon class="cls-2" points="59.6 173.7 59.6 174.9 61.2 174.4 61.2 179.8 62.6 179.8 62.6 172.7 62.5 172.7 59.6 173.7"/><path class="cls-2" d="M67.3,172.6a2.3,2.3,0,0,0-1.8.8,3,3,0,0,0-.6,2.2v1.3a2.9,2.9,0,0,0,.6,2.2,2.4,2.4,0,0,0,3.4.2c.1,0,.1-.1.2-.2a3.8,3.8,0,0,0,.6-2.3v-1.3a3.1,3.1,0,0,0-.7-2.1A2.1,2.1,0,0,0,67.3,172.6Zm1,4.5a2.4,2.4,0,0,1-.3,1.2.7.7,0,0,1-.7.4.7.7,0,0,1-.8-.4,5.9,5.9,0,0,1-.2-1.3v-1.7a5,5,0,0,1,.2-1.2,1.2,1.2,0,0,1,.8-.4.8.8,0,0,1,.7.4,3.1,3.1,0,0,1,.3,1.3Z"/><polygon class="cls-2" points="70.9 173.7 70.9 174.9 72.6 174.4 72.6 179.8 74 179.8 74 172.7 73.9 172.7 70.9 173.7"/><polygon class="cls-2" points="76.6 173.7 76.6 174.9 78.3 174.4 78.3 179.8 79.7 179.8 79.7 172.7 79.5 172.7 76.6 173.7"/><path class="cls-2" d="M84.3,172.6a2.1,2.1,0,0,0-1.7.8,3,3,0,0,0-.6,2.2v1.3a2.9,2.9,0,0,0,.6,2.2,2.3,2.3,0,0,0,1.8.8,2.1,2.1,0,0,0,1.7-.8,3.8,3.8,0,0,0,.6-2.3v-1.3a3.9,3.9,0,0,0-.6-2.1A2.3,2.3,0,0,0,84.3,172.6Zm1,4.5a5,5,0,0,1-.2,1.2.7.7,0,0,1-.7.4.7.7,0,0,1-.8-.4,1.9,1.9,0,0,1-.2-1.3v-1.7a5,5,0,0,1,.2-1.2,1,1,0,0,1,.7-.4,1.2,1.2,0,0,1,.8.4,5.9,5.9,0,0,1,.2,1.3Z"/></g></g><g id="check4"><path class="cls-2" d="M114.4,142.1h15.4V126.7H114.4Zm7.7-11.2a3.7,3.7,0,0,1,3.7,3.5,3.6,3.6,0,0,1-7.2.2v-.2a3.6,3.6,0,0,1,3.5-3.5Z"/><path class="cls-3" d="M112.7,125v18.9h18.9V125Zm17.1,17.1H114.4V126.7h15.4Z"/><path class="cls-4" d="M122.1,138a3.5,3.5,0,0,0,4.1-2.9,3.5,3.5,0,0,0-2.9-4.2h-1.2a3.6,3.6,0,0,0,0,7.1Z"/><g id="numero-2"><path class="cls-5" d="M76.6,132a.9.9,0,0,0-.7.3,1.7,1.7,0,0,0-.2,1.2v1.7a1.9,1.9,0,0,0,.2,1.3.7.7,0,0,0,.7.4.7.7,0,0,0,.8-.4,5,5,0,0,0,.2-1.2v-1.7a5,5,0,0,0-.2-1.2A.9.9,0,0,0,76.6,132Z"/><path class="cls-5" d="M88,132a.9.9,0,0,0-.7.3,2.7,2.7,0,0,0-.3,1.2v1.7a2.8,2.8,0,0,0,.3,1.3.7.7,0,0,0,.7.4.7.7,0,0,0,.8-.4,5,5,0,0,0,.2-1.2v-1.7a5,5,0,0,0-.2-1.2A.9.9,0,0,0,88,132Z"/><path class="cls-5" d="M105.1,132a1.1,1.1,0,0,0-.8.3,5,5,0,0,0-.2,1.2v1.7a5.9,5.9,0,0,0,.2,1.3.7.7,0,0,0,.8.4.7.7,0,0,0,.7-.4,2.4,2.4,0,0,0,.3-1.2v-1.7a2.7,2.7,0,0,0-.3-1.2A.7.7,0,0,0,105.1,132Z"/><polygon class="cls-2" points="68.9 132 68.9 133.1 70.6 132.6 70.6 138 72 138 72 130.9 71.8 130.9 68.9 132"/><path class="cls-2" d="M76.6,130.8a2.1,2.1,0,0,0-1.7.8,4.3,4.3,0,0,0-.6,2.2v1.3a2.9,2.9,0,0,0,.6,2.2,2.1,2.1,0,0,0,1.7.8,2.3,2.3,0,0,0,1.8-.8,4,4,0,0,0,.6-2.2v-1.3a3.5,3.5,0,0,0-.6-2.2A2.3,2.3,0,0,0,76.6,130.8Zm1,4.5a5,5,0,0,1-.2,1.2.7.7,0,0,1-.8.4.7.7,0,0,1-.7-.4,1.9,1.9,0,0,1-.2-1.3v-1.7a1.7,1.7,0,0,1,.2-1.2,1,1,0,0,1,1.5.1,5,5,0,0,1,.2,1.2Z"/><polygon class="cls-2" points="80.3 132 80.3 133.1 82 132.6 82 138 83.4 138 83.4 130.9 83.2 130.9 80.3 132"/><path class="cls-2" d="M88,130.8a2.3,2.3,0,0,0-1.8.8,4.3,4.3,0,0,0-.6,2.2v1.3a2.9,2.9,0,0,0,.7,2.2,2.1,2.1,0,0,0,1.7.8,2.3,2.3,0,0,0,1.8-.8,4,4,0,0,0,.6-2.2v-1.3a3.5,3.5,0,0,0-.6-2.2A2.3,2.3,0,0,0,88,130.8Zm1,4.5a5,5,0,0,1-.2,1.2.7.7,0,0,1-.8.4.7.7,0,0,1-.7-.4,2.8,2.8,0,0,1-.3-1.3v-1.7a2.7,2.7,0,0,1,.3-1.2,1,1,0,0,1,1.5.1,5,5,0,0,1,.2,1.2Z"/><polygon class="cls-2" points="91.7 132 91.7 133.1 93.3 132.6 93.3 138 94.7 138 94.7 130.9 94.6 130.9 91.7 132"/><polygon class="cls-2" points="97.4 132 97.4 133.1 99 132.6 99 138 100.4 138 100.4 130.9 100.3 130.9 97.4 132"/><path class="cls-2" d="M105.1,130.8a2.3,2.3,0,0,0-1.8.8,4.3,4.3,0,0,0-.6,2.2v1.3a2.9,2.9,0,0,0,.6,2.2,2.4,2.4,0,0,0,3.4.2l.2-.2a4,4,0,0,0,.6-2.2v-1.3a3.4,3.4,0,0,0-.7-2.2A2.1,2.1,0,0,0,105.1,130.8Zm1,4.5a2.4,2.4,0,0,1-.3,1.2.7.7,0,0,1-.7.4.7.7,0,0,1-.8-.4,5.9,5.9,0,0,1-.2-1.3v-1.7a5,5,0,0,1,.2-1.2,1.1,1.1,0,0,1,.8-.3.7.7,0,0,1,.7.4,2.7,2.7,0,0,1,.3,1.2Z"/></g></g><g id="check1"><g id="cuadro-2"><path class="cls-2" d="M499.4,122.3H484.2v15.2h15.2Zm-9.3,12.4L486,131l.3-.2-.6-.5,1.8-.9,2.3,2.2c2.5-2.6,3.3-3.9,7.2-5.9l.9,2.1h0l.3.7C494,130.1,493,131.5,490.1,134.7Z"/><path class="cls-4" d="M482.5,139.2h18.7V120.5H482.5Zm1.7-16.9h15.2v15.2H484.2Z"/><path class="cls-1" d="M489.8,134l-3.5-3.2-.3.2,4.1,3.7c2.9-3.2,3.9-4.6,8.1-6.1l-.3-.7C493.8,129.4,492.7,130.8,489.8,134Z"/><path d="M497.9,127.9h0l-.9-2.1c-3.9,2-4.7,3.3-7.2,5.9l-2.3-2.2-1.8.9.6.5,3.5,3.2C492.7,130.8,493.8,129.4,497.9,127.9Z"/></g><g id="numeros"><path class="cls-5" d="M514.3,128.7a.8.8,0,0,0-.7.4,2.7,2.7,0,0,0-.3,1.2V132a2.8,2.8,0,0,0,.3,1.3.7.7,0,0,0,.7.4.7.7,0,0,0,.8-.4,5,5,0,0,0,.2-1.2v-1.7a5.9,5.9,0,0,0-.2-1.3A1.2,1.2,0,0,0,514.3,128.7Z"/><path class="cls-5" d="M525.7,128.7a.8.8,0,0,0-.7.4,2.7,2.7,0,0,0-.3,1.2V132a5.9,5.9,0,0,0,.2,1.3.9.9,0,0,0,.8.4.7.7,0,0,0,.7-.4,2.7,2.7,0,0,0,.3-1.2v-1.7a3.1,3.1,0,0,0-.3-1.3A.8.8,0,0,0,525.7,128.7Z"/><path class="cls-5" d="M542.8,128.7a1.2,1.2,0,0,0-.8.4,5,5,0,0,0-.2,1.2V132a5.9,5.9,0,0,0,.2,1.3.7.7,0,0,0,.8.4.7.7,0,0,0,.7-.4,2.5,2.5,0,0,0,.2-1.2v-1.7a2,2,0,0,0-.2-1.3A1,1,0,0,0,542.8,128.7Z"/><polygon class="cls-2" points="506.6 128.7 506.6 129.9 508.3 129.3 508.3 134.7 509.7 134.7 509.7 127.7 509.5 127.7 506.6 128.7"/><path class="cls-2" d="M514.3,127.6a2.3,2.3,0,0,0-1.8.8,3,3,0,0,0-.6,2.2v1.3a2.9,2.9,0,0,0,.7,2.2,1.8,1.8,0,0,0,1.7.7,2.1,2.1,0,0,0,1.8-.7,4.6,4.6,0,0,0,.6-2.3v-1.3a3.9,3.9,0,0,0-.6-2.1A1.8,1.8,0,0,0,514.3,127.6Zm1,4.5a5,5,0,0,1-.2,1.2.7.7,0,0,1-.8.4.7.7,0,0,1-.7-.4,2.8,2.8,0,0,1-.3-1.3v-1.7a2.7,2.7,0,0,1,.3-1.2.8.8,0,0,1,.7-.4,1.2,1.2,0,0,1,.8.4,5.9,5.9,0,0,1,.2,1.3Z"/><polygon class="cls-2" points="518 128.7 518 129.9 519.6 129.3 519.6 134.7 521 134.7 521 127.7 520.9 127.7 518 128.7"/><path class="cls-2" d="M525.7,127.6a2.3,2.3,0,0,0-1.8.8,3,3,0,0,0-.6,2.2v1.3a4,4,0,0,0,.6,2.2,2.7,2.7,0,0,0,3.6,0,4.6,4.6,0,0,0,.6-2.3v-1.3a2.7,2.7,0,0,0-.7-2.1A1.7,1.7,0,0,0,525.7,127.6Zm1,4.5a2.7,2.7,0,0,1-.3,1.2.7.7,0,0,1-.7.4.9.9,0,0,1-.8-.4,5.9,5.9,0,0,1-.2-1.3v-1.7a2.7,2.7,0,0,1,.3-1.2.8.8,0,0,1,1.1-.3l.3.3a3.1,3.1,0,0,1,.3,1.3Z"/><polygon class="cls-2" points="529.3 128.7 529.3 129.9 531 129.3 531 134.7 532.4 134.7 532.4 127.7 532.3 127.7 529.3 128.7"/><polygon class="cls-2" points="535 128.7 535 129.9 536.7 129.3 536.7 134.7 538.1 134.7 538.1 127.7 538 127.7 535 128.7"/><path class="cls-2" d="M544.5,128.4a2.1,2.1,0,0,0-1.7-.8,2.3,2.3,0,0,0-1.8.8,3,3,0,0,0-.6,2.2v1.3a4,4,0,0,0,.6,2.2,2,2,0,0,0,1.8.7,2.2,2.2,0,0,0,1.7-.7,4.6,4.6,0,0,0,.6-2.3v-1.3A3.9,3.9,0,0,0,544.5,128.4Zm-.8,3.7a2.5,2.5,0,0,1-.2,1.2.7.7,0,0,1-.7.4.7.7,0,0,1-.8-.4,5.9,5.9,0,0,1-.2-1.3v-1.7a5,5,0,0,1,.2-1.2,1.2,1.2,0,0,1,.8-.4,1,1,0,0,1,.7.4,2,2,0,0,1,.2,1.3Z"/></g></g><g id="check2"><g id="cuadro-3"><path class="cls-2" d="M519.3,163.6H504.1v15.2h15.2Zm-9.2,12.7-4.1-3.7.4-.2-.6-.5,1.7-.9,2.4,2.2c2.4-2.6,3.2-3.9,7.1-5.9l1,2.1h-.1l.3.7c-4.1,1.6-5.2,3-8.1,6.2Z"/><path class="cls-4" d="M502.4,180.5h18.7V161.8H502.4Zm1.7-16.9h15.2v15.2H504.1Z"/><path class="cls-1" d="M509.9,175.6l-3.5-3.2-.4.2,4.1,3.7c2.9-3.2,4-4.6,8.1-6.1l-.3-.7C513.8,171,512.7,172.4,509.9,175.6Z"/><path d="M517.9,169.5h.1l-1-2.1c-3.9,2-4.7,3.3-7.1,5.9l-2.4-2.2-1.7.9.6.5,3.5,3.2C512.7,172.4,513.8,171,517.9,169.5Z"/></g><g id="numeros-2"><path class="cls-5" d="M533.7,169a.9.9,0,0,0-.8.4,2.5,2.5,0,0,0-.2,1.2v1.7a5.9,5.9,0,0,0,.2,1.3.7.7,0,0,0,.8.4.7.7,0,0,0,.7-.4,2.5,2.5,0,0,0,.2-1.2v-1.7a2,2,0,0,0-.2-1.3A.8.8,0,0,0,533.7,169Z"/><path class="cls-5" d="M545,169a.8.8,0,0,0-.7.4c-.2.2-.2.6-.2,1.2v1.7a1.9,1.9,0,0,0,.2,1.3.7.7,0,0,0,.7.4.7.7,0,0,0,.8-.4,5,5,0,0,0,.2-1.2v-1.7a5.9,5.9,0,0,0-.2-1.3A.9.9,0,0,0,545,169Z"/><path class="cls-5" d="M562.1,169a.7.7,0,0,0-.7.4,1.4,1.4,0,0,0-.3,1.2v1.7a2.8,2.8,0,0,0,.3,1.3.8.8,0,0,0,1.1.3l.3-.3a2.7,2.7,0,0,0,.3-1.2v-1.7a3.1,3.1,0,0,0-.3-1.3A.7.7,0,0,0,562.1,169Z"/><polygon class="cls-2" points="525.9 169 525.9 170.1 527.6 169.6 527.6 175 529 175 529 168 528.9 168 525.9 169"/><path class="cls-2" d="M533.7,167.9a2,2,0,0,0-1.8.7,4.6,4.6,0,0,0-.6,2.3v1.3a4,4,0,0,0,.6,2.2,2,2,0,0,0,1.8.7,1.7,1.7,0,0,0,1.7-.8,3.3,3.3,0,0,0,.6-2.2v-1.3a4.3,4.3,0,0,0-.6-2.2A2.2,2.2,0,0,0,533.7,167.9Zm.9,4.5a2.5,2.5,0,0,1-.2,1.2.7.7,0,0,1-.7.4.7.7,0,0,1-.8-.4,5.9,5.9,0,0,1-.2-1.3v-1.7a2.5,2.5,0,0,1,.2-1.2.9.9,0,0,1,.8-.4.8.8,0,0,1,.7.4,2,2,0,0,1,.2,1.3Z"/><polygon class="cls-2" points="537.3 169 537.3 170.1 539 169.6 539 175 540.4 175 540.4 168 540.2 168 537.3 169"/><path class="cls-2" d="M545,167.9a2.2,2.2,0,0,0-1.7.7,4.6,4.6,0,0,0-.6,2.3v1.3a4,4,0,0,0,.6,2.2,2.2,2.2,0,0,0,1.7.7,1.8,1.8,0,0,0,1.8-.8,3.3,3.3,0,0,0,.6-2.2v-1.3a4.3,4.3,0,0,0-.6-2.2A2.1,2.1,0,0,0,545,167.9Zm1,4.5a5,5,0,0,1-.2,1.2.7.7,0,0,1-.8.4.7.7,0,0,1-.7-.4,1.9,1.9,0,0,1-.2-1.3v-1.7c0-.6,0-1,.2-1.2a.8.8,0,0,1,.7-.4.9.9,0,0,1,.8.4,5.9,5.9,0,0,1,.2,1.3Z"/><polygon class="cls-2" points="548.7 169 548.7 170.1 550.4 169.6 550.4 175 551.8 175 551.8 168 551.6 168 548.7 169"/><polygon class="cls-2" points="554.4 169 554.4 170.1 556 169.6 556 175 557.4 175 557.4 168 557.3 168 554.4 169"/><path class="cls-2" d="M563.9,168.6a2.7,2.7,0,0,0-3.6,0,4.6,4.6,0,0,0-.6,2.3v1.3a4,4,0,0,0,.6,2.2,2.1,2.1,0,0,0,1.8.7,1.8,1.8,0,0,0,1.8-.8,3.3,3.3,0,0,0,.6-2.2v-1.3A4.3,4.3,0,0,0,563.9,168.6Zm-.8,3.8a2.7,2.7,0,0,1-.3,1.2.8.8,0,0,1-1.1.3l-.3-.3a2.8,2.8,0,0,1-.3-1.3v-1.7a1.4,1.4,0,0,1,.3-1.2.8.8,0,0,1,1.1-.3l.3.3a3.1,3.1,0,0,1,.3,1.3Z"/></g></g><g id="check3"><g id="cuadro-4"><path class="cls-2" d="M501.3,202.7H486.1v15.2h15.2Zm-9.1,13.1-4.1-3.7.4-.2-.6-.5,1.7-.9,2.4,2.2c2.4-2.6,3.2-3.9,7.1-5.9l1,2.1H500l.3.7c-4.1,1.6-5.2,3-8.1,6.2Z"/><path class="cls-4" d="M484.4,219.7h18.7V201H484.4Zm1.7-17h15.2v15.2H486.1Z"/><path class="cls-1" d="M492,215.1l-3.5-3.2-.4.2,4.1,3.7c2.9-3.2,4-4.6,8.1-6.1l-.3-.7C495.9,210.5,494.8,211.9,492,215.1Z"/><path d="M500,209h.1l-1-2.1c-3.9,2-4.7,3.3-7.1,5.9l-2.4-2.2-1.7.9.6.5,3.5,3.2C494.8,211.9,495.9,210.5,500,209Z"/></g><g id="numeros-3"><path class="cls-5" d="M515,208.4a.9.9,0,0,0-.7.3,2.7,2.7,0,0,0-.3,1.2v1.7a2.8,2.8,0,0,0,.3,1.3.7.7,0,0,0,.7.4.7.7,0,0,0,.8-.4,5,5,0,0,0,.2-1.2V210a5,5,0,0,0-.2-1.2A.9.9,0,0,0,515,208.4Z"/><path class="cls-5" d="M526.4,208.4a.9.9,0,0,0-.7.3,2.7,2.7,0,0,0-.3,1.2v1.7a2.8,2.8,0,0,0,.3,1.3.7.7,0,0,0,.7.4.7.7,0,0,0,.8-.4,5,5,0,0,0,.2-1.2V210a5,5,0,0,0-.2-1.2A.9.9,0,0,0,526.4,208.4Z"/><path class="cls-5" d="M543.5,208.4a1.1,1.1,0,0,0-.8.3,5,5,0,0,0-.2,1.2v1.7a5.9,5.9,0,0,0,.2,1.3.7.7,0,0,0,.8.4.7.7,0,0,0,.7-.4,2.4,2.4,0,0,0,.3-1.2V210a2.7,2.7,0,0,0-.3-1.2A.7.7,0,0,0,543.5,208.4Z"/><polygon class="cls-2" points="507.3 208.4 507.3 209.5 509 209 509 214.4 510.4 214.4 510.4 207.3 510.2 207.3 507.3 208.4"/><path class="cls-2" d="M515,207.2a2.1,2.1,0,0,0-1.7.8,3.4,3.4,0,0,0-.7,2.2v1.3a4.1,4.1,0,0,0,.7,2.2,2.1,2.1,0,0,0,1.7.8,2.3,2.3,0,0,0,1.8-.8,4,4,0,0,0,.6-2.2v-1.3a3.5,3.5,0,0,0-.6-2.2A2.3,2.3,0,0,0,515,207.2Zm1,4.5a5,5,0,0,1-.2,1.2.7.7,0,0,1-.8.4.7.7,0,0,1-.7-.4,2.8,2.8,0,0,1-.3-1.3v-1.7a2.7,2.7,0,0,1,.3-1.2,1,1,0,0,1,1.5.1,5,5,0,0,1,.2,1.2Z"/><polygon class="cls-2" points="518.7 208.4 518.7 209.5 520.4 209 520.4 214.4 521.8 214.4 521.8 207.3 521.6 207.3 518.7 208.4"/><path class="cls-2" d="M526.4,207.2a2.3,2.3,0,0,0-1.8.8,3,3,0,0,0-.6,2.2v1.3a2.9,2.9,0,0,0,.7,2.2,2.1,2.1,0,0,0,1.7.8,2.3,2.3,0,0,0,1.8-.8,4,4,0,0,0,.6-2.2v-1.3a3.5,3.5,0,0,0-.6-2.2A2.3,2.3,0,0,0,526.4,207.2Zm1,4.5a5,5,0,0,1-.2,1.2.7.7,0,0,1-.8.4.7.7,0,0,1-.7-.4,2.8,2.8,0,0,1-.3-1.3v-1.7a2.7,2.7,0,0,1,.3-1.2,1,1,0,0,1,1.5.1,5,5,0,0,1,.2,1.2Z"/><polygon class="cls-2" points="530.1 208.4 530.1 209.5 531.7 209 531.7 214.4 533.1 214.4 533.1 207.3 533 207.3 530.1 208.4"/><polygon class="cls-2" points="535.8 208.4 535.8 209.5 537.4 209 537.4 214.4 538.8 214.4 538.8 207.3 538.7 207.3 535.8 208.4"/><path class="cls-2" d="M545.2,208a2.1,2.1,0,0,0-1.7-.8,2.3,2.3,0,0,0-1.8.8,3,3,0,0,0-.6,2.2v1.3a2.9,2.9,0,0,0,.6,2.2,2.3,2.3,0,0,0,1.8.8,2.5,2.5,0,0,0,1.8-.8,4,4,0,0,0,.6-2.2v-1.3A4.4,4.4,0,0,0,545.2,208Zm-.7,3.7a2.4,2.4,0,0,1-.3,1.2.7.7,0,0,1-.7.4.7.7,0,0,1-.8-.4,5.9,5.9,0,0,1-.2-1.3v-1.7a5,5,0,0,1,.2-1.2,1.1,1.1,0,0,1,.8-.3.7.7,0,0,1,.7.4,2.7,2.7,0,0,1,.3,1.2Z"/></g></g><g id="check6"><g id="cuadros"><path class="cls-2" d="M112.5,223.6h15.4V208.2H112.5Zm7.7-11.2a3.6,3.6,0,0,1,3.6,3.4h0a3.6,3.6,0,0,1-4.2,3,3.7,3.7,0,0,1-2.9-3,3.5,3.5,0,0,1,3.5-3.5Z"/><path class="cls-3" d="M110.8,206.4v18.9h18.9V206.4Zm17.1,17.2H112.5V208.2h15.4Z"/><circle class="cls-4" cx="120.2" cy="215.9" r="3.5"/></g><g id="numeros-4"><path class="cls-5" d="M85.2,214.9a.7.7,0,0,0-.7.4,1.4,1.4,0,0,0-.3,1.2v1.7a2.8,2.8,0,0,0,.3,1.3.7.7,0,0,0,.7.4.9.9,0,0,0,.8-.4,5.9,5.9,0,0,0,.2-1.3v-1.6a5.9,5.9,0,0,0-.2-1.3A.9.9,0,0,0,85.2,214.9Z"/><path class="cls-5" d="M73.8,214.9a.8.8,0,0,0-.7.4c-.2.2-.2.6-.2,1.2v1.7a1.9,1.9,0,0,0,.2,1.3.7.7,0,0,0,.7.4.9.9,0,0,0,.8-.4,5.9,5.9,0,0,0,.2-1.3v-1.6a5.9,5.9,0,0,0-.2-1.3A.9.9,0,0,0,73.8,214.9Z"/><path class="cls-5" d="M102.3,214.9a.7.7,0,0,0-.7.4,1.4,1.4,0,0,0-.3,1.2v1.7a5.9,5.9,0,0,0,.2,1.3.9.9,0,0,0,.8.4.7.7,0,0,0,.7-.4,2.8,2.8,0,0,0,.3-1.3v-1.6a3.1,3.1,0,0,0-.3-1.3A.7.7,0,0,0,102.3,214.9Z"/><polygon class="cls-2" points="66.1 214.9 66.1 216 67.8 215.5 67.8 220.9 69.2 220.9 69.2 213.9 69 213.9 66.1 214.9"/><path class="cls-2" d="M73.8,213.8a2.2,2.2,0,0,0-1.7.7,3.2,3.2,0,0,0-.6,2.3v1.3a4,4,0,0,0,.6,2.2,2.2,2.2,0,0,0,1.7.7,1.8,1.8,0,0,0,1.8-.8,3.3,3.3,0,0,0,.6-2.2v-1.3a4.3,4.3,0,0,0-.6-2.2A2.1,2.1,0,0,0,73.8,213.8Zm1,4.4a5.9,5.9,0,0,1-.2,1.3.9.9,0,0,1-.8.4.7.7,0,0,1-.7-.4,1.9,1.9,0,0,1-.2-1.3v-1.7c0-.6,0-1,.2-1.2a.8.8,0,0,1,.7-.4.9.9,0,0,1,.8.4,5.9,5.9,0,0,1,.2,1.3Z"/><polygon class="cls-2" points="77.5 214.9 77.5 216 79.2 215.5 79.2 220.9 80.6 220.9 80.6 213.9 80.4 213.9 77.5 214.9"/><path class="cls-2" d="M85.2,213.8a2.4,2.4,0,0,0-1.8.7,3.2,3.2,0,0,0-.6,2.3v1.3a3.4,3.4,0,0,0,.7,2.2,2.2,2.2,0,0,0,1.7.7,1.8,1.8,0,0,0,1.8-.8,3.3,3.3,0,0,0,.6-2.2v-1.3a4.3,4.3,0,0,0-.6-2.2A2.1,2.1,0,0,0,85.2,213.8Zm1,4.4a5.9,5.9,0,0,1-.2,1.3.9.9,0,0,1-.8.4.7.7,0,0,1-.7-.4,2.8,2.8,0,0,1-.3-1.3v-1.7a1.4,1.4,0,0,1,.3-1.2.7.7,0,0,1,.7-.4.9.9,0,0,1,.8.4,5.9,5.9,0,0,1,.2,1.3Z"/><polygon class="cls-2" points="88.9 214.9 88.9 216 90.5 215.5 90.5 220.9 91.9 220.9 91.9 213.9 91.8 213.9 88.9 214.9"/><polygon class="cls-2" points="94.6 214.9 94.6 216 96.2 215.5 96.2 220.9 97.6 220.9 97.6 213.9 97.5 213.9 94.6 214.9"/><path class="cls-2" d="M102.3,213.8a2,2,0,0,0-1.8.7,3.2,3.2,0,0,0-.6,2.3v1.3a4,4,0,0,0,.6,2.2,2,2,0,0,0,1.8.7,1.8,1.8,0,0,0,1.8-.8,3.3,3.3,0,0,0,.6-2.2v-1.3a3.4,3.4,0,0,0-.7-2.2A2.2,2.2,0,0,0,102.3,213.8Zm1,4.4a2.8,2.8,0,0,1-.3,1.3.7.7,0,0,1-.7.4.9.9,0,0,1-.8-.4,5.9,5.9,0,0,1-.2-1.3v-1.7a1.4,1.4,0,0,1,.3-1.2.8.8,0,0,1,1.1-.3l.3.3a3.1,3.1,0,0,1,.3,1.3Z"/></g></g></g><g id="laptop"><g id="laptop-2"><path class="cls-5" d="M149.5,271.3c-.1-1.1-.2-2.2-.3-3.5C149.3,269.1,149.4,270.2,149.5,271.3Z"/><path class="cls-5" d="M452.1,33.7,374.6,35s-21.2.1-50.8.5c29.6-.4,50.8-.5,50.8-.5Z"/><path class="cls-5" d="M262.4,36.2l61.4-.7Z"/><path class="cls-5" d="M150,278.9c0-.3-.1-.8-.1-1.2A6.8,6.8,0,0,1,150,278.9Z"/><path class="cls-5" d="M150.1,280.7c0-.4-.1-1-.1-1.8C150,279.7,150.1,280.3,150.1,280.7Z"/><path class="cls-5" d="M149.7,275.3c0-1.2-.1-2.5-.2-4C149.6,272.8,149.7,274.1,149.7,275.3Z"/><path class="cls-5" d="M586.9,334l-4.3.7Z"/><path class="cls-5" d="M597.4,332.2,586.9,334Z"/><path class="cls-5" d="M582.6,334.7l-18.1,3.2Z"/><path class="cls-5" d="M134.9,75.7a9.7,9.7,0,0,0,.1,1.7s9.6,126.8,13.5,180.4C144.6,204.2,135,77.4,135,77.4A9.7,9.7,0,0,1,134.9,75.7Z"/><path class="cls-5" d="M603.8,331l-6.4,1.2Z"/><path class="cls-5" d="M564.5,337.9l-9,1.5Z"/><path class="cls-5" d="M611,329.1l-1.2.4Z"/><path class="cls-5" d="M199.6,37.2l12.3-.2Z"/><path class="cls-5" d="M185.7,37.5l11.4-.2Z"/><path class="cls-5" d="M246.1,36.5l16.2-.3Z"/><path class="cls-5" d="M162.2,38.2l5.2-.2Z"/><path class="cls-5" d="M134.7,74.2c0-.9-.1-1.8-.2-2.9C134.6,72.4,134.7,73.3,134.7,74.2Z"/><path class="cls-5" d="M134.9,75.7c-.1-.5-.1-1-.2-1.5A8.6,8.6,0,0,0,134.9,75.7Z"/><path class="cls-5" d="M134.2,66.7l-.3-3.7Z"/><path class="cls-5" d="M153.1,38.5l4.2-.2Z"/><path class="cls-5" d="M149.1,266.5q-.3-3.9-.6-8.7Q148.8,262.6,149.1,266.5Z"/><path class="cls-5" d="M230.1,36.7l16-.2Z"/><path class="cls-5" d="M153.9,297.5l-.6-2Z"/><path class="cls-5" d="M213.4,396c0-.1-.1-.1-.2-.1S213.4,395.9,213.4,396Z"/><path class="cls-5" d="M154.5,299c-.1,0-.1-.1-.2-.3S154.4,299,154.5,299Z"/><path class="cls-5" d="M613.7,319.6h0a3.1,3.1,0,0,0-.9-1.1A3.1,3.1,0,0,1,613.7,319.6Z"/><path class="cls-5" d="M549.1,340.6l-6.7,1.1Z"/><path class="cls-5" d="M208.6,394a.1.1,0,0,0-.1-.1h0a.1.1,0,0,1,.1.1Z"/><path class="cls-5" d="M614,320.9c0-.2-.1-.5-.1-.7h0C613.9,320.4,614,320.7,614,320.9Z"/><path class="cls-5" d="M153.6,290.6c0,.3-.1.6-.1.9h0C153.5,291.2,153.6,290.9,153.6,290.6Z"/><path class="cls-5" d="M467.9,354.5l-8.7,1.5Z"/><path class="cls-5" d="M489,350.9l-12.6,2.2Z"/><path class="cls-5" d="M459.2,356,324.3,379.2Z"/><path class="cls-5" d="M324.3,379.2l-54,9.2Z"/><path class="cls-5" d="M153.4,291.6h0a21.1,21.1,0,0,0-.2,2.5c0,.5.1.9.1,1.4a6.6,6.6,0,0,1-.1-1.4A21.1,21.1,0,0,1,153.4,291.6Z"/><path class="cls-5" d="M501.3,348.8l-8.2,1.4Z"/><path class="cls-5" d="M513.1,346.8l-7.8,1.3Z"/><path class="cls-5" d="M542.4,341.7l-29.3,5.1Z"/><path class="cls-5" d="M604.4,330.9l1.1-.2,3.1-.8-3.1.8Z"/><path class="cls-5" d="M220.8,396.9h0l49.5-8.5-49.5,8.5Z"/><path class="cls-6" d="M606.8,323.9,463.6,347.7h-1.9l-1.2,2.7a2.7,2.7,0,0,1-2.2,1.6l-48.2,8.5A3,3,0,0,1,407,359l-1.2-2.2a2.5,2.5,0,0,1-1.5,1L252,383.1c-.1.1-11.8,1.8-22,3.1v-.9c10.2-1.2,21.9-3,22-3l152.2-25.4a1.9,1.9,0,0,0,1.1-.7,2.1,2.1,0,0,1,1.6-1.1v.4h0l51.8-8.5v-.6H460l.4.2a6.5,6.5,0,0,0,3.1.2L606.6,323c3.7-.5,5.9-1.7,6.7-3.5h.4a3.1,3.1,0,0,0-.9-1.1,9.7,9.7,0,0,0-2.8-1.6L497.3,259.6s-18.8-9.3-19.9-9.3l-3.9-.3v.4l-29.4,3.5v2.3h-.4L198,286.7l-2.4-3.6c-2.9.3-29.7,2.8-34.5,4.1a23.1,23.1,0,0,0-7,2.9l-.3-.4-.2.9c0,.3-.1.6-.1.9l.7-.4L206,382.7l-.8.4-51.8-91.5a21.1,21.1,0,0,0-.2,2.5c0,.5.1.9.1,1.4l.6,2a5.6,5.6,0,0,0,.4,1.2c.1.2.1.3.2.3v.2l25.9,48.9s22.3,40.9,23.1,42.2l1.6,2,5.8,4.2,8.6,1.3,49.6-9.2,56.2-9.4L459.2,356l8.7-1.5,8.5-1.4,12.6-2.2,4.1-.7,8.2-1.4,4-.7,7.8-1.3,29.3-5.1,6.7-1.1,6.4-1.2,9-1.5,18.1-3.2,4.3-.7,10.5-1.8,6.4-1.2h.6l1.1-.2,3.1-.8,1.2-.4,1.2-.4,1.7-.8.3-.2.4-.3h.2v-.2h0s.1-.6.2-1.5V325a25.4,25.4,0,0,0,.1-3.9c0-.2-.1-.5-.1-.7C612.8,322.2,610.5,323.4,606.8,323.9Zm-128.9,12L368.7,354.2a8.9,8.9,0,0,1-7.3-2.2l-28-26.1a1.4,1.4,0,0,1-.1-2.1,1.3,1.3,0,0,1,.9-.5l100.2-15.7a10.7,10.7,0,0,1,7.4,1.6l36.6,24a1.5,1.5,0,0,1,.4,2.1A1.5,1.5,0,0,1,477.9,335.9ZM222.1,330,196,291.7a1.9,1.9,0,0,1,.6-2.5l.6-.2,258.7-32h.6l56.3,31.2a1,1,0,0,1,.5,1.3,1,1,0,0,1-.9.6L223.8,330.8A1.7,1.7,0,0,1,222.1,330Z"/><path class="cls-7" d="M269.8,301.7a1.3,1.3,0,0,1,.5-1.5l-4.6.6a2.1,2.1,0,0,1,1,.6l4.2,3.9a1.6,1.6,0,0,1,.5,1.1h0l2.2-.2Z"/><path class="cls-7" d="M387.9,280.1a2,2,0,0,1,.1-1.5l-2.9.4.6.3,4.8,3.8a2.1,2.1,0,0,1,.6,1v.2l1.3-.2Z"/><path class="cls-7" d="M322.4,300.8l3.9,3.6a1.8,1.8,0,0,1,.4,1v.9l2.4-.4-5.3-5,.6-.9c0-.1.1-.2.2-.3l-7.1.9,3.2-.3A2.1,2.1,0,0,1,322.4,300.8Z"/><path class="cls-7" d="M367.8,281.6l4.8,3.8a2.3,2.3,0,0,1,.7,1v.2h0l1.8-.2-4.7-4.1a1.5,1.5,0,0,1,.1-1.7l-3.9.5A1.8,1.8,0,0,1,367.8,281.6Z"/><path class="cls-7" d="M286.7,299l4.2,3.9a3,3,0,0,1,.4.8l2.4-.2-4.2-4.2s-.4-.6.3-1.4l-4.1.6A1.4,1.4,0,0,1,286.7,299Z"/><path class="cls-7" d="M512.8,288.3l-56.3-31.2h-.6L197.2,289a1.7,1.7,0,0,0-1.4,2.1,1.4,1.4,0,0,0,.2.6L222.1,330a1.7,1.7,0,0,0,1.7.8l288.6-40.6a1.1,1.1,0,0,0,1-1A1.5,1.5,0,0,0,512.8,288.3Zm-8.7,2.1-14.5,1.9-4.5-3,.9-1.4c.1-.1.3-.5,13.1-1.7a3.4,3.4,0,0,1,2,.4l2.6,1.8a1.3,1.3,0,0,1,.4,1Z"/><path class="cls-7" d="M259.8,296.6a2,2,0,0,1,.7-2l-5,.7a1.1,1.1,0,0,1,1,.6l3.9,4a1.5,1.5,0,0,1,.4,1.1v.2h-.2l-1.9.3,5.1-.6Z"/><path class="cls-7" d="M350.1,283.8l4.8,3.8a2.1,2.1,0,0,1,.6,1v.2h-.3L339.5,291l-4.7-4.2a1.4,1.4,0,0,1,0-1.5l-3.2.4a1.6,1.6,0,0,1,1.3.6l4.2,4a1.4,1.4,0,0,1,.5,1v.3h-1.2l6.1-.6a2.5,2.5,0,0,1,1.6.6l4.5,3.7a2.2,2.2,0,0,1,.5.8l1.5-.2-5-3.9s-.5-.8.6-1.7h.1l14-1.7a1.7,1.7,0,0,1,1.5.6l5,3.9a.8.8,0,0,1,.2.4h0l1.9-.2h-.1l-5-4s-.4-.7.5-1.6l-7,1-4.8-4.2a1.6,1.6,0,0,1,.4-2h0l-9.9,1.3,5.6-.6A1.7,1.7,0,0,1,350.1,283.8Z"/><path class="cls-7" d="M314.3,288.6l4.3,4a1.8,1.8,0,0,1,.4,1v.3l-1.8.2,3.4-.3-4.2-4.4a2,2,0,0,1,.7-2l-6.3.8,2-.2A1.4,1.4,0,0,1,314.3,288.6Z"/><path class="cls-8" d="M153.5,289.4c.1-.1,2.1-1.6,7.4-3.1s30.8-3.7,34.5-4.1v-3.7h.4l245.2-29,2.9,3.5,29.5-3.5v.5a5.6,5.6,0,0,0,1-2.8v-6.5l-.9-21.7s-10-165-11.4-175-10-10.3-10-10.3L374.6,35s-21.2.1-50.8.5l-61.4.7h-.1l-16.2.3-16,.2H211.9l-12.3.2h-2.5l-11.4.2-10.6.3h-7.7l-5.2.2h-4.9l-4.2.2h-4.9a69.9,69.9,0,0,0-8,.7h-.4a11.1,11.1,0,0,0-3.9,2.4,11.9,11.9,0,0,0-1.6,2.3,10.2,10.2,0,0,0-1.2,4.2,1.3,1.3,0,0,0-.1.6v2.2c-.1.3,11.5,153,15.4,206.6q.3,4.8.6,8.7a5.7,5.7,0,0,1,.1,1.3c.1,1.3.2,2.4.3,3.5s.2,2.9.2,4.1a19.4,19.4,0,0,1,.2,2.4c0,.4.1,1.1.1,1.4s.1,5.9.1,6.3ZM137.3,48c0-.7,1.3-6.2,5.6-6.9s307.8-5.9,307.8-5.9,6,1.1,7,8.2,12.5,195.3,12.5,195.3a3.3,3.3,0,0,1-2.6,3.4c-2.7.6-270.8,31.8-309,36.2a4.4,4.4,0,0,1-4.9-3.8v-.2C151.4,242,137.3,48.8,137.3,48Z"/><polygon class="cls-8" points="196.3 279.3 196.3 282.5 198.4 285.7 443.2 255.5 443.2 253.7 440.7 250.5 196.3 279.3"/><path class="cls-9" d="M615.5,318.8c-1-2.1-3.9-3.4-4.7-3.7L498.2,257.8c-19.3-9.4-20.2-9.4-20.8-9.4h-1c0-.3.1-.7.1-1.1v-6.5h0l-1-21.7c-.4-6.8-10-165.2-11.5-175.2S455.6,32.1,452.1,32H452l-77.4,1c-.6,0-57.8.5-115,1.3C143.5,35.9,140.3,37.2,139,37.7c-5.1,2-7.9,6.3-7.9,12.1,0,1.8,1.7,25.1,1.9,27.7,5.3,69,15.2,200.4,15.2,203.8s2.3,7.4,3.5,8.9a17.2,17.2,0,0,0-.4,3.9,14.7,14.7,0,0,0,1.5,5.9h0c.5.8,46.2,83.9,50.3,91s15.2,7.7,17.4,7.7h.7c15.4-2.6,377.6-64.6,384.7-66.2s8.9-3.2,9.4-4l.3-.4v-.5C615.9,325.7,616.3,320.7,615.5,318.8ZM150.1,281.3h0v-.5c0-.4-.1-1-.1-1.8s-.1-.8-.1-1.2a19.4,19.4,0,0,0-.2-2.4c0-1.2-.1-2.5-.2-4s-.2-2.2-.3-3.5a5.7,5.7,0,0,0-.1-1.3q-.3-3.9-.6-8.7C144.6,204.2,135,77.4,135,77.4a9.7,9.7,0,0,1-.1-1.7c-.1-.5-.1-1-.2-1.5s-.1-1.8-.2-2.9-.2-3-.3-4.6l-.3-3.7c-.3-4.2-.6-8.3-.8-10.8V50.9a4.1,4.1,0,0,1-.1-1.1V49a1.3,1.3,0,0,1,.1-.6,10.2,10.2,0,0,1,1.2-4.2,11.9,11.9,0,0,1,1.6-2.3,11.1,11.1,0,0,1,3.9-2.4h.4a69.9,69.9,0,0,1,8-.7h4.9l4.2-.2h4.9l5.2-.2h7.7l10.6-.3,11.4-.2h2.5l12.3-.2h18.2l16-.2,16.2-.3h.1l61.4-.7c29.6-.4,50.8-.5,50.8-.5l77.5-1.3s8.5.3,10,10.3,11.1,175,11.1,175l1.1,21.5v5.7a5.7,5.7,0,0,1-.8,2.6v-.3L443.9,253v.2l-.7.6h-.1v1.8L198.4,285.7l-2.1-3.2h-.9v-.4c-3.7.4-29.6,2.8-34.5,4.1a22.9,22.9,0,0,0-7.4,3.1l.3.3C153.7,289.7,150.1,285.6,150.1,281.3ZM614,320.9a25.4,25.4,0,0,1-.1,3.9V326c-.1.9-.2,1.5-.2,1.5h0v.2h-.2l-.4.3-.3.2-1.7.8-1.2.4-1.2.4-3.1.8-1.1.2h-.6l-6.4,1.2-10.6,2-4.3.7-18.1,3.2-9,1.5-6.4,1.2-6.7,1.1-29.3,5.1-7.8,1.3-4,.7-8.2,1.4-4.1.7-12.6,2.2-8.5,1.4-8.7,1.5L324.3,379.2l-54,9.2-49.5,8.5h-5.1l-1.1-.2h-.1l-1.1-.2c0-.1-.1-.1-.2-.1l-1-.3H212l-1.1-.4h-.1l-1.1-.5h0l-1.1-.5h-.1l-1-.7h-.1l-.9-.8h-.1l-.8-.9h-.1l-.7-1.1c-.8-1.3-3.1-5.4-6.2-11l-.8-1.5-2.6-4.7-1-1.7-1.9-3.5-2-3.7c-1.4-2.5-2.9-5.1-4.3-7.8l-2.3-4-2.2-4.1-26.4-48.7-.6-1.4c-.1,0-.1-.1-.2-.3a5.6,5.6,0,0,1-.4-1.2l-.6-2c0-.5-.1-.9-.1-1.4a21.1,21.1,0,0,1,.2-2.5h.1c0-.3.1-.6.1-.9l.2-.9.3.4s2-1.5,7-2.9,31.6-3.8,34.5-4.1l2.4,3.6,245.7-30.4h.4v-2.3h0l29.4-3.5V250l3.9.3c1.1,0,19.9,9.3,19.9,9.3L610,316.9a9.7,9.7,0,0,1,2.8,1.6,3.1,3.1,0,0,1,.9,1.1h0l.4.2c-.1.1-.1.3-.2.4S614,320.7,614,320.9Z"/><polygon class="cls-3" points="195.8 278.4 195.4 278.5 195.4 282.2 195.4 282.6 196.3 282.6 196.3 282.5 196.3 279.3 440.7 250.5 443.2 253.7 443.3 253.8 444 253.2 443.9 253 441 249.5 195.8 278.4"/><path class="cls-10" d="M158.6,278.3c38.2-4.4,306.3-35.6,309-36.2a3.3,3.3,0,0,0,2.6-3.4S458.6,50.5,457.7,43.4a9.2,9.2,0,0,0-7-8.2s-303.5,5.2-307.8,5.9-5.6,6.2-5.6,6.9,14.1,194,16.4,226.3a4.4,4.4,0,0,0,4.7,4Z"/><path class="cls-3" d="M478.4,333.2l-36.6-24a10.7,10.7,0,0,0-7.4-1.6L334.2,323.3a1.6,1.6,0,0,0-1.3,1.7,1.6,1.6,0,0,0,.5.9l28,26.1a8.9,8.9,0,0,0,7.3,2.2l109.2-18.3a1.5,1.5,0,0,0,1.1-1.8A1.5,1.5,0,0,0,478.4,333.2Z"/><path class="cls-7" d="M406.9,355.5h0v.5a1.2,1.2,0,0,0-1.1.7h-.1L407,359a3,3,0,0,0,3.1,1.5l48.2-8.5a2.7,2.7,0,0,0,2.2-1.6l1.2-2.7a4.7,4.7,0,0,1-1.7-.3h-1.3V347Z"/><path class="cls-11" d="M242.8,319.6a1.6,1.6,0,0,0-1.1-.5L226,320.9a1.5,1.5,0,0,0-.9.6l-.4.7,4.4,5.8,17.7-2.1V325a1.1,1.1,0,0,0-.2-.8Z"/><path class="cls-11" d="M220.4,313.6a2.7,2.7,0,0,0-.6,1.7l3.9,5.1,43.5-5.4v-.9a1.1,1.1,0,0,0-.3-.8l-4.2-4.4a1.3,1.3,0,0,0-1-.4l-18.3,2.1Z"/><path class="cls-11" d="M215.6,307.2a3,3,0,0,0-.6,1.8l3.3,4.3,1.9-.2.3-.3h.1l22.7-2.6,8.1-1.1a.5.5,0,0,0-.3-.5l-4.1-4.4a1.6,1.6,0,0,0-1.1-.5l-13.4,1.5Z"/><path class="cls-11" d="M270.9,306.2l-.3-.6-4.2-3.9a1.7,1.7,0,0,0-1.2-.4l-14.4,1.5c-.6.5-.5.9-.5,1l3.7,4.5Z"/><path class="cls-11" d="M270.3,301.5l3.7,4.4,12.6-1.6.6-.2,3.6-.3a.8.8,0,0,0-.2-.5l-4.3-4a1.2,1.2,0,0,0-1.1-.4l-14.4,1.5C270.2,300.9,270.2,301.4,270.3,301.5Z"/><path class="cls-11" d="M289.9,299.1l4.4,4.3,11.5-1.5.6-.2,3.8-.4c0-.1-.1-.2-.3-.4l-4.1-3.9a1.7,1.7,0,0,0-1.2-.5L290.4,298A1.3,1.3,0,0,0,289.9,299.1Z"/><path class="cls-11" d="M313.4,300.6l16.6-2-.3-.5-4.6-3.7a1.8,1.8,0,0,0-1.2-.5l-14.2,1.5c-.6.5-.5.9-.5,1Z"/><path class="cls-11" d="M344.3,296.7h.4l3.9-.4-.3-.9-4.7-3.6a1.7,1.7,0,0,0-1.2-.4L328.3,293c-.6.5-.5.9-.5,1l4.9,3.8Z"/><path class="cls-11" d="M360.3,289.2l-13.8,1.6c-.6.5-.5.9-.5,1l4.8,3.8,15.6-2h0l-4.9-4A1.4,1.4,0,0,0,360.3,289.2Z"/><path class="cls-11" d="M378.5,286.5l-13.8,1.7c-.6.5-.5.8-.5,1L369,293l15.6-2.1h0l-4.9-3.9A1.7,1.7,0,0,0,378.5,286.5Z"/><path class="cls-11" d="M396.4,284.1l-13.8,1.7c-.6.5-.5.9-.5,1l4.9,3.8,15.5-2h0l-4.9-3.9A1.7,1.7,0,0,0,396.4,284.1Z"/><path class="cls-11" d="M408.5,282.2l-8.4,1.1c-.7.7-.4,1.2-.4,1.2l5,3.9,15.9-2.1c-.1-.3.2-.1-.1-.4l-4.9-4a2.4,2.4,0,0,0-1.4-.5l-5.4.7h-.3Z"/><path class="cls-11" d="M417.7,281.9l4.5,3.7,14.9-1.5c-.1-.3.2-.1,0-.4l-5.1-3.8a1.6,1.6,0,0,0-1.4-.5l-10.2,1-2.3.3C417.3,281.4,417.7,281.9,417.7,281.9Z"/><path class="cls-11" d="M453.5,281.8h0l-5-3.8a1.7,1.7,0,0,0-1.2-.4l-12.8,1.3c-.5.5-.5.9-.4,1l4.8,3.4Z"/><path class="cls-11" d="M455.6,281.2l27.9-3.5h0l-6.3-4a1.7,1.7,0,0,0-1.4-.3l-24.6,3c-.6.5-.5.9-.5,1Z"/><path class="cls-11" d="M236.8,298.7a1.2,1.2,0,0,0-1.1-.4l-17.9,1.9-6.7.9a2.7,2.7,0,0,0-.6,1.7l3,4.2,1.9-.2.2-.3h.2l16.7-1.8,8.3-1a.9.9,0,0,0-.3-.6Z"/><path class="cls-11" d="M260.3,300.7c0-.2-.1-.3-.2-.5l-3.9-4a1.6,1.6,0,0,0-1.1-.5l-9.7,1.1-4.5.6a2,2,0,0,0-.6,1.4l3.6,4.1Z"/><path class="cls-11" d="M260.2,296.4l3.9,4.1,16.3-2.1a.9.9,0,0,0-.3-.6l-4.2-4a1.2,1.2,0,0,0-1.1-.4l-14,1.5A1.7,1.7,0,0,0,260.2,296.4Z"/><path class="cls-11" d="M279.5,294.1l3.9,4.2,16.3-2.2a.5.5,0,0,0-.3-.5l-4.2-4a1.6,1.6,0,0,0-1.1-.5l-14,1.6A1.5,1.5,0,0,0,279.5,294.1Z"/><path class="cls-11" d="M318.5,293.5a.9.9,0,0,0-.3-.6l-4.2-4a1.2,1.2,0,0,0-1.1-.4l-14,1.5a1.7,1.7,0,0,0-.6,1.5l3.9,4.1Z"/><path class="cls-11" d="M336.8,290.6l-4.2-4a1.4,1.4,0,0,0-1.2-.4l-13.9,1.5a1.7,1.7,0,0,0-.6,1.5l3.9,4.1,16.3-2.2Z"/><path class="cls-11" d="M335.2,286.5l4.5,4,15.3-2.1-.4-.4-4.8-3.8a1.8,1.8,0,0,0-1.2-.5l-13.2,1.5A1.1,1.1,0,0,0,335.2,286.5Z"/><path class="cls-11" d="M352.9,284.4l4.5,3.9,15.3-2.1c-.1-.1-.2-.3-.4-.4l-4.8-3.8a1.4,1.4,0,0,0-1.2-.4L353.2,283A1.2,1.2,0,0,0,352.9,284.4Z"/><path class="cls-11" d="M370.8,282.1l4.5,3.9,15.3-2-.4-.5-4.8-3.8a1.4,1.4,0,0,0-1.2-.4L371,280.7A1.4,1.4,0,0,0,370.8,282.1Z"/><path class="cls-11" d="M388.4,279.9l4.5,3.9,15.2-2a.9.9,0,0,0-.3-.5l-4.8-3.8a1.7,1.7,0,0,0-1.2-.4l-8.4,1.1-.2-.2-4.6.5A1.4,1.4,0,0,0,388.4,279.9Z"/><path class="cls-11" d="M408.8,276.1l-2.8.4a1.7,1.7,0,0,0-.1,1.2l4.8,3.5,14.4-2-.4-.5-5-3.4a1.2,1.2,0,0,0-1.1-.4l-9.8,1.1Z"/><path class="cls-11" d="M441.7,277.1a.9.9,0,0,0-.3-.5l-5-3.4a1.6,1.6,0,0,0-1.1-.5l-12.4,1.5a1.1,1.1,0,0,0-.3,1.3l4.7,3.6Z"/><path class="cls-11" d="M451,276l7.7-1a1.8,1.8,0,0,0-.5-.7l-5-3.5a1.5,1.5,0,0,0-1.3-.4l-12.5,1.4a1.4,1.4,0,0,0-.3,1.7l4.8,3.7,6.8-.9.2-.3Z"/><path class="cls-11" d="M458,269.1l-3.2.4a1.3,1.3,0,0,0-.2,1.3l4.7,3.6,14.4-2.1-.3-.4-5-3.5a2.5,2.5,0,0,0-1.7-.3Z"/><path class="cls-11" d="M206.1,296.7l3.1,4.2,1.7-.2.3-.3h.1l6.5-.6,7.8-1.2-.3-.5-3.2-4.2a1,1,0,0,0-1-.4L207,294.7A4,4,0,0,0,206.1,296.7Z"/><path class="cls-11" d="M240.8,296.9h.1l4.2-.5v-.2c0-.2.1-.5,0-.6l-3.6-4a1,1,0,0,0-1-.4l-14,1.5a1.9,1.9,0,0,0-.6,1.6l3,4.3,11.7-1.6Z"/><path class="cls-11" d="M245.2,291.5l3,4.2,16.1-2.1v-.2c.1-.2.2-.5.1-.6l-3.6-4a1.2,1.2,0,0,0-1-.5l-14,1.6A1.7,1.7,0,0,0,245.2,291.5Z"/><path class="cls-11" d="M263.9,288.8l3.5,4.2,15.8-2.1c.1,0,.1-.1.1-.2s0-.5-.1-.6l-3.9-4a1.4,1.4,0,0,0-1.2-.4l-13.8,1.5A1.9,1.9,0,0,0,263.9,288.8Z"/><path class="cls-11" d="M301.9,288.7v-.2c0-.3,0-.5-.1-.6l-3.9-4a1.8,1.8,0,0,0-1.2-.5L283,284.9a2.1,2.1,0,0,0-.4,1.7l3.5,4.2Z"/><path class="cls-11" d="M301.3,284.3l3.5,4.2,15.8-2.1c.1,0,.1-.1.1-.2s0-.5-.1-.6l-3.9-4a1.4,1.4,0,0,0-1.2-.4l-13.8,1.5A1.9,1.9,0,0,0,301.3,284.3Z"/><path class="cls-11" d="M320,282.1l3.5,4.2,14.7-2c0-.1,0-.1.1-.2s0-.5-.1-.6l-4.3-4a1.4,1.4,0,0,0-1.2-.4l-12.3,1.3A2.1,2.1,0,0,0,320,282.1Z"/><path class="cls-11" d="M337,279.7l4.1,3.9,14.8-1.9v-.2c0-.2.1-.5,0-.6l-4.4-4a1.6,1.6,0,0,0-1.1-.5l-12.9,1.7A1.8,1.8,0,0,0,337,279.7Z"/><path class="cls-11" d="M354.5,277.7l4.1,4,14.8-2v-.8l-4.4-4a1.4,1.4,0,0,0-1.2-.4l-12.9,1.6A1.6,1.6,0,0,0,354.5,277.7Z"/><path class="cls-11" d="M390.8,277.7c.1-.1.1-.1.1-.2v-.6l-4.4-4a1.4,1.4,0,0,0-1.2-.4l-12.9,1.6a1.6,1.6,0,0,0-.4,1.6l4.1,4Z"/><path class="cls-11" d="M401.7,276.6h.1l4-.5c0-.1.1-.1.1-.2h.1l2.3-.3c.1,0,.1,0,.1-.1h0c0-.2,0-.5-.1-.6l-5.3-3.7a1.6,1.6,0,0,0-1.1-.5l-12,1.4a1.4,1.4,0,0,0-.4,1.6l3.9,3.8Z"/><path class="cls-11" d="M405.7,271.3l5,3.4,13.8-1.9h0c0-.2,0-.5-.1-.6l-5.7-3.1a4.3,4.3,0,0,0-1.6-.5l-11.3,1.3A1.4,1.4,0,0,0,405.7,271.3Z"/><path class="cls-11" d="M422.2,269.3l5,3.4,13.9-1.8c-.1-.1-.1-.1-.1-.2s0-.5-.1-.6l-5.7-3.1a2.9,2.9,0,0,0-1.6-.4l-11.3,1.2C421.8,268.4,422.2,269.1,422.2,269.3Z"/><path class="cls-11" d="M438.2,267.2l5,3.3,11.4-1.5h0l3.3-.4,7.6-1v-.2a.8.8,0,0,0-.2-.5l-5.7-3.1a3,3,0,0,0-1.6-.5l-19.7,2.4A1.4,1.4,0,0,0,438.2,267.2Z"/><path class="cls-11" d="M264.2,316.6a1.3,1.3,0,0,0-1-.4L247.5,318a1.1,1.1,0,0,0-.9.6l-.5.7,4.4,5.8,17.8-2.1v-.9a1.1,1.1,0,0,0-.3-.8Z"/><path class="cls-11" d="M267.3,315.8l-.5.7,4.4,5.8,17.8-2.1v-.9a1.1,1.1,0,0,0-.3-.8l-3.8-4.7a1.2,1.2,0,0,0-1.1-.4l-15.6,1.8h-.7A.5.5,0,0,0,267.3,315.8Z"/><path class="cls-11" d="M266.2,307.9l-.4.7,4.8,5,16-2v-.9a1.9,1.9,0,0,0-.2-.7l-3.6-3.7a1.2,1.2,0,0,0-1.1-.4l-14.6,1.4A1.5,1.5,0,0,0,266.2,307.9Z"/><path class="cls-11" d="M291.4,304.2h-.2l-4.4.5a.8.8,0,0,0-.4.4l-.3.6,5.2,5,15.8-2V308a2,2,0,0,0-.4-.8l-3.8-3.6a1.2,1.2,0,0,0-1.1-.4l-10.4,1Z"/><path class="cls-11" d="M324.1,306.6l2.2-.3v-.8a1.1,1.1,0,0,0-.3-.8l-3.9-3.5a1.6,1.6,0,0,0-1.1-.5l-10.3,1-4.7.6-.3.4-.3.6,5.2,5Z"/><path class="cls-11" d="M324.9,300.2l-.4.6,5.1,4.9,15.9-1.9v-.9a.9.9,0,0,0-.3-.7l-3.7-3.5a1.5,1.5,0,0,0-1.1-.4l-14.6,1.4A1.1,1.1,0,0,0,324.9,300.2Z"/><path class="cls-11" d="M349.2,296.7l-4.8.4a1.2,1.2,0,0,0-.5.5l-.3.6,5.3,4.5,15.6-1.9v-.9a.9.9,0,0,0-.3-.7l-3.8-3.1a1.2,1.2,0,0,0-1.1-.4l-10.1.9Z"/><path class="cls-11" d="M362.8,295.1l-.3.6,5.1,4.4,14.9-1.9v-.8a1.1,1.1,0,0,0-.3-.8l-4.1-3.1a1.2,1.2,0,0,0-1.1-.4l-13.4,1.4C363.3,294.5,363,294.8,362.8,295.1Z"/><path class="cls-11" d="M381.2,292.7l-.3.7,5.1,4.4,14.9-1.9V295a.9.9,0,0,0-.3-.7l-4.1-3.1a1.6,1.6,0,0,0-1.1-.5L382,292.2A1,1,0,0,0,381.2,292.7Z"/><path class="cls-11" d="M404.4,295.5l14.9-1.9v-.9a.9.9,0,0,0-.3-.7l-4.1-3.1a1.6,1.6,0,0,0-1.1-.5l-13.4,1.5a1,1,0,0,0-.8.5l-.3.6Z"/><path class="cls-11" d="M436.4,289.2l-4.9-3a1.5,1.5,0,0,0-1.1-.4l-12.2,1.4a.8.8,0,0,0-.8.5l-.3.6,5.4,4.3,14.3-1.9v-.8A1,1,0,0,0,436.4,289.2Z"/><path class="cls-11" d="M439.8,290.3l14.2-1.7v-.8a.9.9,0,0,0-.3-.7,67.7,67.7,0,0,0-6.6-3.3l-12.3,1.1a1,1,0,0,0-.8.6l-.3.6Z"/><path class="cls-11" d="M457.7,287.9l34.7-4.6v-.8a1.9,1.9,0,0,0-.2-.7l-6.7-3.3-32.7,4a1,1,0,0,0-.8.6l-.3.6Z"/><path class="cls-11" d="M309.5,310.6a1,1,0,0,0-1.1-.5l-19,2a1,1,0,0,0-.9.6l-.4.7,5.2,5.7,21.3-2.5v-1a.9.9,0,0,0-.3-.7Z"/><path class="cls-11" d="M404.6,297.1a1.6,1.6,0,0,0-1.1-.5l-76.7,10.1h.1l-2.9.3-10.3,1.4a1,1,0,0,0-.9.6l-.5.7,6.1,5.9,92.2-13.1v-.9a1.9,1.9,0,0,0-.2-.7Z"/><path class="cls-11" d="M427.5,294.3a1,1,0,0,0-1-.4c-7.2.6-18,1.7-18.8,2.1l-.8.8,7.2,5.4,19.5-2.4v-.9a.9.9,0,0,0-.3-.7Z"/><path class="cls-11" d="M445,292a3.9,3.9,0,0,0-1.8-.4c-4.6.5-12,1.3-12.7,1.6l-.8.8,7.9,5.1,13.9-1.8v-.9a1.1,1.1,0,0,0-.3-.8Z"/><path class="cls-11" d="M466.7,291.6a4.7,4.7,0,0,0-1.7-.4c-4.6.4-12,1.3-12.7,1.6l-.7.9,4,2.7,13.9-1.9V294a.9.9,0,0,0-.3-.7Z"/><path class="cls-11" d="M483.9,289.3a3.2,3.2,0,0,0-1.4-.3l-6.4.6H476l-6.6,1-.5,1,3.9,2.5,13.8-1.8v-.5a1.1,1.1,0,0,0-.2-.8Z"/><path class="cls-11" d="M469.1,290.2h.1c.4-.2,2.5-.6,12.9-1.6h.2a.1.1,0,0,0-.1-.1h0l-2.5-1.8a2.5,2.5,0,0,0-1.7-.3c-4.6.4-11.9,1.2-12.7,1.5l-.5,1.1,3.5,2.4Z"/><path class="cls-11" d="M500.9,287a5.8,5.8,0,0,0-1.8-.4c-4.6.5-12,1.3-12.7,1.6l-.7,1,4,2.6,13.9-1.8v-.6a1.9,1.9,0,0,0-.2-.7Z"/><path class="cls-1" d="M613.7,319.6h-.4c-.8,1.8-3,3-6.7,3.5L463.4,346.8a6.5,6.5,0,0,1-3.1-.2l-.4-.2h-1.2v.8H460a4.7,4.7,0,0,0,1.7.3h1.9l143.2-23.8c3.7-.5,6-1.7,7.1-3.7h0c.1-.1.1-.3.2-.4Z"/><path class="cls-1" d="M407,356v-.9a2.1,2.1,0,0,0-1.6,1.1,1.9,1.9,0,0,1-1.1.7L251.9,382.3c-.1,0-11.8,1.8-22,3v.9c10.2-1.3,21.9-3,22-3.1l152.3-25.3a2.5,2.5,0,0,0,1.5-1h.1A1.3,1.3,0,0,1,407,356Z"/><polygon class="cls-1" points="205.2 383.1 206 382.7 154.2 291.1 153.5 291.5 153.5 291.5 153.4 291.6 153.4 291.6 153.4 291.6 205.2 383.1"/><path class="cls-9" d="M267.2,293.5l16.6-2.2v-.2a.4.4,0,0,1,.1-.3,1.8,1.8,0,0,0-.2-1l-4-4a2,2,0,0,0-1.5-.6l-13.9,1.5h-.1a1.9,1.9,0,0,0-.6,2.2Zm12.1-7.4,3.9,4c.1.1.1.4.1.6s0,.2-.1.2L267.4,293l-3.5-4.2a1.9,1.9,0,0,1,.4-1.6l13.8-1.5a1.4,1.4,0,0,1,1.2.4Z"/><path class="cls-9" d="M410.6,275.2l14.5-2v-.6a1.1,1.1,0,0,0-.4-.9l-5.7-3.1a3.3,3.3,0,0,0-1.9-.6l-11.3,1.3h-.2a2,2,0,0,0-.2,2.2Zm8.1-6.2,5.7,3.1c.1.1.1.4.1.6h0l-13.8,1.9-5-3.4a1.4,1.4,0,0,1,.1-1.5l11.3-1.3A4.4,4.4,0,0,1,418.7,269Z"/><path class="cls-9" d="M443.1,271.1l11.1-1.5a1.2,1.2,0,0,0,0,1.4l5,3.9,14.9-2.1h.3v-.2a2.1,2.1,0,0,0-.6-1l-5-3.4a2.9,2.9,0,0,0-2-.5H466v-.3c-.1-.3-.1-.7-.4-.9l-5.7-3.2a4.1,4.1,0,0,0-1.9-.5l-19.8,2.4H438a1.8,1.8,0,0,0-.2,2.1Zm16.5-7.3,5.7,3.1a.8.8,0,0,1,.2.5v.2l-7.6,1-3.3.4h0l-11.4,1.5-5-3.3a1.4,1.4,0,0,1,.1-1.5l19.7-2.4a3,3,0,0,1,1.6.5Zm8.8,4.6,5,3.5.3.4-14.4,2.1-4.7-3.6a1.3,1.3,0,0,1,.2-1.3l3.2-.4,8.7-1a2.5,2.5,0,0,1,1.7.3Z"/><path class="cls-9" d="M431.8,285.9a2,2,0,0,0-1.5-.6l-12.2,1.4a1.5,1.5,0,0,0-1.1.8l-.5.9,5.8,4.7,15.1-2-.2-1.2a1.4,1.4,0,0,0-.5-1Zm-9.3,6.7-5.4-4.3.3-.6a.8.8,0,0,1,.8-.5l12.2-1.4a1.5,1.5,0,0,1,1.1.4l4.9,3a.9.9,0,0,1,.3.7v.8Z"/><path class="cls-9" d="M439.7,290.8l14.8-1.8v-1.2a3,3,0,0,0-.4-1H454c-2.4-1.3-6.5-3.5-7-3.4l-12.3,1.2a1.2,1.2,0,0,0-1.1.8l-.6.9,6.6,4.6Zm-4.9-5.9,12.3-1.1a67.7,67.7,0,0,1,6.6,3.3.9.9,0,0,1,.3.7v.8l-14.2,1.7-6.1-4.2.3-.6a1,1,0,0,1,.8-.6Z"/><path class="cls-9" d="M309.8,310.2a2,2,0,0,0-1.4-.6l-19.1,2a2,2,0,0,0-1.2.8l-.6,1.1,5.6,6.1,22-2.6v-1.4a1.8,1.8,0,0,0-.4-1Zm4.8,6.4-21.3,2.5-5.2-5.7.4-.7a1,1,0,0,1,.9-.6l19-2a1,1,0,0,1,1.1.5l4.8,4.3a.9.9,0,0,1,.3.7Z"/><path class="cls-9" d="M404.9,296.7a2,2,0,0,0-1.4-.6L346,303.7v-.8a1.8,1.8,0,0,0-.4-1l-3.8-3.5a2,2,0,0,0-1.5-.6l-9.7.9a1.1,1.1,0,0,0-.5-.9l-4.6-3.8a1.7,1.7,0,0,0-1.5-.5l-2,.2,5.9-.8a1.2,1.2,0,0,0-.4,1.4l5.1,4,11.1-1.1v.2l-.6.9,5.8,4.9,16.3-2v-1.3a1.4,1.4,0,0,0-.5-1l-3.8-3.1a2,2,0,0,0-1.5-.6l-5.3.5,8.7-1.1c-.1.1-.2.1-.2.2l-.5,1,5.5,4.8,15.7-2v-1.3a1.4,1.4,0,0,0-.5-1l-4.1-3.2a1.5,1.5,0,0,0-1.4-.5l-7.2.7,11.8-1.5a2.7,2.7,0,0,0-.8.7l-.5,1,5.5,4.8,15.6-2V295a1.4,1.4,0,0,0-.5-1l-4.1-3.2a1.5,1.5,0,0,0-1.4-.5l-11.2,1.2h.9v-.2h.1l-.2-.3-5-4a2,2,0,0,0-1.4-.6l3.6-.4c-.9.8-.5,1.4-.5,1.5l5,3.9h.1l16-2.1h.2V289h.1a.8.8,0,0,0-.2-.4l-4.9-4-1-.5,3.1-.4,8.4-1.1h.3v-.2a2.1,2.1,0,0,0-.6-1l-4.8-3.8-.3-.2,2.5-.3a1.5,1.5,0,0,0,0,1.3l5,3.9,7.6-1.1,2.3-.3,5-.7h.3V280a2.1,2.1,0,0,0-.6-1l-5-3.5a1.6,1.6,0,0,0-1.4-.5l-9.8,1.1a1,1,0,0,0-.1-.9l-5.3-3.7a1.7,1.7,0,0,0-1.6-.6l-12.1,1.3h0a2.1,2.1,0,0,0-.7,2.2l3.8,3.7h-1.5v-.2a1.5,1.5,0,0,0-.2-.9l-4.4-4a1.7,1.7,0,0,0-1.5-.6L372.6,274h0a1.9,1.9,0,0,0-.6,2.2l3.9,3.8-1.6.2h-.1c0-.1.1-.2.1-.4s.1-.7-.2-.9l-4.4-4a1.4,1.4,0,0,0-1.5-.6l-13.1,1.6h0a1.7,1.7,0,0,0-.6,2.2l4.1,4.1-4.7.5,2.9-.4v-.6c0-.3.1-.7-.2-1l-4.4-3.9a1.4,1.4,0,0,0-1.5-.6l-13,1.6h-.1a2,2,0,0,0-.6,2.3l4.3,4.2-2.2.3v-.3a1,1,0,0,0-.1-.9l-4.4-4a1.7,1.7,0,0,0-1.5-.6L320.2,280h0a2,2,0,0,0-.6,2.3l3.5,4.3-2,.2v-.5a1.2,1.2,0,0,0-.1-1l-4-4a1.7,1.7,0,0,0-1.5-.6l-13.9,1.5h-.1a1.9,1.9,0,0,0-.6,2.2l3.6,4.4-3.9.4,1.9-.2v-.6a1.2,1.2,0,0,0-.1-1l-4-3.9a1.7,1.7,0,0,0-1.5-.6L283,284.4h-.1a2,2,0,0,0-.6,2.3l3.7,4.5,12.8-1.7a2,2,0,0,0-.8,2.1l4.1,4.4,7.2-.9a1.1,1.1,0,0,0-.4,1.4l4.3,4.4-2.4.2-.4-.6-4.2-4a2,2,0,0,0-1.5-.6l-4.4.5v-.2a2.1,2.1,0,0,0-.4-1.1l-4.3-4a2,2,0,0,0-1.5-.6L280,292.1h0a2,2,0,0,0-.8,2.1l4,4.3-3.7.4,1.6-.2v-.2a2.1,2.1,0,0,0-.4-1.1l-4.3-4a1.7,1.7,0,0,0-1.5-.6l-9.9,1.1v-.5c.1-.4.2-.7,0-1l-3.6-4a1.4,1.4,0,0,0-1.5-.6l-14,1.5h-.1a2.3,2.3,0,0,0-.9,2.3l3.1,4.3-2.2.3h0a1.7,1.7,0,0,0,0-1l-3.6-4a1.4,1.4,0,0,0-1.5-.6l-14,1.5h-.1a2.2,2.2,0,0,0-.9,2.2l3,4.1-2.4.3h0a1.8,1.8,0,0,0-.4-1l-3.2-4.2a1.7,1.7,0,0,0-1.5-.6l-14.1,1.4H207a3.3,3.3,0,0,0-1.2,2.5h0l3.3,4.5,1.6-.2a3.4,3.4,0,0,0-.5,1.7h0l3.3,4.5,1.7-.2a3.4,3.4,0,0,0-.5,1.7h0l3.6,4.8,1.7-.3a3.4,3.4,0,0,0-.5,1.7h0l4.2,5.5,1.7-.2a1,1,0,0,0-.5.6l-.6,1L229,328h.1l18.4-2.2V325a2,2,0,0,0-.3-1.1l-3.8-4.6a1.9,1.9,0,0,0-1.4-.7l4.5-.5-.2.2-.5,1.1,4.6,6.1h.1l18.5-2.2V322a2.1,2.1,0,0,0-.4-1.1l-3.8-4.7-.6-.4,2.8-.4-.6,1.1,4.7,6.1h.1l18.5-2.2v-1.3a2.1,2.1,0,0,0-.4-1.1l-3.8-4.7a1.7,1.7,0,0,0-1.5-.6l-15.7,1.8h-.4v-.7a2.1,2.1,0,0,0-.4-1.1l-4.2-4.4a1.7,1.7,0,0,0-1.5-.6l-9.7,1.2a3.6,3.6,0,0,0-.4-.9l-4.2-4.4a1.7,1.7,0,0,0-1.5-.7l-4.5.5a3.6,3.6,0,0,0-.4-.9l-3.7-4.4-.6-.4,3.6-.5a2.3,2.3,0,0,0-.4,1.4l3.9,4.5,6.7-.8c-.9.8-.6,1.4-.6,1.5l4,4.7,12.3-1.5-.3.4-.6.9,5.2,5.6,16.7-2.1v-1.4a1.5,1.5,0,0,0-.4-1.1l-3.5-3.6a2.4,2.4,0,0,0-1.1-.6l3.9-.5h0l-.5,1,5.5,5.3h.1l16.5-2.1v-1.3a1.3,1.3,0,0,0-.4-1l-3.9-3.6a1.8,1.8,0,0,0-.7-.5l2.7-.4h0l-.5.9,5.6,5.4,2.3-.3-.3.3-.6,1.1,6.6,6.3L410.9,303h.2v-1.3a1.5,1.5,0,0,0-.4-1.1Zm-8.4-5.5,4.1,3.1a.9.9,0,0,1,.3.7v.9L386,297.8l-5.1-4.4.3-.7a1,1,0,0,1,.8-.5l13.4-1.5A1.6,1.6,0,0,1,396.5,291.2ZM283,284.9l13.8-1.5a1.8,1.8,0,0,1,1.2.5l3.9,4c.1.1.1.3.1.6v.2l-15.8,2.1-3.5-4.2A2,2,0,0,1,283,284.9Zm-36.2,41L229.1,328l-4.4-5.8.4-.7a1.5,1.5,0,0,1,.9-.6l15.7-1.8a1.6,1.6,0,0,1,1.1.5l3.8,4.6a1.1,1.1,0,0,1,.2.8Zm163.8-23.3-92.2,13.1-6.1-5.9.5-.7a1,1,0,0,1,.9-.6l10.3-1.4,2.9-.3h-.1l76.7-10.1a1.6,1.6,0,0,1,1.1.5l5.8,3.9a1.9,1.9,0,0,1,.2.7Zm-105,.1.3-.4,4.7-.6,10.3-1a1.6,1.6,0,0,1,1.1.5l3.9,3.5a1.1,1.1,0,0,1,.3.8v.8l-2.2.3-13.6,1.7-5.2-5Zm-3.8.5a1.2,1.2,0,0,1,1.1.4l3.8,3.6a2,2,0,0,1,.4.8v.8l-15.8,2-5.2-5,.3-.6a.8.8,0,0,1,.4-.4l4.4-.5h.2Zm-20.1,2.7a1.2,1.2,0,0,1,1.1.4l3.6,3.7a1.9,1.9,0,0,1,.2.7v.9l-16,2-4.8-5,.4-.7a1.5,1.5,0,0,1,.9-.6Zm-30.9-3.1,14.4-1.5a1.7,1.7,0,0,1,1.2.4l4.2,3.9.3.6L254,308.3l-3.7-4.5c0-.1-.1-.5.5-1Zm10-14,3.6,4c.1.1,0,.4-.1.6v.2l-16.1,2.1-3-4.2a1.7,1.7,0,0,1,.6-1.6l14-1.6a1.2,1.2,0,0,1,1,.5Zm15.1,5,4.2,4a.9.9,0,0,1,.3.6l-16.3,2.1-3.9-4.1a1.7,1.7,0,0,1,.6-1.5l14-1.5a1.2,1.2,0,0,1,1.1.4Zm19.3-2.2,4.2,4a.5.5,0,0,1,.3.5l-16.3,2.2-3.9-4.2a1.5,1.5,0,0,1,.6-1.4l14-1.6A1.6,1.6,0,0,1,295.2,291.6Zm10.6,5.4,4.1,3.9c.2.2.3.3.3.4l-3.8.4-.6.2-11.5,1.5-4.4-4.3a1.3,1.3,0,0,1,.5-1.1l14.2-1.5a1.7,1.7,0,0,1,1.2.5Zm3.9-1.6,14.2-1.5a1.8,1.8,0,0,1,1.2.5l4.6,3.7.3.5-16.6,2-4.2-4.2C309.2,296.3,309.1,295.9,309.7,295.4ZM298.9,290l14-1.5a1.2,1.2,0,0,1,1.1.4l4.2,4a.9.9,0,0,1,.3.6l-16.3,2.1-3.9-4.1A1.7,1.7,0,0,1,298.9,290Zm42.5,8.7,3.7,3.5a.9.9,0,0,1,.3.7v.9l-15.9,1.9-5.1-4.9.4-.6a1,1,0,0,1,.8-.5l14.6-1.4A1.7,1.7,0,0,1,341.4,298.7Zm-51.9.6,4.2,4.2-2.4.2a3,3,0,0,0-.4-.8l-4.2-3.9a1.4,1.4,0,0,0-1-.5l4.1-.6c-.7.8-.3,1.4-.3,1.4Zm-4.3-.4a1.2,1.2,0,0,1,1.1.4l4.3,4a.8.8,0,0,1,.2.5l-3.6.3-.6.2L274,305.9l-3.7-4.4c-.1-.1-.1-.6.5-1.1Zm-13.8,7.5h0a1.6,1.6,0,0,0-.5-1.1l-4.2-3.9a2.1,2.1,0,0,0-1-.6l4.6-.6a1.3,1.3,0,0,0-.5,1.5l3.8,4.5Zm45.3-24.8,3.9,4c.1.1.1.4.1.6s0,.2-.1.2l-15.8,2.1-3.5-4.2a1.9,1.9,0,0,1,.4-1.6l13.8-1.5a1.4,1.4,0,0,1,1.2.4Zm43.7,14.5,3.8,3.1a.9.9,0,0,1,.3.7v.9l-15.6,1.9-5.3-4.5.3-.6a1.2,1.2,0,0,1,.5-.5l4.8-.4h0l10.1-.9a1.1,1.1,0,0,1,1.1.3ZM328.3,293l14.2-1.4a1.7,1.7,0,0,1,1.2.4l4.6,3.8.3.4-3.9.4h-.4l-11.6,1.1-4.9-3.8S327.7,293.5,328.3,293Zm-7.5.3-3.9-4.1a1.7,1.7,0,0,1,.6-1.5l13.9-1.5a1.4,1.4,0,0,1,1.2.4l4.2,4,.3.5Zm57.3.2,4.1,3.1a1.1,1.1,0,0,1,.3.8v.8l-14.9,1.9-5.1-4.4.3-.6c.2-.3.5-.6.8-.6l13.4-1.4a1.2,1.2,0,0,1,1.1.4Zm-11.7.1-15.6,2-4.8-3.8c0-.1-.1-.5.5-1l13.8-1.6a1.4,1.4,0,0,1,1.2.4Zm2.6-18.7,4.4,4v.8l-14.8,2-4.1-4a1.6,1.6,0,0,1,.4-1.6l12.9-1.6a1.4,1.4,0,0,1,1.2.4Zm3.4-.8,12.9-1.6a1.4,1.4,0,0,1,1.2.4l4.4,4v.6c0,.1,0,.1-.1.2l-14.7,2-4.1-4a1.6,1.6,0,0,1,.4-1.6Zm17.5-2,12-1.4a1.6,1.6,0,0,1,1.1.5l5.3,3.7c.1.1.1.4.1.6s0,.1-.1.1h0l-2.3.3h-.1c0,.1-.1.1-.1.2l-4,.5h-.1l-8.3.9-3.9-3.8a1.4,1.4,0,0,1,.4-1.6Zm29.8,3.2,5,3.4.4.5-14.4,2-4.8-3.5a1.7,1.7,0,0,1,.1-1.2l2.8-.4h0l9.8-1.1a1.1,1.1,0,0,1,1.1.3Zm-26.3,2.9,8.4-1.1a1.7,1.7,0,0,1,1.2.4l4.8,3.8a.9.9,0,0,1,.3.5l-15.2,2-4.5-3.9a1.4,1.4,0,0,1,.2-1.4l4.6-.5Zm9.1,10.4-15.5,2-4.9-3.8c0-.1-.1-.5.5-1l13.8-1.7a1.8,1.8,0,0,1,1.2.5l4.9,3.9Zm-11.3-4.3v-.2a2.1,2.1,0,0,0-.6-1l-4.8-3.8-.6-.3,2.9-.4a2,2,0,0,0-.1,1.5l4.6,4Zm-7-5a1.4,1.4,0,0,1,1.2.4l4.8,3.8.4.5-15.3,2-4.5-3.9a1.4,1.4,0,0,1,.2-1.4Zm-13.8,3,4.7,4.1-1.8.2h0v-.2a2.3,2.3,0,0,0-.7-1l-4.8-3.8a1.8,1.8,0,0,0-1.2-.5l3.9-.5a1.5,1.5,0,0,0-.1,1.7Zm-2.9-.3,4.8,3.8c.2.1.3.3.4.4l-15.3,2.1-4.5-3.9a1.2,1.2,0,0,1,.3-1.4l13.1-1.4a1.4,1.4,0,0,1,1.2.4Zm17.1,8.9L369,293l-4.8-3.8c0-.2-.1-.5.5-1l13.8-1.7a1.7,1.7,0,0,1,1.2.5l4.9,3.9Zm-33.1-14,4.4,4c.1.1,0,.4,0,.6v.2l-14.8,1.9-4.1-3.9a1.8,1.8,0,0,1,.5-1.6l12.9-1.7a1.6,1.6,0,0,1,1.1.5Zm1.4,5.7h0a1.6,1.6,0,0,0-.4,2l4.8,4.2,7-1c-.9.9-.5,1.6-.5,1.6l5,4h.1l-1.9.2h0a.8.8,0,0,0-.2-.4l-5-3.9a1.7,1.7,0,0,0-1.5-.6l-14,1.7h-.1c-1.1.9-.6,1.7-.6,1.7l5,3.9-1.5.2a2.2,2.2,0,0,0-.5-.8l-4.5-3.7a2.5,2.5,0,0,0-1.6-.6l-6.1.6h1.2v-.3a1.4,1.4,0,0,0-.5-1l-4.2-4a1.6,1.6,0,0,0-1.3-.6l3.2-.4a1.4,1.4,0,0,0,0,1.5l4.7,4.2,15.8-2.1h.3v-.2a2.1,2.1,0,0,0-.6-1l-4.8-3.8a1.7,1.7,0,0,0-1.5-.5l-5.6.6Zm-19-3.1,4.3,4c.1.1.1.4.1.6s-.1.1-.1.2l-14.7,2-3.5-4.2a2.1,2.1,0,0,1,.4-1.7l12.3-1.3a1.4,1.4,0,0,1,1.2.4Zm14.7,4.2a1.8,1.8,0,0,1,1.2.5l4.8,3.8.4.4-15.3,2.1-4.5-4a1.1,1.1,0,0,1,.2-1.3Zm-31.5,3.7a2,2,0,0,0-.7,2l4.2,4.4-3.4.3,1.8-.2v-.3a1.8,1.8,0,0,0-.4-1l-4.3-4a1.4,1.4,0,0,0-1.5-.6l-2,.2Zm7.6,12.3c-.1.1-.2.2-.2.3l-.6.9,5.3,5-2.4.4v-.9a1.8,1.8,0,0,0-.4-1l-3.9-3.6a1.8,1.8,0,0,0-1.6-.5l-3.2.3Zm-83.8-2.3,4.5-.6,9.7-1.1a1.6,1.6,0,0,1,1.1.5l3.9,4c.1.2.2.3.2.5l-16.4,2.2-3.6-4.1a2,2,0,0,1,.6-1.4Zm-8.4,7.3-16.7,1.8h-.2l-.2.3-1.9.2-3-4.2a2.7,2.7,0,0,1,.6-1.7l6.7-.9,17.9-1.9a1.2,1.2,0,0,1,1.1.4l3.7,4.4a.9.9,0,0,1,.3.6Zm14.5-.5,4.1,4.4a.5.5,0,0,1,.3.5l-8.1,1.1-22.7,2.6h-.1l-.3.3-1.9.2L215,309a3,3,0,0,1,.6-1.8l16.9-2,13.4-1.5a1.6,1.6,0,0,1,1.1.5Zm15.7,4.7,4.2,4.4a1.1,1.1,0,0,1,.3.8v.9l-43.5,5.4-3.9-5.1a2.7,2.7,0,0,1,.6-1.7l23-3,18.3-2.1a1.3,1.3,0,0,1,1,.4Zm5,6.5h.5l15.6-1.8a1.2,1.2,0,0,1,1.1.4l3.8,4.7a1.1,1.1,0,0,1,.3.8v.9l-17.8,2.1-4.4-5.8.5-.7a.8.8,0,0,1,.2-.4Zm.6,7.6-17.8,2.1-4.4-5.8.5-.7a1.1,1.1,0,0,1,.9-.6l15.7-1.8a1.3,1.3,0,0,1,1,.4l3.8,4.7a1.1,1.1,0,0,1,.3.8Zm-46.2-29.2,3.2,4.2.3.5-7.8,1.2-6.5.6h-.1l-.3.3-1.7.2-3.1-4.2a4,4,0,0,1,.9-2l14.1-1.3a1.2,1.2,0,0,1,1,.5Zm6.9,4.7-3-4.3a1.9,1.9,0,0,1,.6-1.6l14-1.5a1,1,0,0,1,1,.4l3.6,4c.1.1,0,.4,0,.6s-.1.1-.1.2l-4.2.5h-.2Zm31.6,2.7h.2V301a1.5,1.5,0,0,0-.4-1.1l-3.9-4a1.1,1.1,0,0,0-1-.6l5-.7a2,2,0,0,0-.7,2l4,4.3-5.1.6Z"/><path class="cls-9" d="M427.9,294a1.4,1.4,0,0,0-1.5-.6l-7.4.7h.8v-1.3a1.4,1.4,0,0,0-.5-1l-4.1-3.2a1.5,1.5,0,0,0-1.4-.5l-13.4,1.4a2,2,0,0,0-1.2.8l-.5,1,5.5,4.8,3.2-.4h0l-1.3,1.2,7.8,5.9h.1l20.1-2.4V299a1.8,1.8,0,0,0-.4-1Zm-27.5-4.1,13.4-1.5a1.6,1.6,0,0,1,1.1.5L419,292a.9.9,0,0,1,.3.7v.9l-14.9,1.9-5.1-4.5.3-.6A1,1,0,0,1,400.4,289.9Zm33.2,9.9-19.5,2.4-7.2-5.4.8-.8c.8-.4,11.6-1.5,18.8-2.1a1,1,0,0,1,1,.4l5.8,3.9a.9.9,0,0,1,.3.7Z"/><path class="cls-9" d="M445.2,291.5a4.5,4.5,0,0,0-2-.4c-11.4,1.1-12.8,1.5-13,1.7h0l-1.3,1.3,8.5,5.4h.1l14.4-1.9v-1.3a2,2,0,0,0-.3-1.1Zm6.3,5.8-13.9,1.8-7.9-5.1.8-.8c.7-.3,8.1-1.1,12.7-1.6a3.9,3.9,0,0,1,1.8.4l6.2,3.6a1.1,1.1,0,0,1,.3.8Z"/><path class="cls-9" d="M467,291.1a5.2,5.2,0,0,0-2.1-.4c-12.7,1.3-12.9,1.6-13,1.7l-1,1.4,4.6,3.1L470,295v-1a2.1,2.1,0,0,0-.4-1.1Zm2.5,3.4-13.9,1.9-4-2.7.7-.9c.7-.3,8.1-1.2,12.7-1.6a4.7,4.7,0,0,1,1.7.4l2.5,1.7a.9.9,0,0,1,.3.7Z"/><path class="cls-9" d="M484.2,288.9l-1.4-.4a.8.8,0,0,0-.2-.5l-2.6-1.8a5.2,5.2,0,0,0-2.1-.4l-1.7.2,16.7-2.2v-1.3a1.3,1.3,0,0,0-.4-1h-.1a55.2,55.2,0,0,0-6.9-3.4h0L462,281l21.9-2.8h.2V278h.1a.8.8,0,0,0-.2-.4l-6.5-4a3.3,3.3,0,0,0-1.7-.4l-17,2.1-7.7,1H451l-.2.3a1.2,1.2,0,0,0-.4,1.4l5.1,4-1.4.2h.1l-.2-.3-5.1-3.9a1.8,1.8,0,0,0-1.6-.5l-8,.8,2.9-.4h.3v-.3a2.1,2.1,0,0,0-.6-1l-5-3.4a2,2,0,0,0-1.5-.6l-6.8.8,13.2-1.7V271a.4.4,0,0,1-.1-.3c0-.3,0-.7-.3-.9l-5.8-3.2a3.2,3.2,0,0,0-1.9-.5l-11.3,1.3h-.1a1.8,1.8,0,0,0-.3,2.2l5.3,3.6-4.5.5h0a1.8,1.8,0,0,0-.4,2l5,3.8,6.9-1a1.4,1.4,0,0,0-.4,1.6l5.1,3.6,12.9-1.3a.8.8,0,0,0-.2.4l-.6.9,6.7,4.6,7.4-.9c-.1,0-.1,0-.1.1l-.7,1.5,4.4,2.9h0l4,2.6,14.5-1.9v-.9a2,2,0,0,0-.3-1.1Zm-33-12.5,24.6-3a1.7,1.7,0,0,1,1.4.3l6.3,4h0l-27.9,3.5-4.9-3.8C450.7,277.3,450.6,276.9,451.2,276.4Zm-16-9.4,5.7,3.1c.1.1.1.4.1.6s0,.1.1.2l-13.9,1.8-5-3.4c0-.2-.4-.9.1-1.5l11.3-1.2A2.9,2.9,0,0,1,435.2,267Zm-12.3,7.2,12.4-1.5a1.6,1.6,0,0,1,1.1.5l5,3.4a.9.9,0,0,1,.3.5l-14.4,2-4.7-3.6a1.1,1.1,0,0,1,.3-1.3Zm29,8.9a1,1,0,0,1,.8-.6l32.7-4,6.7,3.3a1.9,1.9,0,0,1,.2.7v.8l-34.7,4.6-6.1-4.2Zm-17.4-4.2,12.8-1.3a1.7,1.7,0,0,1,1.2.4l5,3.8h0l-14.6,1.5-4.8-3.4c-.1-.1-.1-.5.4-1Zm52.1,13.4-13.8,1.8-3.9-2.5.5-1,6.6-1h.1l6.4-.6a3.2,3.2,0,0,1,1.4.3l2.5,1.7a1.1,1.1,0,0,1,.2.8Zm-21.3-4.5c.8-.3,8.1-1.1,12.7-1.5a2.5,2.5,0,0,1,1.7.3l2.5,1.8h0a.1.1,0,0,1,.1.1h-.2c-10.4,1-12.5,1.4-12.9,1.6h-.1l-.8,1.1-3.5-2.4Z"/><path class="cls-9" d="M501.1,286.6a3.4,3.4,0,0,0-2-.4c-12.8,1.2-13,1.6-13.1,1.7l-.9,1.4,4.5,3,14.5-1.9v-1a1.3,1.3,0,0,0-.4-1Zm2.5,3.4-13.9,1.8-4-2.6.7-1c.7-.3,8.1-1.1,12.7-1.6a5.8,5.8,0,0,1,1.8.4l2.5,1.7a1.9,1.9,0,0,1,.2.7Z"/></g></g><g id="pantalla"><g id="sombras"><path class="cls-12" d="M164.1,261a4.2,4.2,0,0,1-4.7-3.6h0c-2.3-29.2-15.9-204-15.9-204.6s1.2-5.7,5.4-6.3,297.2-5.3,297.2-5.3a8.6,8.6,0,0,1,6.7,7.4c.9,6.4,11.7,179.1,11.7,179.1a2.9,2.9,0,0,1-2.6,3C459.4,231.2,201,256.9,164.1,261Z"/></g><g id="pantalla-2"><path class="cls-2" d="M290.1,202.2c4.4,6.8,9.8,12.7,17,16.8a26.5,26.5,0,0,0,11.9,3.8L317.2,181l-36.4,2.4A82.3,82.3,0,0,0,290.1,202.2Z"/><path class="cls-2" d="M357.9,112.1a94.7,94.7,0,0,0-8.4-18.3c-4.2-6.8-9.2-13-16.1-17.6a27.2,27.2,0,0,0-11.6-4.9l1.8,41.5Z"/><path class="cls-2" d="M278.1,174.7l38.7-2.4-2.1-50.7-38.8,1A119.1,119.1,0,0,0,278.1,174.7Z"/><path class="cls-2" d="M277.8,113.7l36.5-.7-1.8-41.8c-6.8,1.2-13.7,5.3-18.9,11.3-7.2,8.1-11.6,17.6-14.8,27.8C278.4,111.4,278.1,112.6,277.8,113.7Z"/><path class="cls-2" d="M372.4,144.6a133.8,133.8,0,0,1-1.4,24.5l22.6-1.4a68.4,68.4,0,0,0-2.1-48l-22.6.6A133.1,133.1,0,0,1,372.4,144.6Z"/><path class="cls-2" d="M360.8,178.1l-34.3,2.3,1.8,41.5h.6c7.4-2.4,12.9-7,17.5-12.8s9.5-15.2,12.3-23.7C359.5,183,360.1,180.6,360.8,178.1Z"/><path class="cls-2" d="M360.3,120.5l-36.3.9c.7,16.9,1.4,33.6,2.1,50.4l36.3-2.2A116.2,116.2,0,0,0,360.3,120.5Z"/><path class="cls-2" d="M371.5,177.3c-1.6,0-2.1.5-2.5,2-2.6,11-6.7,21.5-13.4,31.1l-2.9,4c17.5-8.6,30-21.3,38-38.4l-2,.2Z"/><path class="cls-2" d="M264.2,114.1c3.7-.1,3.6-.1,4.5-3.3,3.6-12.6,8.9-24.2,17.8-34a3.6,3.6,0,0,0,.4-.9c-19.8,7.8-34.5,20.4-44.1,38.5h1.5Z"/><path class="cls-2" d="M366.1,110.5a1.8,1.8,0,0,0,2.1,1.6h.2l17.8-.4h1.6c-8.4-15.6-24.3-29-40.9-35,2.1,2.6,4.3,5.1,6.2,7.7A92.4,92.4,0,0,1,366.1,110.5Z"/><path class="cls-2" d="M165.8,250.8a2.1,2.1,0,0,0,.8,1.6,2.2,2.2,0,0,0,1.9.6l296.2-27.6a2.5,2.5,0,0,0,2.3-2.6L455.6,49.5,150.9,56.4ZM226,132.4c4.1-22,16.1-39.8,35-53,20.4-14.4,43.2-19.5,67.9-16.1a89.1,89.1,0,0,1,45.4,19.8c15.8,13.1,25.5,29.2,29.3,48.6l1.2,6.8.4,9.4c-.2,2-.3,4-.5,6a79.9,79.9,0,0,1-17.3,43c-12.7,16.2-29.5,27-50.5,32.2l-7.6,1.7-10.5,1.1h-1.9c-3.9-.2-7.7,0-11.5-.4-22.9-2.3-42.5-11.4-58-27.7C228.3,183.4,221.1,159.2,226,132.4Z"/><path class="cls-2" d="M266.1,122.9l-27.1.6c-6.3,18.2-5.6,36,2.3,53.4l27-1.6A128.6,128.6,0,0,1,266.1,122.9Z"/><path class="cls-2" d="M292.6,220.1c-3.2-3.9-6.6-7.6-9.6-11.7a88.8,88.8,0,0,1-11.5-22.8c-.4-1.3-1.1-1.7-2.6-1.5l-14.1.9-9,.6C257,203,272.7,214.3,292.6,220.1Z"/><path class="cls-1" d="M454.2,28.5a2.5,2.5,0,0,0-2.4-2.2h-.1L151.6,31.4a2.5,2.5,0,0,0-1.8.8,2.7,2.7,0,0,0-.6,1.7l1.6,21.6,304.7-6.9ZM180,45.5h-6l1,.6-.7,1.2L170,44.9l4.3-2.5.7,1.2-1,.6h6Zm15.2,1.8-.6-1.2,1-.6h-6.1V44.2h6.1l-1-.6.6-1.2,4.3,2.5Zm23.6-1.8-3.2-2,.8-1.1.5.3c-.1-.2-.3-.3-.5-.5a3.3,3.3,0,0,0-1.9-.6,3.1,3.1,0,1,0-1.1,6.1h1.1a3.3,3.3,0,0,0,1.9-.6,3.1,3.1,0,0,0,.9-1.1l1.2.6a5.1,5.1,0,0,1-1.3,1.6,5.1,5.1,0,0,1-7.8-2.9,4.5,4.5,0,0,1,3.8-5.1,2.9,2.9,0,0,1,1.3,0,4.4,4.4,0,0,1,2.7.9,9.4,9.4,0,0,1,1,1v-.6l1.3.3Z"/><path class="cls-3" d="M455.1,28.4a3.3,3.3,0,0,0-3.3-3h-.1L151.6,30.5a3.2,3.2,0,0,0-2.4,1.1,2.7,2.7,0,0,0-.9,2.4l16.6,216.8a3,3,0,0,0,1.1,2.3,3.5,3.5,0,0,0,2.2.8h.3l296.3-27.6a3.4,3.4,0,0,0,3.1-3.5Zm1.1,21h-.6L467,222.8a2.5,2.5,0,0,1-2.3,2.6L168.5,253a2.2,2.2,0,0,1-1.9-.6,2.1,2.1,0,0,1-.8-1.6L150.9,56.4h-.4v-.9h.3l-1.6-21.6a2.7,2.7,0,0,1,.6-1.7,2.5,2.5,0,0,1,1.8-.8l300.1-5.1h.1a2.5,2.5,0,0,1,2.4,2.2l1.3,20.1h.7Z"/><polygon class="cls-9" points="455.5 48.6 150.8 55.5 150.5 55.5 150.5 56.4 150.9 56.4 455.6 49.5 456.2 49.4 456.2 48.5 455.5 48.6"/><polygon class="cls-9" points="175 43.6 174.3 42.4 170 44.9 174.3 47.3 175 46.1 174 45.5 180 45.5 180 44.2 174 44.2 175 43.6"/><polygon class="cls-9" points="194.6 43.6 195.6 44.2 189.5 44.2 189.5 45.5 195.6 45.5 194.6 46.1 195.2 47.3 199.5 44.9 195.2 42.4 194.6 43.6"/><path class="cls-9" d="M218.2,42.1a9.4,9.4,0,0,0-1-1,5.1,5.1,0,0,0-7.8,2.9,4.5,4.5,0,0,0,3.8,5.1,2.9,2.9,0,0,0,1.3,0,4.4,4.4,0,0,0,2.7-.9,5.1,5.1,0,0,0,1.3-1.6l-1.2-.6a3.1,3.1,0,0,1-.9,1.1,3.3,3.3,0,0,1-1.9.6,3.1,3.1,0,0,1-1.1-6.1,2.1,2.1,0,0,1,1.1,0,3.3,3.3,0,0,1,1.9.6c.2.2.4.3.5.5l-.5-.3-.8,1.1,3.2,2,.8-3.7-1.3-.3Z"/><path class="cls-10" d="M305.4,231.4c3.8.4,7.6.2,11.5.4h1.9l10.5-1.1,7.6-1.7c21-5.2,37.8-16,50.5-32.2a79.9,79.9,0,0,0,17.3-43c.2-2,.3-4,.5-6l-.4-9.4-1.2-6.8c-3.8-19.4-13.5-35.5-29.3-48.6a89.1,89.1,0,0,0-45.4-19.8C304.2,59.9,281.4,65,261,79.4s-30.9,31-35,53c-4.9,26.8,2.3,51,21.4,71.3C262.9,220,282.5,229.1,305.4,231.4Zm18.6-110,36.3-.9a116.2,116.2,0,0,1,2.1,49.1l-36.3,2.2C325.4,155,324.7,138.3,324,121.4Zm4.9,100.4h-.6l-1.8-41.5,34.3-2.3c-.7,2.5-1.3,4.9-2.1,7.2-2.8,8.5-6.5,16.5-12.3,23.7s-10.1,10.5-17.5,12.9Zm23.8-7.4,2.9-4c6.7-9.6,10.8-20.1,13.4-31.1.4-1.5.9-2,2.5-2l17.2-1.1,2-.2c-8,17.1-20.5,29.8-38,38.4Zm40.9-46.7L371,169.1a133.8,133.8,0,0,0,1.4-24.5,133.1,133.1,0,0,0-3.5-24.3l22.6-.6a68.4,68.4,0,0,1,2.1,48Zm-5.8-56.1h-1.6l-17.8.4a2,2,0,0,1-2.3-1.4v-.2a91.7,91.7,0,0,0-13-26.2c-1.9-2.6-4.1-5.1-6.2-7.7C363.5,82.6,379.4,96,387.8,111.6ZM333.4,76.2c6.9,4.6,11.9,10.8,16.1,17.6a94.7,94.7,0,0,1,8.4,18.3l-34.3.7-1.8-41.5A27.2,27.2,0,0,1,333.4,76.2ZM319,222.8a26.5,26.5,0,0,1-11.9-3.8c-7.2-4.1-12.6-10-17-16.8a82.3,82.3,0,0,1-9.3-18.8l36.4-2.4Zm-2.2-50.5-38.7,2.4a119.1,119.1,0,0,1-2.2-52.1l38.8-1ZM312.5,71.2l1.8,41.8-36.5.7c.3-1.1.6-2.3,1-3.4,3.2-10.2,7.6-19.7,14.8-27.8C298.8,76.5,305.7,72.4,312.5,71.2Zm-25.6,4.7a3.6,3.6,0,0,1-.4.9c-8.9,9.8-14.2,21.4-17.8,34-.9,3.2-.8,3.2-4.5,3.3l-19.9.3h-1.5C252.4,96.3,267.1,83.7,286.9,75.9ZM239,123.5l27.1-.6a128.6,128.6,0,0,0,2.2,52.4l-27,1.6C233.4,159.5,232.7,141.7,239,123.5ZM254.8,185l14.1-.9c1.5-.2,2.2.2,2.6,1.5A88.8,88.8,0,0,0,283,208.4c3,4.1,6.4,7.8,9.6,11.7-19.9-5.8-35.6-17.1-46.8-34.5Z"/></g><g id="barra_tareas" data-name="barra tareas"><path d="M422.3,241a.5.5,0,0,0-.5.3,2.2,2.2,0,0,0-.1.8v1c0,.4,0,.7.1.8a.4.4,0,0,0,.5.2c.2,0,.3-.1.4-.3a1.9,1.9,0,0,0,.2-.8v-1a2.4,2.4,0,0,0-.2-.8Z"/><path d="M430.9,241.2a.7.7,0,0,0-.6.4v1.3a.7.7,0,0,0,.6.3c.4-.1.6-.4.6-1.1a1.7,1.7,0,0,0-.1-.7C431.3,241.2,431.1,241.2,430.9,241.2Z"/><path d="M426.6,240.5l-.5.3a2.2,2.2,0,0,0-.1.8v1.1c0,.3,0,.6.1.7a.5.5,0,0,0,.5.3l.5-.3a1.9,1.9,0,0,0,.1-.8v-1.1a2.2,2.2,0,0,0-.1-.8Z"/><path d="M469.9,231.6l-317,33,.9,13a1.9,1.9,0,0,0,2,1.4l313.6-35.1a1.6,1.6,0,0,0,1.4-1.7ZM175.7,272.2a1.8,1.8,0,0,1-1.9-1.7v-.2a1.8,1.8,0,0,1,1.8-1.8h.1a1.8,1.8,0,0,1,1.8,1.8,1.7,1.7,0,0,1-1.7,1.9Zm11.4-1.2a1.8,1.8,0,0,1-1.8-1.8h0a2,2,0,0,1,1.4-2.3,1.9,1.9,0,0,1,2.3,1.4,1.4,1.4,0,0,1,0,.9,1.7,1.7,0,0,1-1.7,1.9Zm11.5-1.2a1.8,1.8,0,0,1-1.9-1.9,1.9,1.9,0,0,1,1.9-1.9,2,2,0,0,1,1.9,1.9h0a2,2,0,0,1-1.9,1.9Zm213.2-23.9h-.9v-3.4l-1.1.5v-.7l1.9-.9h.1Zm5.2-.5-3,.3v-.6l1.4-1.7a2.1,2.1,0,0,0,.4-.6c.1-.2.2-.3.2-.5a.8.8,0,0,0-.2-.4c-.1-.1-.2-.2-.4-.1l-.5.2a1.3,1.3,0,0,0-.1.6h-.9a1.1,1.1,0,0,1,.2-.8l.5-.6.8-.3a2,2,0,0,1,1.1.3,1.1,1.1,0,0,1,.3.8,1.7,1.7,0,0,1-.1.7,1.8,1.8,0,0,1-.6.9l-1,1.2,1.9-.3Zm2.2-.4-.3.2h-.4a.4.4,0,0,1-.1-.3c0-.2,0-.3.1-.4l.4-.2h.3a.8.8,0,0,1,.2.4C419.4,244.8,419.3,244.9,419.2,245Zm0-2.5-.3.2h-.4a.4.4,0,0,1-.1-.3c0-.2,0-.3.1-.4h.4c.1-.1.2,0,.3.1s.2.1.2.3S419.3,242.4,419.2,242.5Zm4.6.3a2.3,2.3,0,0,1-.4,1.4,1.3,1.3,0,0,1-1.1.6,1.1,1.1,0,0,1-1.1-.3,1.6,1.6,0,0,1-.4-1.3v-.9a1.8,1.8,0,0,1,.4-1.4,2.4,2.4,0,0,1,1.1-.6,1.2,1.2,0,0,1,1.1.4,2,2,0,0,1,.4,1.3Zm4.3-.5a2.6,2.6,0,0,1-.4,1.5,1.7,1.7,0,0,1-1.1.6,1.2,1.2,0,0,1-1.1-.4,1.6,1.6,0,0,1-.4-1.3v-.8a2.6,2.6,0,0,1,.4-1.5,2.4,2.4,0,0,1,1.1-.6,1.5,1.5,0,0,1,1.1.4,2,2,0,0,1,.4,1.3Zm4.3-.2a2.7,2.7,0,0,1-.3,1.2,2.1,2.1,0,0,1-1,.6,1.1,1.1,0,0,1-.8-.3v1.6h-.8v-4.6h.8v.3a1.2,1.2,0,0,1,.8-.4.9.9,0,0,1,1,.3,2.7,2.7,0,0,1,.3,1.2Zm6,.9h-.9v-2c0-.2,0-.3-.1-.4H437l-.5.5v2.2h-.9v-2.1c0-.2,0-.3-.1-.4h-.4a1,1,0,0,0-.5.4v2.3h-.9v-3.3h.8v.3a1.1,1.1,0,0,1,.9-.5.8.8,0,0,1,.9.4,1.1,1.1,0,0,1,1-.6.8.8,0,0,1,.8.2,2.9,2.9,0,0,1,.2.9Zm8.5-.9h-1v-3.3l-1.2,3.4h-.6l-1.2-3.2v3.3H442v-4.4l1.2-.2,1.1,3.1,1.2-3.3h1.2Zm4.5-.5-3,.3v-4.4l3-.3v.7l-2.1.2v1.1l1.8-.2v.7l-1.8.2v1.2l2.1-.2Zm3.7-.4-.9-1.5-.8,1.7h-1.1l1.4-2.4-1.3-2h1l.8,1.4.9-1.6h1l-1.3,2.3,1.4,2.1Z"/><circle class="cls-2" cx="175.7" cy="270.3" r="1.9"/><circle class="cls-2" cx="187.1" cy="269.1" r="1.9"/><path class="cls-2" d="M198.6,266a1.9,1.9,0,0,0-1.9,1.9,1.8,1.8,0,0,0,1.9,1.9,1.9,1.9,0,0,0,1.9-1.9h0A2.1,2.1,0,0,0,198.6,266Z"/><polygon class="cls-2" points="409.8 242.4 409.8 243.1 410.9 242.6 410.9 246 411.8 245.9 411.8 241.5 411.7 241.5 409.8 242.4"/><path class="cls-2" d="M416.1,243.7a1.8,1.8,0,0,0,.6-.9,1.7,1.7,0,0,0,.1-.7,1.1,1.1,0,0,0-.3-.8,2,2,0,0,0-1.1-.3l-.8.3-.5.6a1.1,1.1,0,0,0-.2.8h.9a1.3,1.3,0,0,1,.1-.6l.5-.2c.2-.1.3,0,.4.1l.2.4c0,.2-.1.3-.2.5a2.1,2.1,0,0,1-.4.6l-1.4,1.7v.6l3-.3v-.8l-1.9.3Z"/><path class="cls-2" d="M418.9,241.8h-.4c-.1.1-.1.2-.1.4a.4.4,0,0,0,.1.3h.4l.3-.2.2-.3c0-.1-.1-.3-.2-.3Z"/><path class="cls-2" d="M418.9,244.2l-.4.2c-.1.1-.1.2-.1.4a.4.4,0,0,0,.1.3h.4l.3-.2.2-.3a.8.8,0,0,0-.2-.4Z"/><path class="cls-2" d="M422.3,240.3a2.4,2.4,0,0,0-1.1.6,1.8,1.8,0,0,0-.4,1.4v.9a1.6,1.6,0,0,0,.4,1.3,1.1,1.1,0,0,0,1.1.3,1.3,1.3,0,0,0,1.1-.6,2.3,2.3,0,0,0,.4-1.4V242a2,2,0,0,0-.4-1.3A1.2,1.2,0,0,0,422.3,240.3Zm.6,2.7a1.9,1.9,0,0,1-.2.8c-.1.2-.2.3-.4.3a.4.4,0,0,1-.5-.2c-.1-.1-.1-.4-.1-.8v-1a2.2,2.2,0,0,1,.1-.8.5.5,0,0,1,.5-.3l.4.2a2.4,2.4,0,0,1,.2.8Z"/><path class="cls-2" d="M426.6,239.8a2.4,2.4,0,0,0-1.1.6,2.6,2.6,0,0,0-.4,1.5v.8a1.6,1.6,0,0,0,.4,1.3,1.2,1.2,0,0,0,1.1.4,1.7,1.7,0,0,0,1.1-.6,2.6,2.6,0,0,0,.4-1.5v-.8a2,2,0,0,0-.4-1.3A1.5,1.5,0,0,0,426.6,239.8Zm.6,2.8a1.9,1.9,0,0,1-.1.8l-.5.3a.5.5,0,0,1-.5-.3c-.1-.1-.1-.4-.1-.7v-1.1a2.2,2.2,0,0,1,.1-.8l.5-.3.5.2a2.2,2.2,0,0,1,.1.8Z"/><path class="cls-2" d="M431.1,240.5a1.2,1.2,0,0,0-.8.4v-.3h-.8v4.6h.8v-1.6a1.1,1.1,0,0,0,.8.3,2.1,2.1,0,0,0,1-.6,2.7,2.7,0,0,0,.3-1.2h0a2.7,2.7,0,0,0-.3-1.2A1,1,0,0,0,431.1,240.5Zm-.2,2.7a.7.7,0,0,1-.6-.3v-1.3a.7.7,0,0,1,.6-.4c.2,0,.4,0,.5.2a1.7,1.7,0,0,1,.1.7C431.5,242.8,431.3,243.1,430.9,243.2Z"/><path class="cls-2" d="M437.4,239.8a1.1,1.1,0,0,0-1,.6.8.8,0,0,0-.9-.4,1.1,1.1,0,0,0-.9.5v-.3h-.8v3.3h.9v-2.3a1,1,0,0,1,.5-.4h.4c.1.1.1.2.1.4v2.1h.9V241a1.2,1.2,0,0,1,.5-.5h.4c.1.1.1.2.1.4V243h.9v-2.1a2.9,2.9,0,0,0-.2-.9A1,1,0,0,0,437.4,239.8Z"/><polygon class="cls-2" points="444.5 241.1 443.4 238 442.2 238.2 442.2 242.6 443.1 242.5 443.1 241.3 443 239.2 444.2 242.4 444.8 242.3 446 238.9 445.9 241 445.9 242.2 446.9 242.1 446.9 237.7 445.7 237.8 444.5 241.1"/><polygon class="cls-2" points="449.3 239.9 451.1 239.7 451.1 239 449.3 239.2 449.3 238.1 451.4 237.9 451.4 237.2 448.4 237.5 448.4 241.9 451.4 241.6 451.4 240.9 449.3 241.1 449.3 239.9"/><polygon class="cls-2" points="456.1 236.7 455.1 236.8 454.2 238.4 453.4 237 452.4 237.1 453.7 239.1 452.3 241.5 453.4 241.4 454.2 239.7 455.1 241.2 456.2 241.1 454.8 239 456.1 236.7"/></g></g><g id="https"><g id="https-2"><g id="sombra" class="cls-13"><rect class="cls-14" x="169.9" y="149.3" width="293.9" height="40.94" rx="20"/></g><g id="renglon"><path class="cls-2" d="M471.4,165.2a20.2,20.2,0,0,0-20-20H185.2a20,20,0,0,0,0,40H451.4A20.1,20.1,0,0,0,471.4,165.2Z"/><path class="cls-4" d="M451.4,144.3H185.2a20.9,20.9,0,1,0,0,41.8H451.4a20.9,20.9,0,1,0,0-41.8ZM165.1,165.2a20.1,20.1,0,0,1,20.1-20H451.4a20,20,0,0,1,0,40H185.2A20.1,20.1,0,0,1,165.1,165.2Z"/></g><path id="h" d="M285.5,161.3a5,5,0,0,1,4-1.9c3.2,0,4.9,1.9,4.9,5.7v9.6h-4v-9.5a2.5,2.5,0,0,0-4.9-1.2v10.7h-4V153.4h4Z"/><path id="t" d="M302.3,156v3.7h2.5v2.9h-2.5v7.5a1.3,1.3,0,0,0,.3,1.2,1.7,1.7,0,0,0,1.2.4H305v3a10.9,10.9,0,0,1-2.5.4c-2.8,0-4.2-1.5-4.3-4.3v-8.1h-2.1v-2.9h2.1V156Z"/><path id="t-2" d="M311.8,156v3.7h2.6v2.9h-2.6v7.5a1.4,1.4,0,0,0,1.2,1.6h1.6v3a10.9,10.9,0,0,1-2.5.4c-2.8,0-4.2-1.5-4.3-4.3v-8.1h-2.2v-2.9h2.2V156Z"/><path id="p" d="M330.2,167.3a9.2,9.2,0,0,1-1.6,5.6,5.2,5.2,0,0,1-4.3,2.1,4.8,4.8,0,0,1-3.6-1.6v7h-4.1V159.7h3.8v1.4a4.9,4.9,0,0,1,3.8-1.7,5.1,5.1,0,0,1,4.3,2,9.7,9.7,0,0,1,1.6,5.7Zm-4.1-.3a6,6,0,0,0-.7-3.2,2.5,2.5,0,0,0-2.1-1.1c-1.3,0-2.2.4-2.6,1.4v6.1a2.5,2.5,0,0,0,2.6,1.5C325.2,171.7,326.1,170.2,326.1,167Z"/><path id="s" class="cls-4" d="M340.8,170.5c0-.5-.3-.8-.8-1.1a6.3,6.3,0,0,0-2.3-.8q-5.4-1-5.4-4.5a4.2,4.2,0,0,1,1.7-3.4,6.6,6.6,0,0,1,4.3-1.3,7.5,7.5,0,0,1,4.6,1.3,4,4,0,0,1,1.7,3.5h-4a1.8,1.8,0,0,0-2.3-1.9,2.6,2.6,0,0,0-1.5.4,1.4,1.4,0,0,0-.6,1.2,1.1,1.1,0,0,0,.6,1,5.8,5.8,0,0,0,2.2.8l2.5.6c2.1.8,3.2,2.2,3.2,4.1a4,4,0,0,1-1.8,3.3,7.9,7.9,0,0,1-4.5,1.3,8,8,0,0,1-3.4-.7,6,6,0,0,1-2.3-1.9,4.4,4.4,0,0,1-.8-2.5h3.8a1.9,1.9,0,0,0,.8,1.6,3.1,3.1,0,0,0,1.9.6,2.8,2.8,0,0,0,1.8-.4A1.4,1.4,0,0,0,340.8,170.5Z"/><path id="puntos" d="M347.4,161.4a2.4,2.4,0,0,1,.7-1.6,2.4,2.4,0,0,1,3.2,0,2,2,0,0,1,.7,1.6,1.7,1.7,0,0,1-.7,1.5,2.4,2.4,0,0,1-3.3,0,2.5,2.5,0,0,1-.6-1.5Zm0,11.3a2.1,2.1,0,0,1,.7-1.5,2.4,2.4,0,0,1,3.2,0,2,2,0,0,1,.2,2.8l-.2.2a2.4,2.4,0,0,1-3.3,0,2.5,2.5,0,0,1-.6-1.5Z"/><path id="guion" d="M356.5,176.4h-3l7.5-21.9h3Z"/><path id="guion-2" d="M363.7,176.4h-3l7.4-21.9h3Z"/><path id="w" d="M386.1,169.2l2-9.5h3.8l-3.8,15h-3.3l-2.9-9.5-2.8,9.5h-3.4l-3.8-15h3.9l1.9,9.5,2.8-9.5h2.9Z"/><path id="w-2" d="M407,169.2l1.9-9.5h3.9l-3.8,15h-3.4l-2.8-9.5-2.9,9.5h-3.3l-3.8-15h3.8l2,9.5,2.7-9.5h2.9Z"/><path id="w-3" d="M427.8,169.2l2-9.5h3.9l-3.8,15h-3.4l-2.8-9.5-2.9,9.5h-3.3l-3.9-15h3.9l2,9.5,2.7-9.5h2.9Z"/></g></g><g id="moo"><g id="moo-2"><path class="cls-4" d="M591.7,326c-4.5-2.7-8.3-4.6-11.9-6.4l-3.4-1.8c-1.1,1.4-5.8,6.8-9.4,7.3s-7.9,5.9-8.6,6.9l.7.6L573,341h.1l1.3-4h0l.8-2.1,6.4,1.9,1.4-2.9.3-.4h-.2l1-2.4,6.1,2.6v-.2l1.5-7.4Z"/><path class="cls-4" d="M569.5,313.5A80.8,80.8,0,0,0,552.1,302a94.1,94.1,0,0,1-10.5-3.9c-6.8,3.9-12.4,9-17.3,12.3a23.6,23.6,0,0,0,5.1,4.9,60,60,0,0,0,6.9,3c5.7,2.3,12.9,4.8,17.2,9.1h.1C559.5,323.1,566.6,325.4,569.5,313.5Z"/><path class="cls-15" d="M591.7,325.7l-1.6,8.1.5-1c0-.1,0-.1.1-.2h.3l7.2,4-1.4-3.2C595.6,330.5,594.2,327.3,591.7,325.7Z"/><path class="cls-15" d="M574.4,336.9h.4l5.9,2.3,1-2.3-6.5-2Z"/><path class="cls-15" d="M559.1,332.6l2.1,1.7.3.3h.1l.2.2c5.4,4.6,9,7.7,9.9,10.2l1.4-4H573Z"/><path class="cls-15" d="M583.1,333.4c.1,0,.2,0,.2.1l5.7,3.2,1.2-3.1-6.1-2.6Z"/><path class="cls-4" d="M556.9,333l3.5,1.2-2.3-2-.5.4Z"/><path class="cls-4" d="M548.4,295.2a49.8,49.8,0,0,0-6.2,2.9c2.6,1.1,5.8,2.3,10,3.7A84.2,84.2,0,0,1,570,313.5c8.9.7,4.6-5,4.6-5l-.2-.5-.9-.6c-3.6-2.9-10.1-7.7-16.6-8.9A29.4,29.4,0,0,1,548.4,295.2Z"/><path class="cls-4" d="M513.1,313.3a36.4,36.4,0,0,0,6,4.3c7.3,3.6,20.9,11.9,22.7,13.8a10.6,10.6,0,0,1,1.7,2.6c3.2-.6,12.8-.3,10.9-5.4l-1.1-.5c-4.2-4.3-11.3-7.1-17-9.4-2.8-1.2-5.2-2.1-7-3.1a26.8,26.8,0,0,1-5.4-4.7C520.1,313.3,516.4,314.6,513.1,313.3Z"/><path class="cls-15" d="M567,325.1c3.6-.5,8.3-5.9,9.4-7.3-2.7-1.4-4.7-2.2-5.6-3.1l-1.3-1.3c-2.9,11.9-10.3,9.6-16.2,14,.9.9,2.6,2.5,4.4,4l.7.6C559.1,331,563.2,325.7,567,325.1Z"/><path class="cls-15" d="M570.2,313.5l.9.8a18.3,18.3,0,0,0,4.2,2.6l-.3-2.4a.4.4,0,0,1,.1-.3h.3l3.3,1-1.4-2.7v-.2c.1-.1.1-.2.2-.2l3.2-.8-4.6-1.8-1.5-1h0S578.2,314.2,570.2,313.5Z"/><path class="cls-15" d="M543.4,333.4a55.3,55.3,0,0,1,3.3,8.5l1.2-4.8a2.4,2.4,0,0,1,.2-.8h.2L552,338l.6-2.7.4-.6,3.9,1.1v-2c.1-.1,0-.9.1-.8h.1l.6-.4.8-.6-.7-.6-3.9-3.8C555.8,332.7,546.6,332.8,543.4,333.4Z"/><path class="cls-15" d="M540.5,289.3l-2.3,3.9H538l-.4-.2.3.3-2.7-.7v1.8a31.3,31.3,0,0,0,7,3.7,49.8,49.8,0,0,1,6.2-2.9A40.6,40.6,0,0,1,540.5,289.3Z"/><path class="cls-15" d="M535.6,295.1v.8c0,.2,0,.3-.1.3l-3.8,3.7a.3.3,0,0,1-.4,0l-3.7-2.2-2,1a7.5,7.5,0,0,1,1.1,2.8,3,3,0,0,1-.8,2.4c-.7.7-4.1,1.1-4.8,1.1l-.4-.3c-.5-.5-.4-2.4-.4-3.4a22.7,22.7,0,0,0-5.8,1c.5.8,2,2.4,2,3.1a3,3,0,0,1-3.1,2.5h-2c-1.1.1-1.7.2-2.1-.2s-.2-3.1,0-4.8l-4.4.3a64.5,64.5,0,0,0,8.3,10.3c3.3,1.3,7.1-.3,10.9-2.7a61.6,61.6,0,0,1-6.5-8.7c-.1-.1,0-.3.1-.4s.2.1.3.3a59.7,59.7,0,0,0,6.5,8.5c4.9-3.3,10.5-8.4,17.3-12.3A39.9,39.9,0,0,1,535.6,295.1Z"/><path class="cls-4" d="M531.7,266.3a12.8,12.8,0,0,0-3.2,2.4c0,.1-.1.1-.2.1l-8.1,5.9a9,9,0,0,1,2.3,3.2l13.5-7.8A13.1,13.1,0,0,0,531.7,266.3Z"/><path class="cls-4" d="M501.4,293.6V291a15.1,15.1,0,0,1-4.6-1.3L490,301.9l3.8,1.3h3.9l3.7-9.5Z"/><path class="cls-4" d="M496.4,289.5a13.8,13.8,0,0,1-3.6-2.3l-10.3,10.9,3.4,2.1h0l8.4-7Z"/><path class="cls-4" d="M517.6,272.8a10.7,10.7,0,0,1,2.2,1.5l8.4-10.1-2.7-1.2c-.8.4-5.9,5.9-9,9.3Z"/><path class="cls-4" d="M516,272h0c2.6-4.3,6-9.6,6.3-10.7a64.3,64.3,0,0,0-7.6-1.7c-.6.7-2.5,7-3.8,11.2A22.3,22.3,0,0,1,516,272Z"/><path class="cls-4" d="M490.2,302.6a12.7,12.7,0,0,1,1.3,3.2v1.5h.2l1.6-3.6Z"/><path class="cls-4" d="M498.7,272a23.3,23.3,0,0,1,5.2-1.3c-2.6-4.6-5.6-9.4-6.3-9.8s-4,1-6,1.7c.6,1.2,4.5,6.2,7,9.3A.1.1,0,0,1,498.7,272Z"/><path class="cls-4" d="M521.2,285l17.2,1.4,1.4-3.6h0a8.8,8.8,0,0,0,.2-1.6l-17.4.8A11.7,11.7,0,0,1,521.2,285Z"/><path class="cls-4" d="M505.8,270.5a21.6,21.6,0,0,1,4.4.1c.1-4.9,0-10-.4-10.8h-4.6l-3.3.3c0,1,1.3,5.9,2.6,10.2v.2Z"/><path class="cls-4" d="M522.9,279.9a8.6,8.6,0,0,1-.1,1.6l17.2-2.4a12.1,12.1,0,0,0-1.6-5.5h-.5L522.7,279A2.9,2.9,0,0,1,522.9,279.9Z"/><path class="cls-4" d="M473,282.4l16.7-.9a.2.2,0,0,1,.2.2h.2a6.2,6.2,0,0,1,.8-3.5l-13.6-1.5c-.1,0-.1-.1-.1-.2H477a14.3,14.3,0,0,1-2.9-.3l-.3,1.2A43.3,43.3,0,0,0,473,282.4Z"/><polygon class="cls-4" points="482.5 298.6 482.9 303.4 485.5 300.5 482.5 298.6"/><path class="cls-4" d="M477.8,293.9l5-1.7,7.4-2.8,2.3-2.5a8.7,8.7,0,0,1-2.2-3.5l-5.5,2.5-.2.2h-.3l-10.4,4.6,3.9,3.4Z"/><path class="cls-4" d="M517.9,288.1l16.9,4h0l2.8-4.3h0l.2-.2.4-.6-17.3-1.5a12.6,12.6,0,0,1-2.4,2.2l-.9.6h.3Z"/><path class="cls-4" d="M491.1,277.7a17.8,17.8,0,0,1,2.2-2.6c-5.3-2.8-13.6-7.1-14.8-7.4a19.4,19.4,0,0,0-2.1,2.9Z"/><path class="cls-4" d="M493.8,274.7a16.7,16.7,0,0,1,4.3-2.5c-4-3.4-10.4-8.6-11.4-9.1a28.6,28.6,0,0,0-4.2,2.4C483.5,266.6,489.8,271.6,493.8,274.7Z"/><path class="cls-4" d="M477.6,295.7h0v-1.2l-3.8-3.3v.5q.8,2.7,1.8,5.4Z"/><path class="cls-4" d="M530.7,294.7l-2.7-1.2-11.4-4.7-3.6,1.5,12.1,8,2.3-1.1Z"/><path class="cls-4" d="M512.4,290.5a29.3,29.3,0,0,1-4.1.7l5.9,10.6a22,22,0,0,1,5.7-1Z"/><path class="cls-4" d="M509.3,302.9l-1.6-11.6h-2.2a23.1,23.1,0,0,1-3.7-.3v12.2Z"/><polygon class="cls-15" points="477.8 294.1 477.9 294.2 482.8 292.2 477.8 293.9 477.8 294.1"/><path class="cls-15" d="M482.5,304.1l-.7-5.9c0-.2.3,0,.5-.1l.5-.7,7-7.5L478,294.6v1.2h.1l-.2,5C478.5,302.6,480.6,303.8,482.5,304.1Z"/><path class="cls-15" d="M487.9,307.3a4.7,4.7,0,0,0,3.1.1v-1.6a15.1,15.1,0,0,0-1.4-3.5h0c-.2,0-.3-.2-.2-.4h.2l4.4-8-8,6.6v4.7A3.6,3.6,0,0,0,487.9,307.3Z"/><path class="cls-15" d="M497.9,309a5.6,5.6,0,0,0,4.4.6c.9-.2,1.5-.1,2-1.7s-1.6-3.4-2.4-4.4-.4-.2-.4-.3h.1l-.2-8.3-3.5,8.3c.1.1.4.3.3.4S496.8,307.9,497.9,309Z"/><path class="cls-15" d="M472.9,286.4a9.9,9.9,0,0,1,.2,1.7v-.9A1.9,1.9,0,0,1,472.9,286.4Z"/><polygon class="cls-15" points="473.8 290 473.8 290.2 483.5 286.2 473.7 287.4 473.8 290"/><path class="cls-15" d="M489.7,281.9l-16.7,1v.5a18.6,18.6,0,0,0,.6,3.4l10.1-1h.9l5.6-2.8a4.1,4.1,0,0,1-.1-1.1v-.2h-.2A.2.2,0,0,1,489.7,281.9Z"/><polygon class="cls-15" points="531.1 299.3 531.1 295.2 528.1 297.4 531.1 299.3"/><polygon class="cls-15" points="537.6 288.6 534.9 292.3 537.7 292.6 537.6 288.6"/><path class="cls-15" d="M536.1,270.5l-14,8,.6.5,13.3-4.5v-1C536.2,272.4,536,271.6,536.1,270.5Z"/><polygon class="cls-15" points="521.1 273.5 528 268.4 528.3 264.8 521.1 273.5"/><path class="cls-15" d="M477.3,276.2h.1l12.6,1.5-13.7-6.6C476.4,271.9,476.8,274.2,477.3,276.2Z"/><path class="cls-15" d="M482.4,266.2v2.6l8.4,4.3A90.4,90.4,0,0,1,482.4,266.2Z"/><path class="cls-15" d="M514.1,301.9l-5.8-10.7,1.1,11.4h.1v.3a14.2,14.2,0,0,0-.1,4.6c.2.2.9.1,1.7,0h2.1a2.5,2.5,0,0,0,2.8-2,13.8,13.8,0,0,0-2-3.3Z"/><path class="cls-15" d="M524.9,298.8c-.1,0,0,0,0-.1L513.3,291l7.1,9.9h.2v.5c-.1,1.7-.3,3,0,3.2s4.4-.5,4.9-1a3.6,3.6,0,0,0,.6-2A9.6,9.6,0,0,0,524.9,298.8Z"/><polygon class="cls-15" points="530.7 294.7 530.8 294.6 528 293.5 530.7 294.7"/><path class="cls-15" d="M534.9,292.3l-17.1-3.8c-.2,0-.2-.1-.2-.2s0-.1.1-.1h-.1l-.5.3,13.4,5.8h.8l.3.3V299l3.3-3.2Z"/><path class="cls-15" d="M540,281.2v-1.6l-15.9,2.2Z"/><path class="cls-15" d="M540,289v-5.6l-1.1,2.6v.8l-.8.7v5.1Z"/><path class="cls-2" d="M507.1,290.8a21.8,21.8,0,0,0,11-3.6c2.9-2.1,4.4-4.7,4.2-7.3s-1.9-4.9-5-6.6a20,20,0,0,0-6.8-2.1h-.1a15.1,15.1,0,0,0-3-.2h-1.5a21.2,21.2,0,0,0-11.9,4.2h0c-2.2,1.9-3.5,4.2-3.4,6.7C491,287.3,498.3,291.3,507.1,290.8Zm-.7-16.5,8.5,3.9,2.9-2.1,1.7.8-4.4,3.1L505,275.4Zm-5.8,4.6a1.7,1.7,0,0,1,.9-1.1,5.3,5.3,0,0,1,1.7-.8,6.1,6.1,0,0,1,1.9-.1,6.5,6.5,0,0,1,2,.5l-1.4,1a3.2,3.2,0,0,0-1.4-.3,2.8,2.8,0,0,0-1.2.4c-.3.3-.5.5-.4.8a1,1,0,0,0,.5.6,2.5,2.5,0,0,0,1.2.1l1.6-.4a16.3,16.3,0,0,1,3-.7,5.4,5.4,0,0,1,2.5.6c.9.4,1.4.8,1.4,1.4a1.9,1.9,0,0,1-1,1.6,3.7,3.7,0,0,1-1.8.8,5.5,5.5,0,0,1-2.2.2,6.5,6.5,0,0,1-2-.5l1.4-1.1a2.7,2.7,0,0,0,3-.1c.3-.3.4-.5.4-.7a.6.6,0,0,0-.5-.6,1.7,1.7,0,0,0-1.2-.2,4.7,4.7,0,0,0-1.7.4l-1.8.5a7.8,7.8,0,0,1-3.7-.3,3.1,3.1,0,0,1-1.1-.9A1.1,1.1,0,0,1,500.6,278.9Zm-5.9,4.2a3.5,3.5,0,0,1,1-1.1,4.8,4.8,0,0,1,1.6-.8,6.7,6.7,0,0,1,2-.1,6.5,6.5,0,0,1,2,.5l-1.4,1a3.2,3.2,0,0,0-1.4-.3l-1.2.5c-.3.2-.5.4-.5.7a.9.9,0,0,0,.6.6,2.5,2.5,0,0,0,1.2.1l1.6-.4a8,8,0,0,1,3-.6,4.3,4.3,0,0,1,2.5.5c.9.4,1.4.8,1.4,1.4a1.9,1.9,0,0,1-1,1.6,4.8,4.8,0,0,1-1.9.9,7.4,7.4,0,0,1-2.1.1,5.4,5.4,0,0,1-2.1-.5l1.4-1a2.9,2.9,0,0,0,3-.2c.4-.3.5-.5.5-.7a.7.7,0,0,0-.6-.6,1.4,1.4,0,0,0-1.1-.2,4.7,4.7,0,0,0-1.7.4l-1.8.5a5.9,5.9,0,0,1-3.7-.3,3.1,3.1,0,0,1-1.1-.9A1.1,1.1,0,0,1,494.7,283.1Z"/><path class="cls-9" d="M598.4,336.7l-1.3-3.1c-1.2-3.1-2.5-6.3-5.2-7.9-4.5-2.7-9-5-12.7-6.8l-3.3-1.7-.3-2.3,3.6,1.1c.1,0,.3,0,.3-.1s.1-.2.1-.4l-1.5-2.9,3.7-.9q.3-.1.3-.3c0-.1-.1-.3-.2-.3l-5.5-2.1-2.1-1.6c-3.7-2.9-10.4-8.2-17.1-9.5s-15.7-8.1-16.6-8.9l-.2-6.3a13,13,0,0,0,.2-3.4,11.5,11.5,0,0,0-1.8-6.2c0-.1-.2-.2-.3-.2l-2.1.7c.5-3.4.4-3.6.3-3.7a18.1,18.1,0,0,0-4.6-4.1c-.2-.1-.7-.5-3.4,2l.2-3.7c0-.2,0-.3-.2-.3l-3-1.4c-.3-.1-.7-.3-7.6,7.2,2.3-3.9,4.4-7.7,4.2-8.3l-.3-.2a45,45,0,0,0-7.3-1.5c-.3-.1-.9-.1-3.9,9.1.2-9.4-.6-9.5-.8-9.5h-4.9l-3.4.3-.3.2c-.3.5.7,4.5,1.8,8.5-4.8-8.2-5.4-8-5.6-8a48.4,48.4,0,0,0-6.5,1.9l-.2.2c-.1.1-.2.6,5.3,7.4-9-7.5-9.4-7.3-9.6-7.3A41.7,41.7,0,0,0,482,265h-.1c0,.1-.1.1-.1.2h0v3c-3.3-1.6-3.5-1.4-3.6-1.3a11.6,11.6,0,0,0-2.4,3.4c-.2.5.5,3.7.8,5.4l-2.7-.3-.3.2a8.3,8.3,0,0,1-.4,1.5,25.5,25.5,0,0,0-.8,6.1,9.3,9.3,0,0,0,.5,2.9,1.9,1.9,0,0,0,.2.8v4.5a38.4,38.4,0,0,0,2,6,.2.2,0,0,0,.2.2h.2l1.9-1.4v3.9h0a6.2,6.2,0,0,0,5.1,4h.3l2.7-3-.3,3.8h.1a4.5,4.5,0,0,0,2.3,2.6c1.6.8,4.2-.1,4.3-.1s.1-.1.2-.2l1.8-3.8h3.4c-.3,1.2-1.2,4.4.1,5.7a6,6,0,0,0,4.9.8,2.5,2.5,0,0,0,2.2-1.5c.5-1.4-1.4-4-2.2-5.1h1.8v.2c.3.4,7.3,10.7,14.4,14.3s21.5,12.3,23.3,14.1,4.4,10.6,4.4,10.7l.3.2h0c.2,0,.3-.1.3-.2l1.5-5.8,3.4,1.6h.4l.9-3.1,3.7,1h.2l.2-.2v-2.4l4,1.4c6.2,5.2,10.3,8.7,10.1,11.2l.2.3h.1l.3-.2,3-8.9,5.7,2.1c.2,0,.4-.1.4-.2l2.3-5.2,5.4,3h.4l1.9-3.8,7,3.8h.4c.1,0,.3-.1.3-.2S598.5,336.7,598.4,336.7Zm-7.4-4.1h-.3c-.1.1-.1.1-.1.2l-.3.6v.3l-1.4,2.8-5.4-3c0-.1-.1-.1-.2-.1h0l-.2.2-1.4,3.1-.9,2.2-5.8-2.1h-.4l-1.3,4-1.4,4c-.9-2.5-4.5-5.6-9.9-10.2l-.2-.2h-.1l-.3-.3-2.1-1.7-.7-.6-.7-.6c-1.8-1.5-3.1-2.7-4-3.6h-.1c-4.3-4.3-11.4-7.2-17.1-9.5a62.1,62.1,0,0,1-7-3.1,21.6,21.6,0,0,1-5.1-4.4,62.5,62.5,0,0,1-6.5-8.8c-.1-.2-.3-.2-.5-.1a.2.2,0,0,0-.1.4,62.5,62.5,0,0,0,6.5,8.8,26.8,26.8,0,0,0,5.4,4.7c1.8,1,4.2,1.9,7,3.1,5.7,2.3,12.8,5.1,17,9.4l.5.5,3.6,3.2.6.5,2,1.6-2.8-1h-.5v2.7l-3.6-1-.4.2-.9,3-3.4-1.6h-.2l-.2.2-1.3,5.1a63.2,63.2,0,0,0-3.2-8.2,9.9,9.9,0,0,0-1.1-1.7c-1.8-1.9-16.1-10.7-23.4-14.3a27.3,27.3,0,0,1-5.6-4,62.5,62.5,0,0,1-8.5-10l4.1-.2c-.2,1.7-.3,4.3.1,4.7s1.2.3,2.3.2h2a3,3,0,0,0,3.1-2.5c0-.7-1.2-2.4-1.7-3.2a16,16,0,0,1,5.3-.9c0,1-.1,3.1.4,3.6l.4.2c.7,0,4.3-.5,5-1.2a3.1,3.1,0,0,0,.8-2.4,9.6,9.6,0,0,0-1.1-2.8l2-1,3.7,2.2a.3.3,0,0,0,.4,0l3.8-3.7a.4.4,0,0,0,.1-.3v-.8a46.5,46.5,0,0,0,6.3,3.2,94.1,94.1,0,0,0,10.5,3.9,77.2,77.2,0,0,1,17.4,11.5l1,.9c.9.9,2.8,1.9,5.5,3.3l2.9,1.5c3.6,1.8,8.1,4,12.6,6.7h.1c2.5,1.6,3.7,4.7,4.9,7.6l.9,2.3Zm-93.4-71.7c.7.4,3.7,5.2,6.3,9.8a23.3,23.3,0,0,0-5.2,1.3.1.1,0,0,0-.1-.1h0c-2.5-3.1-6.4-8.1-7-9.3,2-.7,4-1.2,6-1.7Zm4.3-.7,3.3-.3h4.6c.4.8.5,5.9.4,10.8a21.6,21.6,0,0,0-4.4-.1h-1.3v-.2C503.2,266.1,501.9,261.2,501.9,260.2Zm19.8,1.4c-.3,1.1-3.1,6-5.7,10.3h0a22.5,22.5,0,0,0-5.1-1.3c1.3-4.2,3.2-9.8,3.8-10.5C517.1,260.5,519.4,261,521.7,261.6Zm3.8,1.4,2.7,1.2-8.4,10.1a10.7,10.7,0,0,0-2.2-1.5l-1.1-.5C519.6,268.9,524.7,263.4,525.5,263Zm49.1,45.5,1.5,1,4.6,1.8-3.2.8c-.1,0-.1.1-.2.2v.2l1.4,2.7-3.3-1h-.3a.4.4,0,0,0-.1.3l.3,2.4a18.3,18.3,0,0,1-4.2-2.6l-.9-.8a80.5,80.5,0,0,0-17.8-11.7c-4.2-1.4-7.4-2.6-10-3.7a36,36,0,0,1-7-3.7v-1.6l2.7.5h0a.1.1,0,0,1,.1-.1h.2l2.1-3.5a45.7,45.7,0,0,0,8.2,5.6,32.6,32.6,0,0,0,8.5,3.3c6.5,1.2,13.2,6.5,16.8,9.4Zm-80.8-5.3-3.8-1.3,6.8-12.2a15.1,15.1,0,0,0,4.6,1.3v2.6h0l-3.7,9.5Zm44.6-29.6a12.1,12.1,0,0,1,1.6,5.5l-17.2,2.4a8.6,8.6,0,0,0,.1-1.6,2.9,2.9,0,0,0-.2-.9l15.2-5.3Zm-13,30c-.5.5-3.7,1-4.5,1s-.4-1.8-.3-3.5v-.2h-.2l-7.1-9.9,11.6,7.7c0,.1-.1.1,0,.1a9.6,9.6,0,0,1,1.1,2.8,3.6,3.6,0,0,1-.6,2Zm-12.1,3.8h-2.1c-.8.1-1.5.2-1.7,0a14.2,14.2,0,0,1,.1-4.6v-.3h-.1L508.4,292l5.6,10v.2a12.9,12.9,0,0,1,1.9,3.2,2.3,2.3,0,0,1-2.6,2Zm.9-5.6-5.9-10.6a29.3,29.3,0,0,0,4.1-.7l7.5,10.3A22,22,0,0,0,514.2,301.8ZM494,275.2h0a21.2,21.2,0,0,1,11.9-4.2h1.5a15.1,15.1,0,0,1,3,.2h.1a20,20,0,0,1,6.8,2.1c3.1,1.7,4.9,4,5,6.6s-1.3,5.2-4.2,7.3a21.8,21.8,0,0,1-11,3.6c-8.8.5-16.1-3.5-16.5-8.9C490.5,279.4,491.8,277.1,494,275.2Zm46,6-15.9.6,15.9-2.2Zm-8.9,14v4.1l-3-1.9Zm.5-.4c0-.1.1-.3,0-.4h-.3l-14.2-5.8.5-.3.9-.6a12.6,12.6,0,0,0,2.4-2.2l17.3,1.5-.4.6-.2.2h0l-2.8,4.3h0l-16.9-4h-.3c0,.1,0,.2.2.2l16.8,4.1.3,3.3-3.3,3.2Zm6-6.2v4l-2.4-.4Zm2.2-5.9h0l-1.4,3.6L521.2,285a8.7,8.7,0,0,0,1.4-2.7l17.3-.7A4.1,4.1,0,0,1,539.8,282.7Zm-1.6,5h0l.5-.9h.1l1.1-2.9V289l-1.7,2.9Zm-13.1,10.6-12.1-8,3.6-1.5,11.4,4.7,2.8,1.1h-.1l-3.3,2.5Zm-2.5-19.8h0l13.5-7.9c-.1,1.2-.2,2.3-.4,3.5h0Zm5.4-10.1-6.9,5.1,7.2-8.7Zm-54.2,21.8v-2.8l9.1-1.1Zm10.5-4.1h.3l.2-.2,5.5-2.5a8.7,8.7,0,0,0,2.2,3.5l-2.3,2.5-7.4,2.8-4.9,2h-.1l-3.9-3.4Zm-6.2,9.8H478v-1.2l11.4-4.5-7.3,7.8h0c-.2.1-.3.2-.3.4l.5,5.6a5.4,5.4,0,0,1-4.2-3.4Zm4.4,2.7,3,1.9-2.6,2.9Zm3.4,1.6-3.4-2.1,10.3-10.9a13.8,13.8,0,0,0,3.6,2.3l-2.1,3.7Zm12.3,3.3c0-.1,0-.1-.1-.2l3.3-8.5.2,8.3h-.1a.4.4,0,0,0,.1.3c.8,1,2.8,3.8,2.4,5s-.8.9-1.7,1.1a5.6,5.6,0,0,1-4.4-.6C496.8,307.9,497.7,304.7,498.2,303.5Zm3.6-12.4a23.1,23.1,0,0,0,3.7.3h2.2l1.3,11.3-7,.4Zm20.7-13.2a9,9,0,0,0-2.3-3.2l8.1-5.9c.1,0,.2,0,.2-.1a12.8,12.8,0,0,1,3.2-2.4,13.1,13.1,0,0,1,4.3,3.8Zm-24.4-5.7a16.7,16.7,0,0,0-4.3,2.5c-4-3.1-10.3-8.1-11.3-9.2a28.6,28.6,0,0,1,4.2-2.4c1,.5,7.4,5.7,11.4,9.1Zm-15.7-6a90.4,90.4,0,0,0,8.4,6.9l-8.4-4.3Zm10.9,8.9a13.8,13.8,0,0,0-2.2,2.6l-14.7-7.1a19.4,19.4,0,0,1,2.1-2.9c1.2.3,9.5,4.6,14.8,7.4Zm-3.3,2.6-12.6-1.5h-.1c-.5-2-.9-4.3-1-5.1Zm-13-1.1h.2c0,.1,0,.2.1.2l13.6,1.5a6.2,6.2,0,0,0-.8,3.5v.2a4.1,4.1,0,0,0,.1,1.1l-5.6,2.5h-.1l-10.9,1.3a18.6,18.6,0,0,1-.6-3.4V283l16.7-1a.2.2,0,0,0,.2-.2h0a.2.2,0,0,0-.2-.2h0l-16.7.9a41.7,41.7,0,0,1,.8-4.9l.3-1.2a14.2,14.2,0,0,0,2.9.2Zm-3.2,14.6,3.8,3.3v1.2h0l-2,1.4q-1.1-2.7-1.8-5.4Zm12.4,9.4,7.5-6.3-4.1,7.5h-.2c-.1.2,0,.4.2.4h0a15.1,15.1,0,0,1,1.4,3.5v1.6a4.7,4.7,0,0,1-3.1-.1A3.5,3.5,0,0,1,486,305Zm5.3,6.7v-1.5a12.7,12.7,0,0,0-1.3-3.2l3.1,1.1-1.6,3.6Z"/><path d="M496,285.1a5.9,5.9,0,0,0,3.7.3l1.8-.5a4.7,4.7,0,0,1,1.7-.4,1.4,1.4,0,0,1,1.1.2q.6.2.6.6c0,.2-.1.4-.5.7a2.9,2.9,0,0,1-3,.2l-1.4,1a5.4,5.4,0,0,0,2.1.5,7.4,7.4,0,0,0,2.1-.1,4.8,4.8,0,0,0,1.9-.9c.7-.5,1.1-1.1,1-1.6s-.5-1-1.4-1.4a4.3,4.3,0,0,0-2.5-.5,8,8,0,0,0-3,.6l-1.6.4a2.5,2.5,0,0,1-1.2-.1.9.9,0,0,1-.6-.6c0-.3.2-.5.5-.7l1.2-.5a3.2,3.2,0,0,1,1.4.3l1.4-1a6.5,6.5,0,0,0-2-.5,6.7,6.7,0,0,0-2,.1,4.8,4.8,0,0,0-1.6.8,3.5,3.5,0,0,0-1,1.1,1.1,1.1,0,0,0,.2,1.1A3.1,3.1,0,0,0,496,285.1Z"/><path d="M501.8,280.9a7.8,7.8,0,0,0,3.7.3l1.8-.5a4.7,4.7,0,0,1,1.7-.4,1.7,1.7,0,0,1,1.2.2.6.6,0,0,1,.5.6c0,.2-.1.4-.4.7a2.7,2.7,0,0,1-3,.1l-1.4,1.1a6.5,6.5,0,0,0,2,.5,5.5,5.5,0,0,0,2.2-.2,3.7,3.7,0,0,0,1.8-.8c.7-.5,1.1-1.1,1-1.6s-.5-1-1.4-1.4a5.4,5.4,0,0,0-2.5-.6,16.3,16.3,0,0,0-3,.7l-1.6.4a2.5,2.5,0,0,1-1.2-.1c-.3-.2-.5-.4-.5-.6a1.2,1.2,0,0,1,.4-.8,2.8,2.8,0,0,1,1.2-.4,3.2,3.2,0,0,1,1.4.3l1.4-1a6.5,6.5,0,0,0-2-.5,6.1,6.1,0,0,0-1.9.1,5.3,5.3,0,0,0-1.7.8,1.7,1.7,0,0,0-.9,1.1,1.1,1.1,0,0,0,.1,1.1A3.1,3.1,0,0,0,501.8,280.9Z"/><polygon points="519.5 276.9 517.8 276.1 514.9 278.2 506.4 274.3 505 275.4 515.1 280 519.5 276.9"/></g></g><g id="llaves"><g id="llaves-2"><polygon class="cls-5" points="162.1 354.4 162.1 354.2 162.1 354.3 162.1 354.4"/><path class="cls-5" d="M125.9,306.6l2.2,2.2v1.8l-4.6,4.7a23.8,23.8,0,0,0,3,1.8,31.1,31.1,0,0,0,4.1,2c4.4-1,10.4-1.9,14.7-2.4-1.6-1.6-8.4-7.9-13.7-9.1A37.8,37.8,0,0,0,125.9,306.6Z"/><path class="cls-5" d="M92.5,316.8l-.8-1.2Z"/><path class="cls-5" d="M119.3,306.7l-.3-.2c-.2.2-.8.8-.7,1.4a.4.4,0,0,1,.1.3,6.2,6.2,0,0,0,.9,2.7,4.1,4.1,0,0,0,.8-1.9A3.8,3.8,0,0,0,119.3,306.7Z"/><path class="cls-5" d="M113.8,308.6a3.2,3.2,0,0,0,1.9,3.1l-.3-1.5a5.8,5.8,0,0,1,1.2-4.2h0c0-.1.1-.2.1-.3a3,3,0,0,0-1.8.8A3.3,3.3,0,0,0,113.8,308.6Z"/><path class="cls-10" d="M91.1,291.8c2.5,10.3,25.2,7.5,25.2,7.5L127,309.8l.6.4v-1.1l-2.6-2.5h0l-7.9-7.7c-2,.2-22.9,2.3-25.4-7.9a7.8,7.8,0,0,0-3.7-5c-5-2.9-13.2-.9-14.5-.5V287C75,286.4,88.7,282.1,91.1,291.8Z"/><path class="cls-12" d="M95.4,304.3a.9.9,0,0,0-.7.3,2,2,0,0,0-.3,1.1v1.7a1.7,1.7,0,0,0,.2,1.2c.1.3.3.4.6.5a.7.7,0,0,0,.8-.4l.3-1.1v-1.7a2.5,2.5,0,0,0-.2-1.2C96,304.4,95.8,304.3,95.4,304.3Z"/><path class="cls-12" d="M108.1,306.9a.9.9,0,0,0-.7.3,2,2,0,0,0-.3,1.1V310a2.5,2.5,0,0,0,.1,1.2,1.2,1.2,0,0,0,.7.5.9.9,0,0,0,.8-.4l.3-1.1v-1.6a2.9,2.9,0,0,0-.1-1.3A.9.9,0,0,0,108.1,306.9Z"/><path class="cls-12" d="M85.5,296a.8.8,0,0,0-.7.4,2,2,0,0,0-.3,1.1v1.6a1.9,1.9,0,0,0,.2,1.3.7.7,0,0,0,.7.4.9.9,0,0,0,.7-.3l.3-1.2v-1.6c0-.6,0-1-.2-1.2A1.3,1.3,0,0,0,85.5,296Z"/><path class="cls-12" d="M115.9,312.3a3.6,3.6,0,0,1-3-4.1,3.7,3.7,0,0,1,4.2-3h.2a3.7,3.7,0,0,1,2.4,1.2,3.2,3.2,0,0,1,.9,2.6,3.5,3.5,0,0,1-1,2.4,12,12,0,0,0,3.5,3.6l4.5-4.6v-.2l-.6-.4-10.7-10.5s-22.7,2.8-25.2-7.5-16.1-5.4-17.7-4.9l-1.3,20.9h0v1.3a50.6,50.6,0,0,1,8.7.2c6.2.7,9.9,2.7,10.9,5.9,0,.2.1.3.1.4l.8,1.2c4.5,5.4,21.6,5.6,23.2,5.7l4.7-4.9-1-.7a10.5,10.5,0,0,1-3.5-4.6ZM79.3,301.1H78l.3-5.1-1.6.4v-1.1l2.9-.8h.1Zm8.3-2a3.4,3.4,0,0,1-.7,2.2,2.7,2.7,0,0,1-1.7.6,2.1,2.1,0,0,1-1.7-.8,3.4,3.4,0,0,1-.4-2.2v-1.2a3.2,3.2,0,0,1,.8-2.1,1.8,1.8,0,0,1,1.7-.6,2.1,2.1,0,0,1,1.6.8,3.1,3.1,0,0,1,.5,2.1Zm3.4,7.4-1-1.2.3-5.1-1.3-1v-1l2.2,1.4v.2Zm6.5.9a3.1,3.1,0,0,1-.7,2.1,1.8,1.8,0,0,1-1.7.6,2.1,2.1,0,0,1-1.7-.8,3.1,3.1,0,0,1-.4-2.1v-1.3a3.2,3.2,0,0,1,.8-2.1,2.7,2.7,0,0,1,1.7-.6,2.1,2.1,0,0,1,1.6.8,2.8,2.8,0,0,1,.5,2.2Zm5.1,4.9h-1.3l.3-5.2-1.6.4v-1.1l2.9-.8h.1Zm7.6-2.3a3.8,3.8,0,0,1-.7,2.1,1.8,1.8,0,0,1-1.7.6,2.1,2.1,0,0,1-1.7-.8,3.8,3.8,0,0,1-.5-2.1v-1.2a4.4,4.4,0,0,1,.7-2.2,2.8,2.8,0,0,1,1.8-.6,2.1,2.1,0,0,1,1.6.8,3.4,3.4,0,0,1,.5,2.2Z"/><path class="cls-1" d="M131.8,305.5a27,27,0,0,1,6.1,2.5l.6-.9c-1.2-.8-10.2-4.3-16.3-4.1l1.5,1.5A31.5,31.5,0,0,1,131.8,305.5Z"/><path class="cls-1" d="M131.7,306a31.6,31.6,0,0,0-7.5-1.1l1.2,1.2a34.7,34.7,0,0,1,6.3,1.1c5.9,1.2,13,8.3,14.2,9.4h1.4C145.8,314.6,140.2,308.1,131.7,306Z"/><polygon class="cls-10" points="169.6 365.9 167.2 361.2 165.4 360.5 169.3 367.7 169.6 365.9"/><path class="cls-10" d="M143.5,323.1h0Z"/><path class="cls-10" d="M142.6,319.4c5.3-1,7.5-1.3,7.9-1.3s3.2.2,4.6,1.8a1.3,1.3,0,0,1,.3,1.2c-.3.9-1.8,1.2-2.1,1.3-2.6.4-25,4.5-26.4,4.5h0a1.6,1.6,0,0,1-1.1-.5,1.7,1.7,0,0,1-.3-1,2.9,2.9,0,0,1,1.6-3.2v.2h.4l-1.9-1.1h.1l-1.1.6a6.5,6.5,0,0,0-3.6,5h0v.7h.2c0,.1.1,6.5,5,9.1a29.8,29.8,0,0,0,11.3,3.5l4.1.2,2.7,5.1,2.1,1.5,3,6.3,2.2.6,5.9,12.3h-.2l8.8,18.8.5.3v.2a7.2,7.2,0,0,0,1.2,2.1,19.3,19.3,0,0,0,3.8,1.9h0l.4-2.9-18.5-36.1a1,1,0,0,1,.9-1.2,1,1,0,0,1,1,.3l19.1,36.3v.7l1.5-4.2L169.8,371h-.1l-.8-1.6h0l-13.2-24.5,3.1-.7.4-.6-2.1-3.7h.6c.3,0,6.8-1.3,6.9-10,.1-1.6-1.1-5.2-3.9-8.4s-7.6-4-9.9-4.1a132.2,132.2,0,0,0-18.9,2.6l3.2,1.2Zm14.3,2.2v-.2a2.1,2.1,0,0,1,.3-1.5h.4c.8,0,3.6,3.2,3.6,3.2a10.4,10.4,0,0,1,1.6,6.4,5.4,5.4,0,0,1-1.9,3.8c-3.6,2.7-14.8,5.4-21.1,5.7h-.9c-6.3,0-12.5-2.5-14.5-5.9s-2.6-6.5-2-7h0l.2-.3c.2-.2.4-.5.7-.5h0c.2,0,.3.1.5.3a5,5,0,0,0,2.9,1.8l1.7.2,27.3-5.2Z"/><path class="cls-10" d="M149.3,321.5l-7.5,1.3,1.7.3,8-1.4Z"/><path class="cls-10" d="M174.4,374.7a15.9,15.9,0,0,0-1.5-2.9l-1.6-.5,5.2,9.8C176.2,380.3,174.9,376.1,174.4,374.7Z"/><polygon class="cls-10" points="162.1 354.3 162.1 354.2 162 351.5 159.5 346.2 159.4 344.9 157.3 345.4 162.1 354.3"/><path class="cls-10" d="M124.8,332.8c2,3.3,8.7,5.9,15,5.6s17.5-3.2,20.8-5.6a4.5,4.5,0,0,0,1.7-3.4,9.5,9.5,0,0,0-1.5-6.1c-1.3-1.5-2.9-3-3.3-3h0c-.2.2-.2.9-.2,1.2v.2c0,.5-1.1,1-1.5,1.1L128.4,328h-.1l-1.6-.2c-1.5,0-2.9-1.5-3.3-1.9h-.1c-.1,0-.2.2-.3.3l-.3.3h0C122.5,326.6,122.9,329.3,124.8,332.8Z"/><path class="cls-10" d="M127.7,325.9l6.1-1-1.2-.5-3.2.6A5.6,5.6,0,0,0,127.7,325.9Z"/><polygon class="cls-10" points="164.8 357.5 164.4 356.4 162.7 355.5 164.6 359 164.8 357.5"/><path class="cls-3" d="M125.4,306.1l.5.5a37.8,37.8,0,0,1,5.7,1c5.3,1.2,12.1,7.5,13.7,9.1h.6c-1.2-1.1-8.3-8.2-14.2-9.4A35,35,0,0,0,125.4,306.1Z"/><path class="cls-3" d="M122.2,303c6.1-.2,15.1,3.3,16.3,4.1l-.6.9a27,27,0,0,0-6.1-2.5,31.5,31.5,0,0,0-8.1-1l.5.4a31.6,31.6,0,0,1,7.5,1.1c8.5,2.1,14.1,8.6,15.6,10.5h.5a33.9,33.9,0,0,0-9.5-8.2l.6-1.1h.1v-.3c-.6-.5-10.6-4.7-17.1-4.2Z"/><path class="cls-1" d="M130.7,322.2c-4.5-1.6-11-6.7-11.5-7.3s-3.2-3.7-3.1-6.9a5,5,0,0,0-.2,2.1,8.4,8.4,0,0,0,3.8,6.4c2.6,2.1,8,5.7,11,6.8l4.1,1.4,2.2-.4C135.6,323.9,133.3,323.2,130.7,322.2Z"/><path class="cls-1" d="M142.9,323.2l-.6.2a60.3,60.3,0,0,1-16-5.9c-7.7-4.2-8.2-8-8.4-9.3V308a2.5,2.5,0,0,1,.8-1.8,3.4,3.4,0,0,0-1.4-.5c-2.5,3.6,2,8.7,2.2,8.9s6.9,5.6,11.3,7.2a63.6,63.6,0,0,0,7.2,2.3l4.9-.8Z"/><path class="cls-12" d="M165.8,385.7l.3.3v-.2Z"/><path class="cls-12" d="M157.2,366.2l-5.9-12.1-2.2-.6-3-6.4-2.1-1.5-2.6-4.9-3.9-.3a30.3,30.3,0,0,1-11.4-3.5c-3.5-1.9-4.7-5.6-5.1-7.8a15.9,15.9,0,0,0,2.1,6c2.5,4.9,7.3,7.5,14.6,7.9l2.8.2h1c.5.1.5.2.5.4s-.1.2-.1.3a46.7,46.7,0,0,0,2.7,4.9,1.7,1.7,0,0,0,1,.6,2.6,2.6,0,0,1,1.1.7c.4.4,2.3,3.5,2.8,4.3s2.5.8,2.4,1.5l-.3,1.1c-.3.6-.7,1.5-.4,1.8a4.8,4.8,0,0,0,1.6.8c.9.3,1.6.6,1.5,1.2a11.3,11.3,0,0,0,.6,3.6c.5,1.3,1.4,4.2,1.6,4.9l3.1,2.2v.3l-.6,2.1a7.8,7.8,0,0,0,.9,2.1h.1c0,.1.1,1.1.1,1.7a29.2,29.2,0,0,0,2.3,4.7l3.9,2.3-8.8-18.8Z"/><path class="cls-12" d="M121.1,326.7h0a1.3,1.3,0,0,0-.1.6h.1Z"/><path class="cls-12" d="M155.5,349.5a1.1,1.1,0,0,0-1.9.9l18.5,36.1-.4,2.9,2.2-1.1.7-1.8v-.7Z"/><polygon class="cls-12" points="170.4 370.2 170.7 370.2 169.9 368.9 169.9 369.1 170.4 370.2"/><polygon class="cls-12" points="176.5 381.1 171.3 371.3 169.9 370.9 176.1 382.3 176.5 381.1"/><polygon class="cls-12" points="155.8 344.7 169 369.2 169.3 367.7 165.4 360.5 164.4 360.1 164.6 359 162.7 355.5 162.2 355.2 162.1 354.4 162.1 354.3 157.3 345.4 159.4 344.9 159.4 343.5 159.3 343.4 158.9 344 155.8 344.7"/><path class="cls-16" d="M126.1,336.9a30.3,30.3,0,0,0,11.4,3.5l3.9.3,2.6,4.9,2.1,1.5,3,6.4,2.2.6,5.9,12.1h.4l-5.9-12.3-2.2-.6-3-6.3-2.1-1.5-2.7-5.1-4.1-.2a29.8,29.8,0,0,1-11.3-3.5c-4.9-2.6-5-9-5-9.1H121v1.7C121.4,331.3,122.6,335,126.1,336.9Z"/><path class="cls-12" d="M157.5,320.2h0c.4,0,2,1.5,3.3,3a9.5,9.5,0,0,1,1.5,6.1,4.5,4.5,0,0,1-1.7,3.4c-3.3,2.4-13.9,5.3-20.8,5.6s-13-2.3-15-5.6-2.3-6.2-2.1-6.5h-.2V326h0c-.6.5.2,3.7,2,7s8.2,5.9,14.5,5.9h.9c6.3-.3,17.5-3,21.1-5.7a5.4,5.4,0,0,0,1.9-3.8,10.4,10.4,0,0,0-1.6-6.4s-2.8-3.2-3.6-3.2h0v.4Z"/><path class="cls-16" d="M126.7,327.3a5,5,0,0,1-2.9-1.8c-.2-.2-.3-.3-.5-.3h0c-.3,0-.5.3-.7.5l-.2.3h0v.2h.2l.3-.3c.1-.1.2-.3.3-.3h.1c.4.4,1.8,1.9,3.3,1.9l1.6.2h.1l27.4-5.2c.4-.1,1.5-.6,1.5-1.1v-.2c0-.3,0-1,.2-1.2h0v-.4H157a2.1,2.1,0,0,0-.3,1.5v.2l-1.2.7-27.3,5.2Z"/><path class="cls-4" d="M120.4,317.6l-4.7,4.9c-1.6-.1-18.7-.3-23.2-5.7l-.8-1.2c0-.1-.1-.2-.1-.4-1-3.2-4.7-5.2-10.9-5.9a50.6,50.6,0,0,0-8.7-.2v-1.3h0l1.3-20.9v-1.5c1.3-.4,9.5-2.4,14.5.5a7.8,7.8,0,0,1,3.7,5c2.5,10.2,23.4,8.1,25.4,7.9l7.9,7.7h.1l2.6,2.5v1.3l-4.5,4.6.4.3,4.6-4.7v-1.8l-2.2-2.2-.5-.5-1.2-1.2-.5-.4-1.5-1.5-.4-.4-4.5-4.4h-.1c-.2.1-22.6,2.6-25-7.4a8.4,8.4,0,0,0-3.9-5.3c-5.6-3.3-14.8-.7-15.2-.6h0l-.8,12-.7,12.7h.3c.2-.1,17-1.5,19.3,5.7s23.4,7.6,24.6,7.6h.2l5-5.1Z"/><polygon class="cls-9" points="76.8 295.2 76.7 296.3 78.3 295.9 78 301.1 79.3 301.1 79.7 294.4 79.6 294.4 76.8 295.2"/><path class="cls-9" d="M85.6,295a1.8,1.8,0,0,0-1.7.6,3.2,3.2,0,0,0-.8,2.1v1.2a3.4,3.4,0,0,0,.4,2.2,2.1,2.1,0,0,0,1.7.8,2.7,2.7,0,0,0,1.7-.6,3.4,3.4,0,0,0,.7-2.2v-1.2a3.1,3.1,0,0,0-.5-2.1A1.8,1.8,0,0,0,85.6,295Zm.8,2.7v1.6l-.3,1.2a.9.9,0,0,1-.7.3.7.7,0,0,1-.7-.4,1.9,1.9,0,0,1-.2-1.3v-1.6a2,2,0,0,1,.3-1.1.8.8,0,0,1,.7-.4c.4.1.6.2.7.5A3.3,3.3,0,0,1,86.4,297.7Z"/><polygon class="cls-9" points="89.1 298.2 89 299.2 90.3 300.2 90 305.3 91 306.5 91.4 299.8 91.3 299.6 89.1 298.2"/><path class="cls-9" d="M95.5,303.2a2.7,2.7,0,0,0-1.7.6,3.2,3.2,0,0,0-.8,2.1v1.3a3.1,3.1,0,0,0,.4,2.1,2.1,2.1,0,0,0,1.7.8,1.8,1.8,0,0,0,1.7-.6,3.1,3.1,0,0,0,.7-2.1v-1.2A2.8,2.8,0,0,0,97,304,2.2,2.2,0,0,0,95.5,303.2Zm.8,2.7v1.7l-.3,1.1a.7.7,0,0,1-.8.4c-.3-.1-.5-.2-.6-.5a1.7,1.7,0,0,1-.2-1.2v-1.7a2,2,0,0,1,.3-1.1.9.9,0,0,1,.7-.3c.4,0,.6.1.7.4a2.5,2.5,0,0,1,.2,1.2Z"/><polygon class="cls-9" points="100 306.4 100 307.5 101.6 307.1 101.3 312.3 102.6 312.3 103 305.6 102.9 305.6 100 306.4"/><path class="cls-9" d="M108.2,305.8a2.8,2.8,0,0,0-1.8.6,4.4,4.4,0,0,0-.7,2.2v1.2a3.8,3.8,0,0,0,.5,2.1,2.1,2.1,0,0,0,1.7.8,1.8,1.8,0,0,0,1.7-.6,3.8,3.8,0,0,0,.7-2.1v-1.2a3.4,3.4,0,0,0-.5-2.2A2.1,2.1,0,0,0,108.2,305.8Zm.7,2.8v1.6l-.3,1.1a.9.9,0,0,1-.8.4,1.2,1.2,0,0,1-.7-.5,2.5,2.5,0,0,1-.1-1.2v-1.7a2,2,0,0,1,.3-1.1.9.9,0,0,1,.7-.3.8.8,0,0,1,.7.4,3,3,0,0,1,.2,1.3Z"/><path class="cls-12" d="M127.1,322.2a2.9,2.9,0,0,0-1.6,3.2,1.7,1.7,0,0,0,.3,1,1.6,1.6,0,0,0,1.1.5h0c1.4,0,23.8-4.1,26.4-4.5.3-.1,1.8-.4,2.1-1.3a1.3,1.3,0,0,0-.3-1.2c-1.4-1.6-4.3-1.8-4.6-1.8s-2.6.3-7.9,1.3l-7.4,1.5c2.7.9,5.1,1.5,6.6,1.9l7.5-1.3,2.2.2-8,1.4h0l-.6.2-4.9.8-1,.2-2.2.4h-1l-6.1,1a5.6,5.6,0,0,1,1.7-.9l3.2-.6-2-.7a20.2,20.2,0,0,1-3-1.4h-.5Z"/><path class="cls-3" d="M125.7,321.2l1.9,1.1a20.2,20.2,0,0,0,3,1.4l2,.7,1.2.5h1l-4.1-1.4c-3-1.1-8.4-4.7-11-6.8a8.4,8.4,0,0,1-3.8-6.4,5,5,0,0,1,.2-2.1c-.1,3.2,2.6,6.4,3.1,6.9s7,5.7,11.5,7.3c2.6,1,4.9,1.7,6.3,2.1l1-.2c-1.2-.3-3.9-1.1-7.2-2.3s-10.8-6.6-11.3-7.2-4.7-5.3-2.2-8.9h-.6c0,.1-.1.2-.1.3h0a5.8,5.8,0,0,0-1.2,4.2l.3,1.5h0l.2.5h0a10.5,10.5,0,0,0,3.5,4.6l1,.7.5.3a41.5,41.5,0,0,0,4.3,3Z"/><path class="cls-3" d="M123.5,315.3l-.4-.3a12,12,0,0,1-3.5-3.6h-.1l-.3-.4h.1a6.2,6.2,0,0,1-.9-2.7.4.4,0,0,0-.1-.3c-.1-.6.5-1.2.7-1.4l-.3-.3a2.5,2.5,0,0,0-.8,1.8v.2c.2,1.3.7,5.1,8.4,9.3a60.3,60.3,0,0,0,16,5.9l.6-.2h.6l-1.7-.3c-1.5-.4-3.9-1-6.6-1.9l-3.2-1.2h-.1l-1.4-.6h.1a31.1,31.1,0,0,1-4.1-2Z"/><path class="cls-4" d="M177.4,381l-2.1-6.6a20.2,20.2,0,0,0-1.8-3.2h-.1l-2.7-.9h-.3l-.5-1.1V369l.6-3.2-2.7-5.2-2.4-1,.4-2.1-.7-1.6-2.1-1.1v-3.3l-2.6-5.3v-2.8l-1.6-3c1.7-.5,6.9-2.8,7-10.7.1-2-1.3-5.8-4.1-9s-8.1-4.2-10.6-4.4l-3.1.2h-2.5c-4.3.5-10.3,1.4-14.7,2.4h-.1l1.4.6h.1a132.2,132.2,0,0,1,18.9-2.6c2.3.1,7.3,1.2,9.9,4.1s4,6.8,3.9,8.4c-.1,8.7-6.6,10-6.9,10h-.6l2.1,3.7h.1v2.7l2.5,5.3v3.7l.5.3,1.7.9.4,1.1-.2,1.5-.2,1.1,1,.4,1.8.7,2.4,4.7-.3,1.8-.3,1.5h0l.8,1.6h.1l1.4.4,1.6.5a15.9,15.9,0,0,1,1.5,2.9c.5,1.4,1.8,5.6,2.1,6.4l-.4,1.2-1.5,4.2-.7,1.8-2.2,1.1h0a19.3,19.3,0,0,1-3.8-1.9,7.2,7.2,0,0,1-1.2-2.1v-.2l-.5-.3-3.9-2.3a29.2,29.2,0,0,1-2.3-4.7c0-.6-.1-1.6-.1-1.7h-.1a7.8,7.8,0,0,1-.9-2.1l.6-2.1v-.3l-3.1-2.2c-.2-.7-1.1-3.6-1.6-4.9a11.3,11.3,0,0,1-.6-3.6c.1-.6-.6-.9-1.5-1.2a4.8,4.8,0,0,1-1.6-.8c-.3-.3.1-1.2.4-1.8l.3-1.1c.1-.7-1.3-1.2-2.4-1.5s-2.4-3.9-2.8-4.3a2.6,2.6,0,0,0-1.1-.7,1.7,1.7,0,0,1-1-.6,46.7,46.7,0,0,1-2.7-4.9c0-.1,0-.1.1-.3s0-.3-.5-.4h-1l-2.8-.2c-7.3-.4-12.1-3-14.6-7.9a15.9,15.9,0,0,1-2.1-6v-1.7a1.3,1.3,0,0,1,.1-.6,6.5,6.5,0,0,1,3.6-5l1.1-.6h-.1l-.5-.3-.3-.2-.6.3c-4.9,2.6-5.6,7.8-2,14.5s7.7,8,15.4,8.4l3.2.2c.6,1.1,2.5,4.8,3,5.4a2.2,2.2,0,0,0,1.3.8c.4.2.7.3.8.5s1.9,2.9,2.8,4.4h.3l1.9.6-.3.7c-.3.9-.8,2-.2,2.8a4.2,4.2,0,0,0,2,1l1,.5a11.5,11.5,0,0,0,.6,3.7l1.6,5.1v.2l2.8,1.9a8,8,0,0,0-.5,2.1,5,5,0,0,0,.9,2.4,6.6,6.6,0,0,1,.1,1.4c0,.7,1.5,3.6,2.4,5.3v.2l4.2,2.4h.2v.2a7,7,0,0,0,1.1,2.1,17.5,17.5,0,0,0,4.3,2.2h.2l2.9-1.4,2.8-7.9Z"/><path class="cls-4" d="M119,306.5l.3.2a3.8,3.8,0,0,1,.8,2.3,4.1,4.1,0,0,1-.8,1.9h-.1l.3.4h.1a3.5,3.5,0,0,0,1-2.4,3.2,3.2,0,0,0-.9-2.6,3.7,3.7,0,0,0-2.4-1.2h-.2a3.7,3.7,0,0,0-4.2,3,3.6,3.6,0,0,0,3,4.1h0l-.2-.5h0a3.2,3.2,0,0,1-1.9-3.1,3.3,3.3,0,0,1,1.1-2.1,3,3,0,0,1,1.8-.8h.6a3.4,3.4,0,0,1,1.4.5Z"/></g></g><g id="candado"><path id="sombra-2" class="cls-14" d="M264.9,141.4h-1.5c0-1.9.3-13.3.3-14.6a25.1,25.1,0,0,0-9.4-16.3c-7.7-5.8-20.2-5.8-31.8,0s-16.2,19.8-16.2,21.6-1.5,12.9-1.8,15l-7.1.7H197l1.4,46.7v8.1h70.8V148.2Zm-13.3-.5c-.1,1.6-4.3,3.6-4.4,5.2a11,11,0,0,1-10.7,10.7,10.4,10.4,0,0,1-7.7-3.4c-2.2-.2-9.3,1.4-10.7-.7-7.5-10.7-1.8-31,10.5-34.5,4.2-1.6,15.7-3.8,19.4-.2s3.5,9.5,3.8,13.7a11,11,0,0,1,.2,1.8,60.1,60.1,0,0,1-.4,7.4Z"/><g id="candado-2"><path class="cls-5" d="M250.9,124.7c-1.3-6.7-5.5-10.6-12-11.2A24.2,24.2,0,0,0,216.5,125c-3.6,6.1-3.8,17.1-3.8,18.4l37.8-3.7C250.7,137.5,251.2,126.6,250.9,124.7Z"/><path class="cls-4" d="M196.8,145.8H196l-6.7,50.4c3.2-.3,19.6-1.7,31.4-1.7s38.5,1.9,42.3,2.1V139.5c-2.6.9-23.5,8.1-38,8.9A98.9,98.9,0,0,1,196.8,145.8Z"/><polygon class="cls-4" points="262.9 139.4 262.9 139.4 259.7 139.7 262.9 139.4"/><path class="cls-15" d="M220.7,194.6a296.2,296.2,0,0,0-29.7,2l5.8,2.4h24.7l-1-.5a.9.9,0,0,1-.1-.7c0-.2.1-.3.3-.5s9.7-.5,11.3.3.9.2,1,.8.4.5.4.6h32.9l-3.3-3.2v.8C262.7,196.7,233.8,194.6,220.7,194.6Z"/><path class="cls-15" d="M221.3,198.1a11.4,11.4,0,0,0,3.7.4h0l7.4.2h.2l-.7-.3C230,197.6,222.5,197.5,221.3,198.1Z"/><path class="cls-1" d="M205.2,129.4c0,1.4-1.4,12.3-1.8,14.9l1.6-.2,6.9-.9c.1-2,.4-12.4,3.9-18.6A25.5,25.5,0,0,1,239,112.8c6.8.6,11.3,4.8,12.6,11.7.4,2-.2,12.7-.3,15.2l3.6-.4,3.4-.4V126.5c0-2.2-1.3-9.8-5.7-14.1s-11.6-6-21.6-4.4-18.3,10.9-19.7,13.8c-4.3,8.8-4.3,21.7-4.3,21.8h-2.2c0-.6.1-13.5,4.5-22.7,1.6-3.4,9.7-13.1,21.4-15s18.3-.1,23.4,5,6.4,12.7,6.4,15.6v12.1l-2.1.3,2.6-.3c0-2,.2-13.3.2-14.6A22.1,22.1,0,0,0,238,104.1a38.2,38.2,0,0,0-16.9,4.3C210,114,205.2,127.6,205.2,129.4Z"/><path class="cls-17" d="M196.8,145.8a98.6,98.6,0,0,0,28.1,2.6c14.5-.8,35.4-8,38-8.9h0l-3.2.3Z"/><polygon class="cls-15" points="263.8 196.1 266.5 198.5 266.5 145.6 263.8 140.9 263.8 196.1"/><path class="cls-17" d="M189.7,195.7v.3l1.3.6a296.2,296.2,0,0,1,29.7-2c13.1,0,42.4,2.1,42.7,2.1h0l-.4-.3v-.6c-3.8-.2-30.1-2.1-42.3-2.1S192.9,195.4,189.7,195.7Z"/><path class="cls-9" d="M232.2,197.5c-1.7-.6-9.9-1-11.5-.2s-.3.3-.3.5a.9.9,0,0,0,.1.7l1,.5h11.9c0-.1.1-.2.1-.4S232.7,197.7,232.2,197.5Zm.2,1.2-7.4-.2h0a11.4,11.4,0,0,1-3.7-.4c1.2-.6,8.7-.4,10.6.2l.7.3Z"/><path class="cls-9" d="M189.4,195.9h.3v-.3l6.3-49.8h.8l62.9-6.1,3.2-.3h-.1l.3-.7-1.5.2c0-2,.3-13.4.3-14.7a25,25,0,0,0-9.4-16.2c-7.7-5.8-20.2-5.9-31.8-.1s-16.2,19.8-16.2,21.7-1.5,12.8-1.8,15l-7.1.6h-.4l-6.5,51.5Zm62.7-87.6a23.5,23.5,0,0,1,9,15.7c0,1.3-.2,12.6-.2,14.6l-2.6.3h0l-3.4.4-3.6.4c.1-2.5.7-13.2.3-15.2-1.3-6.9-5.8-11.1-12.6-11.7a25.5,25.5,0,0,0-23.2,11.8c-3.5,6.2-3.8,16.6-3.9,18.6l-6.9.9-1.6.2c.4-2.6,1.8-13.5,1.8-14.9s4.8-15.4,15.9-21a38.2,38.2,0,0,1,16.9-4.3,23.6,23.6,0,0,1,14.1,4.2ZM216.5,125a24.2,24.2,0,0,1,22.4-11.5c6.5.6,10.7,4.5,12,11.2.3,1.9-.2,12.8-.4,15l-37.8,3.7C212.7,142.1,212.9,131.1,216.5,125Z"/><path class="cls-18" d="M263.1,138.5l-.3.7h.1V196l.4.3,2.5,2.4h-69l-5.8-2.4-1.3-.6h-.3l-.7.7,7.9,3.2h70.8V145.4Zm3.4,60-2.7-2.4V140.9l2.7,4.7Z"/><path class="cls-2" d="M260.4,126.5c0-2.9-1.6-10.9-6.4-15.6s-12.7-6.8-23.4-5-19.8,11.6-21.4,15c-4.4,9.2-4.5,22.1-4.5,22.7h2.2c0-.1,0-13,4.3-21.8,1.4-2.9,9-12.1,19.7-13.8s17.1-.2,21.6,4.4,5.7,11.9,5.7,14.1v12.4h0l2.1-.3Z"/></g></g></g></g></g></svg>