<svg xmlns="http://www.w3.org/2000/svg" viewBox="0 0 416.3 388.9"><defs><style>.cls-1{fill:#eee;}.cls-2{fill:#fff;}.cls-3{fill:#fdd;}.cls-4{fill:#e34;}.cls-5{fill:#555;}.cls-6{opacity:0.16;}.cls-7{fill:#222;}.cls-8{fill:#faa;}</style></defs><g id="Capa_2" data-name="Capa 2"><g id="Layer_1" data-name="Layer 1"><path class="cls-1" d="M3.2,194.8C-13.3,44.2,30.7,68.3,206,12.6S381.2,97.2,395.7,202.3s-4.6,146.1-193.6,179.2C25.8,412.4,19.7,345.3,3.2,194.8Z"/><polygon class="cls-2" points="325.5 219.3 220.3 265.2 185.4 274.5 66.8 221.1 66.8 48.2 325.5 48.2 325.5 219.3"/><polyline class="cls-3" points="220.7 172.3 66.7 172.3 67.2 245.1 182.4 267.6 220.7 267.6 220.7 172.4"/><polyline class="cls-3" points="226.2 172.3 323.7 172.3 323.7 267.6 226.8 267.6"/><path class="cls-2" d="M72.5,219.5s-21.2-6.3-25.5-5.3-16,3-16,3v7.3l109.4,77.1,52.4,16.1,25.7,8,17.8-4.4,28.5-14.6,15.6,21.7,14.3,16.7,15.2,5.1,44.9-17.8,21.1-22,2.2-15.6-46.9-72.6-26.8-19.8-16.8.6-35.3,24.1-30.2,12.1-6.3,21.6,12.4,1.1-47.3,10.6Z"/><rect class="cls-3" x="66.7" y="75.8" width="257.1" height="90.75"/><path class="cls-4" d="M325.5,221.3a2,2,0,0,1-2-2V50.2H68.8v162a2,2,0,0,1-4,0V48.2a2,2,0,0,1,2-2H325.5a2,2,0,0,1,2,2V219.3A2,2,0,0,1,325.5,221.3Z"/><path class="cls-5" d="M60,245.4a3.1,3.1,0,0,1-1.3-.3L32.6,229.2l-.7-.6c-1.2-1.6-4.8-6.3-2.8-10.7s9-6.8,22.4-7.6l.9.2,28.7,11.1a2.5,2.5,0,1,1-1.5,4.8l-28.3-11c-14.4.8-17.1,3.5-17.6,4.6s.6,3.4,1.9,5.2l25.7,15.6a2.5,2.5,0,0,1-1.3,4.6Z"/><path class="cls-5" d="M221.1,326.3a29.6,29.6,0,0,1-7.2-.9l-70.5-19-.8-.4L59.7,246.8l-.6-.5c-2.7-3.6-3.4-7-2.2-10.1,2.2-5.5,10.2-9.2,25.1-11.6a3,3,0,0,1,1.6.2c21.6,11,64,32.4,69.5,34.2a2.6,2.6,0,0,1,1.6,3.2,2.6,2.6,0,0,1-3.2,1.6c-6.9-2.3-62.1-30.4-69.5-34.2-15.9,2.8-19.6,6.5-20.4,8.5s-.8,2,1.3,4.9l82.2,58.7,70.1,18.9a23.3,23.3,0,0,0,15.4-1.3l50.9-23.5a2.5,2.5,0,0,1,3.3,1.2,2.6,2.6,0,0,1-1.2,3.4l-51,23.4A27.1,27.1,0,0,1,221.1,326.3Z"/><path class="cls-5" d="M200.8,303H175a26.9,26.9,0,0,1-12.7-3.2l-65.7-35a3.2,3.2,0,0,1-1-1,10,10,0,0,1-.8-9c2.2-5.2,9.3-9.3,21.7-12.6a2.5,2.5,0,0,1,1.7.1c23.5,10.5,62.5,27.2,67.2,27.2,6.7,0,38.2-5.7,46.4-9.2a2.4,2.4,0,0,1,3.3,1.3,2.5,2.5,0,0,1-1.3,3.3c-8.7,3.7-41.1,9.6-48.4,9.6s-56.5-21.9-68.4-27.3c-12.7,3.5-16.6,7.1-17.6,9.5a4.8,4.8,0,0,0,.3,4l64.9,34.7A22.3,22.3,0,0,0,175,298h25.8a2.5,2.5,0,0,1,2.5,2.5A2.5,2.5,0,0,1,200.8,303Z"/><path class="cls-5" d="M305.1,350.8a20.7,20.7,0,0,1-17.1-9.2l-23.2-34.9a2.6,2.6,0,0,1,.7-3.5,2.5,2.5,0,0,1,3.5.7l23.2,34.9a15.5,15.5,0,0,0,16.5,6.5c8.9-2.1,19.4-5.3,31.1-9.3A64.6,64.6,0,0,0,373,310a15.3,15.3,0,0,0,0-16.9c-16.5-25.1-36.5-56-38.3-60.4s-22.6-25.8-34.8-28.1c-8.2-1.4-23.7,9.5-33.9,16.8a125.5,125.5,0,0,1-11.9,7.9c-3.2,1.6-8.9,3.4-16.8,5.5A23.6,23.6,0,0,0,219.6,260c8.4-.3,38.3-1.3,47.3-2.3s22.5-9,22.6-9.1a2.5,2.5,0,0,1,2.7,4.2c-.6.4-13.7,8.7-24.8,9.9s-48.3,2.3-49.9,2.4A2.5,2.5,0,0,1,215,263a28.7,28.7,0,0,1,21-33.1c7.5-1.9,13-3.7,15.8-5.1s6.6-4.2,11.3-7.5c12.2-8.6,27.4-19.4,37.7-17.6,13.8,2.5,35.9,24.5,38.5,31.2,1.3,3,15.4,25.2,37.9,59.4a20.8,20.8,0,0,1,0,22.5,70.1,70.1,0,0,1-35.8,27.9c-11.8,4.1-22.5,7.3-31.5,9.5A19.7,19.7,0,0,1,305.1,350.8Z"/><g class="cls-6"><path class="cls-5" d="M352.1,330.3c-29.2,3-46.2-9.9-52.7-36.5a9.9,9.9,0,0,0-13.2-6.9l-44.9,17.8a73,73,0,0,1-41.6,3.5L173,302.7,98.7,262.9l-2-8.5L62.5,232.7,61,248.2l84,57.5,73.5,20,51-20,21,37.5,12.5,5,42-10Z"/></g><g class="cls-6"><path class="cls-5" d="M218.7,261.2s8.7-6.7,13-7.7,32.3-3,32.3-3,20.4-6.6,24-6.3,8.4,5.7,8.4,5.7-23.7,11-26.7,11l-50,1.6Z"/></g><g class="cls-6"><path class="cls-5" d="M47,214.2s-3,5.7,0,8.3,14.4,11.4,14.4,11.4l-3.7,8.6L31,224.5s-2-7,0-7.3Z"/></g><path class="cls-4" d="M289.6,37.7H278.8a1.2,1.2,0,0,1-1.2-1.2V27.6a1.1,1.1,0,0,1,1.2-1.1h10.8a1.1,1.1,0,0,1,1.2,1.1v8.9A1.2,1.2,0,0,1,289.6,37.7ZM280,35.3h8.5V28.8H280Z"/><line class="cls-2" x1="299.4" y1="27.6" x2="310.3" y2="36.5"/><path class="cls-4" d="M310.3,37.7a1.1,1.1,0,0,1-.8-.3l-10.8-8.8a1.3,1.3,0,0,1-.2-1.7,1.1,1.1,0,0,1,1.6-.2L311,35.6a1.1,1.1,0,0,1,.2,1.6A1.4,1.4,0,0,1,310.3,37.7Z"/><line class="cls-2" x1="299.4" y1="36.5" x2="310.3" y2="27.6"/><path class="cls-4" d="M299.4,37.7a1.2,1.2,0,0,1-.9-.5,1.1,1.1,0,0,1,.2-1.6l10.8-8.9a1.2,1.2,0,0,1,1.5,1.9l-10.9,8.8A.9.9,0,0,1,299.4,37.7Z"/><line class="cls-2" x1="258.1" y1="32.1" x2="269" y2="32.1"/><path class="cls-4" d="M269,33.3H258.1a1.2,1.2,0,0,1-1.1-1.2,1.1,1.1,0,0,1,1.1-1.2H269a1.2,1.2,0,0,1,1.2,1.2A1.2,1.2,0,0,1,269,33.3Z"/><rect class="cls-4" x="67.1" y="75" width="258" height="1"/><path class="cls-4" d="M255.2,67.4H133.1a4.4,4.4,0,0,1-4.3-4.4,4.3,4.3,0,0,1,4.3-4.3H255.2a4.3,4.3,0,0,1,4.3,4.3A4.4,4.4,0,0,1,255.2,67.4ZM133.1,59.7a3.4,3.4,0,0,0,0,6.7H255.2a3.4,3.4,0,0,0,0-6.7Z"/><rect class="cls-4" x="17.1" y="88.9" width="83.4" height="105.29" rx="9.9"/><rect class="cls-2" x="25.9" y="104.9" width="8.9" height="3"/><rect class="cls-2" x="68.6" y="104.9" width="8.4" height="3"/><rect class="cls-2" x="80.5" y="104.9" width="8.4" height="3"/><rect class="cls-2" x="39.2" y="104.9" width="25.7" height="3"/><rect class="cls-2" x="25.9" y="145.1" width="8.9" height="3"/><rect class="cls-2" x="68.6" y="145.1" width="8.4" height="3"/><rect class="cls-2" x="80.5" y="145.1" width="8.4" height="3"/><rect class="cls-2" x="39.2" y="145.1" width="25.7" height="3"/><rect class="cls-2" x="28.7" y="113.4" width="8.9" height="3"/><rect class="cls-2" x="71.4" y="113.4" width="8.4" height="3"/><rect class="cls-2" x="42" y="113.4" width="25.7" height="3"/><rect class="cls-2" x="28.7" y="126" width="8.9" height="3"/><rect class="cls-2" x="71.4" y="126" width="8.4" height="3"/><rect class="cls-2" x="83.3" y="126" width="8.4" height="3"/><rect class="cls-2" x="42" y="126" width="25.7" height="3"/><rect class="cls-2" x="28.7" y="134.2" width="8.9" height="3"/><rect class="cls-2" x="71.4" y="134.2" width="8.4" height="3"/><rect class="cls-2" x="83.3" y="134.2" width="8.4" height="3"/><rect class="cls-2" x="42" y="134.2" width="25.7" height="3"/><rect class="cls-2" x="28.7" y="154.3" width="8.9" height="3"/><rect class="cls-2" x="71.4" y="154.3" width="8.4" height="3"/><rect class="cls-2" x="42" y="154.3" width="25.7" height="3"/><rect class="cls-2" x="28.7" y="167" width="8.9" height="3"/><rect class="cls-2" x="71.4" y="167" width="8.4" height="3"/><rect class="cls-2" x="42" y="167" width="25.7" height="3"/><rect class="cls-2" x="28.7" y="175.2" width="8.9" height="3"/><rect class="cls-2" x="71.4" y="175.2" width="8.4" height="3"/><rect class="cls-2" x="42" y="175.2" width="25.7" height="3"/><rect class="cls-2" x="257.5" y="164.5" width="157.8" height="29.57"/><path class="cls-4" d="M411.6,195.1H261.2a4.7,4.7,0,0,1-4.7-4.7V168.2a4.7,4.7,0,0,1,4.7-4.7H411.6a4.7,4.7,0,0,1,4.7,4.7v22.2A4.7,4.7,0,0,1,411.6,195.1ZM261.2,165.5a2.7,2.7,0,0,0-2.7,2.7v22.2a2.7,2.7,0,0,0,2.7,2.7H411.6a2.7,2.7,0,0,0,2.7-2.7V168.2a2.7,2.7,0,0,0-2.7-2.7Z"/><path class="cls-4" d="M373.5,185H270.4V174H373.5Zm-102.2-.9H372.6v-9.2H271.3Z"/><rect class="cls-4" x="272.6" y="176.2" width="2.6" height="6.53"/><rect class="cls-4" x="277.2" y="176.2" width="2.6" height="6.53"/><rect class="cls-4" x="281.9" y="176.2" width="2.6" height="6.53"/><rect class="cls-4" x="286.5" y="176.2" width="2.6" height="6.53"/><rect class="cls-4" x="291.2" y="176.2" width="2.6" height="6.53"/><rect class="cls-4" x="295.8" y="176.2" width="2.6" height="6.53"/><rect class="cls-4" x="300.5" y="176.2" width="2.6" height="6.53"/><rect class="cls-4" x="305.1" y="176.2" width="2.6" height="6.53"/><rect class="cls-4" x="309.8" y="176.2" width="2.6" height="6.53"/><rect class="cls-4" x="314.4" y="176.2" width="2.6" height="6.53"/><rect class="cls-4" x="319.1" y="176.2" width="2.6" height="6.53"/><rect class="cls-4" x="323.7" y="176.2" width="2.6" height="6.53"/><rect class="cls-4" x="328.4" y="176.2" width="2.6" height="6.53"/><rect class="cls-4" x="333" y="176.2" width="2.6" height="6.53"/><rect class="cls-4" x="337.7" y="176.2" width="2.6" height="6.53"/><rect class="cls-4" x="342.4" y="176.2" width="2.6" height="6.53"/><rect class="cls-4" x="347" y="176.2" width="2.6" height="6.53"/><rect class="cls-4" x="351.7" y="176.2" width="2.6" height="6.53"/><rect class="cls-4" x="356.3" y="176.2" width="2.6" height="6.53"/><circle class="cls-2" cx="340.7" cy="129.4" r="7.4"/><circle class="cls-3" cx="340.7" cy="129.4" r="4.6"/><path class="cls-7" d="M340.7,137.4a8,8,0,1,1,8-8A8,8,0,0,1,340.7,137.4Zm0-14.8a6.8,6.8,0,1,0,6.8,6.8A6.7,6.7,0,0,0,340.7,122.6Z"/><circle class="cls-2" cx="340.7" cy="101.3" r="7.4"/><circle class="cls-8" cx="340.7" cy="101.3" r="4.6"/><path class="cls-7" d="M340.7,109.3a8,8,0,1,1,8-8A8,8,0,0,1,340.7,109.3Zm0-14.8a6.8,6.8,0,1,0,6.8,6.8A6.7,6.7,0,0,0,340.7,94.5Z"/><circle class="cls-2" cx="340.7" cy="74.5" r="7.4"/><circle class="cls-4" cx="340.7" cy="74.5" r="4.6"/><path class="cls-7" d="M340.7,82.5a8,8,0,1,1,8-8A8,8,0,0,1,340.7,82.5Zm0-14.8a6.8,6.8,0,1,0,6.8,6.8A6.7,6.7,0,0,0,340.7,67.7Z"/><path class="cls-4" d="M385.3,184.1a4.3,4.3,0,0,1-4.3-4.3,4.4,4.4,0,0,1,4.3-4.3,4.3,4.3,0,0,1,4.3,4.3A4.3,4.3,0,0,1,385.3,184.1Zm0-7.7a3.5,3.5,0,1,0,3.4,3.4A3.4,3.4,0,0,0,385.3,176.4Z"/><circle class="cls-4" cx="401.3" cy="179.8" r="3.9"/></g></g></svg>