<svg xmlns="http://www.w3.org/2000/svg" viewBox="0 0 399.5 403.4"><defs><style>.cls-1{fill:#eee;}.cls-2{fill:#fff;}.cls-3{fill:#cdcdcd;}.cls-4{fill:#222;}.cls-5{fill:#faa;}.cls-6{fill:#e34;}.cls-7{fill:none;stroke:#eee;stroke-miterlimit:10;}</style></defs><g id="Capa_2" data-name="Capa 2"><g id="Layer_1" data-name="Layer 1"><path class="cls-1" d="M3.2,209.3C-13.3,58.8,30.7,82.9,206,27.2s175.2,84.5,189.7,189.7-4.6,146-193.6,179.2C25.8,427,19.7,359.9,3.2,209.3Z"/><path class="cls-2" d="M309.5,130.1s-.4-19.5-15.6-26.6-47.1-11-85.6-12.7c-91.4-4.1-123.2,19-123.2,19a177.4,177.4,0,0,0-3.9,19c-1.5,10.7-1.9,51.1-1.9,51.1l2.7,48,4,27.7,13.5,52.7,7.7,11.5-25.4,8.4L86,343.3s12.3,42.4,50.5,52.4,69.4.3,69.4.3,27.8-4.6,85.1-32.2,56.3-31.1,56.3-31.1l-23.9-9-34.9-35.8L280,273.1l2.4-41s14.8-12.4,20-29.6,9.6-41.1,8.6-51.1S309.5,130.1,309.5,130.1Z"/><path class="cls-3" d="M85.1,109.8S73.3,157,192.7,147.2s110-35.8,110-35.8-27-26.1-112.9-21.8S85.1,109.8,85.1,109.8Z"/><path class="cls-1" d="M156.1,362.7s6.5-13.4,11.4-14,42.2-17.4,48-23.6,44.7-27.1,45.3-36.7-.6-23.9,2.9-23.9,9.1,25,13.6,33.5,44.4,37.6,44.4,37.6L279,369.7,349.1,333l-32-12.2L283,284.9s-5.1-14.5-4.6-26.2,6.5-28.8,6.5-28.8c28.1-34.1,29.1-76.3,20.6-113.4,0,2.7-12.9,11.7-26.2,15.9-17.7,5.6-37.2,6.4-37.4,10s54.7-11.4,57.4,6c3.5,23.6-6.5,64.4-24.5,86.8,0,0-11.4,15.5-14.4,16.6a96.1,96.1,0,0,1-10,2.4s-9.4,26.6-11.6,29.4c-8.5,11.1-35.9,27.1-35.9,27.1s-21.8,14.7-43.7,18.3c-16.3,2.8-32.9-4.6-39.2-7.4a41.1,41.1,0,0,1-20-20l7.2,18.2,16.1,11,31.1,6.7Z"/><path class="cls-4" d="M169.9,402.3h-2.6c-41-.8-62.6-20.8-73.5-37.5a92.4,92.4,0,0,1-13.9-36.3,2,2,0,0,1,1.4-2.1l25.2-7.6a1.9,1.9,0,0,1,2.5,1.3,2,2,0,0,1-1.3,2.5l-23.5,7.1a90,90,0,0,0,13.1,33.1c15.1,22.9,38.6,34.9,70.1,35.5,68.4,1.4,158.9-53.3,177.3-64.9-4.6-1.7-12.5-4.8-19.7-7.9-11-4.7-36.2-34.1-38-36.2-10.1-10-11.3-29.4-3.5-59.3a3.1,3.1,0,0,1,.5-1c.1-.1,9.2-9,16.3-26.7s12.8-43.8,4.9-81.7a2.1,2.1,0,0,1,1.5-2.4,2.1,2.1,0,0,1,2.4,1.6c4.5,21.5,7.2,53.6-5.1,84.2-6.7,16.5-14.9,25.5-16.8,27.5-7.1,27.8-6.2,46.3,2.7,55h.1c.3.4,26.3,30.8,36.6,35.2s23.1,9.3,23.2,9.3a2.1,2.1,0,0,1,1.3,1.7,2.2,2.2,0,0,1-.9,1.9,607.6,607.6,0,0,1-62,34.3C256.1,384.3,209.8,402.3,169.9,402.3Z"/><path class="cls-4" d="M154.8,339.4c-23.8,0-47.1-11.7-53.3-23.9s-16.4-52.1-21-83.7c-.3-2.2-.6-10.9-.8-20.2s-.6-16.4-.8-18.8c-1.8-19-1.8-58.3,3-79.8a1.9,1.9,0,0,1,2.4-1.5,2.1,2.1,0,0,1,1.5,2.4c-4.7,21.1-4.7,59.8-2.9,78.5.2,2.5.5,10.6.8,19.1s.5,17.8.8,19.7c4.5,30.8,14.3,70.1,20.6,82.5,5.5,10.8,31.6,24.8,58.4,21.1,13.2-4.4,38.3-17.2,57.5-31a2,2,0,0,1,2.3,3.3c-19.6,14-45.2,27.1-58.7,31.6h-.4A74.2,74.2,0,0,1,154.8,339.4Z"/><path class="cls-4" d="M237,292.1a.9.9,0,0,1-.8-.4,1.1,1.1,0,0,1,.2-1.4c6.9-5.3,9.9-8,10.4-8.6s2.1-4.3,3.8-19.3c.5-4.7.8-8.5.9-8.5a.7.7,0,0,1,.4-.7.8.8,0,0,1,.8-.2c7,1.7,18.5-13.5,20.3-19.8s3.5-23.6-1.3-31.9a8,8,0,0,0-4.8-4c-10.8-2.7-17.4,11.1-17.4,11.2a1.1,1.1,0,1,1-1.9-.9,35.8,35.8,0,0,1,5.1-7.2c4.4-4.6,9.5-6.3,14.6-5a9.9,9.9,0,0,1,6.2,4.9c5.1,9,3.1,27.5,1.4,33.4s-12.6,21.4-21.1,21.4h-.4c-.2,1.5-.4,4.3-.8,7.5-1.3,11.4-2.7,18.3-4.2,20.3s-7.9,6.8-10.8,9Z"/><path class="cls-4" d="M126.6,266.6c-13.6,0-26.5-3.9-31.9-15.3a1.4,1.4,0,0,1,2.5-1.1c7.2,15.3,30.3,15.7,47.9,11.5a1.3,1.3,0,0,1,1.6.9,1.4,1.4,0,0,1-1,1.7A85.4,85.4,0,0,1,126.6,266.6Z"/><path class="cls-4" d="M143.4,214.6c0,6.9-1.3,16.5-3,16.5s-3-9.6-3-16.5,1.3-12.4,3-12.4S143.4,207.7,143.4,214.6Z"/><path class="cls-4" d="M96.2,197.9c0,6.1-1.2,15-2.6,15s-2.7-8.9-2.7-15,1.2-11.1,2.7-11.1S96.2,191.8,96.2,197.9Z"/><path class="cls-1" d="M89.9,235.9c-.6,2.3,1.8,3.5,5.8,4.3l9.2.3c3.1-.2,8.7-.9,8.7-3l-.9-38.1-3.3.7C106.2,200.7,89.9,235.9,89.9,235.9Z"/><path class="cls-5" d="M93.8,235.2c-.5,2.3,1.5,3.5,4.7,4.3l7.6.3c2.5-.2,7.1-.9,7.1-3l-.7-38.1-2.7.7C107.2,200,93.8,235.2,93.8,235.2Z"/><path class="cls-4" d="M305.2,115.4a2,2,0,0,1-2-2c0-8.5-38.7-21-108.7-21s-108.7,12.5-108.7,21a2,2,0,0,1-4,0c0-16.2,58.1-25,112.7-25s112.7,8.8,112.7,25A2,2,0,0,1,305.2,115.4Z"/><path class="cls-4" d="M252.5,218h-.4a1,1,0,0,1-.5-1.3c1.5-2.8,6.4-11.8,9.8-11.8s7.9,3.7,8.4,4.1a1,1,0,0,1-1.3,1.6c-1.2-1-4.9-3.7-7.1-3.7s-5.3,5.5-8,10.7A1.1,1.1,0,0,1,252.5,218Z"/><path class="cls-4" d="M155,364.4h-.3a1.3,1.3,0,0,1-1-1.6c2.3-8.9,1.7-16.5-2.1-23.5a1.4,1.4,0,0,1,.6-1.8,1.3,1.3,0,0,1,1.8.5c4,7.6,4.8,15.9,2.3,25.4A1.4,1.4,0,0,1,155,364.4Z"/><path class="cls-2" d="M192.7,147.2,182,137.3c21.3-18.2,38.6-38.1,48.1-61.2l46.7,17.5c-11.8,19.8-21.6,35.1-38.4,48"/><path class="cls-6" d="M192.7,148.2a.8.8,0,0,1-.7-.2l-10.7-10a.8.8,0,0,1-.3-.7.8.8,0,0,1,.4-.7c23.7-20.3,39.3-40.2,47.8-60.9a1,1,0,0,1,1.3-.5l46.6,17.5a.9.9,0,0,1,.6.6.8.8,0,0,1-.1.8c-11.9,20-21.6,35.2-38.6,48.3a1.1,1.1,0,0,1-1.4-.2.9.9,0,0,1,.2-1.4c16.4-12.6,26-27.3,37.5-46.7L230.7,77.4c-8.6,20.4-24,40-47.2,59.9l9.9,9.2a1,1,0,0,1,0,1.4A.9.9,0,0,1,192.7,148.2Z"/><circle class="cls-2" cx="114.3" cy="113.8" r="6"/><path class="cls-6" d="M114.3,120.7a7,7,0,1,1,7-6.9A7,7,0,0,1,114.3,120.7Zm0-11.9a5,5,0,1,0,5,5A4.9,4.9,0,0,0,114.3,108.8Z"/><polygon class="cls-2" points="188.1 78.7 184.7 88.6 195 97.4 196.2 84.4 188.1 78.7"/><path class="cls-6" d="M195,98.2l-.5-.2-10.2-8.8a.6.6,0,0,1-.2-.8l3.3-9.9a.7.7,0,0,1,.5-.4h.6l8.1,5.7a.7.7,0,0,1,.3.6l-1.2,13.1a.7.7,0,0,1-.4.6Zm-9.4-9.8,8.8,7.6,1-11.3-6.9-4.8Z"/><path class="cls-6" d="M259.4,68.2a1,1,0,0,1-.7-.4l-5.1-6a1.2,1.2,0,0,1,.1-1.5,1.1,1.1,0,0,1,1.5.2l5,6a1.1,1.1,0,0,1-.1,1.4A1.1,1.1,0,0,1,259.4,68.2Z"/><path class="cls-6" d="M267.5,78a.9.9,0,0,1-.8-.4l-5-6a1,1,0,0,1,1.5-1.3l5.1,6a1.1,1.1,0,0,1-.2,1.5Z"/><path class="cls-6" d="M262.8,68.5a.9.9,0,0,1-.7-.3,1,1,0,0,1,.1-1.4l6-5.1a1,1,0,0,1,1.3,1.6l-6,5A.8.8,0,0,1,262.8,68.5Z"/><path class="cls-6" d="M253,76.6a.9.9,0,0,1-.8-.4,1,1,0,0,1,.2-1.4l6-5a1,1,0,1,1,1.3,1.5l-6.1,5.1Z"/><path class="cls-4" d="M161.8,150.5c-27.7,0-54.3-4.2-69.2-17.3-9.1-8.1-10.1-16.5-10.1-19.8a1.3,1.3,0,0,1,1.3-1.3,1.3,1.3,0,0,1,1.4,1.3c0,2.9.9,10.4,9.2,17.7,12.6,11.1,42.4,22.4,113.7,13.5s95.8-21.9,95.8-31.2a1.3,1.3,0,0,1,1.3-1.3,1.3,1.3,0,0,1,1.4,1.3c0,13.7-35.8,26.1-98.1,33.9A387.8,387.8,0,0,1,161.8,150.5Z"/><path class="cls-6" d="M82.2,112.9H82a.7.7,0,0,1-.5-.8c.3-1.2.6-2.6,1-3.9a.8.8,0,0,1,.9-.4.6.6,0,0,1,.4.8c-.4,1.3-.7,2.6-1,3.8A.6.6,0,0,1,82.2,112.9Z"/><path class="cls-6" d="M88.1,96.5h-.3a.6.6,0,0,1-.3-.9c1.2-2.4,2.4-4.8,3.8-7.2a.7.7,0,0,1,.9-.2c.4.1.5.5.3.9-1.4,2.3-2.7,4.8-3.8,7.1A.7.7,0,0,1,88.1,96.5Zm214.2-.6a.5.5,0,0,1-.6-.4c-1-2.5-2-5-3.1-7.4a.6.6,0,0,1,.3-.9.7.7,0,0,1,.9.3c1.1,2.4,2.2,5,3.1,7.5a.6.6,0,0,1-.4.9Zm-203-18h-.4a.7.7,0,0,1-.2-.9c1.6-2.2,3.3-4.4,5-6.5a.7.7,0,0,1,1.1.9c-1.7,2.1-3.4,4.2-5,6.4C99.7,77.9,99.5,77.9,99.3,77.9Zm193.3-1.3a.5.5,0,0,1-.5-.3c-1.5-2.2-3.1-4.4-4.7-6.5a.8.8,0,0,1,.1-1,.6.6,0,0,1,.9.1c1.7,2.2,3.3,4.4,4.8,6.7a.7.7,0,0,1-.2.9ZM113.4,61.5c-.2,0-.4,0-.5-.2a.6.6,0,0,1,0-.9c1.9-1.9,4-3.8,6-5.6a.7.7,0,0,1,.9,1l-6,5.5A.4.4,0,0,1,113.4,61.5ZM278.8,60a.4.4,0,0,1-.4-.2c-2-1.8-4-3.6-6.1-5.2a.7.7,0,0,1-.1-1,.6.6,0,0,1,.9-.1c2.1,1.7,4.2,3.5,6.2,5.4a.6.6,0,0,1,0,.9ZM130,47.7a.5.5,0,0,1-.5-.3.6.6,0,0,1,.1-.9c2.3-1.6,4.6-3.1,6.9-4.4a.7.7,0,0,1,.9.2c.2.4.1.8-.2.9-2.3,1.4-4.6,2.8-6.8,4.4Zm131.5-.6h-.3c-2.3-1.4-4.7-2.7-7.1-3.9a.6.6,0,0,1-.3-.9.8.8,0,0,1,.9-.3c2.4,1.2,4.9,2.6,7.2,3.9a.7.7,0,0,1,.2.9A.7.7,0,0,1,261.5,47.1ZM241.9,38h-.2c-2.5-.8-5.1-1.7-7.7-2.4a.7.7,0,0,1-.5-.8.7.7,0,0,1,.9-.5c2.6.7,5.2,1.6,7.7,2.5a.5.5,0,0,1,.4.8A.6.6,0,0,1,241.9,38ZM149,37.3a.8.8,0,0,1-.7-.4.9.9,0,0,1,.4-.9c2.5-1,5.1-2,7.7-2.8a.7.7,0,0,1,.8.5.7.7,0,0,1-.4.8,77.7,77.7,0,0,0-7.6,2.8Zm72-4.8h-.1l-8-1.3a.7.7,0,0,1-.6-.7c0-.4.4-.6.8-.6,2.7.3,5.4.8,8,1.2a.8.8,0,0,1,.6.8A.9.9,0,0,1,221,32.5Zm-51.2-1a.7.7,0,0,1-.7-.6.6.6,0,0,1,.6-.7l1.4-.2,6.7-.7a.6.6,0,0,1,.7.6.7.7,0,0,1-.6.7l-6.6.7-1.4.2Zm29.7-1.4h-8.1a.7.7,0,0,1-.7-.7.7.7,0,0,1,.6-.7h1.2l7,.2a.6.6,0,0,1,.6.7A.6.6,0,0,1,199.5,30.1Z"/><path class="cls-6" d="M307.1,112.9c-.3,0-.5-.3-.6-.6l-.9-3.9a.7.7,0,0,1,.5-.8.8.8,0,0,1,.8.5l.9,4a.6.6,0,0,1-.5.7Z"/><path class="cls-2" d="M175.2,124.9,132,120.2s3.7-20.5-9.7-31.5-11.1-36.4-11.1-36.4l43.7,1.5s-7.4,23.6,9.2,32.2S175.2,124.9,175.2,124.9Z"/><path class="cls-6" d="M175.2,125.9h-.1l-43.2-4.7a.7.7,0,0,1-.7-.4.7.7,0,0,1-.2-.7c0-.2,3.4-20.2-9.3-30.6-5.6-4.6-9.4-12.5-10.9-22.9a74.7,74.7,0,0,1-.6-14.4,1.1,1.1,0,0,1,1-.9L155,52.8a.9.9,0,0,1,.8.4,1.4,1.4,0,0,1,.1.9c-.1.2-7,22.9,8.7,31,7.1,3.7,11.4,11.8,12.3,23.5a74,74,0,0,1-.7,16.5A1,1,0,0,1,175.2,125.9Zm-42.1-6.6,41.2,4.5c.8-5,3.5-29.6-10.6-36.9s-11.3-27-10.1-32.2l-41.5-1.4c-.2,4.7-.5,25.4,10.9,34.7S133.7,114.9,133.1,119.3Z"/><path class="cls-6" d="M157.8,92.5h0l-24.2-2.1a.5.5,0,0,1-.5-.5.4.4,0,0,1,.6-.4l24.2,2c.3,0,.5.2.4.5A.5.5,0,0,1,157.8,92.5Z"/><polygon class="cls-2" points="145.8 11.3 168.2 1 188.5 33.5 165.7 44.8 145.8 11.3"/><path class="cls-6" d="M165.7,45.8a1,1,0,0,1-.9-.5L144.9,11.8a1.1,1.1,0,0,1-.1-.8,1,1,0,0,1,.5-.6L167.8.1a1,1,0,0,1,1.3.4L189.4,33a1.1,1.1,0,0,1,.1.8,1,1,0,0,1-.5.6L166.2,45.7ZM147.2,11.7l18.9,31.8,21-10.4L167.8,2.3Z"/><path class="cls-2" d="M187.6,58.2a98.7,98.7,0,0,0,30.1-38.3l29.2,11c-5.6,15.4-13.6,29.3-31,37.7Z"/><path class="cls-6" d="M215.9,69.6h-.4L187.3,59.1a1,1,0,0,1-.7-.7,1.2,1.2,0,0,1,.4-1,98.6,98.6,0,0,0,29.8-37.9,1,1,0,0,1,1.3-.5l29.1,10.9a1,1,0,0,1,.6,1.3c-8.9,24.7-20.9,33.2-31.5,38.3ZM189.6,57.9l26.2,9.6c17.6-8.6,25-22.9,29.8-36.1L218.2,21.2A98.6,98.6,0,0,1,189.6,57.9Z"/><path class="cls-1" d="M217.9,106.6c4.9-6,9.5-14.2,13.5-22.3L267,98.9c-4.3,9.4-10.2,18.3-15.7,22.5Z"/><path class="cls-1" d="M187.2,136.9l6.8-6.7L213,144c-7,.9-13.9,1.8-17.1,1.9Z"/><path class="cls-1" d="M197.8,128c6.2-3.8,12.2-10.5,18.1-18.4l31.5,15.3-12,15.8-17.8,2.6Z"/><line class="cls-7" x1="152.5" y1="15.1" x2="166.9" y2="7.7"/><line class="cls-7" x1="157.3" y1="22.6" x2="171.7" y2="15.2"/><line class="cls-7" x1="162.1" y1="30.1" x2="176.5" y2="22.7"/><line class="cls-7" x1="166.9" y1="37.6" x2="181.3" y2="30.2"/><path class="cls-1" d="M84,329.7s15.8,1.2,17.9,1.9.5,15.9,9.8,20.4,41.1,2.8,41.1,2.8l.7,8.1s2.2-10.3.6-16.6-3-7.2-3-7.2-9.7,1.6-24.7-4.8S107,322.5,107,322.5Z"/><rect class="cls-1" x="228.6" y="21.8" width="1" height="19.29" transform="translate(121 235.9) rotate(-70)"/><rect class="cls-1" x="226.5" y="25.2" width="1" height="19.29" transform="translate(116.4 236.1) rotate(-70)"/><rect class="cls-1" x="220.1" y="34.4" width="1" height="19.29" transform="translate(103.6 236.2) rotate(-70)"/><rect class="cls-1" x="218.6" y="37.2" width="1" height="19.29" transform="translate(100 236.6) rotate(-70)"/><rect class="cls-1" x="208.3" y="48.7" width="1" height="19.29" transform="translate(82.5 234.5) rotate(-70)"/><rect class="cls-1" x="211.1" y="45.9" width="1" height="19.29" transform="translate(86.9 235.3) rotate(-70)"/></g></g></svg>