<?xml version="1.0" encoding="UTF-8" standalone="no"?>
<svg
   xmlns:dc="http://purl.org/dc/elements/1.1/"
   xmlns:cc="http://creativecommons.org/ns#"
   xmlns:rdf="http://www.w3.org/1999/02/22-rdf-syntax-ns#"
   xmlns:svg="http://www.w3.org/2000/svg"
   xmlns="http://www.w3.org/2000/svg"
   xmlns:xlink="http://www.w3.org/1999/xlink"
   xmlns:sodipodi="http://sodipodi.sourceforge.net/DTD/sodipodi-0.dtd"
   xmlns:inkscape="http://www.inkscape.org/namespaces/inkscape"
   version="1.1"
   width="792"
   height="612"
   id="svg25"
   viewBox="0 0 792 612"
   sodipodi:docname="logo project.cdr">
  <metadata
     id="metadata31">
    <rdf:RDF>
      <cc:Work
         rdf:about="">
        <dc:format>image/svg+xml</dc:format>
        <dc:type
           rdf:resource="http://purl.org/dc/dcmitype/StillImage" />
      </cc:Work>
    </rdf:RDF>
  </metadata>
  <defs
     id="defs29" />
  <sodipodi:namedview
     pagecolor="#ffffff"
     bordercolor="#666666"
     borderopacity="1"
     objecttolerance="10"
     gridtolerance="10"
     guidetolerance="10"
     inkscape:pageopacity="0"
     inkscape:pageshadow="2"
     inkscape:window-width="640"
     inkscape:window-height="480"
     id="namedview27" />
  <g
     id="Layer1000">
    <defs
       id="defs8">
      <linearGradient
         id="grad1">
        <stop
           offset="0%"
           stop-color="#e30079"
           stop-opacity="1.0000"
           id="stop2" />
        <stop
           offset="100%"
           stop-color="#ef83b2"
           stop-opacity="1.0000"
           id="stop4" />
      </linearGradient>
      <linearGradient
         xlink:href="#grad1"
         id="grad2"
         x1="0"
         y1="0"
         x2="0"
         y2="1"
         gradientTransform="rotate(180,0.5,0.5)"
         gradientUnits="objectBoundingBox" />
    </defs>
    <path
       d="m 631.0004,361.1596 c 0.3007,3.0874 0.8363,5.713 2.0802,8.8879 l 8.0275,19.7777 4.6712,41.4476 h -0.0158 l -8.9661,-48.478 c -2.0614,-7.6717 -5.2661,-13.7419 -5.8664,-21.3975 l -2.9407,10.0764 -20.9375,33.0383 -10.3043,19.9372 c -0.01,0.017 -0.0427,0.0975 -0.0708,0.0657 h 0.0159 l -0.005,-0.004 c -0.003,-0.002 0.003,-0.005 0.005,-0.007 l 7.4545,-16.3128 20.9901,-38.0546 14.1711,-39.7057 c -1.7459,2.8885 -3.6705,5.7582 -5.6238,8.7236 l -0.0147,-0.0114 c 2.3885,-3.9302 4.7421,-7.7793 6.7031,-11.695 l 2.5522,-7.1512 -1.3499,4.6257 c 3.1752,-7.0623 4.8501,-14.4385 2.9756,-22.9727 -1.4554,-6.6272 -6.3358,-11.0408 -5.4915,-18.1422 0.2194,-1.8472 0.8975,-3.4121 0.0532,-5.3538 -4.8392,-11.1258 -14.882,-18.0928 -18.0797,-30.1745 -2.2034,-8.3255 -1.9003,-16.1186 -1.6027,-24.5369 l -2.8027,-12.26 c -0.3676,-4.5555 2.5617,-10.9939 4.2398,-15.1447 l -1.3048,7.0202 c -0.0508,2.7058 1.1334,5.2819 1.1836,7.9875 l -0.6184,15.4227 -0.006,0.001 -0.6721,-2.94 c 0.007,10.5729 0.0524,21.4196 5.2133,31.0809 4.913,9.1976 15.1504,14.2781 18.5179,24.5131 1.1658,3.5443 -2.2119,6.3262 -1.2018,10.0828 1.6573,6.1634 4.6085,10.8201 4.7192,17.4052 0.1373,8.162 -2.4348,14.8385 -6.0764,21.2771 z m -25.81,-232.8536 c 1.3217,7.0945 2.4626,13.2236 -0.2039,20.225 -7.0728,18.5728 -30.5698,24.7091 -47.297,30.5855 1.9833,0.2047 3.9425,0.4633 5.7871,0.534 5.4878,0.2108 11.5399,-0.1152 17.3219,-1.4118 -1.7102,-0.6911 -2.9899,-1.9241 -4.2782,-3.2396 v -2e-4 c 1.4653,1.3869 3.099,2.3954 4.8551,3.1067 7.7425,-1.8296 14.9469,-5.4372 19.589,-11.8783 7.4588,-10.3497 13.2423,-27.4079 5.9598,-39.2257 -0.0912,-0.1486 -0.1878,-0.2917 -0.2887,-0.4296 3.171,3.5018 4.3671,8.2988 4.3705,13.7073 0.006,10.295 -3.1128,22.3589 -9.5501,30.6416 -3.5022,4.5061 -9.339,7.0075 -15.5789,8.3731 9.0387,1.3156 19.9588,-2.5027 28.0299,-3.1959 5.4291,-0.4666 12.679,-1.1116 16.8062,3.4535 5.0664,5.6038 3.4547,17.8225 2.451,24.5983 l -1.6195,5.1973 0.316,8.9687 c 0.5024,3.9303 1.9137,7.8265 1.4433,11.7608 -0.7746,6.4745 -5.7094,12.1765 -9.2816,17.2885 2.2028,-4.0536 4.9579,-8.1197 5.9074,-12.7221 l 0.4852,-16.1683 0.6635,-7.6317 -1.3075,4.1962 c 1.3749,-5.9258 2.1663,-11.9651 1.8139,-18.2241 -0.3962,-7.0404 -1.2537,-17.8431 -10.2119,-18.5932 -11.8373,-0.9917 -24.1485,3.0377 -35.8768,1.1538 -5.8611,1.2364 -12.0413,1.4913 -16.953,1.4765 -3.572,-0.0107 -7.5442,-1.0005 -11.4675,-1.5191 -0.1542,0.0546 -0.3084,0.1092 -0.461,0.1637 -4.351,1.5551 -9.2621,2.4395 -13.616,4.1641 -0.4202,0.5367 -0.7649,1.1555 -1.0138,1.8718 -4.9146,14.1505 8.3232,28.9192 13.1801,41.0784 5.4782,13.7144 6.9108,31.3067 16.1061,43.2152 4.4161,5.7182 15.7929,0.2869 20.7167,-1.0515 -3.1665,-11.4064 -12.7787,-18.2389 -20.1543,-26.7771 -8.963,-10.3761 -18.6696,-21.5934 -22.6108,-35.0485 l -1.9783,-13.9909 c 1.3395,9.3993 2.8707,18.1335 8.7172,26.0331 12.0506,16.2817 28.6792,27.6656 36.3217,47.1747 2.1872,5.5832 1.622,10.7635 -0.4209,15.6061 l 0.1995,-0.2461 c -0.0728,0.0979 -0.1461,0.1959 -0.2198,0.294 -1.1053,2.6065 -2.6375,5.115 -4.3991,7.5356 l -0.0103,-0.009 c 1.499,-2.2403 2.7753,-4.4053 3.7128,-6.6129 -1.5978,2.0657 -3.369,4.166 -5.1825,6.3164 l 5.2495,-6.4762 c 1.6349,-3.9222 2.1931,-7.9875 1.0212,-12.8549 -0.0744,-0.3093 -0.1547,-0.6147 -0.2385,-0.9173 -5.23,1.605 -16.4012,7.4257 -21.3176,1.6505 -2.1772,-2.5574 -3.8599,-5.4836 -5.1632,-8.5785 l -13.247,-34.2953 c -7.2109,-1.8353 -13.2205,-3.4782 -17.7812,-10.0128 -6.2278,-8.9232 -7.3701,-24.9591 1.8167,-32.5342 3.901,-3.2166 8.351,-5.5345 13.0865,-7.3793 -1.8877,-5.4317 -3.0378,-10.259 -1.728,-16.3283 3.5095,-16.2626 19.2393,-27.4666 33.6428,-33.4055 l 11.5255,-3.4372 -2.4252,-0.4939 c -7.9823,-0.7479 -14.9318,0.3549 -21.2269,5.4425 -1.4091,1.1383 -4.5595,5.7606 -7.0231,6.9504 l -0.0884,0.0364 -0.1903,0.0415 -0.0781,0.003 0.005,-7e-4 -0.1313,-0.0131 -0.1673,-0.0571 -0.0472,-0.0257 c -1.4349,-0.7455 2.0295,-4.7781 2.1226,-4.8933 5.2852,-6.5378 11.9474,-11.115 20.3098,-12.8592 5.2544,-1.0956 9.0352,-0.3078 14.1158,0.7742 v -2e-4 c -10.0786,-1.8754 -19.0896,-0.4754 -27.4231,6.0972 -2.08,1.64 -3.7774,3.509 -5.26,5.566 2.1616,-2.5057 4.4094,-4.974 7.2663,-6.5972 6.7616,-3.8408 19.0595,-5.2623 26.3482,-2.2022 2.347,0.9856 0.9969,3.9476 -0.7947,4.5574 -8.3483,2.8421 -16.7531,2.8541 -24.9255,7.0494 -10.9192,5.6054 -21.9696,15.1436 -25.035,27.5909 -1.4682,5.9645 -0.4483,10.7629 1.2792,16.1783 18.5214,-7.1931 41.3863,-7.1889 52.8714,-25.3861 4.9128,-7.7844 4.2185,-15.2808 2.8591,-23.9334 z m -62.8087,55.6068 c -4.0373,1.6981 -7.5362,4.2008 -9.5701,8.7619 -3.3228,7.451 -2.1793,17.7607 2.225,24.5222 4.2847,6.578 10.1755,8.3405 17.2169,10.346 l -10.9668,-28.3922 c -1.4999,-4.5139 -2.0097,-11.1609 1.095,-15.2379 z m 53.9822,-60.6088 0.0748,-0.0449 0.1301,-0.1195 0.0274,-0.0838 -0.1183,0.0212 z m 0.2197,2.0557 0.1233,0.1014 0.0958,0.0531 -0.1375,-0.1246 z m 5.3856,-2.2574 c 0.5098,0.2521 0.9936,0.5212 1.4536,0.8066 -0.4807,-0.2801 -0.9706,-0.5436 -1.4536,-0.8064 z m 1.4537,0.8064 c 1.2428,0.7719 2.3082,1.6649 3.2126,2.6634 -0.8411,-1.1506 -1.9976,-1.957 -3.2127,-2.6632 z m 26.348,91.1306 -7.2548,23.2812 c 2.5697,-7.7255 5.4273,-15.4026 7.2548,-23.2812 z m -7.2548,23.2812 -0.1594,0.5115 -0.009,-0.005 z m -11.2469,159.873 4.0782,5.8144 c 1.6112,1.9081 4.113,3.2778 4.9282,5.6386 1.7524,5.0729 1.537,10.5907 2.031,15.9353 h -0.0218 l -7.8908,-20.842 z m -22.4087,-53.354 -5.5369,37.3478 0.2083,44.1062 h -0.0138 l -3.3484,-44.1062 z M 586.015,290.063 c 1.3233,6.7307 3.4341,13.1626 2.1456,19.8573 2.9844,-3.9894 7.3006,-7.0369 11.015,-10.2539 -2.38,2.5025 -5.5446,5.2014 -7.9066,8.2679 l 14.2525,-2.7397 c 11.364,-6.1426 23.6004,-10.3576 36.7238,-7.1832 l 0.4546,0.1192 0.656,0.3534 0.0268,0.0273 -0.0199,-0.0199 3e-4,0.001 0.3187,0.7677 -0.0257,-0.2327 0.0262,0.2357 v 0.001 0.001 c -0.3282,0.9305 -0.6078,1.028 -1.4679,1.1156 l -31.4522,4.7114 c -5.4513,2.3161 -10.7033,5.127 -15.6694,7.9606 -2.013,1.1487 -4.9818,3.5606 -7.7305,4.6423 -0.948,4.9642 -1.4083,10.6536 -0.7621,15.1572 0.5589,3.8974 2.6064,6.3801 4.7546,9.492 l -0.009,0.009 c -5.4678,-6.5179 -8.7754,-15.908 -6.866,-24.4369 -0.0838,-0.1393 -0.1078,-0.3133 -0.0334,-0.4996 l 0.5099,-1.2655 c 0.3192,-1.0109 0.7177,-2.0055 1.1996,-2.9776 l 1.6897,-4.1941 c 1.0398,-6.4332 -0.7942,-12.6153 -1.8304,-18.9175 z m 1.762,25.6416 6.5724,-3.8647 c 3.0853,-1.9527 6.2422,-3.8969 9.4695,-5.7072 l -12.6174,1.8902 c -1.2949,1.6961 -2.3411,3.5043 -2.8714,5.4541 -0.1932,0.7107 -0.3786,1.456 -0.5531,2.2276 z m 27.4654,-12.3785 5.1607,-0.9919 10.1728,-2.5817 c -5.2104,0.4597 -10.3423,1.7645 -15.3335,3.5736 z m 27.1041,-5.0946 0.0102,-4e-4 -0.001,-0.002 z m -56.3835,-9.1812 c -2.2187,2.6323 -4.499,5.3377 -6.6006,8.1439 z m -6.6006,8.1439 c -4.6234,6.174 -8.3769,12.8341 -8.6805,20.257 -0.2402,5.8764 2.2803,8.5799 5.3725,13.1502 4.4733,6.612 5.8034,15.6326 8.1866,23.1285 l -0.009,0.004 c -3.131,-8.1742 -5.0661,-17.1886 -10.9459,-23.838 -5.3127,-6.0068 -7.9368,-12.717 -3.9818,-20.2914 z m -10.4208,-91.0752 9.1475,24.0017 c 9.6633,16.1682 28.1501,26.0346 31.4016,46.0438 1.1158,6.8661 -1.4799,12.572 -3.5483,18.8819 l -0.0173,-0.008 c 2.1212,-7.6064 5.2424,-16.3394 1.1009,-24.0556 L 591.2577,251.7404 576.9565,230.759 Z m 9.2482,-3.5569 c 0.3009,7.8138 -0.7286,16.7429 2.6828,24.0011 3.1345,6.6685 9.2829,8.9529 15.4593,12.2746 l -0.004,0.0104 c -6.5002,-2.63 -18.4031,-5.846 -19.6311,-14.3781 z"
       style="fill:url(#grad2)"
       id="path10" />
    <defs
       id="defs20">
      <linearGradient
         id="grad3">
        <stop
           offset="0.0000%"
           stop-color="#024066"
           stop-opacity="1.0000"
           id="stop12" />
        <stop
           offset="25.0000%"
           stop-color="#136191"
           stop-opacity="1.0000"
           id="stop14" />
        <stop
           offset="100.0000%"
           stop-color="#43b4e7"
           stop-opacity="1.0000"
           id="stop16" />
      </linearGradient>
      <linearGradient
         xlink:href="#grad3"
         id="grad4"
         x1="0"
         y1="0"
         x2="0"
         y2="1"
         gradientTransform="rotate(180,0.5,0.5)"
         gradientUnits="objectBoundingBox" />
    </defs>
    <path
       d="m 264.5203,372.5712 c 0,7.911 -0.1066,16.7745 -4.1098,26.5909 -4.3837,10.6742 -9.9597,19.4431 -16.726,26.3051 -7.911,7.8156 -16.3935,11.7226 -25.4474,11.7226 -9.5312,0 -18.1563,-4.4794 -25.8763,-13.4383 -6.9573,-8.1012 -10.4361,-15.9161 -10.4361,-23.4457 0,-4.0981 4.0031,-9.7216 12.009,-16.8694 5.9091,-5.3371 13.3903,-11.0085 22.4452,-17.0125 7.7199,-5.0514 12.1036,-7.72 13.1516,-8.0056 -14.9632,-19.9193 -27.7815,-38.0277 -38.4564,-54.3255 -8.9584,-13.725 -14.9155,-22.3975 -17.8699,-26.0197 -18.254,-22.5839 -33.1178,-19.5348 -26.162,-46.0332 4.7435,-18.1868 5.088,-23.9835 19.1293,-11.1749 19.5937,17.8766 61.6433,79.581 76.5116,103.0991 15.8212,24.8757 21.8372,41.0782 21.8372,48.6071 z M 693.2488,486.349 c -0.0766,-2.4456 0.3438,-6.3049 0.7261,-8.3304 L 696,468.1601 c -1.6814,-0.535 -4.2796,-1.0317 -6.6935,-1.0317 -9.6931,0 -13.6671,6.6869 -13.6671,12.9537 0,4.0887 2.4455,6.6872 5.8082,6.6872 1.9807,0 4.3053,-0.879 5.9101,-3.6683 h 0.1147 c -0.0383,1.0698 -0.1147,2.1779 -0.1911,3.248 z m -5.3561,-10.4319 c -0.8024,4.4327 -2.4011,5.6171 -3.5856,5.6171 -1.1081,0 -1.8661,-0.917 -1.8661,-2.6748 0,-2.7513 2.0191,-6.8399 5.0314,-6.8399 0.344,0 0.8024,0.0383 1.2227,0.1146 z m -31.8945,10.4319 h 16.0873 l 1.0317,-5.2734 h -8.1009 l 0.0383,-0.0764 c 1.8341,-1.5284 3.1716,-2.7895 4.8147,-4.509 l 4.6617,-4.8528 0.7644,-4.0887 h -15.1702 l -1.0318,5.2732 h 7.375 l -0.0764,0.0763 c -2.0254,1.7198 -3.2862,2.9042 -4.853,4.5091 l -4.853,5.044 z m -2.4455,-5.7701 c -1.6048,0.7643 -3.401,1.1464 -5.3115,1.1464 -1.4904,0 -2.6368,-0.344 -3.3626,-0.9935 -0.344,-0.344 -0.5733,-0.8024 -0.6497,-1.2227 7.719,0.2293 11.9986,-1.7195 11.9986,-6.4198 0,-3.8211 -3.0569,-5.9609 -6.9928,-5.9609 -7.0693,0 -11.1962,5.7698 -11.1962,11.5016 0,5.2351 3.0188,8.101 8.5596,8.101 1.8722,0 4.8147,-0.2674 7.3366,-1.4901 z m -3.401,-7.4896 c 0,1.1847 -1.3757,1.7578 -5.3497,1.7197 0.191,-1.2228 1.3374,-2.9806 3.6683,-2.9806 1.0701,0 1.6814,0.5731 1.6814,1.2228 z m -17.0807,13.2597 5.1968,-27.1306 h -6.4959 l -5.197,27.1306 z m -10.7375,0 5.1967,-27.1306 h -6.4959 l -5.197,27.1306 z m -10.2409,-5.7701 c -1.6048,0.7643 -3.4009,1.1464 -5.3114,1.1464 -1.4904,0 -2.6368,-0.344 -3.3626,-0.9935 -0.344,-0.344 -0.5733,-0.8024 -0.6497,-1.2227 7.7189,0.2293 11.9986,-1.7195 11.9986,-6.4198 0,-3.8211 -3.0569,-5.9609 -6.9929,-5.9609 -7.0692,0 -11.1962,5.7698 -11.1962,11.5016 0,5.2351 3.0189,8.101 8.5597,8.101 1.8722,0 4.8147,-0.2674 7.3366,-1.4901 z m -3.4009,-7.4896 c 0,1.1847 -1.3757,1.7578 -5.3497,1.7197 0.191,-1.2228 1.3374,-2.9806 3.6683,-2.9806 1.07,0 1.6814,0.5731 1.6814,1.2228 z m -35.8048,12.954 c 1.2994,0.2674 3.783,0.4967 6.9929,0.4967 4.6237,0 8.0626,-0.6497 10.3171,-2.1016 2.1401,-1.3757 3.7067,-3.3245 3.7067,-6.1904 0,-2.6749 -1.4521,-4.7384 -3.974,-5.5788 v -0.0767 c 2.7131,-0.8407 5.0057,-2.7129 5.0057,-5.9991 0,-2.4075 -1.5285,-4.1651 -3.4773,-5.0058 -1.8724,-0.9171 -3.8593,-1.1847 -6.5725,-1.1847 -2.7129,0 -5.3495,0.2676 -7.2983,0.6497 z m 10.3174,-20.4434 c 0.3821,-0.1146 1.0698,-0.153 1.9488,-0.153 1.7959,0 3.1333,0.6878 3.1333,2.2546 0,1.8341 -1.7195,2.8276 -4.4326,2.8276 h -1.6049 z m -1.9488,9.6675 h 1.3374 c 2.4073,0 4.3944,0.535 4.3944,2.8279 0,2.3308 -2.3309,3.3626 -4.9677,3.3626 -0.8024,0 -1.3755,0 -1.9105,-0.0766 z m -19.4882,5.3115 c -1.6048,0.7643 -3.4009,1.1464 -5.3115,1.1464 -1.4904,0 -2.6368,-0.344 -3.3626,-0.9935 -0.344,-0.344 -0.5733,-0.8024 -0.6497,-1.2227 7.719,0.2293 11.9987,-1.7195 11.9987,-6.4198 0,-3.8211 -3.057,-5.9609 -6.9929,-5.9609 -7.0692,0 -11.1962,5.7698 -11.1962,11.5016 0,5.2351 3.0188,8.101 8.5596,8.101 1.8722,0 4.8147,-0.2674 7.3366,-1.4901 z m -3.4009,-7.4896 c 0,1.1847 -1.3758,1.7578 -5.3498,1.7197 0.191,-1.2228 1.3375,-2.9806 3.6683,-2.9806 1.0701,0 1.6815,0.5731 1.6815,1.2228 z m -18.3801,-13.8709 -1.6432,8.3303 c -0.8151,-0.3056 -1.6558,-0.4203 -2.2291,-0.4203 -7.2857,0 -11.9093,5.9609 -11.9093,12.457 0,4.853 2.9042,7.1839 5.9228,7.1839 1.9808,0 4.2289,-0.7643 5.8721,-3.1716 h 0.0763 l -0.191,2.7513 h 5.9675 c 0.1144,-2.4075 0.4203,-5.2734 0.917,-7.8717 l 3.6684,-19.2589 z m -3.4137,17.8068 c -0.6877,3.3246 -2.1781,4.509 -3.3945,4.509 -1.1081,0 -2.1716,-0.8024 -2.1716,-3.0569 0,-3.0189 1.8278,-6.4195 4.6108,-6.4195 0.726,0 1.4521,0.2674 1.8341,0.573 z m -37.3203,8.1393 c 1.1844,0.9171 3.6302,1.4902 6.1521,1.5665 5.3878,0.0383 9.2474,-2.3692 9.2474,-6.8016 0,-2.8278 -2.4838,-4.2033 -4.509,-5.197 -1.4521,-0.6494 -2.1782,-1.2228 -2.1782,-1.7195 0,-0.7641 0.8025,-1.1464 2.0635,-1.1464 1.7578,0 3.1333,0.4204 3.974,0.8027 l 1.4902,-4.5474 c -0.9934,-0.535 -2.7893,-0.9934 -5.1968,-0.9934 -5.1968,0 -8.8651,2.6366 -8.8651,6.7635 0,2.4836 2.0635,4.0504 4.2034,5.0821 1.6431,0.7261 2.2545,1.2611 2.2545,1.9489 0,0.6113 -0.5733,1.1081 -1.8725,1.1081 -1.9105,0 -4.0886,-0.8025 -5.2351,-1.3375 z m -12.3426,1.6048 c 6.5725,0 11.5399,-4.6237 11.5399,-11.9222 0,-4.4325 -3.2096,-7.7187 -8.2537,-7.7187 -6.9165,0 -11.5782,5.2351 -11.5782,11.8456 0,4.8911 3.4389,7.7953 8.2537,7.7953 z m 0.8407,-4.9294 c -1.5285,0 -2.3692,-1.1464 -2.3692,-2.9805 0,-2.2929 1.1464,-6.8016 3.974,-6.8016 1.6814,0 2.3309,1.2991 2.3309,2.8659 0,2.6746 -1.2228,6.9162 -3.8977,6.9162 z m -27.1689,12.075 1.5285,-7.9099 h 0.0764 c 0.6497,0.4203 1.9488,0.7643 3.2482,0.7643 6.6872,0 10.8522,-5.8848 10.8522,-12.3807 0,-4.0123 -2.1018,-7.2602 -6.1522,-7.2602 -2.1335,0 -4.267,0.9551 -5.7191,2.8276 h -0.0764 l 0.2674,-2.5985 h -5.8145 c -0.2293,1.9488 -0.6877,5.5027 -1.1081,7.7189 l -3.5919,18.8385 z m 3.108,-16.431 c 0.5733,-3.0189 1.9488,-5.0824 3.8149,-5.0824 1.4138,0 1.9425,1.2228 1.9425,2.5222 0,3.1716 -1.8278,6.9545 -4.267,6.9545 -0.8791,0 -1.5285,-0.3057 -2.0635,-0.8407 z m -12.4317,8.8651 3.5539,-18.8003 h -6.4962 l -3.5536,18.8003 z m 0.9937,-20.711 c 1.9488,0 3.7063,-1.2611 3.7063,-3.5156 0,-1.8342 -1.3371,-3.0186 -3.1332,-3.0186 -1.9106,0 -3.6303,1.4138 -3.6303,3.5156 0,1.8722 1.2994,3.0186 3.0189,3.0186 z m -14.7118,1.9107 -1.5668,8.3301 c -0.6877,3.5539 -2.1781,5.6171 -3.8593,5.6171 -1.0701,0 -1.4138,-0.8024 -1.4138,-1.6811 0,-0.6497 0.1144,-1.6051 0.2674,-2.3692 l 1.8724,-9.8969 h -6.5344 l -1.9869,10.4319 c -0.2293,1.3374 -0.3821,2.5219 -0.3821,3.5919 0,3.248 1.5285,5.1968 4.7765,5.1968 2.1781,0 4.356,-0.8407 6.4195,-3.2862 h 0.0766 l -0.3057,2.8659 h 5.7318 c 0.2674,-1.7578 0.5731,-3.8977 1.0698,-6.4196 l 2.3309,-12.3807 z m -20.4053,26.3662 4.8147,-25.7167 c -2.1015,-0.4967 -4.5471,-1.0698 -7.3749,-1.0698 -9.2091,0 -13.1067,6.5342 -13.1067,12.4187 0,4.509 2.5602,7.2222 5.8847,7.2222 2.0252,0 4.1268,-0.879 5.5025,-2.8659 h 0.0764 l -2.2926,10.0115 z m -3.248,-17.0807 c -0.6497,3.2099 -2.2164,4.7 -3.6683,4.7 -1.1464,0 -1.9871,-0.9553 -1.9871,-2.8276 0,-2.7895 1.7578,-6.6488 4.7764,-6.6488 0.688,0 1.2611,0.0763 1.7578,0.3057 z m -14.5207,-6.4196 h -9.1328 l 0.8408,-4.2799 h 9.6294 l 1.07,-5.5408 h -16.1639 l -4.891,25.7551 h 16.6986 l 1.0701,-5.5408 h -10.2028 l 0.9554,-4.8911 h 9.0564 z m -29.6908,10.1643 c -1.6048,0.7643 -3.4009,1.1464 -5.3114,1.1464 -1.4904,0 -2.6368,-0.344 -3.3626,-0.9935 -0.344,-0.344 -0.5734,-0.8024 -0.6497,-1.2227 7.7189,0.2293 11.9986,-1.7195 11.9986,-6.4198 0,-3.8211 -3.0569,-5.9609 -6.9929,-5.9609 -7.0692,0 -11.1962,5.7698 -11.1962,11.5016 0,5.2351 3.0189,8.101 8.5597,8.101 1.8722,0 4.8147,-0.2674 7.3366,-1.4901 z m -3.4009,-7.4896 c 0,1.1847 -1.3757,1.7578 -5.3497,1.7197 0.191,-1.2228 1.3374,-2.9806 3.6683,-2.9806 1.07,0 1.6814,0.5731 1.6814,1.2228 z m -18.3801,-13.8709 -1.6431,8.3303 c -0.8151,-0.3056 -1.6559,-0.4203 -2.2292,-0.4203 -7.2856,0 -11.9093,5.9609 -11.9093,12.457 0,4.853 2.9042,7.1839 5.9228,7.1839 1.9808,0 4.229,-0.7643 5.8721,-3.1716 h 0.0764 l -0.1911,2.7513 h 5.9675 c 0.1144,-2.4075 0.4204,-5.2734 0.9171,-7.8717 l 3.6683,-19.2589 z m -3.4136,17.8068 c -0.6878,3.3246 -2.1782,4.509 -3.3946,4.509 -1.1081,0 -2.1716,-0.8024 -2.1716,-3.0569 0,-3.0189 1.8279,-6.4195 4.6108,-6.4195 0.726,0 1.4521,0.2674 1.8342,0.573 z m -23.6086,9.3238 c -0.0766,-2.4456 0.3437,-6.3049 0.726,-8.3304 l 2.0252,-9.8585 c -1.6814,-0.535 -4.2797,-1.0317 -6.6935,-1.0317 -9.6931,0 -13.6671,6.6869 -13.6671,12.9537 0,4.0887 2.4455,6.6872 5.8081,6.6872 1.9808,0 4.3054,-0.879 5.9102,-3.6683 h 0.1146 c -0.0383,1.0698 -0.1146,2.1779 -0.191,3.248 z m -5.3561,-10.4319 c -0.8024,4.4327 -2.4011,5.6171 -3.5856,5.6171 -1.1081,0 -1.8661,-0.917 -1.8661,-2.6748 0,-2.7513 2.0191,-6.8399 5.0313,-6.8399 0.344,0 0.8025,0.0383 1.2228,0.1146 z m -21.0804,10.4319 1.1845,-6.4196 c 0.6497,-3.4392 1.9871,-6.4578 5.8084,-6.4578 0.3057,0 0.6114,0 0.8788,0 l 1.2611,-6.3052 c -0.344,-0.038 -0.7261,-0.038 -1.0701,-0.038 -2.5982,0 -4.7381,1.7195 -6.1138,4.165 h -0.1147 c 0.1147,-1.2228 0.191,-2.4838 0.2674,-3.7447 h -5.6171 c -0.1911,1.5666 -0.4204,5.0058 -0.9552,8.0244 l -2.0635,10.7759 z m -19.4118,0.4203 c 6.5725,0 11.5399,-4.6237 11.5399,-11.9222 0,-4.4325 -3.2096,-7.7187 -8.2537,-7.7187 -6.9165,0 -11.5782,5.2351 -11.5782,11.8456 0,4.8911 3.439,7.7953 8.2537,7.7953 z m 0.8407,-4.9294 c -1.5285,0 -2.3692,-1.1464 -2.3692,-2.9805 0,-2.2929 1.1464,-6.8016 3.974,-6.8016 1.6815,0 2.3309,1.2991 2.3309,2.8659 0,2.6746 -1.2228,6.9162 -3.8976,6.9162 z m -15.4378,-22.6215 -1.6432,8.3303 c -0.8151,-0.3056 -1.6558,-0.4203 -2.2291,-0.4203 -7.2857,0 -11.9093,5.9609 -11.9093,12.457 0,4.853 2.9042,7.1839 5.9228,7.1839 1.9808,0 4.2289,-0.7643 5.8721,-3.1716 h 0.0763 l -0.191,2.7513 h 5.9675 c 0.1144,-2.4075 0.4203,-5.2734 0.9171,-7.8717 l 3.6683,-19.2589 z m -3.4137,17.8068 c -0.6877,3.3246 -2.1781,4.509 -3.3945,4.509 -1.1081,0 -2.1716,-0.8024 -2.1716,-3.0569 0,-3.0189 1.8278,-6.4195 4.6108,-6.4195 0.726,0 1.4521,0.2674 1.8341,0.573 z m -17.2973,9.3238 3.5539,-18.8003 h -6.4962 l -3.5536,18.8003 z m 0.9937,-20.711 c 1.9488,0 3.7063,-1.2611 3.7063,-3.5156 0,-1.8342 -1.3372,-3.0186 -3.1333,-3.0186 -1.9105,0 -3.6302,1.4138 -3.6302,3.5156 0,1.8722 1.2994,3.0186 3.0189,3.0186 z m -14.7118,1.9107 -1.5668,8.3301 c -0.6878,3.5539 -2.1782,5.6171 -3.8593,5.6171 -1.0701,0 -1.4138,-0.8024 -1.4138,-1.6811 0,-0.6497 0.1144,-1.6051 0.2673,-2.3692 l 1.8725,-9.8969 h -6.5345 l -1.9868,10.4319 c -0.2294,1.3374 -0.3821,2.5219 -0.3821,3.5919 0,3.248 1.5285,5.1968 4.7764,5.1968 2.1782,0 4.3561,-0.8407 6.4196,-3.2862 h 0.0766 l -0.3057,2.8659 h 5.7318 c 0.2674,-1.7578 0.5731,-3.8977 1.0698,-6.4196 l 2.3309,-12.3807 z m -31.5632,-8.3303 -3.7447,18.4565 c -0.2676,1.2228 -0.4587,2.4072 -0.4587,3.6683 -0.0383,3.2863 2.1018,5.4261 7.0693,5.4261 8.7887,0 12.7246,-6.9165 12.7246,-13.145 0,-3.3626 -1.8341,-6.4959 -5.6554,-6.4959 -2.2162,0 -4.2033,0.9171 -5.4261,2.1779 h -0.0764 l 2.0635,-10.0879 z m 3.0188,17.5775 c 0.5348,-2.7896 2.1399,-4.3944 3.7447,-4.3944 1.3374,0 1.9871,1.0701 1.9871,2.6749 0,2.9042 -1.9871,6.8018 -4.4709,6.8018 -0.9935,0 -1.6812,-0.6113 -1.7195,-1.7578 -0.0764,-0.726 0.0763,-1.3757 0.191,-1.9871 z m -12.4573,9.5531 3.5539,-18.8003 h -6.4961 l -3.5537,18.8003 z m 0.9937,-20.711 c 1.9489,0 3.7064,-1.2611 3.7064,-3.5156 0,-1.8342 -1.3372,-3.0186 -3.1333,-3.0186 -1.9105,0 -3.6302,1.4138 -3.6302,3.5156 0,1.8722 1.2993,3.0186 3.0188,3.0186 z m -15.9345,20.711 1.1844,-6.4196 c 0.6497,-3.4392 1.9872,-6.4578 5.8084,-6.4578 0.3057,0 0.6114,0 0.8788,0 l 1.2611,-6.3052 c -0.344,-0.038 -0.7261,-0.038 -1.0701,-0.038 -2.5982,0 -4.7381,1.7195 -6.1138,4.165 h -0.1147 c 0.1147,-1.2228 0.191,-2.4838 0.2674,-3.7447 h -5.6171 c -0.1911,1.5666 -0.4204,5.0058 -0.9552,8.0244 l -2.0634,10.7759 z m -15.5523,-22.3158 -0.6497,3.5155 h -2.2926 l -0.9553,4.9292 h 2.2928 l -1.2994,6.5725 c -0.2674,1.4521 -0.3821,2.4455 -0.3821,3.4773 0,2.5221 1.7578,4.2033 5.3115,4.2033 1.2611,0 2.7895,-0.1527 3.5919,-0.4584 l 0.8407,-5.0824 c -0.535,0.0383 -1.07,0.0383 -1.5284,0.0383 -1.1847,0 -1.5285,-0.6496 -1.5285,-1.4521 0,-0.535 0.1527,-1.5284 0.2674,-2.1398 l 1.0701,-5.1587 h 3.821 l 0.9554,-4.9292 h -3.8213 l 0.9937,-5.3497 z m -22.0865,21.1313 c 1.1845,0.9171 3.6303,1.4902 6.1522,1.5665 5.3878,0.0383 9.2474,-2.3692 9.2474,-6.8016 0,-2.8278 -2.4839,-4.2033 -4.5091,-5.197 -1.4521,-0.6494 -2.1781,-1.2228 -2.1781,-1.7195 0,-0.7641 0.8024,-1.1464 2.0635,-1.1464 1.7578,0 3.1333,0.4204 3.974,0.8027 l 1.4901,-4.5474 c -0.9934,-0.535 -2.7893,-0.9934 -5.1967,-0.9934 -5.1968,0 -8.8651,2.6366 -8.8651,6.7635 0,2.4836 2.0635,4.0504 4.2033,5.0821 1.6431,0.7261 2.2545,1.2611 2.2545,1.9489 0,0.6113 -0.5733,1.1081 -1.8724,1.1081 -1.9105,0 -4.0887,-0.8025 -5.2351,-1.3375 z m -3.7066,1.1845 3.5539,-18.8003 h -6.4962 l -3.5536,18.8003 z m 0.9937,-20.711 c 1.9488,0 3.7064,-1.2611 3.7064,-3.5156 0,-1.8342 -1.3372,-3.0186 -3.1333,-3.0186 -1.9105,0 -3.6303,1.4138 -3.6303,3.5156 0,1.8722 1.2994,3.0186 3.0189,3.0186 z M 96,485.9669 c 1.1081,0.2674 3.9359,0.5731 7.3749,0.5731 5.8848,0 9.6294,-1.0318 12.6483,-3.3626 3.1716,-2.4456 5.3495,-6.6109 5.3495,-11.7313 0,-4.0503 -1.4519,-6.6869 -3.821,-8.5211 -2.3312,-1.7577 -5.4645,-2.5221 -9.3621,-2.5221 -2.5985,0 -5.1204,0.191 -7.4513,0.5733 z m 10.4318,-20.2526 c 0.4204,-0.0763 0.9554,-0.1144 1.8342,-0.1144 3.7449,0 5.9994,1.9869 5.9994,5.8462 0,2.8659 -0.8024,5.1971 -2.2928,7.0312 -1.4902,1.7959 -3.974,2.7896 -6.4959,2.7896 -0.9554,0 -1.5668,-0.0384 -1.9872,-0.1147 z m 142.8277,-64.6939 c 0,-5.6227 -2.1442,-12.628 -6.433,-21.0149 -12.0851,-21.982 -25.5607,-10.9078 -27.8779,3.1452 0,7.0522 2.2872,13.105 6.862,18.1564 5.0514,5.5273 11.58,8.2912 19.5864,8.2912 3.0498,0 5.1224,-0.6669 6.2191,-2.0016 1.0959,-1.3339 1.6434,-3.5265 1.6434,-6.5763 z m 46.8912,26.5909 c -5.6227,5.7184 -11.1508,8.578 -16.5835,8.578 -4.765,0 -8.3869,-2.4783 -10.8647,-7.4343 -1.8113,-3.5265 -2.7162,-7.1477 -2.7162,-10.8652 0,-8.1958 1.1913,-14.5342 3.5734,-19.0133 4.0512,-8.2573 22.7973,-44.1892 21.6591,-18.5138 -0.238,5.385 -0.3575,8.4587 -0.3575,9.221 0,0.3813 -0.0477,1.3339 -0.1423,2.8596 0,1.4295 0,2.6685 0,3.7167 0,10.96 3.5734,16.4404 10.7218,16.4404 10.6363,0.2223 4.1622,5.2701 -5.2901,15.0109 z m 21.7612,-88.7951 c 11.248,-18.0093 -16.1375,-16.492 -18.9428,-13.6712 -4.7104,3.7124 -11.8565,20.939 -7.5101,24.8603 5.7272,6.1166 20.8442,-2.2046 26.4529,-11.1891 z m 79.957,83.8744 c -18.651,9.015 -35.2987,13.0697 -45.1045,13.0697 -9.7218,0 -18.871,-3.6688 -27.4489,-11.0078 -9.0538,-7.625 -13.5816,-16.2501 -13.5816,-25.876 0,-4.0988 5.6714,-10.4841 17.0125,-19.1569 9.2448,-7.053 20.1579,-14.2014 32.7383,-21.4447 11.9133,-6.7665 19.0143,-10.1497 21.3015,-10.1497 2.5732,0 5.5281,1.1905 8.8636,3.5734 3.3357,2.3829 5.0037,4.4322 5.0037,6.1474 0,4.289 -6.9576,11.58 -20.8726,21.8736 -11.1508,8.3871 -19.5379,13.9145 -25.1614,16.5838 3.2408,7.7191 8.8159,13.8672 16.7268,18.442 6.5764,3.8121 12.8668,5.7183 18.871,5.7183 3.716,0 7.7842,-0.0358 11.318,-0.274 -4.9454,-42.5798 13.4764,-153.2638 15.2362,-178.4283 1.0401,-15.8627 -1.2502,-26.907 -1.2502,-35.1688 0,-18.5351 9.7254,-34.2495 25.0181,-43.0311 25.9516,-15.1378 24.7258,-9.8941 18.0922,18.2799 -6.7151,28.5113 -11.712,46.19 -16.6619,74.2155 -6.0659,34.1326 -19.3185,98.6573 -16.4412,130.6672 0.5723,-0.5713 9.1502,-8.9112 25.7337,-25.018 16.1814,-15.895 30.6987,-29.5885 39.7436,-2.0016 0.7623,3.1452 1.1436,9.2925 1.1436,18.4425 0,20.2049 -7.482,35.3114 -22.4452,45.3186 -12.1998,8.1969 -27.5919,12.2947 -46.1765,12.2947 -2.2873,0 -9.7208,2.1434 -14.2955,1.0951 -3.8099,-0.831 -6.1347,-6.0063 -7.3633,-14.1648 z m -34.6683,-43.2574 c 0,-1.1586 -7.4858,-13.8166 -13.4383,-4.2888 -1.2393,2.0969 -1.859,3.7652 -1.859,5.0034 0,1.2393 0.2864,2.9791 0.8577,5.2186 0.5723,2.2396 0.858,3.6929 0.858,4.3606 3.0498,-1.43 6.0758,-2.9311 9.0779,-4.5037 3.0026,-1.5728 4.5037,-3.5026 4.5037,-5.7901 z m 99.5015,29.3071 c 0,-3.9075 -2.4306,-9.9117 -7.2909,-18.0127 -10.1498,-18.2168 -18.835,-11.8053 -34.3109,10.1505 -14.7446,21.4685 0.5685,27.5882 14.5103,23.0883 3.6691,-1.096 6.2189,-1.6444 7.6484,-1.6444 2.5732,0 6.1951,-1.1913 10.8652,-3.5742 5.7184,-2.9545 8.5779,-6.2899 8.5779,-10.0075 z m 68.3354,27.02 c -10.5273,-1.4988 -18.871,-3.6688 -27.449,-11.0078 -9.0538,-7.625 -13.5813,-16.2501 -13.5813,-25.876 0,-4.0988 5.6711,-10.4841 17.0125,-19.1569 9.2448,-7.053 20.1579,-14.2014 32.7382,-21.4447 10.1437,-5.7617 19.3581,-14.297 30.1652,-6.5763 3.3354,2.3829 5.0037,4.4322 5.0037,6.1474 0,4.289 -6.9576,11.58 -20.8726,21.8736 -11.1511,8.3871 -19.5379,13.9145 -25.1617,16.5838 3.2409,7.7191 8.8159,13.8672 16.7269,18.442 6.5763,3.8121 12.867,5.7183 18.871,5.7183 10.6832,0 14.5887,-3.3289 15.399,-2.0269 2.8504,4.5767 -36.1217,18.0764 -48.8519,17.3235 z m 10.4364,-56.3271 c 0,-1.1586 -7.4858,-13.8166 -13.4386,-4.2888 -1.239,2.0969 -1.859,3.7652 -1.859,5.0034 0,1.2393 0.2864,2.9791 0.858,5.2186 0.572,2.2396 0.8579,3.6929 0.8579,4.3606 3.0499,-1.43 6.0756,-2.9311 9.0777,-4.5037 3.0029,-1.5728 4.504,-3.5026 4.504,-5.7901 z"
       style="fill:url(#grad4)"
       id="path22" />
  </g>
</svg>
